<?xml version="1.0" encoding="UTF-8"?>
<svg width="20px" height="20px" viewBox="0 0 20 20" version="1.1" xmlns="http://www.w3.org/2000/svg" xmlns:xlink="http://www.w3.org/1999/xlink">
    <title>应用认证</title>
    <g id="应用认证" stroke="none" stroke-width="1" fill-rule="evenodd">
        <path d="M8.16666667,10.4722222 C8.9183969,10.4722222 9.52777778,11.0816031 9.52777778,11.8333333 L9.52777778,11.8333333 L9.52777778,14.8888889 C9.52777778,15.6406191 8.9183969,16.25 8.16666667,16.25 L8.16666667,16.25 L5.11111111,16.25 C4.35938862,16.25 3.75,15.6406177 3.75,14.8888889 L3.75,14.8888889 L3.75,11.8333333 C3.75,11.0816045 4.35938862,10.4722222 5.11111111,10.4722222 L5.11111111,10.4722222 Z M14.8888889,10.4722222 C15.6406191,10.4722222 16.25,11.0816031 16.25,11.8333333 L16.25,11.8333333 L16.25,14.8888889 C16.25,15.6406191 15.6406191,16.25 14.8888889,16.25 L14.8888889,16.25 L11.8333333,16.25 C11.0816031,16.25 10.4722222,15.6406191 10.4722222,14.8888889 L10.4722222,14.8888889 L10.4722222,11.8333333 C10.4722222,11.0816031 11.0816031,10.4722222 11.8333333,10.4722222 L11.8333333,10.4722222 Z M8.027,11.972 L5.25,11.972 L5.25,14.749 L8.027,14.749 L8.027,11.972 Z M14.749,11.972 L11.972,11.972 L11.972,14.749 L14.749,14.749 L14.749,11.972 Z M8.16666667,3.75 C8.91839547,3.75 9.52777778,4.35938862 9.52777778,5.11111111 L9.52777778,5.11111111 L9.52777778,8.16666667 C9.52777778,8.9183969 8.9183969,9.52777778 8.16666667,9.52777778 L8.16666667,9.52777778 L5.11111111,9.52777778 C4.35938862,9.52777778 3.75,8.91839547 3.75,8.16666667 L3.75,8.16666667 L3.75,5.11111111 C3.75,4.35939005 4.35939005,3.75 5.11111111,3.75 L5.11111111,3.75 Z M13.3611111,3.75 C14.9566016,3.75 16.25,5.04339971 16.25,6.63888889 C16.25,8.23438023 14.9566025,9.52777778 13.3611111,9.52777778 C11.7656198,9.52777778 10.4722222,8.23438023 10.4722222,6.63888889 C10.4722222,5.04339971 11.7656207,3.75 13.3611111,3.75 Z M8.027,5.25 L5.25,5.25 L5.25,8.027 L8.027,8.027 L8.027,5.25 Z M13.3611111,5.25 C12.5940481,5.25 11.9722222,5.87182651 11.9722222,6.63888889 C11.9722222,7.4059531 12.5940469,8.02777778 13.3611111,8.02777778 C14.1281753,8.02777778 14.75,7.4059531 14.75,6.63888889 C14.75,5.87182651 14.1281741,5.25 13.3611111,5.25 Z" id="形状结合" fill-rule="nonzero"></path>
    </g>
</svg>