<svg xmlns="http://www.w3.org/2000/svg" xmlns:xlink="http://www.w3.org/1999/xlink" version="1.1" width="14" height="14" viewBox="0 0 14 14"><defs><clipPath id="master_svg0_3_16335"><rect x="-0.6000000238418579" y="-0.6000000238418579" width="15.200000047683716" height="15.200000047683716" rx="0"/></clipPath><clipPath id="master_svg1_3_16337"><rect x="1.399999976158142" y="1.899999976158142" width="11.200000047683716" height="10.200000047683716" rx="0"/></clipPath></defs><g clip-path="url(#master_svg0_3_16335)"><g clip-path="url(#master_svg1_3_16337)"><path d="M11.473684166815186,2.89999998L9.894736766815186,2.89999998Q9.835641923815185,2.89999998,9.777682576815186,2.91152883Q9.719723226815185,2.92305768,9.665126706815185,2.94567227Q9.610530196815185,2.9682869,9.561394636815185,3.00111824Q9.512259066815185,3.03394955,9.470472696815186,3.07573593Q9.428686346815185,3.1175223,9.395855006815186,3.16665785Q9.363023696815185,3.21579343,9.340409096815186,3.27038994Q9.317794446815185,3.324986454,9.306265596815186,3.3829458039Q9.294736746815186,3.440905154,9.294736746815186,3.5Q9.294736746815186,3.55909485,9.306265596815186,3.6170541800000002Q9.317794446815185,3.67501351,9.340409096815186,3.72961003Q9.363023696815185,3.78420654,9.395855036815185,3.8333421100000002Q9.428686346815185,3.8824777,9.470472696815186,3.92426407Q9.512259066815185,3.96605045,9.561394636815185,3.9988817599999997Q9.610530196815185,4.03171313,9.665126706815185,4.05432773Q9.719723226815185,4.07694232,9.777682576815186,4.08847117Q9.835641923815185,4.1000000199999995,9.894736766815186,4.1000000199999995L11.473684166815186,4.1000000199999995Q11.532778966815185,4.1000000199999995,11.590738266815185,4.08847123Q11.648697566815185,4.07694232,11.703294066815186,4.05432773Q11.757890566815185,4.03171313,11.807026166815186,3.9988818200000003Q11.856161666815186,3.96605045,11.897948066815186,3.92426407Q11.939734466815185,3.8824777,11.972565866815186,3.83334213Q12.005397366815185,3.78420654,12.028011766815185,3.72961003Q12.050626466815185,3.67501351,12.062155466815184,3.61705419Q12.073684166815186,3.55909485,12.073684166815186,3.5Q12.073684166815186,3.440905154,12.062155266815186,3.3829458039Q12.050626466815185,3.324986454,12.028011766815185,3.27038994Q12.005397366815185,3.21579343,11.972565666815186,3.16665787Q11.939734466815185,3.1175223,11.897948066815186,3.07573593Q11.856161666815186,3.03394955,11.807026166815186,3.00111824Q11.757890566815185,2.9682869,11.703294066815186,2.94567227Q11.648697566815185,2.92305768,11.590738266815185,2.91152883Q11.532778966815185,2.89999998,11.473684166815186,2.89999998Z"/><path d="M7.189473541358643,2.5L7.189473541358643,4.5Q7.189473571358643,4.5590947,7.201002421358643,4.6170539999999995Q7.212531241358643,4.6750131,7.235145871358642,4.7296097Q7.257760491358643,4.7842064,7.290591801358643,4.8333417999999995Q7.323423151358643,4.8824775,7.365209491358643,4.924264Q7.406995861358642,4.9660501,7.456131441358643,4.9988813Q7.505266991358643,5.0317128,7.559863507358642,5.054327499999999Q7.614460017358643,5.0769421999999995,7.672419369358643,5.0884709Q7.730378717358643,5.0999999,7.789473561358642,5.0999999Q7.848568391358643,5.0999999,7.906527731358643,5.0884709Q7.964487071358643,5.0769421999999995,8.019083561358643,5.054327499999999Q8.073680071358643,5.0317128,8.122815641358642,4.9988813Q8.171951171358643,4.9660501,8.213737611358642,4.924264Q8.255523921358643,4.8824775,8.288355291358643,4.8333417999999995Q8.321186661358643,4.7842064,8.343801261358642,4.7296097Q8.366415861358643,4.6750131,8.377944711358642,4.6170539999999995Q8.389473561358642,4.5590947,8.389473561358642,4.5L8.389473561358642,2.5Q8.389473561358642,2.440905157,8.377944711358642,2.38294581Q8.366415861358643,2.32498646,8.343801261358642,2.27038994Q8.321186661358643,2.21579343,8.288355291358643,2.16665787Q8.255523921358643,2.1175223,8.213737611358642,2.07573593Q8.171951171358643,2.03394958,8.122815641358642,2.00111824Q8.073680071358643,1.96828693,8.019083561358643,1.9456723299999998Q7.964487071358643,1.9230576799999999,7.906527741358643,1.91152883Q7.848568391358643,1.89999998,7.789473561358642,1.89999998Q7.730378717358643,1.89999998,7.672419367358643,1.91152883Q7.614460017358643,1.9230576799999999,7.559863507358642,1.9456723299999998Q7.505266991358643,1.96828693,7.456131431358642,2.00111827Q7.406995861358642,2.03394958,7.365209491358643,2.07573593Q7.323423151358643,2.1175223,7.290591831358642,2.16665787Q7.257760491358643,2.21579343,7.235145871358642,2.27038994Q7.212531241358643,2.32498646,7.201002391358642,2.38294581Q7.189473571358643,2.440905157,7.189473541358643,2.5Z"/><path d="M7.7894735,2.89999998L2,2.89999998Q1.940905157,2.89999998,1.88294581,2.91152883Q1.82498646,2.92305768,1.77038994,2.94567227Q1.71579343,2.9682869,1.6666578699999999,3.00111824Q1.6175223,3.03394955,1.57573593,3.07573593Q1.53394958,3.1175223,1.50111824,3.16665785Q1.46828693,3.21579343,1.4456723299999998,3.27038994Q1.4230576799999999,3.324986454,1.41152883,3.3829458039Q1.39999998,3.440905154,1.39999998,3.5Q1.39999998,3.55909485,1.41152883,3.6170541800000002Q1.4230576799999999,3.67501351,1.4456723299999998,3.72961003Q1.46828693,3.78420654,1.50111827,3.8333421100000002Q1.53394958,3.8824777,1.57573593,3.92426407Q1.6175223,3.96605045,1.6666578699999999,3.9988817599999997Q1.71579343,4.03171313,1.77038994,4.05432773Q1.82498646,4.07694232,1.88294581,4.08847117Q1.940905157,4.1000000199999995,2,4.1000000199999995L7.7894735,4.1000000199999995Q7.848568,4.1000000199999995,7.906527,4.08847123Q7.9644861,4.07694232,8.019083,4.05432773Q8.073679,4.03171313,8.1228147,3.9988818200000003Q8.171950299999999,3.96605045,8.213737,3.92426407Q8.255523199999999,3.8824777,8.2883544,3.83334213Q8.3211861,3.78420654,8.3438005,3.72961003Q8.366415,3.67501351,8.377944,3.61705419Q8.389472999999999,3.55909485,8.3894734,3.5Q8.389472999999999,3.440905154,8.377944,3.3829458039Q8.366415,3.324986454,8.3438005,3.27038994Q8.3211861,3.21579343,8.2883544,3.16665787Q8.255523199999999,3.1175223,8.213737,3.07573593Q8.171950299999999,3.03394955,8.1228147,3.00111824Q8.073679,2.9682869,8.0190825,2.94567227Q7.9644861,2.92305768,7.906527,2.91152883Q7.848568,2.89999998,7.7894735,2.89999998Z"/><path d="M4.1052632,6.39999998L2,6.39999998Q1.940905157,6.39999998,1.88294581,6.41152883Q1.82498646,6.42305768,1.77038994,6.44567227Q1.71579343,6.4682869,1.6666578699999999,6.50111824Q1.6175223,6.53394955,1.57573593,6.5757359300000005Q1.53394958,6.6175223,1.50111824,6.66665785Q1.46828693,6.71579343,1.4456723299999998,6.77038994Q1.4230576799999999,6.824986454,1.41152883,6.8829458039Q1.39999998,6.940905154,1.39999998,7Q1.39999998,7.05909485,1.41152883,7.11705418Q1.4230576799999999,7.17501351,1.4456723299999998,7.22961003Q1.46828693,7.28420654,1.50111827,7.33334211Q1.53394958,7.3824777,1.57573593,7.4242640699999995Q1.6175223,7.46605045,1.6666578699999999,7.49888176Q1.71579343,7.53171313,1.77038994,7.55432773Q1.82498646,7.57694232,1.88294581,7.58847117Q1.940905157,7.6000000199999995,2,7.6000000199999995L4.1052632,7.6000000199999995Q4.164357900000001,7.6000000199999995,4.2223172,7.58847123Q4.280276300000001,7.57694232,4.334873,7.55432773Q4.3894696,7.53171313,4.4386051,7.49888182Q4.4877405,7.46605045,4.5295269000000005,7.4242640699999995Q4.5713134,7.3824777,4.6041446,7.33334213Q4.636976000000001,7.28420654,4.6595905,7.22961003Q4.6822052,7.17501351,4.6937339,7.11705419Q4.7052631,7.05909485,4.7052631,7Q4.7052631,6.940905154,4.6937342,6.8829458039Q4.6822052,6.824986454,4.6595905,6.77038994Q4.636976000000001,6.71579343,4.6041446,6.66665787Q4.5713134,6.6175223,4.5295269000000005,6.5757359300000005Q4.4877405,6.53394955,4.4386051,6.50111824Q4.3894696,6.4682869,4.334873,6.44567227Q4.280276300000001,6.42305768,4.2223172,6.41152883Q4.164357900000001,6.39999998,4.1052632,6.39999998Z"/><path d="M5.610526474097901,6L5.610526474097901,8Q5.6105265040979,8.0590947,5.622055354097901,8.117054Q5.6335841740979005,8.175013100000001,5.6561988040979,8.229609700000001Q5.678813424097901,8.2842064,5.7116447340979,8.3333418Q5.744476084097901,8.3824775,5.786262424097901,8.424264Q5.8280487940979,8.4660501,5.877184374097901,8.4988813Q5.926319924097901,8.531712800000001,5.9809164400979,8.5543275Q6.035512950097901,8.5769422,6.093472302097901,8.5884709Q6.1514316500979005,8.5999999,6.2105264940979,8.5999999Q6.2696213240979,8.5999999,6.3275806640979,8.5884709Q6.3855400040979005,8.5769422,6.4401364940979,8.5543275Q6.494733004097901,8.531712800000001,6.543868574097901,8.4988813Q6.593004104097901,8.4660501,6.634790544097901,8.424264Q6.676576854097901,8.3824775,6.7094082240979,8.3333418Q6.7422395940979,8.2842064,6.7648541940979,8.229609700000001Q6.787468794097901,8.175013100000001,6.7989976440979,8.117054Q6.810526494097901,8.0590947,6.810526494097901,8L6.810526494097901,6Q6.810526494097901,5.940905157,6.7989976440979,5.88294581Q6.787468794097901,5.82498646,6.7648541940979,5.77038994Q6.7422395940979,5.71579343,6.7094082240979,5.66665787Q6.676576854097901,5.6175223,6.634790544097901,5.5757359300000005Q6.593004104097901,5.53394958,6.543868574097901,5.50111824Q6.494733004097901,5.46828693,6.4401364940979,5.44567233Q6.3855400040979005,5.42305768,6.3275806740979,5.41152883Q6.2696213240979,5.3999999800000005,6.2105264940979,5.3999999800000005Q6.1514316500979005,5.3999999800000005,6.0934723000979005,5.41152883Q6.035512950097901,5.42305768,5.9809164400979,5.44567233Q5.926319924097901,5.46828693,5.8771843640979,5.50111827Q5.8280487940979,5.53394958,5.786262424097901,5.5757359300000005Q5.744476084097901,5.6175223,5.7116447640979,5.66665787Q5.678813424097901,5.71579343,5.6561988040979,5.77038994Q5.6335841740979005,5.82498646,5.6220553240979,5.88294581Q5.6105265040979,5.940905157,5.610526474097901,6Z"/><path d="M11.999999966369629,6.39999998L6.210526466369629,6.39999998Q6.151431623369629,6.39999998,6.093472276369629,6.41152883Q6.035512926369629,6.42305768,5.980916406369629,6.44567227Q5.926319896369629,6.4682869,5.877184336369629,6.50111824Q5.828048766369629,6.53394955,5.786262396369629,6.5757359300000005Q5.744476046369629,6.6175223,5.711644706369629,6.66665785Q5.678813396369629,6.71579343,5.656198796369629,6.77038994Q5.633584146369629,6.824986454,5.622055296369629,6.8829458039Q5.610526446369629,6.940905154,5.610526446369629,7Q5.610526446369629,7.05909485,5.622055296369629,7.11705418Q5.633584146369629,7.17501351,5.656198796369629,7.22961003Q5.678813396369629,7.28420654,5.711644736369629,7.33334211Q5.744476046369629,7.3824777,5.786262396369629,7.4242640699999995Q5.828048766369629,7.46605045,5.877184336369629,7.49888176Q5.926319896369629,7.53171313,5.980916406369629,7.55432773Q6.035512926369629,7.57694232,6.093472276369629,7.58847117Q6.151431623369629,7.6000000199999995,6.210526466369629,7.6000000199999995L11.999999966369629,7.6000000199999995Q12.05909446636963,7.6000000199999995,12.11705346636963,7.58847123Q12.17501256636963,7.57694232,12.229609466369629,7.55432773Q12.28420546636963,7.53171313,12.333341166369628,7.49888182Q12.382476766369628,7.46605045,12.424263466369629,7.4242640699999995Q12.466049666369628,7.3824777,12.498880866369628,7.33334213Q12.53171256636963,7.28420654,12.55432696636963,7.22961003Q12.576941466369629,7.17501351,12.588470466369628,7.11705419Q12.599999466369628,7.05909485,12.599999866369629,7Q12.599999466369628,6.940905154,12.588470466369628,6.8829458039Q12.576941466369629,6.824986454,12.55432696636963,6.77038994Q12.53171256636963,6.71579343,12.498880866369628,6.66665787Q12.466049666369628,6.6175223,12.424263466369629,6.5757359300000005Q12.382476766369628,6.53394955,12.333341166369628,6.50111824Q12.28420546636963,6.4682869,12.229608966369629,6.44567227Q12.17501256636963,6.42305768,12.11705346636963,6.41152883Q12.05909446636963,6.39999998,11.999999966369629,6.39999998Z"/><path d="M11.473684166815186,9.89999998L9.894736766815186,9.89999998Q9.835641923815185,9.89999998,9.777682576815186,9.91152883Q9.719723226815185,9.92305768,9.665126706815185,9.94567227Q9.610530196815185,9.9682869,9.561394636815185,10.00111824Q9.512259066815185,10.033949549999999,9.470472696815186,10.07573593Q9.428686346815185,10.1175223,9.395855006815186,10.16665785Q9.363023696815185,10.21579343,9.340409096815186,10.27038994Q9.317794446815185,10.324986454,9.306265596815186,10.3829458039Q9.294736746815186,10.440905154,9.294736746815186,10.5Q9.294736746815186,10.55909485,9.306265596815186,10.61705418Q9.317794446815185,10.67501351,9.340409096815186,10.72961003Q9.363023696815185,10.78420654,9.395855036815185,10.83334211Q9.428686346815185,10.8824777,9.470472696815186,10.92426407Q9.512259066815185,10.966050450000001,9.561394636815185,10.99888176Q9.610530196815185,11.03171313,9.665126706815185,11.05432773Q9.719723226815185,11.07694232,9.777682576815186,11.08847117Q9.835641923815185,11.10000002,9.894736766815186,11.10000002L11.473684166815186,11.10000002Q11.532778966815185,11.10000002,11.590738266815185,11.08847123Q11.648697566815185,11.07694232,11.703294066815186,11.05432773Q11.757890566815185,11.03171313,11.807026166815186,10.99888182Q11.856161666815186,10.966050450000001,11.897948066815186,10.92426407Q11.939734466815185,10.8824777,11.972565866815186,10.83334213Q12.005397366815185,10.78420654,12.028011766815185,10.72961003Q12.050626466815185,10.67501351,12.062155466815184,10.61705419Q12.073684166815186,10.55909485,12.073684166815186,10.5Q12.073684166815186,10.440905154,12.062155266815186,10.3829458039Q12.050626466815185,10.324986454,12.028011766815185,10.27038994Q12.005397366815185,10.21579343,11.972565666815186,10.16665787Q11.939734466815185,10.1175223,11.897948066815186,10.07573593Q11.856161666815186,10.033949549999999,11.807026166815186,10.00111824Q11.757890566815185,9.9682869,11.703294066815186,9.94567227Q11.648697566815185,9.92305768,11.590738266815185,9.91152883Q11.532778966815185,9.89999998,11.473684166815186,9.89999998Z"/><path d="M7.189473541358643,9.5L7.189473541358643,11.5Q7.189473571358643,11.5590947,7.201002421358643,11.617054Q7.212531241358643,11.675013100000001,7.235145871358642,11.729609700000001Q7.257760491358643,11.7842064,7.290591801358643,11.8333418Q7.323423151358643,11.8824775,7.365209491358643,11.924264Q7.406995861358642,11.9660501,7.456131441358643,11.9988813Q7.505266991358643,12.031712800000001,7.559863507358642,12.0543275Q7.614460017358643,12.0769422,7.672419369358643,12.0884709Q7.730378717358643,12.0999999,7.789473561358642,12.0999999Q7.848568391358643,12.0999999,7.906527731358643,12.0884709Q7.964487071358643,12.0769422,8.019083561358643,12.0543275Q8.073680071358643,12.031712800000001,8.122815641358642,11.9988813Q8.171951171358643,11.9660501,8.213737611358642,11.924264Q8.255523921358643,11.8824775,8.288355291358643,11.8333418Q8.321186661358643,11.7842064,8.343801261358642,11.729609700000001Q8.366415861358643,11.675013100000001,8.377944711358642,11.617054Q8.389473561358642,11.5590947,8.389473561358642,11.5L8.389473561358642,9.5Q8.389473561358642,9.440905157,8.377944711358642,9.38294581Q8.366415861358643,9.32498646,8.343801261358642,9.27038994Q8.321186661358643,9.21579343,8.288355291358643,9.16665787Q8.255523921358643,9.1175223,8.213737611358642,9.07573593Q8.171951171358643,9.03394958,8.122815641358642,9.00111824Q8.073680071358643,8.96828693,8.019083561358643,8.94567233Q7.964487071358643,8.92305768,7.906527741358643,8.91152883Q7.848568391358643,8.89999998,7.789473561358642,8.89999998Q7.730378717358643,8.89999998,7.672419367358643,8.91152883Q7.614460017358643,8.92305768,7.559863507358642,8.94567233Q7.505266991358643,8.96828693,7.456131431358642,9.00111827Q7.406995861358642,9.03394958,7.365209491358643,9.07573593Q7.323423151358643,9.1175223,7.290591831358642,9.16665787Q7.257760491358643,9.21579343,7.235145871358642,9.27038994Q7.212531241358643,9.32498646,7.201002391358642,9.38294581Q7.189473571358643,9.440905157,7.189473541358643,9.5Z"/><path d="M7.7894735,9.89999998L2,9.89999998Q1.940905157,9.89999998,1.88294581,9.91152883Q1.82498646,9.92305768,1.77038994,9.94567227Q1.71579343,9.9682869,1.6666578699999999,10.00111824Q1.6175223,10.033949549999999,1.57573593,10.07573593Q1.53394958,10.1175223,1.50111824,10.16665785Q1.46828693,10.21579343,1.4456723299999998,10.27038994Q1.4230576799999999,10.324986454,1.41152883,10.3829458039Q1.39999998,10.440905154,1.39999998,10.5Q1.39999998,10.55909485,1.41152883,10.61705418Q1.4230576799999999,10.67501351,1.4456723299999998,10.72961003Q1.46828693,10.78420654,1.50111827,10.83334211Q1.53394958,10.8824777,1.57573593,10.92426407Q1.6175223,10.966050450000001,1.6666578699999999,10.99888176Q1.71579343,11.03171313,1.77038994,11.05432773Q1.82498646,11.07694232,1.88294581,11.08847117Q1.940905157,11.10000002,2,11.10000002L7.7894735,11.10000002Q7.848568,11.10000002,7.906527,11.08847123Q7.9644861,11.07694232,8.019083,11.05432773Q8.073679,11.03171313,8.1228147,10.99888182Q8.171950299999999,10.966050450000001,8.213737,10.92426407Q8.255523199999999,10.8824777,8.2883544,10.83334213Q8.3211861,10.78420654,8.3438005,10.72961003Q8.366415,10.67501351,8.377944,10.61705419Q8.389472999999999,10.55909485,8.3894734,10.5Q8.389472999999999,10.440905154,8.377944,10.3829458039Q8.366415,10.324986454,8.3438005,10.27038994Q8.3211861,10.21579343,8.2883544,10.16665787Q8.255523199999999,10.1175223,8.213737,10.07573593Q8.171950299999999,10.033949549999999,8.1228147,10.00111824Q8.073679,9.9682869,8.0190825,9.94567227Q7.9644861,9.92305768,7.906527,9.91152883Q7.848568,9.89999998,7.7894735,9.89999998Z"/></g></g></svg>
