<svg xmlns="http://www.w3.org/2000/svg" xmlns:xlink="http://www.w3.org/1999/xlink" version="1.1" width="14" height="14" viewBox="0 0 14 14"><defs><clipPath id="master_svg0_3_5410"><rect x="-0.6000000238418579" y="-0.6000000238418579" width="15.200000047683716" height="15.200000047683716" rx="0"/></clipPath><clipPath id="master_svg1_3_5412"><rect x="0.3999999761581421" y="1.399999976158142" width="13.200000047683716" height="11.200000047683716" rx="0"/></clipPath></defs><g clip-path="url(#master_svg0_3_5410)"><g clip-path="url(#master_svg1_3_5412)"><path d="M12.400001047683716,9.647058918660736L12.400001047683716,6.411764818660735Q12.400001047683716,6.352669618660736,12.388472047683717,6.294710318660736Q12.376943047683715,6.236751018660736,12.354327047683716,6.182154618660736Q12.331712047683716,6.127557918660736,12.298881047683716,6.0784225186607355Q12.266050047683716,6.0292868186607365,12.224263047683715,5.987500618660736Q12.182477247683716,5.945714218660736,12.133341047683716,5.912882718660736Q12.084205847683716,5.880051518660736,12.029609947683715,5.8574371186607355Q11.975013047683715,5.834822618660736,11.917054447683716,5.823293818660736Q11.859094847683716,5.811764918660736,11.800000447683717,5.811764918660736Q11.740905047683716,5.811764918660736,11.682944547683716,5.8232936186607365Q11.624985947683715,5.834822318660736,11.570389047683715,5.8574368186607355Q11.515792147683715,5.880051518660736,11.466656947683715,5.912882718660736Q11.417521747683717,5.945714218660736,11.375735547683716,5.987500618660736Q11.333949347683715,6.0292868186607365,11.301117147683716,6.0784225186607355Q11.268285947683715,6.127557918660736,11.245671547683715,6.182154618660736Q11.223057047683715,6.236751018660736,11.211528047683716,6.294710318660736Q11.200000047683716,6.352669618660736,11.200000047683716,6.411764818660735L11.200000047683716,9.047059018660736L2.800000067683716,9.047059018660736L2.800000067683716,3.470588268660736Q2.800000067683716,3.188235338660736,3.100000027683716,3.188235338660736L6.399999847683715,3.188235338660736Q6.459094247683716,3.188235338660736,6.517053847683716,3.176706488660736Q6.575012947683716,3.165177638660736,6.629609347683716,3.1425629886607362Q6.684206247683716,3.119948388660736,6.733341447683716,3.087117048660736Q6.782477147683716,3.0542857386607363,6.824263347683716,3.012499388660736Q6.866049547683716,2.970713018660736,6.898881147683716,2.921577448660736Q6.931712347683716,2.872441888660736,6.954326847683716,2.8178453786607363Q6.976941347683716,2.763248858660736,6.988470347683716,2.7052895086607363Q6.999999247683716,2.647330161660736,6.999999747683716,2.588235318660736Q6.999999247683716,2.529140475660736,6.988470347683716,2.471181128660736Q6.976941347683716,2.413221778660736,6.954326847683716,2.358625258660736Q6.931712347683716,2.3040287486607363,6.898881147683716,2.254893188660736Q6.866050047683716,2.205757618660736,6.824263847683715,2.163971248660736Q6.782477647683716,2.122184898660736,6.733341447683716,2.089353558660736Q6.684206247683716,2.056522248660736,6.629609347683716,2.033907648660736Q6.575012947683716,2.011292998660736,6.517053847683716,1.999764148660736Q6.459094247683716,1.9882352986607361,6.399999847683715,1.9882352986607361L3.100000027683716,1.9882352986607361Q2.4821527876837157,1.9882352986607361,2.0435640176837158,2.418219338660736Q1.6000000276837159,2.853080958660736,1.6000000276837159,3.470588268660736L1.6000000276837159,9.647058918660736Q1.6000000276837159,9.706153318660736,1.6115288776837158,9.764112418660737Q1.6230577276837157,9.822071518660735,1.6456723776837157,9.876668418660735Q1.668286977683716,9.931265318660735,1.701118317683716,9.980401018660736Q1.7339496276837159,10.029536618660735,1.7757359776837158,10.071322818660736Q1.817522347683716,10.113109018660737,1.8666579176837157,10.145940218660737Q1.9157934776837158,10.178771418660736,1.9703899876837159,10.201386418660736Q2.0249865076837157,10.224001318660736,2.0829458576837157,10.235529818660737Q2.140905204683716,10.247059318660735,2.200000047683716,10.247059318660735L11.800000447683717,10.247059318660735Q11.859094847683716,10.247059318660735,11.917053447683715,10.235529818660737Q11.975013047683715,10.224001318660736,12.029608947683716,10.201386418660736Q12.084205847683716,10.178771418660736,12.133342047683715,10.145940218660737Q12.182477247683716,10.113109018660737,12.224264047683716,10.071322818660736Q12.266051047683716,10.029536618660735,12.298882047683716,9.980400518660737Q12.331713047683715,9.931265318660735,12.354327047683716,9.876668418660735Q12.376943047683715,9.822071518660735,12.388472047683717,9.764112418660737Q12.400001047683716,9.706153318660736,12.400001047683716,9.647058918660736Z"/><path d="M0.39999998000000003,9.647058963775635L0.39999998000000003,10.235294283775636Q0.39999998000000003,11.218273063775635,1.10716449,11.911572463775634Q1.8093600300000001,12.600000163775634,2.8,12.600000163775634L11.2,12.600000163775634Q12.190639,12.600000163775634,12.892835,11.911572663775635Q13.6,11.218272663775634,13.6,10.235294283775636L13.6,9.647058963775635Q13.6,9.587964120775634,13.58847,9.530004773775635Q13.576942,9.472045423775635,13.554328,9.417448903775634Q13.531713,9.362852393775634,13.498882,9.313716833775635Q13.466051,9.264581263775634,13.424265,9.222794893775635Q13.382479,9.181008543775635,13.333343,9.148177203775635Q13.284206,9.115345893775634,13.229609,9.092731293775635Q13.175013,9.070116643775634,13.117053,9.058587793775635Q13.059094,9.047058943775635,13,9.047058943775635L1,9.047058943775635Q0.940905157,9.047058943775635,0.88294581,9.058587793775635Q0.82498646,9.070116643775634,0.77038994,9.092731293775635Q0.71579343,9.115345893775634,0.66665787,9.148177233775634Q0.6175223000000001,9.181008543775635,0.57573593,9.222794893775635Q0.53394958,9.264581263775634,0.50111824,9.313716833775635Q0.46828693,9.362852393775634,0.44567232999999995,9.417448903775634Q0.42305768,9.472045423775635,0.41152882999999996,9.530004773775635Q0.39999998000000003,9.587964120775634,0.39999998000000003,9.647058963775635ZM1.6000526000000002,10.247058983775634Q1.60427254,10.718431963775634,1.94725066,11.054685363775635Q2.2994714,11.400000263775635,2.8,11.400000263775635L11.2,11.400000263775635Q11.700527,11.400000263775635,12.052748,11.054685163775634Q12.395727,10.718430763775634,12.399947,10.247058983775634L1.6000526000000002,10.247058983775634Z"/><path d="M8.07995716,3.6049143L9.27995723,4.7813849Q9.3651799,4.8649366,9.47588933,4.9095149Q9.5865988,4.9540932,9.7059404,4.9529116Q9.825282,4.9517302999999995,9.935087,4.9049685Q10.0448921,4.858207,10.1284437,4.7729843Q10.1698142,4.7307860999999995,10.2021575,4.6813278Q10.2345006,4.6318696,10.2565736,4.5770516Q10.2786465,4.522234,10.2896011,4.4641635Q10.3005555,4.4060929,10.2999705,4.3470011Q10.2993853,4.287909,10.287283200000001,4.2300664999999995Q10.2751811,4.172224,10.2520272,4.117854100000001Q10.2288731,4.0634841999999995,10.1955571,4.0146761Q10.1622409,3.965868,10.1200429,3.9244975L9.357055429999999,3.1764706L10.1200429,2.4284437Q10.1622409,2.3870731,10.195557,2.33826497Q10.228873,2.28945684,10.252027,2.23508692Q10.2751811,2.18071698,10.2872831,2.12287461Q10.2993853,2.065032251,10.2999704,2.0059403107Q10.3005555,1.94684837,10.2896008,1.88877773Q10.2786465,1.8307070699999999,10.2565736,1.77588934Q10.2345006,1.7210716,10.2021574,1.67161343Q10.1698142,1.62215519,10.1284437,1.57995716Q10.0448921,1.49473441,9.935087,1.44797266Q9.8252819,1.4012110199999999,9.7059402,1.40002942Q9.5865988,1.3988478199999999,9.47588933,1.44342625Q9.3651799,1.48800462,9.27995723,1.5715563000000001L8.07995716,2.74802691Q8.07571507,2.7521857,8.0715563,2.7564277600000002Q7.98800457,2.84165049,7.94342613,2.95236003Q7.89884782,3.0630695,7.90002942,3.1824111Q7.90121102,3.3017526,7.94797271,3.4115576Q7.9947344099999995,3.5213625,8.07995716,3.6049143Z"/><path d="M11.84294462,3.1764706L11.07995716,3.9244975Q11.03775913,3.965868,11.00444296,4.0146761Q10.97112679,4.0634841999999995,10.94797271,4.117854100000001Q10.92481869,4.172224,10.91271663,4.2300664999999995Q10.9006145,4.287909,10.90002942,4.3470011Q10.89944434,4.4060929,10.91039878,4.4641635Q10.92135322,4.5222342,10.94342625,4.5770519Q10.96549916,4.6318698000000005,10.99784243,4.6813278Q11.03018567,4.7307860999999995,11.0715563,4.7729843Q11.155108,4.858207,11.26491305,4.9049685Q11.37471808,4.9517302999999995,11.4940596358,4.9529116Q11.61340122,4.9540932,11.72411065,4.9095149Q11.834820090000001,4.8649366,11.92004284,4.7813849L13.1200429,3.6049143Q13.2052655,3.5213625,13.2520273,3.4115576Q13.2987889,3.3017526,13.2999706,3.1824111999999998Q13.3011522,3.0630696,13.2565738,2.95236003Q13.2119955,2.8416505499999998,13.1284437,2.7564277600000002Q13.1242849,2.7521857,13.1200429,2.74802691L11.92004284,1.5715563000000001Q11.834820090000001,1.48800457,11.72411066,1.44342619Q11.61340126,1.3988478199999999,11.4940597056,1.40002942Q11.37471813,1.4012110199999999,11.26491308,1.4479727100000002Q11.15510803,1.49473441,11.0715563,1.57995716Q10.98800457,1.66517991,10.94342619,1.77588934Q10.89884782,1.88659874,10.90002942,2.0059402944Q10.90121102,2.12528187,10.94797271,2.23508692Q10.99473441,2.34489197,11.07995716,2.4284437L11.84294462,3.1764706Z"/></g></g></svg>
