<svg xmlns="http://www.w3.org/2000/svg" xmlns:xlink="http://www.w3.org/1999/xlink" version="1.1" width="14" height="14" viewBox="0 0 14 14"><g transform="matrix(0,-1,1,0,-14,14)"><g><path d="M3.938114076158142,26.59999997615814L3.447004476158142,26.59999997615814Q2.599103476158142,26.59999897615814,1.9995534461581421,25.984957976158142C1.5998511161581421,25.57487297615814,1.399999976158142,25.079905876158143,1.399999976158142,24.50005377615814L1.399999976158142,17.500006276158143Q1.3999999538064,16.630151176158144,1.9995534461581421,16.01507735615814Q2.599103476158142,15.399999976158142,3.447004476158142,15.399999976158142L3.938114076158142,15.399999976158142C4.043719876158142,15.399999976158142,4.129339376158143,15.487831749158142,4.129339376158143,15.596177206158142L4.129339376158143,16.603827876158142C4.129339376158143,16.712168076158143,4.043719876158142,16.80000427615814,3.938114076158142,16.80000427615814L3.447004476158142,16.80000427615814Q3.164370776158142,16.800004076158142,2.9645200761581423,17.00502927615814Q2.7646696761581424,17.21005447615814,2.7646696761581424,17.500006276158143L2.7646696761581424,24.50005377615814C2.7646696761581424,24.693337776158142,2.8312864761581418,24.85832627615814,2.9645200761581423,24.995022176158145Q3.164370676158142,25.199977276158144,3.447004476158142,25.199977276158144L3.938114076158142,25.199977276158144C4.043719876158142,25.199977276158144,4.129339376158143,25.287865976158145,4.129339376158143,25.396180476158143L4.129339376158143,26.403882976158144C4.129339376158143,26.51219797615814,4.043719876158142,26.59999997615814,3.938114076158142,26.59999997615814ZM8.840917976158142,17.143858676158143L12.117385976158142,20.505145876158142L12.599778976158142,21.00004567615814L8.840917976158142,24.856266376158143C8.766232876158142,24.932825476158143,8.64515817615814,24.932825476158143,8.570481676158142,24.856266376158143L7.876091376158142,24.14389647615814C7.801414876158142,24.067253476158143,7.801414876158142,23.94305167615814,7.876091376158142,23.86643257615814L9.987782876158143,21.70004787615814L5.493947376158142,21.70004787615814C5.117111076158142,21.70004787615814,4.811621076158142,21.386647576158143,4.811621076158142,21.00004567615814C4.811621076158142,20.613452276158142,5.117111076158142,20.30004347615814,5.493947376158142,20.30004347615814L9.987782876158143,20.30004347615814L7.876091376158142,18.13365807615814C7.801414876158142,18.05704817615814,7.801414876158142,17.932838276158144,7.876091376158142,17.856228676158143L8.570481676158142,17.143858676158143C8.64515817615814,17.06724897615814,8.766232876158142,17.06724897615814,8.840917976158142,17.143858676158143Z"/></g></g></svg>
