<?xml version="1.0" encoding="UTF-8"?>
<svg width="24px" height="24px" viewBox="0 0 24 24" version="1.1" xmlns="http://www.w3.org/2000/svg" xmlns:xlink="http://www.w3.org/1999/xlink">
    <title>删除</title>
    <g id="删除" stroke="none" stroke-width="1" fill="none" fill-rule="evenodd">
        <path d="M11.9999996,4.3 C15.4099037,4.3 17.5652826,4.90257204 18.7376544,5.73308874 C19.0657728,5.96558595 19.2172052,6.35543598 19.1654865,6.74135614 L19.1654865,6.74135614 L17.9382926,15.8989962 C17.7902093,17.0045767 17.1324283,17.9776176 16.1602512,18.5303435 L16.1602512,18.5303435 L15.9292208,18.6616976 C13.4943605,20.0461009 10.5056379,20.0461009 8.07077767,18.6616931 L8.07077767,18.6616931 L7.83978284,18.530351 C6.86760789,17.9776417 6.20984505,17.0046277 6.06169806,15.8990407 L6.06169806,15.8990407 L4.83450592,6.74136036 C4.78278278,6.35540672 4.93425223,5.96553708 5.26242477,5.73304739 C6.43469892,4.90258077 8.59009644,4.3 11.9999996,4.3 Z M6.48219567,8.50799805 L7.44929514,15.713099 C7.53179098,16.3287465 7.87482965,16.8773304 8.38772194,17.2239009 L8.38772194,17.2239009 L8.53174477,17.3133101 L8.76276222,17.444665 C10.7685501,18.5851117 13.2314497,18.5851117 15.2372535,17.4446597 L15.2372535,17.4446597 L15.4682984,17.3132974 C16.0606671,16.9765094 16.4607344,16.3846988 16.5506904,15.7130927 L16.5506904,15.7130927 L17.5167991,8.50836523 C14.670227,9.55460343 9.32818215,9.55448525 6.48219567,8.50799805 Z M14.1610336,12.2045297 C14.5476329,12.2045297 14.8610336,12.5179304 14.8610336,12.9045297 C14.8610336,13.2589124 14.5976899,13.5517879 14.2560194,13.5981395 L14.1610336,13.6045297 L9.827693,13.6045297 C9.44109368,13.6045297 9.127693,13.291129 9.127693,12.9045297 C9.127693,12.550147 9.39103662,12.2572715 9.73270715,12.2109199 L9.827693,12.2045297 L14.1610336,12.2045297 Z M11.9999996,5.7 C10.2166978,5.7 8.78594993,5.88093187 7.67056706,6.19275754 C7.08035712,6.35776151 6.63483501,6.54178473 6.31524931,6.72219952 L6.31524931,6.72219952 L6.25,6.761 L6.26495254,6.88310206 C8.27799521,8.22929107 15.7184409,8.22956642 17.7337723,6.88395374 L17.749,6.761 L17.6847699,6.72220148 C17.410829,6.5675557 17.0443711,6.41026325 16.5735803,6.2645695 L16.5735803,6.2645695 L16.3294358,6.19275513 C15.214051,5.88093076 13.7833028,5.7 11.9999996,5.7 Z" id="形状结合" fill="#F62E2E" fill-rule="nonzero"></path>
    </g>
</svg>