<?xml version="1.0" encoding="UTF-8"?>
<svg width="20px" height="20px" viewBox="0 0 20 20" version="1.1" xmlns="http://www.w3.org/2000/svg" xmlns:xlink="http://www.w3.org/1999/xlink">
    <title>字典管理</title>
    <g id="字典管理" stroke="none" stroke-width="1" fill-rule="evenodd">
        <path d="M14.675,4.25 C15.5448485,4.25 16.25,4.95515152 16.25,5.825 L16.25,5.825 L16.25,14.175 C16.25,15.0448485 15.5448485,15.75 14.675,15.75 L14.675,15.75 L5.325,15.75 C4.45515152,15.75 3.75,15.0448485 3.75,14.175 L3.75,14.175 L3.75,5.825 C3.75,4.95515152 4.45515152,4.25 5.325,4.25 L5.325,4.25 Z M14.75,7.972 L5.25,7.972 L5.25,14.175 C5.25,14.206066 5.26888799,14.2327205 5.29580662,14.2441061 L5.325,14.25 L14.675,14.25 C14.7164214,14.25 14.75,14.2164214 14.75,14.175 L14.75,14.175 L14.75,7.972 Z M13.3,11.4722222 C13.7142136,11.4722222 14.05,11.8080087 14.05,12.2222222 C14.05,12.601918 13.7678461,12.9157132 13.4017706,12.9653756 L13.3,12.9722222 L8.9,12.9722222 C8.48578644,12.9722222 8.15,12.6364358 8.15,12.2222222 C8.15,11.8425265 8.43215388,11.5287313 8.79822944,11.4790688 L8.9,11.4722222 L13.3,11.4722222 Z M7.25,11.4722222 C7.66421356,11.4722222 8,11.8080087 8,12.2222222 C8,12.601918 7.71784612,12.9157132 7.35177056,12.9653756 L7.25,12.9722222 L6.7,12.9722222 C6.28578644,12.9722222 5.95,12.6364358 5.95,12.2222222 C5.95,11.8425265 6.23215388,11.5287313 6.59822944,11.4790688 L6.7,11.4722222 L7.25,11.4722222 Z M13.3,9.25 C13.7142136,9.25 14.05,9.58578644 14.05,10 C14.05,10.3796958 13.7678461,10.693491 13.4017706,10.7431534 L13.3,10.75 L8.9,10.75 C8.48578644,10.75 8.15,10.4142136 8.15,10 C8.15,9.62030423 8.43215388,9.30650904 8.79822944,9.25684662 L8.9,9.25 L13.3,9.25 Z M7.25,9.25 C7.66421356,9.25 8,9.58578644 8,10 C8,10.3796958 7.71784612,10.693491 7.35177056,10.7431534 L7.25,10.75 L6.7,10.75 C6.28578644,10.75 5.95,10.4142136 5.95,10 C5.95,9.62030423 6.23215388,9.30650904 6.59822944,9.25684662 L6.7,9.25 L7.25,9.25 Z M14.675,5.75 L5.325,5.75 C5.28357864,5.75 5.25,5.78357864 5.25,5.825 L5.25,5.825 L5.25,6.472 L14.75,6.472 L14.75,5.825 C14.75,5.79393398 14.731112,5.76727949 14.7041934,5.75589387 L14.675,5.75 Z" id="形状结合" fill-rule="nonzero"></path>
    </g>
</svg>