<svg xmlns="http://www.w3.org/2000/svg" xmlns:xlink="http://www.w3.org/1999/xlink" version="1.1" width="14" height="14" viewBox="0 0 14 14"><g><path d="M8.438377396484375,1.57297483375C8.672002296484376,1.34227386475,9.047669896484376,1.34220254375,9.281382996484375,1.57281477375L11.310521096484376,3.57503394375C11.548625896484374,3.80997944375,11.548625896484374,4.19426294375,11.310522096484375,4.429208743749999L5.565299996484375,10.09822274375C5.453016796484375,10.20901584375,5.301619796484375,10.27113534375,5.143877696484375,10.27113534375L3.1113219964843752,10.27113534375C2.779951196484375,10.27113534375,2.5113219964843747,10.00250624375,2.5113219964843747,9.67113494375L2.5113219964843747,7.67658714375C2.5113219964843747,7.51614764375,2.5755780964843753,7.36239104375,2.689738296484375,7.24965954375L8.438377396484375,1.57297483375ZM8.859517096484375,2.8430175437500003L3.711517296484375,7.92601774375L3.711517296484375,9.07101774375L4.897517196484375,9.07101774375L10.034517296484376,4.00201754375L8.859517096484375,2.8430175437500003ZM12.599993896484374,11.86293934375C12.599993896484374,11.53156834375,12.331364896484375,11.26293944375,11.999993896484375,11.26293944375L1.999993916484375,11.26293944375C1.668623056484375,11.26293944375,1.399993896484375,11.53156834375,1.399993896484375,11.86293934375C1.399993896484375,12.19431034375,1.668623056484375,12.46293934375,1.999993916484375,12.46293934375L11.999993896484375,12.46293934375C12.331364896484375,12.46293934375,12.599993896484374,12.19431034375,12.599993896484374,11.86293934375Z"/></g></svg>
