<svg xmlns="http://www.w3.org/2000/svg" xmlns:xlink="http://www.w3.org/1999/xlink" version="1.1" width="20" height="20" viewBox="0 0 20 20"><defs><clipPath id="master_svg0_80_73256"><rect x="0" y="0" width="20" height="20" rx="0"/></clipPath></defs><g clip-path="url(#master_svg0_80_73256)"><g><path d="M15.8333,3C16.4777,3,17,3.522334,17,4.16667L17,15.8333C17,16.4777,16.4777,17,15.8333,17L4.16667,17C3.522334,17,3,16.4777,3,15.8333L3,4.16667C3,3.522334,3.522334,3,4.16667,3L15.8333,3ZM15.8333,4.16667L4.16667,4.16667L4.16667,15.8333L15.8333,15.8333L15.8333,4.16667ZM7.08334,7.08333Q7.08334,7.14079,7.07213,7.19714Q7.06092,7.25348,7.03893,7.30656Q7.01695,7.35964,6.98503,7.40741Q6.953110000000001,7.45519,6.91248,7.49581Q6.87186,7.53644,6.82409,7.56836Q6.77632,7.60028,6.7232400000000005,7.62226Q6.67016,7.64425,6.61381,7.65546Q6.55746,7.66667,6.50001,7.66667Q6.442550000000001,7.66667,6.3862000000000005,7.65546Q6.32985,7.64425,6.27677,7.62226Q6.2236899999999995,7.60028,6.17592,7.56836Q6.12815,7.53644,6.08753,7.49581Q6.0469,7.45519,6.0149799999999995,7.40741Q5.98306,7.35964,5.96108,7.30656Q5.93909,7.25348,5.92788,7.19714Q5.91667,7.14079,5.91667,7.08333Q5.91667,7.02588,5.92788,6.96953Q5.93909,6.9131800000000005,5.96108,6.8601Q5.98306,6.80702,6.0149799999999995,6.75925Q6.0469,6.71148,6.08753,6.67085Q6.12815,6.63023,6.17592,6.59831Q6.2236899999999995,6.56639,6.27677,6.5443999999999996Q6.32985,6.52242,6.3862000000000005,6.51121Q6.442550000000001,6.5,6.50001,6.5Q6.55746,6.5,6.61381,6.51121Q6.67016,6.52242,6.7232400000000005,6.5443999999999996Q6.77632,6.56639,6.82409,6.59831Q6.87186,6.63023,6.91248,6.67085Q6.953110000000001,6.71148,6.98503,6.75925Q7.01695,6.80702,7.03893,6.8601Q7.06092,6.9131800000000005,7.07213,6.96953Q7.08334,7.02588,7.08334,7.08333ZM8.25,6.5L14.0833,6.5L14.0833,7.66667L8.25,7.66667L8.25,6.5ZM7.08334,10Q7.08334,10.05745,7.07213,10.113800000000001Q7.06092,10.17015,7.03893,10.223230000000001Q7.01695,10.276309999999999,6.98503,10.32408Q6.953110000000001,10.37185,6.91248,10.41248Q6.87186,10.4531,6.82409,10.485019999999999Q6.77632,10.51694,6.7232400000000005,10.53893Q6.67016,10.56092,6.61381,10.57213Q6.55746,10.58333,6.50001,10.58333Q6.442550000000001,10.58333,6.3862000000000005,10.57213Q6.32985,10.56092,6.27677,10.53893Q6.2236899999999995,10.51694,6.17592,10.485019999999999Q6.12815,10.453109999999999,6.08753,10.41248Q6.0469,10.37185,6.0149799999999995,10.32408Q5.98306,10.276309999999999,5.96108,10.223230000000001Q5.93909,10.17015,5.92788,10.113800000000001Q5.91667,10.05745,5.91667,10Q5.91667,9.94255,5.92788,9.886199999999999Q5.93909,9.82985,5.96108,9.776769999999999Q5.98306,9.723690000000001,6.0149799999999995,9.67592Q6.0469,9.62815,6.08753,9.58752Q6.12815,9.5469,6.17592,9.514980000000001Q6.2236899999999995,9.48306,6.27677,9.46107Q6.32985,9.43908,6.3862000000000005,9.42788Q6.442550000000001,9.41667,6.50001,9.41667Q6.55746,9.41667,6.61381,9.42788Q6.67016,9.43908,6.7232400000000005,9.46107Q6.77632,9.48306,6.82409,9.514980000000001Q6.87186,9.5469,6.91248,9.58752Q6.953110000000001,9.62815,6.98503,9.67592Q7.01695,9.723690000000001,7.03893,9.776769999999999Q7.06092,9.82985,7.07213,9.886199999999999Q7.08334,9.94255,7.08334,10ZM8.25,9.41667L14.0833,9.41667L14.0833,10.58333L8.25,10.58333L8.25,9.41667ZM7.08334,12.91667Q7.08334,12.97412,7.07213,13.0305Q7.06092,13.0868,7.03893,13.1399Q7.01695,13.193,6.98503,13.2407Q6.953110000000001,13.2885,6.91248,13.3291Q6.87186,13.3698,6.82409,13.4017Q6.77632,13.4336,6.7232400000000005,13.4556Q6.67016,13.4776,6.61381,13.4888Q6.55746,13.5,6.50001,13.5Q6.442550000000001,13.5,6.3862000000000005,13.4888Q6.32985,13.4776,6.27677,13.4556Q6.2236899999999995,13.4336,6.17592,13.4017Q6.12815,13.3698,6.08753,13.3291Q6.0469,13.2885,6.0149799999999995,13.2407Q5.98306,13.193,5.96108,13.1399Q5.93909,13.0868,5.92788,13.0305Q5.91667,12.97412,5.91667,12.91667Q5.91667,12.85921,5.92788,12.80286Q5.93909,12.74651,5.96108,12.69343Q5.98306,12.64035,6.0149799999999995,12.59258Q6.0469,12.54481,6.08753,12.50419Q6.12815,12.46356,6.17592,12.43164Q6.2236899999999995,12.39972,6.27677,12.37774Q6.32985,12.35575,6.3862000000000005,12.34454Q6.442550000000001,12.33333,6.50001,12.33333Q6.55746,12.33333,6.61381,12.34454Q6.67016,12.35575,6.7232400000000005,12.37774Q6.77632,12.39972,6.82409,12.43164Q6.87186,12.46356,6.91248,12.50419Q6.953110000000001,12.54481,6.98503,12.59258Q7.01695,12.64035,7.03893,12.69343Q7.06092,12.74651,7.07213,12.80286Q7.08334,12.85921,7.08334,12.91667ZM8.25,12.33333L14.0833,12.33333L14.0833,13.5L8.25,13.5L8.25,12.33333Z" fill-rule="evenodd" fill-opacity="1"/></g></g></svg>