<svg xmlns="http://www.w3.org/2000/svg" xmlns:xlink="http://www.w3.org/1999/xlink" version="1.1" width="20" height="20" viewBox="0 0 20 20"><defs><clipPath id="master_svg0_80_73270"><rect x="0" y="0" width="20" height="20" rx="0"/></clipPath></defs><g clip-path="url(#master_svg0_80_73270)"><g><path d="M15.8333,3C16.4777,3,17,3.522334,17,4.16667L17,15.8333C17,16.4777,16.4777,17,15.8333,17L4.16667,17C3.522334,17,3,16.4777,3,15.8333L3,4.16667C3,3.522334,3.522334,3,4.16667,3L15.8333,3ZM15.8333,4.16667L4.16667,4.16667L4.16667,15.8333L15.8333,15.8333L15.8333,4.16667ZM10.580020000000001,13.91L10.580020000000001,6.58L9.413350000000001,6.58L9.413350000000001,13.91L10.580020000000001,13.91ZM7.66998,13.9166L7.66998,8.08331L6.50332,8.08331L6.50332,13.9166L7.66998,13.9166ZM13.5,13.91L13.5,9.08L12.33333,9.08L12.33333,13.91L13.5,13.91Z" fill-rule="evenodd" fill-opacity="1"/></g></g></svg>