<svg xmlns="http://www.w3.org/2000/svg" xmlns:xlink="http://www.w3.org/1999/xlink" version="1.1" width="20" height="20" viewBox="0 0 20 20"><defs><clipPath id="master_svg0_80_73419"><rect x="0" y="0" width="20" height="20" rx="0"/></clipPath></defs><g clip-path="url(#master_svg0_80_73419)"><g><path d="M12.751645039062499,9.424503286132811L12.751645039062499,5.666693286132812Q12.751645039062499,4.510323286132812,11.954005039062501,3.7126772861328123Q11.1563650390625,2.9150337577328127,9.9999850390625,2.9150338769328124Q8.859565039062499,2.9092810761328125,8.0510650390625,3.7177762861328123Q7.242575039062499,4.526273286132812,7.2483350390625,5.669643286132812L7.2483250390625,9.424503286132811Q7.2483250390625,10.559303286132813,8.0547150390625,11.381303286132813Q8.8676950390625,12.210013286132812,9.9999850390625,12.210013286132812Q11.1354150390625,12.210013286132812,11.9435150390625,11.393223286132812Q12.751645039062499,10.576403286132813,12.751645039062499,9.424503286132811ZM11.126685039062501,4.5399932861328125Q11.5816450390625,4.994953286132812,11.5816450390625,5.666693286132812L11.5816450390625,9.424503286132811Q11.5816450390625,10.095433286132813,11.1117850390625,10.570343286132813Q10.6471150390625,11.040013286132812,9.9999850390625,11.040013286132812Q9.358905039062499,11.040013286132812,8.8899250390625,10.561953286132812Q8.4183250390625,10.081233286132813,8.4183250390625,9.424503286132811L8.4183150390625,5.663743286132812Q8.4150150390625,5.008453286132813,8.8783850390625,4.545093286132813Q9.3417450390625,4.081723286132813,9.9999850390625,4.085033286132813Q10.6717350390625,4.085033286132813,11.126685039062501,4.5399932861328125ZM5.0816650390625,8.375013286132813C5.0816650390625,8.051933286132812,5.3435780390625,7.790013286132813,5.6666650390625,7.790013286132813C5.9897520390625,7.790013286132813,6.2516650390625,8.051933286132812,6.2516650390625,8.375013286132813L6.2516650390625,9.458343286132813Q6.2516650390625,11.003523286132813,7.3532350390625005,12.105103286132813Q8.4548050390625,13.206693286132813,9.9999850390625,13.206693286132813Q11.5451650390625,13.206693286132813,12.6467350390625,12.105103286132813Q13.7483150390625,11.003523286132813,13.7483150390625,9.458343286132813L13.7483150390625,8.375013286132813C13.7483150390625,8.051933286132812,14.0102250390625,7.790013286132813,14.3333150390625,7.790013286132813C14.6563950390625,7.790013286132813,14.9183150390625,8.051933286132812,14.9183150390625,8.375013286132813L14.9183150390625,9.458343286132813Q14.9183150390625,11.488153286132812,13.4740550390625,12.932393286132813Q12.2424350390625,14.163993286132813,10.5849850390625,14.345393286132813L10.5849850390625,15.914993286132812L12.1666450390625,15.914993286132812C12.4897350390625,15.914993286132812,12.751645039062499,16.176893286132813,12.751645039062499,16.499993286132813C12.751645039062499,16.82309328613281,12.4897350390625,17.084993286132814,12.1666450390625,17.084993286132814L7.8333250390625,17.084993286132814C7.510235039062501,17.084993286132814,7.2483250390625,16.82309328613281,7.2483250390625,16.499993286132813C7.2483250390625,16.176893286132813,7.510235039062501,15.914993286132812,7.8333250390625,15.914993286132812L9.4149850390625,15.914993286132812L9.4149850390625,14.345393286132813Q7.757545039062499,14.163993286132813,6.5259250390625,12.932393286132813Q5.0816650390625,11.488153286132812,5.0816650390625,9.458343286132813L5.0816650390625,8.375013286132813Z" fill-rule="evenodd" fill-opacity="1" style="mix-blend-mode:passthrough"/></g></g></svg>