<svg xmlns="http://www.w3.org/2000/svg" xmlns:xlink="http://www.w3.org/1999/xlink" fill="none" version="1.1" width="20" height="20" viewBox="0 0 20 20"><defs><clipPath id="master_svg0_107_85525"><rect x="0" y="0" width="20" height="20" rx="0"/></clipPath></defs><g clip-path="url(#master_svg0_107_85525)"><g><path d="M14.475274853515625,4.79056L14.473274853515624,4.78992Q13.995174853515625,4.63738,13.024674853515625,4.10241Q11.024784853515625,3,9.642444853515624,3Q8.260014853515624,3,6.261554853515625,4.1024899999999995Q5.291754853515625,4.6375,4.814134853515625,4.78994L4.801984853515625,4.79383Q3.757127853515625,5.128,3.526578853515625,5.38403Q3.290079853515625,5.64542,3.153561853515625,6.40305L3.152619853515625,6.4082799999999995Q2.532224853515625,9.84704,3.864151853515625,12.60822Q5.267214853515625,15.5169,8.397974853515624,16.715600000000002Q9.139524853515624,17,9.644364853515626,17Q10.147684853515624,17,10.892014853515626,16.715Q14.022174853515626,15.5168,15.424374853515625,12.608Q16.755274853515623,9.84727,16.134774853515623,6.4081600000000005Q15.997674853515624,5.64706,15.760274853515625,5.38339Q15.528774853515625,5.1264,14.475274853515625,4.79056ZM12.438354853515625,5.166119999999999Q13.512974853515624,5.7585,14.104074853515625,5.94707L14.106374853515625,5.9478Q14.846374853515625,6.1837,14.857674853515626,6.19616Q14.863674853515626,6.20282,14.939474853515625,6.623810000000001Q15.489974853515625,9.674949999999999,14.330274853515625,12.08056Q13.137474853515625,14.5549,10.457074853515625,15.5809Q9.923114853515624,15.7854,9.644364853515626,15.7854Q9.364424853515626,15.7854,8.832304853515625,15.5813Q6.151754853515625,14.555,4.9581348535156256,12.08051Q3.797562853515625,9.67456,4.347974853515625,6.62368L4.348924853515625,6.61844Q4.4238348535156256,6.2027,4.429174853515625,6.1968Q4.439954853515625,6.18483,5.171974853515625,5.95071L5.183444853515625,5.94705Q5.774344853515625,5.75845,6.848264853515625,5.166Q8.572824853515625,4.21461,9.642444853515624,4.21461Q10.712194853515625,4.21461,12.438354853515625,5.166119999999999ZM13.042874853515626,8.65464C13.285374853515625,8.56875,13.447374853515624,8.33942,13.447374853515624,8.08219C13.447374853515624,7.74678,13.175474853515626,7.47488,12.840084853515625,7.47488C12.771004853515626,7.47488,12.702424853515625,7.48667,12.637304853515625,7.50974Q10.884094853515624,8.13078,9.022634853515626,10.794550000000001Q8.423284853515625,10.03196,7.725924853515625,10.03196C7.390524853515625,10.03196,7.118624853515625,10.30386,7.118624853515625,10.63927C7.118624853515625,10.97467,7.390524853515625,11.24657,7.725924853515625,11.24657Q7.794004853515625,11.24657,7.935764853515625,11.38833Q8.185714853515625,11.63828,8.461274853515626,12.1894C8.510564853515625,12.28798,8.585744853515624,12.37128,8.678774853515625,12.43039C8.961864853515625,12.61027,9.337174853515625,12.52659,9.517054853515624,12.2435Q11.435664853515625,9.22396,13.042874853515626,8.65464Z" fill-rule="evenodd" fill="#595959" fill-opacity="1" style="mix-blend-mode:passthrough"/></g></g></svg>