<svg xmlns="http://www.w3.org/2000/svg" xmlns:xlink="http://www.w3.org/1999/xlink" version="1.1" width="20" height="20" viewBox="0 0 20 20"><defs><clipPath id="master_svg0_80_73205"><rect x="0" y="0" width="20" height="20" rx="0"/></clipPath></defs><g clip-path="url(#master_svg0_80_73205)"><g><path d="M14.375000095367431,3.059999942779541L5.625000095367431,3.059999942779541C4.946484095367431,3.059999942779541,4.400000095367432,3.614481942779541,4.400000095367432,4.294149942779541L4.400000095367432,15.70879994277954C4.400000095367432,16.38849994277954,4.946482095367432,16.94289994277954,5.625000095367431,16.94289994277954L9.375000095367431,16.94289994277954L14.375000095367431,16.94289994277954C15.053500095367431,16.94289994277954,15.600000095367431,16.38849994277954,15.600000095367431,15.70879994277954L15.600000095367431,4.294149942779541C15.600000095367431,3.614479942779541,15.053500095367431,3.059999942779541,14.375000095367431,3.059999942779541ZM6.900000095367432,15.742899942779541L6.900000095367432,4.259999942779541L5.625010095367432,4.259999942779541C5.6131700953674315,4.259999942779541,5.600010095367431,4.273349942779541,5.600010095367431,4.294149942779541L5.600010095367431,15.70879994277954C5.600010095367431,15.729599942779542,5.6131700953674315,15.742899942779541,5.625010095367432,15.742899942779541L6.900000095367432,15.742899942779541ZM12.500000095367431,5.596589942779541C12.831370095367431,5.596589942779541,13.100000095367431,5.865219942779541,13.100000095367431,6.196589942779541C13.100000095367431,6.494819942779541,12.882410095367431,6.742229942779542,12.597320095367431,6.788729942779542L12.500000095367431,6.796589942779541L10.000000095367431,6.796589942779541C9.668630095367432,6.796589942779541,9.400000095367432,6.527959942779541,9.400000095367432,6.196589942779541C9.400000095367432,5.898349942779541,9.617590095367433,5.650939942779541,9.902680095367431,5.604439942779541L10.000000095367431,5.596589942779541L12.500000095367431,5.596589942779541ZM13.100000095367431,8.73316994277954C13.100000095367431,8.40179994277954,12.831370095367431,8.133169942779542,12.500000095367431,8.133169942779542L10.000000095367431,8.133169942779542L9.902680095367431,8.14101994277954C9.617590095367433,8.187519942779542,9.400000095367432,8.43493994277954,9.400000095367432,8.73316994277954C9.400000095367432,9.064539942779541,9.668630095367432,9.333169942779541,10.000000095367431,9.333169942779541L12.500000095367431,9.333169942779541L12.597320095367431,9.32531994277954C12.882410095367431,9.278819942779542,13.100000095367431,9.03139994277954,13.100000095367431,8.73316994277954ZM9.376080095367431,15.742899942779541L14.375010095367431,15.742899942779541C14.386860095367432,15.742899942779541,14.400000095367432,15.729599942779542,14.400000095367432,15.70879994277954L14.400000095367432,4.294149942779541C14.400000095367432,4.273349942779541,14.386860095367432,4.259999942779541,14.375010095367431,4.259999942779541L8.100000095367431,4.259999942779541L8.100000095367431,15.742899942779541L9.376080095367431,15.742899942779541Z" fill-rule="evenodd"  fill-opacity="1"/></g></g></svg>