<svg xmlns="http://www.w3.org/2000/svg" xmlns:xlink="http://www.w3.org/1999/xlink" fill="none" version="1.1" width="20" height="20" viewBox="0 0 20 20"><defs><clipPath id="master_svg0_107_85534"><rect x="0" y="0" width="20" height="20" rx="0"/></clipPath></defs><g clip-path="url(#master_svg0_107_85534)"><g><path d="M3.664523,4.018649895095825Q4.14714,3.605552045095825,4.85722,3.610048355495825Q5.23949,3.6124689650958253,6.242,3.8032548950958254Q8.732199999999999,4.277898895095825,10,5.3275698950958255Q11.26795,4.277766895095825,13.758,3.8038968950958254Q14.7598,3.6126467250958254,15.1426,3.610129544095825Q15.8528,3.605460005095825,16.3355,4.018649895095825Q16.8158,4.430267895095826,16.935299999999998,5.1987198950958255Q17,5.614469895095825,17,6.7863698950958256L17,11.415999895095826Q17,13.387029895095825,16.574199999999998,13.913899895095826Q16.2575,14.306099895095825,15.5392,14.519599895095824Q15.1469,14.636199895095825,13.9735,14.859599895095824Q12.50033,15.140399895095825,11.40553,15.731599895095826L11.40553,15.731599895095826Q10.30457,16.325599895095827,10,16.325599895095827Q9.6939,16.325599895095827,8.59483,15.731399895095825Q7.49586,15.139599895095825,6.02577,14.859599895095824L6.0242,14.859299895095825Q4.8522300000000005,14.635899895095825,4.46044,14.519399895095825Q3.742395,14.305999895095825,3.425686,13.913799895095826Q3,13.387029895095825,3,11.415999895095826L3,6.7863698950958256Q2.9999999425825,5.614459895095825,3.0646654,5.1987198950958255Q3.184191,4.4302668950958255,3.664523,4.018649895095825L3.664523,4.018649895095825ZM6.02589,4.938839895095825Q8.41201,5.393649895095825,9.42202,6.358789895095825L9.42202,14.864299895095826Q9.297080000000001,14.796999895095825,9.14462,14.714499895095825Q7.88712,14.037399895095826,6.24212,13.723999895095826L6.24059,13.723699895095825Q4.48834,13.389789895095825,4.32496,13.187509895095825Q4.15597,12.978369895095826,4.15597,11.415999895095826L4.15597,6.7863698950958256Q4.15597,5.120659895095825,4.41622,4.896839895095825Q4.66953,4.680719895095825,6.02589,4.938839895095825ZM10.855879999999999,14.714599895095825Q10.70341,14.796899895095825,10.57798,14.864399895095826L10.57798,6.358789895095825Q11.5881,5.393549895095825,13.9741,4.939479895095825Q15.331,4.680459895095825,15.5838,4.896839895095825Q15.844,5.119859895095825,15.844,6.7863698950958256L15.844,11.415999895095826Q15.844,12.978369895095826,15.6751,13.187419895095825Q15.5115,13.390039895095825,13.7573,13.723999895095826Q12.10834,14.038299895095825,10.855879999999999,14.714599895095825L10.855879999999999,14.714599895095825Z" fill-rule="evenodd" fill="#595959" fill-opacity="1" style="mix-blend-mode:passthrough"/></g></g></svg>