<?xml version="1.0" encoding="UTF-8"?>
<svg width="20px" height="20px" viewBox="0 0 20 20" version="1.1" xmlns="http://www.w3.org/2000/svg" xmlns:xlink="http://www.w3.org/1999/xlink">
    <title>开放对接</title>
    <g id="开放对接" stroke="none" stroke-width="1" fill-rule="evenodd">
        <path d="M10.59375,2.7 C11.670942,2.7 12.5479167,3.56348271 12.5479167,4.63333333 C12.5479167,5.70318396 11.670942,6.56666667 10.59375,6.56666667 C10.290644,6.56666667 10.0033908,6.49829811 9.74706806,6.37620115 L7.57580391,9.05103662 C7.63178289,9.15383789 7.67863189,9.26224933 7.71526774,9.37521919 L12.0938359,9.45599409 C12.3204097,8.63493371 13.0800411,8.03333333 13.9791667,8.03333333 C15.0563587,8.03333333 15.9333333,8.89681604 15.9333333,9.96666667 C15.9333333,11.0365173 15.0563587,11.9 13.9791667,11.9 C13.6764493,11.9 13.389544,11.8318066 13.1334707,11.7100038 L10.9609427,14.3838598 C11.1094209,14.656333 11.19375,14.9682444 11.19375,15.3 C11.19375,16.3698506 10.3167754,17.2333333 9.23958333,17.2333333 C8.16239129,17.2333333 7.28541667,16.3698506 7.28541667,15.3 C7.28541667,14.2301494 8.16239129,13.3666667 9.23958333,13.3666667 C9.5423387,13.3666667 9.82927798,13.4348771 10.0853757,13.5567087 L12.2580723,10.883293 C12.2187601,10.8112004 12.1839394,10.7363451 12.1539842,10.6590904 L7.70953562,10.575504 C7.45147534,11.3459081 6.71706019,11.9 5.85416667,11.9 C4.77697462,11.9 3.9,11.0365173 3.9,9.96666667 C3.9,8.89681604 4.77697462,8.03333333 5.85416667,8.03333333 C6.15727265,8.03333333 6.44452589,8.10170189 6.70084861,8.22379885 L8.87211275,5.54896338 C8.72380718,5.27661108 8.63958333,4.9648819 8.63958333,4.63333333 C8.63958333,3.56348271 9.51655796,2.7 10.59375,2.7 Z M9.23958333,14.5666667 C8.82100418,14.5666667 8.48541667,14.8970913 8.48541667,15.3 C8.48541667,15.7029087 8.82100418,16.0333333 9.23958333,16.0333333 C9.65816249,16.0333333 9.99375,15.7029087 9.99375,15.3 C9.99375,14.8970913 9.65816249,14.5666667 9.23958333,14.5666667 Z M13.9791667,9.23333333 C13.5605875,9.23333333 13.225,9.56375796 13.225,9.96666667 C13.225,10.3695754 13.5605875,10.7 13.9791667,10.7 C14.3977458,10.7 14.7333333,10.3695754 14.7333333,9.96666667 C14.7333333,9.56375796 14.3977458,9.23333333 13.9791667,9.23333333 Z M5.85416667,9.23333333 C5.43558751,9.23333333 5.1,9.56375796 5.1,9.96666667 C5.1,10.3695754 5.43558751,10.7 5.85416667,10.7 C6.27274582,10.7 6.60833333,10.3695754 6.60833333,9.96666667 C6.60833333,9.56375796 6.27274582,9.23333333 5.85416667,9.23333333 Z M10.59375,3.9 C10.1751708,3.9 9.83958333,4.23042463 9.83958333,4.63333333 C9.83958333,5.03624204 10.1751708,5.36666667 10.59375,5.36666667 C11.0123292,5.36666667 11.3479167,5.03624204 11.3479167,4.63333333 C11.3479167,4.23042463 11.0123292,3.9 10.59375,3.9 Z" id="形状结合" fill-rule="nonzero"></path>
    </g>
</svg>