<?xml version="1.0" encoding="UTF-8"?>
<svg width="20px" height="20px" viewBox="0 0 20 20" version="1.1" xmlns="http://www.w3.org/2000/svg" xmlns:xlink="http://www.w3.org/1999/xlink">
    <title>操作说明</title>
    <g id="操作说明" stroke="none" stroke-width="1" fill-rule="evenodd">
        <path d="M6.33333333,16.9429268 C5.65937683,16.9429268 5.12222222,16.3855247 5.12222222,15.7087805 L5.12222222,15.7087805 L5.122,13.772 L4.5,13.7721951 C4.16862915,13.7721951 3.9,13.503566 3.9,13.1721951 C3.9,12.8739614 4.11758961,12.6265484 4.40267688,12.5800481 L4.5,12.5721951 L5.122,12.572 L5.122,10.601 L4.5,10.6014634 C4.16862915,10.6014634 3.9,10.3328343 3.9,10.0014634 C3.9,9.70322965 4.11758961,9.45581666 4.40267688,9.4093164 L4.5,9.40146341 L5.122,9.401 L5.122,7.43 L4.5,7.43073171 C4.16862915,7.43073171 3.9,7.16210256 3.9,6.83073171 C3.9,6.53249794 4.11758961,6.28508495 4.40267688,6.23858469 L4.5,6.23073171 L5.122,6.23 L5.12222222,4.29414634 C5.12222222,3.65970572 5.59433227,3.13014233 6.20866766,3.06642519 L6.33333333,3.06 L14.8888889,3.06 C15.5628437,3.06 16.1,3.61740968 16.1,4.29414634 L16.1,4.29414634 L16.1,15.7087805 C16.1,16.3855247 15.5628454,16.9429268 14.8888889,16.9429268 L14.8888889,16.9429268 Z M12.458,4.26 L6.33333333,4.26 L6.32486461,4.27474739 L6.32222222,4.29414634 L6.322,6.23 L6.94444444,6.23073171 C7.27581529,6.23073171 7.54444444,6.49936086 7.54444444,6.83073171 C7.54444444,7.12896547 7.32685483,7.37637846 7.04176756,7.42287872 L6.94444444,7.43073171 L6.322,7.43 L6.322,9.401 L6.94444444,9.40146341 C7.27581529,9.40146341 7.54444444,9.67009256 7.54444444,10.0014634 C7.54444444,10.2996972 7.32685483,10.5471102 7.04176756,10.5936104 L6.94444444,10.6014634 L6.322,10.601 L6.322,12.572 L6.94444444,12.5721951 C7.27581529,12.5721951 7.54444444,12.8408243 7.54444444,13.1721951 C7.54444444,13.4704289 7.32685483,13.7178419 7.04176756,13.7643421 L6.94444444,13.7721951 L6.322,13.772 L6.32297049,15.7195508 L6.32297049,15.7195508 L6.32486359,15.7281816 L6.33333333,15.7429268 L12.458,15.742 L12.4555556,15.7087805 L12.4555556,4.29414634 L12.458,4.26 Z M14.8888889,4.26 L13.652,4.26 L13.6555556,4.29414634 L13.6555556,15.7087805 L13.652,15.742 L14.8888889,15.7429268 L14.8973586,15.7281816 L14.9,15.7087805 L14.9,4.29414634 C14.9,4.2862367 14.8988846,4.27980611 14.8973576,4.27474739 L14.8973576,4.27474739 L14.8888889,4.26 Z" id="形状结合"  fill-rule="nonzero"></path>
    </g>
</svg>