<svg xmlns="http://www.w3.org/2000/svg" xmlns:xlink="http://www.w3.org/1999/xlink" version="1.1" width="14" height="14" viewBox="0 0 14 14"><defs><clipPath id="master_svg0_33_12040"><rect x="-0.6000000238418579" y="-0.6000000238418579" width="15.200000047683716" height="15.200000047683716" rx="0"/></clipPath></defs><g clip-path="url(#master_svg0_33_12040)"><path d="M11.4495974,5.063199528610229L4.7062187,1.3957108886102296L4.7060224999999996,1.3956040786102295Q3.5966135,0.7927696086102295,2.50314379,1.4225383086102295Q1.39999998,2.0578784986102296,1.39999998,3.3165297286102295L1.39999998,10.65097972861023Q1.39999992,11.90945702861023,2.50319839,12.544675028610229Q3.5970649999999997,13.174517028610229,4.706186799999999,12.57076302861023L11.4446468,8.906447128610228Q12.599999,8.29205102861023,12.599999,6.98349262861023Q12.599999,5.67492982861023,11.4495974,5.063199528610229ZM4.1328876,2.4498890086102296L4.1330836,2.4499954586102293L10.8762655,6.117378028610229Q11.3999996,6.39591862861023,11.3999996,6.98349262861023Q11.3999996,7.57106472861023,10.8812208,7.846942628610229L4.1329193,11.51655082861023Q3.6135229,11.79928702861023,3.1019857,11.50474522861023Q2.59999996,11.21570372861023,2.60000002,10.65097972861023L2.60000002,3.3165297286102295Q2.60000002,2.7515483286102294,3.1020405,2.4624050886102293Q3.6135596999999997,2.1678027786102296,4.1328876,2.4498890086102296Z" style="mix-blend-mode:passthrough"/></g></svg>
