<svg xmlns="http://www.w3.org/2000/svg" xmlns:xlink="http://www.w3.org/1999/xlink" version="1.1" width="14" height="14" viewBox="0 0 14 14"><defs><clipPath id="master_svg0_3_15179"><rect x="0" y="0" width="14" height="14" rx="0"/></clipPath></defs><g clip-path="url(#master_svg0_3_15179)"><path d="M6.7669896875,1.1669921875C8.0653490875,1.1669921875,9.2942685875,1.6113519675,10.2770681875,2.4031916874999997L10.9787482875,1.7012319575000001L12.1043471875,4.8730704875L8.9325093875,3.7474708875L9.4793490875,3.2009112875C8.700183387500001,2.6065662874999997,7.7469601875,2.2853811875,6.7669896875,2.2869916875C4.2926308875,2.2869916875,2.2869916875,4.2926308875,2.2869916875,6.7669896875C2.2869916875,9.2413482875,4.2926308875,11.2469881875,6.7669896875,11.2469881875C7.9555439875,11.2488851875,9.0957636875,10.7766313875,9.9349078875,9.9349078875C10.7480182875,9.1242289875,11.2173531875,8.031323887500001,11.2453071875,6.8834700875L11.2469881875,6.7669896875L12.3669871875,6.7669896875C12.3688191875,8.2525610875,11.7785251875,9.6776094875,10.7267474875,10.7267474875C9.6776103875,11.7785251875,8.2525615875,12.3688191875,6.7669896875,12.3669871875C3.6741113875,12.3669871875,1.1669921875,9.8598689875,1.1669921875,6.7669896875C1.1669921875,3.6741106875,3.6741113875,1.1669921875,6.7669896875,1.1669921875Z" style="mix-blend-mode:passthrough"/></g></svg>
