<?xml version="1.0" encoding="UTF-8"?>
<svg width="34px" height="34px" viewBox="0 0 34 34" version="1.1" xmlns="http://www.w3.org/2000/svg" xmlns:xlink="http://www.w3.org/1999/xlink">
    <title>形状结合</title>
    <g id="页面-1备份-2" stroke="none" stroke-width="1" fill="none" fill-rule="evenodd">
        <g id="门牌" transform="translate(-713, -328)" fill="var(--el-color-primary)">
            <g id="订单列表" transform="translate(48, 144)">
                <g id="模版列表-+-编组-6备份-7-+-编组-6备份-8-+-编组-6备份-9-+-编组-6备份-10-+-编组-6备份-11-蒙版" transform="translate(548, 92)">
                    <g id="编组-6备份-12" transform="translate(24, 43)">
                        <g id="编组-14" transform="translate(61, 49)">
                            <g id="添加空白门牌" transform="translate(32, 0)">
                                <path d="M17,0 C17.5522847,0 18,0.44771525 18,1 L18,15.999 L33,16 C33.5522847,16 34,16.4477153 34,17 C34,17.5522847 33.5522847,18 33,18 L18,18 L18,33 C18,33.5522847 17.5522847,34 17,34 C16.4477153,34 16,33.5522847 16,33 L16,18 L1,18 C0.44771525,18 0,17.5522847 0,17 C0,16.4477153 0.44771525,16 1,16 L16,16 L16,1 C16,0.44771525 16.4477153,1.11022302e-16 17,0 Z" id="形状结合"></path>
                            </g>
                        </g>
                    </g>
                </g>
            </g>
        </g>
    </g>
</svg>