<svg xmlns="http://www.w3.org/2000/svg" xmlns:xlink="http://www.w3.org/1999/xlink" version="1.1" width="24" height="24" viewBox="0 0 24 24"><defs><clipPath id="master_svg0_19_21052"><rect x="2.399999976158142" y="2.399999976158142" width="19.200000047683716" height="19.200000047683716" rx="0"/></clipPath></defs><g clip-path="url(#master_svg0_19_21052)"><path d="M21.1,18.611112L21.1,5.388889Q21.1,4.35795397,20.371035,3.62898074Q19.642061,2.89999998,18.611112,2.89999998L5.388889,2.89999998Q4.35795707,2.89999998,3.62897854,3.62897854Q2.89999998,4.35795707,2.89999998,5.388889L2.89999998,18.611112Q2.89999998,19.642061,3.62898074,20.371035Q4.35795414,21.1,5.388889,21.1L18.611112,21.1Q19.642065,21.1,20.371033,20.371033Q21.1,19.642065,21.1,18.611112ZM18.611112,4.1000000199999995Q19.9,4.1000000199999995,19.9,5.388889L19.9,18.611112Q19.9,19.9,18.611112,19.9L5.388889,19.9Q4.1000000199999995,19.9,4.1000000199999995,18.611112L4.1000000199999995,5.388889Q4.1000000199999995,4.1000000199999995,5.388889,4.1000000199999995L18.611112,4.1000000199999995Z"/><path d="M7,7.6L17,7.6Q17.059095,7.5999999,17.117054,7.5884712Q17.175013,7.5769421999999995,17.229609,7.5543276Q17.284204000000003,7.531713,17.333341,7.4988817Q17.382477,7.46605033,17.424263,7.42426401Q17.466048999999998,7.38247764,17.49888,7.3333420799999995Q17.531713,7.28420651,17.554327,7.22961003Q17.576942000000003,7.17501354,17.588471,7.11705416Q17.6,7.05909479,17.6,7Q17.6,6.94090515,17.588471,6.88294578Q17.576942000000003,6.82498643,17.554327999999998,6.7703899100000005Q17.531713,6.7157934,17.498882000000002,6.66665784Q17.466051,6.61752227,17.424264,6.575735904Q17.382477,6.533949539,17.333342000000002,6.5011182064Q17.284205999999998,6.468286872,17.229609,6.445672259Q17.175013,6.423057638,17.117054,6.411528811Q17.059095,6.39999998,17,6.39999998L7,6.39999998Q6.940905157,6.39999998,6.88294581,6.411528811Q6.82498646,6.423057638,6.77038994,6.445672259Q6.71579343,6.468286876,6.66665787,6.5011182111Q6.6175223,6.533949547,6.5757359300000005,6.575735912Q6.53394958,6.61752227,6.50111824,6.66665784Q6.46828693,6.7157934,6.44567233,6.7703899100000005Q6.42305768,6.82498643,6.41152883,6.88294578Q6.3999999800000005,6.94090515,6.3999999800000005,7Q6.3999999800000005,7.05909479,6.41152883,7.11705416Q6.42305768,7.17501354,6.44567233,7.22961003Q6.46828693,7.28420651,6.50111827,7.3333420799999995Q6.53394958,7.38247764,6.5757359300000005,7.42426401Q6.6175223,7.46605033,6.66665787,7.4988816400000005Q6.71579343,7.531713,6.77038994,7.5543276Q6.82498646,7.5769421999999995,6.88294581,7.5884712Q6.940905157,7.5999999,7,7.6Z"/><path d="M7,12.6L17,12.6Q17.059095,12.5999999,17.117054,12.5884712Q17.175013,12.5769422,17.229609,12.5543276Q17.284204000000003,12.531713,17.333341,12.4988817Q17.382477,12.46605033,17.424263,12.42426401Q17.466048999999998,12.38247764,17.49888,12.33334208Q17.531713,12.28420651,17.554327,12.22961003Q17.576942000000003,12.17501354,17.588471,12.11705416Q17.6,12.05909479,17.6,12Q17.6,11.94090515,17.588471,11.88294578Q17.576942000000003,11.82498643,17.554327999999998,11.77038991Q17.531713,11.7157934,17.498882000000002,11.66665784Q17.466051,11.61752227,17.424264,11.575735904Q17.382477,11.533949539,17.333342000000002,11.5011182064Q17.284205999999998,11.468286872,17.229609,11.445672259Q17.175013,11.423057638,17.117054,11.411528811Q17.059095,11.39999998,17,11.39999998L7,11.39999998Q6.940905157,11.39999998,6.88294581,11.411528811Q6.82498646,11.423057638,6.77038994,11.445672259Q6.71579343,11.468286876,6.66665787,11.5011182111Q6.6175223,11.533949547,6.5757359300000005,11.575735912Q6.53394958,11.61752227,6.50111824,11.66665784Q6.46828693,11.7157934,6.44567233,11.77038991Q6.42305768,11.82498643,6.41152883,11.88294578Q6.3999999800000005,11.94090515,6.3999999800000005,12Q6.3999999800000005,12.05909479,6.41152883,12.11705416Q6.42305768,12.17501354,6.44567233,12.22961003Q6.46828693,12.28420651,6.50111827,12.33334208Q6.53394958,12.38247764,6.5757359300000005,12.42426401Q6.6175223,12.46605033,6.66665787,12.49888164Q6.71579343,12.531713,6.77038994,12.5543276Q6.82498646,12.5769422,6.88294581,12.5884712Q6.940905157,12.5999999,7,12.6Z"/><path d="M7,17.6L13,17.6Q13.0590944,17.5999999,13.1170535,17.5884712Q13.175012599999999,17.5769422,13.229609,17.5543276Q13.284205400000001,17.531713,13.3333411,17.4988817Q13.3824768,17.46605033,13.4242635,17.42426401Q13.4660497,17.38247764,13.4988813,17.33334208Q13.531712500000001,17.28420651,13.554327,17.22961003Q13.5769415,17.17501354,13.5884705,17.11705416Q13.5999994,17.05909479,13.5999999,17Q13.5999994,16.94090515,13.5884705,16.88294578Q13.5769415,16.82498643,13.554327,16.77038991Q13.531712500000001,16.7157934,13.4988813,16.66665784Q13.4660501,16.61752227,13.424264,16.575735904Q13.3824778,16.533949539,13.3333416,16.5011182064Q13.2842064,16.468286872,13.229609499999999,16.445672259Q13.175012599999999,16.423057638,13.1170535,16.411528811Q13.0590944,16.39999998,13,16.39999998L7,16.39999998Q6.940905157,16.39999998,6.88294581,16.411528811Q6.82498646,16.423057638,6.77038994,16.445672259Q6.71579343,16.468286876,6.66665787,16.5011182111Q6.6175223,16.533949547,6.5757359300000005,16.575735912Q6.53394958,16.61752227,6.50111824,16.66665784Q6.46828693,16.7157934,6.44567233,16.77038991Q6.42305768,16.82498643,6.41152883,16.88294578Q6.3999999800000005,16.94090515,6.3999999800000005,17Q6.3999999800000005,17.05909479,6.41152883,17.11705416Q6.42305768,17.17501354,6.44567233,17.22961003Q6.46828693,17.28420651,6.50111827,17.33334208Q6.53394958,17.38247764,6.5757359300000005,17.42426401Q6.6175223,17.46605033,6.66665787,17.49888164Q6.71579343,17.531713,6.77038994,17.5543276Q6.82498646,17.5769422,6.88294581,17.5884712Q6.940905157,17.5999999,7,17.6Z"/></g></svg>
