<svg xmlns="http://www.w3.org/2000/svg" xmlns:xlink="http://www.w3.org/1999/xlink" fill="var(--el-color-primary)" version="1.1" width="24" height="24" viewBox="0 0 24 24"><defs><clipPath id="master_svg0_38_93679"><rect x="0" y="0" width="24" height="24" rx="0"/></clipPath></defs><g clip-path="url(#master_svg0_38_93679)"><g><path d="M20.7000046875,11.999998828125Q20.7000046875,12.213568828125,20.6895046875,12.426888828125Q20.6790046875,12.640198828125,20.6581046875,12.852748828125Q20.6372046875,13.065288828125,20.6058046875,13.276558828125Q20.5745046875,13.487848828125,20.5328046875,13.697248828125Q20.4912046875,13.906748828125,20.4393046875,14.113948828125Q20.3874046875,14.321148828125,20.3254046875,14.525448828125Q20.2634046875,14.729848828125,20.1914046875,14.930948828125Q20.1195046875,15.132048828125,20.0377046875,15.329348828125Q19.9560046875,15.526648828125,19.8647046875,15.719748828125Q19.7734046875,15.912748828125,19.6727046875,16.101148828124998Q19.5720046875,16.289548828125,19.4622046875,16.472648828125Q19.3524046875,16.655848828125002,19.233804687499997,16.833448828125Q19.1151046875,17.011048828125,18.9879046875,17.182548828125Q18.8607046875,17.354148828125,18.7252046875,17.519248828125Q18.5897046875,17.684348828125,18.4463046875,17.842548828125Q18.3028046875,18.000848828125,18.1518046875,18.151848828125Q18.0008046875,18.302848828125,17.8426046875,18.446248828125Q17.6843046875,18.589748828125,17.5192046875,18.725148828125Q17.354104687499998,18.860648828125,17.1826046875,18.987948828125Q17.011004687499998,19.115148828125,16.8335046875,19.233748828125Q16.655904687499998,19.352448828125,16.4727046875,19.462248828125Q16.2895046875,19.572048828125,16.101104687499998,19.672748828125Q15.9128046875,19.773348828125,15.7197046875,19.864748828125Q15.5267046875,19.956048828125,15.3293046875,20.037748828125Q15.1320046875,20.119448828125,14.9309046875,20.191448828125Q14.7298046875,20.263348828125,14.5255046875,20.325348828125Q14.3211046875,20.387348828125,14.1139046875,20.439248828125Q13.9067046875,20.491148828125,13.6973046875,20.532848828125Q13.4878046875,20.574448828125,13.2765546875,20.605848828125Q13.0652946875,20.637148828125,12.8527446875,20.658148828125Q12.6402046875,20.679048828125,12.4268846875,20.689548828125Q12.2135746875,20.700048828125,12.0000046875,20.700048828125Q11.7864246875,20.700048828125,11.5731146875,20.689548828125Q11.3597946875,20.679048828125,11.1472546875,20.658148828125Q10.9347046875,20.637148828125,10.723444687499999,20.605848828125Q10.5121846875,20.574448828125,10.3027146875,20.532848828125Q10.0932446875,20.491148828125,9.886074687499999,20.439248828125Q9.678904687500001,20.387348828125,9.4745246875,20.325348828125Q9.2701446875,20.263348828125,9.0690546875,20.191448828125Q8.8679746875,20.119448828125,8.6706546875,20.037748828125Q8.4733346875,19.956048828125,8.2802746875,19.864748828125Q8.0872046875,19.773348828125,7.8988446875,19.672748828125Q7.7104946875,19.572048828125,7.5273046875,19.462248828125Q7.3441146875,19.352448828125,7.1665346875000004,19.233748828125Q6.9889546875,19.115148828125,6.8174146874999995,18.987948828125Q6.6458746875,18.860648828125,6.4807746875,18.725148828125Q6.3156846875,18.589748828125,6.1574346875,18.446248828125Q5.9991946875,18.302848828125,5.8481746875,18.151848828125Q5.697154687499999,18.000848828125,5.5537246875,17.842548828125Q5.4102946875,17.684348828125,5.2748046875,17.519248828125Q5.1393146875,17.354148828125,5.0120946875,17.182548828125Q4.8848646875,17.011048828125,4.7662146875,16.833448828125Q4.6475546875,16.655848828125002,4.5377646875,16.472648828125Q4.4279646875,16.289548828125,4.3272846875,16.101148828124998Q4.2266076875,15.912748828125,4.1352926875,15.719748828125Q4.0439786875,15.526648828125,3.9622476875,15.329348828125Q3.8805166875,15.132048828125,3.8085666875,14.930948828125Q3.7366156875,14.729848828125,3.6746186874999998,14.525448828125Q3.6126216875,14.321048828125,3.5607276875,14.113948828125Q3.5088336875,13.906748828125,3.4671676875,13.697248828125Q3.4255016875,13.487848828125,3.3941643875,13.276558828125Q3.3628266875,13.065288828125,3.3418928875,12.852748828125Q3.3209590875,12.640198828125,3.3104795875,12.426888828125Q3.3000000115,12.213568828125,3.3000000115,11.999998828125Q3.3000000115,11.786428828125,3.3104795875,11.573108828125Q3.3209590875,11.359798828125,3.3418928875,11.147248828125Q3.3628266875,10.934708828125,3.3941643875,10.723448828125Q3.4255016875,10.512178828125,3.4671676875,10.302718828125Q3.5088336875,10.093248828124999,3.5607276875,9.886068828125001Q3.6126216875,9.678898828125,3.6746186874999998,9.474518828125Q3.7366156875,9.270148828125,3.8085666875,9.069058828125Q3.8805166875,8.867968828125,3.9622476875,8.670648828125Q4.0439786875,8.473338828125,4.1352926875,8.280268828125Q4.2266076875,8.087198828125,4.3272846875,7.898848828125Q4.4279646875,7.710488828125,4.5377646875,7.527308828125Q4.6475546875,7.344118828125,4.7662146875,7.166538828125001Q4.8848646875,6.988958828125,5.0120946875,6.817418828125Q5.1393146875,6.645868828125,5.2748046875,6.4807788281250005Q5.4102946875,6.315688828124999,5.5537246875,6.1574388281250005Q5.697154687499999,5.999188828125,5.8481746875,5.848168828125Q5.9991846875,5.697148828125,6.1574346875,5.553728828125Q6.3156846875,5.410298828125001,6.4807746875,5.274808828125Q6.6458746875,5.139318828125,6.8174146874999995,5.012098828125Q6.9889546875,4.884868828125,7.1665346875000004,4.766218828125Q7.3441146875,4.647558828125,7.5273046875,4.537758828125Q7.7104946875,4.427958828125,7.8988446875,4.327288828125Q8.0872046875,4.226606828125,8.2802746875,4.135292828125Q8.4733346875,4.043978828125,8.6706546875,3.962247828125Q8.8679746875,3.8805168281249998,9.0690546875,3.808566828125Q9.2701446875,3.736615828125,9.4745246875,3.674618828125Q9.678904687500001,3.612621828125,9.886074687499999,3.560727828125Q10.0932446875,3.5088338281249998,10.3027146875,3.467167828125Q10.5121846875,3.425501828125,10.723444687499999,3.394164328125Q10.9347046875,3.362826728125,11.1472546875,3.341892928125Q11.3597946875,3.320959028125,11.5731146875,3.310479528125Q11.7864246875,3.300000011925,12.0000046875,3.300000011925Q12.2135746875,3.300000011925,12.4268846875,3.310479528125Q12.6402046875,3.320959028125,12.8527446875,3.341892928125Q13.0652946875,3.362826728125,13.2765546875,3.394164328125Q13.4878046875,3.425501828125,13.6973046875,3.467167828125Q13.9067046875,3.5088338281249998,14.1139046875,3.560727828125Q14.3211046875,3.612621828125,14.5255046875,3.674618828125Q14.7298046875,3.736615828125,14.9309046875,3.808566828125Q15.1320046875,3.8805168281249998,15.3293046875,3.962247828125Q15.5267046875,4.043978828125,15.7197046875,4.135292828125Q15.9128046875,4.226606828125,16.101104687499998,4.327288828125Q16.2895046875,4.427958828125,16.4727046875,4.537758828125Q16.655904687499998,4.647558828125,16.8335046875,4.766218828125Q17.011004687499998,4.884868828125,17.1826046875,5.012098828125Q17.354104687499998,5.139318828125,17.5192046875,5.274808828125Q17.6843046875,5.410298828125001,17.8426046875,5.553728828125Q18.0008046875,5.697148828125,18.1518046875,5.848168828125Q18.3028046875,5.999188828125,18.4463046875,6.1574388281250005Q18.5897046875,6.315688828124999,18.7252046875,6.4807788281250005Q18.8607046875,6.645868828125,18.9879046875,6.817418828125Q19.1151046875,6.988958828125,19.233804687499997,7.166538828125001Q19.3524046875,7.344118828125,19.4622046875,7.527308828125Q19.5720046875,7.710488828125,19.6727046875,7.898848828125Q19.7734046875,8.087198828125,19.8647046875,8.280268828125Q19.9560046875,8.473338828125,20.0377046875,8.670648828125Q20.1195046875,8.867968828125,20.1914046875,9.069058828125Q20.2634046875,9.270148828125,20.3254046875,9.474518828125Q20.3874046875,9.678898828125,20.4393046875,9.886068828125001Q20.4912046875,10.093248828124999,20.5328046875,10.302718828125Q20.5745046875,10.512178828125,20.6058046875,10.723448828125Q20.6372046875,10.934708828125,20.6581046875,11.147248828125Q20.6790046875,11.359798828125,20.6895046875,11.573108828125Q20.7000046875,11.786428828125,20.7000046875,11.999998828125ZM19.3000046875,11.999998828125Q19.3000046875,11.820798828125,19.2912046875,11.641808828125Q19.282404687499998,11.462818828125,19.2648046875,11.284478828125Q19.247304687499998,11.106128828125,19.2210046875,10.928868828125001Q19.1947046875,10.751598828125001,19.1597046875,10.575838828125Q19.1248046875,10.400078828125,19.081204687499998,10.226248828125Q19.0377046875,10.052408828125,18.9857046875,9.880918828125Q18.9336046875,9.709428828124999,18.8733046875,9.540698828124999Q18.8129046875,9.371978828125,18.744304687499998,9.206408828125Q18.6757046875,9.040848828125,18.599104687500002,8.878848828125001Q18.5225046875,8.716848828125,18.438004687499998,8.558798828125Q18.3535046875,8.400758828125,18.2614046875,8.247048828125Q18.169304687500002,8.093338828124999,18.0697046875,7.944338828125Q17.9702046875,7.795328828125,17.8634046875,7.651398828125Q17.756704687499997,7.507458828125,17.6430046875,7.368928828125Q17.5293046875,7.230398828125,17.408904687499998,7.097618828125Q17.288604687499998,6.964838828125,17.161904687499998,6.838118828124999Q17.0352046875,6.7113988281250005,16.902404687500002,6.591058828125Q16.7696046875,6.470708828125,16.6311046875,6.357018828125Q16.492504687500002,6.243338828125,16.3486046875,6.136588828124999Q16.204704687499998,6.029828828125,16.0557046875,5.930268828125Q15.9067046875,5.830708828125,15.7529046875,5.738578828125Q15.5992046875,5.646448828125,15.4412046875,5.5619788281249996Q15.2831046875,5.477498828125,15.1211046875,5.400878828125Q14.9591046875,5.324258828125,14.7936046875,5.255678828125Q14.6280046875,5.187098828125,14.4593046875,5.126728828125Q14.2906046875,5.066358828125,14.1191046875,5.014338828125Q13.9476046875,4.9623188281249995,13.7737046875,4.918768828125Q13.5999046875,4.875228828125,13.4242046875,4.840268828125Q13.2483946875,4.805308828125,13.0711346875,4.779008828125Q12.8938646875,4.7527188281249995,12.7155246875,4.735148828125Q12.5371846875,4.717588828125,12.3581946875,4.708788828125Q12.1792046875,4.6999988281250005,12.0000046875,4.6999988281250005Q11.8207946875,4.6999988281250005,11.6418046875,4.708788828125Q11.4628146875,4.717588828125,11.284474687500001,4.735148828125Q11.106134687499999,4.7527188281249995,10.928864687499999,4.779008828125Q10.7516046875,4.805308828125,10.5758446875,4.840268828125Q10.4000746875,4.875228828125,10.2262446875,4.918768828125Q10.052404687500001,4.9623188281249995,9.8809246875,5.014338828125Q9.7094346875,5.066358828125,9.5407046875,5.126728828125Q9.3719746875,5.187098828125,9.2064146875,5.255678828125Q9.0408446875,5.324258828125,8.878844687499999,5.400878828125Q8.7168446875,5.477498828125,8.5588046875,5.5619788281249996Q8.400754687500001,5.646448828125,8.2470446875,5.738578828125Q8.0933446875,5.830708828125,7.9443346875,5.930268828125Q7.7953346875,6.029828828125,7.6513946875,6.136588828124999Q7.5074546875,6.243338828125,7.3689246875,6.357018828125Q7.2304046875,6.470708828125,7.0976146875,6.591058828125Q6.9648346875,6.7113988281250005,6.838124687500001,6.838118828124999Q6.7114046875,6.964838828125,6.5910546875,7.097618828125Q6.4707146875,7.230398828125,6.3570246875,7.368928828125Q6.2433346875,7.507458828125,6.1365846875,7.651398828125Q6.0298346875,7.795328828125,5.9302746875,7.944338828125Q5.8307146875,8.093338828124999,5.7385846874999995,8.247048828125Q5.6464546875,8.400758828125,5.561974687499999,8.558798828125Q5.4774946875,8.716848828125,5.4008746875,8.878848828125001Q5.3242546875,9.040848828125,5.2556746875,9.206408828125Q5.1871046875,9.371978828125,5.1267246875,9.540698828124999Q5.0663546875000005,9.709428828124999,5.0143346875,9.880918828125Q4.9623146875,10.052408828125,4.9187746875,10.226248828125Q4.8752246875,10.400078828125,4.8402646874999995,10.575838828125Q4.8053046875,10.751598828125001,4.7790146875,10.928868828125001Q4.7527146875,11.106128828125,4.7351546875,11.284478828125Q4.7175846875000005,11.462818828125,4.7087946875,11.641808828125Q4.7000046875,11.820798828125,4.7000046875,11.999998828125Q4.7000046875,12.179208828125,4.7087946875,12.358198828125Q4.7175846875000005,12.537178828125,4.7351546875,12.715528828125Q4.7527146875,12.893868828125,4.7790146875,13.071128828125Q4.8053046875,13.248398828125,4.8402646874999995,13.424148828125Q4.8752246875,13.599948828125,4.9187746875,13.773748828125Q4.9623146875,13.947548828125,5.0143346875,14.119048828125Q5.0663546875000005,14.290548828125,5.1267246875,14.459248828125Q5.1871046875,14.628048828125,5.2556746875,14.793548828125Q5.3242546875,14.959148828125,5.4008746875,15.121148828125Q5.4774946875,15.283148828125,5.561974687499999,15.441148828125Q5.6464546875,15.599248828125,5.7385846874999995,15.752948828125Q5.8307146875,15.906648828125,5.9302746875,16.055648828125Q6.0298346875,16.204648828125002,6.1365846875,16.348648828125Q6.2433346875,16.492548828125003,6.3570246875,16.631048828125Q6.4707146875,16.769548828125,6.5910546875,16.902348828125Q6.7114046875,17.035148828125,6.838124687500001,17.161848828125002Q6.9648346875,17.288548828125002,7.0976146875,17.408948828125Q7.2304046875,17.529248828125,7.3689246875,17.642948828125Q7.5074546875,17.756648828125,7.6513946875,17.863448828125Q7.7953346875,17.970148828124998,7.9443346875,18.069748828125Q8.0933446875,18.169248828125,8.2470446875,18.261448828124998Q8.400754687500001,18.353548828125,8.5588046875,18.438048828124998Q8.7168446875,18.522548828125,8.878844687499999,18.599148828125Q9.0408446875,18.675748828125002,9.2064146875,18.744348828125Q9.3719746875,18.812848828125,9.5407046875,18.873248828125Q9.7094346875,18.933648828125,9.8809246875,18.985648828125Q10.052404687500001,19.037648828125,10.2262446875,19.081248828125Q10.4000746875,19.124748828125,10.5758446875,19.159748828125Q10.7516046875,19.194648828125,10.928864687499999,19.220948828125Q11.106134687499999,19.247248828125002,11.284474687500001,19.264848828125Q11.4628146875,19.282448828125,11.6418046875,19.291248828125Q11.8207946875,19.300048828125,12.0000046875,19.300048828125Q12.1792046875,19.300048828125,12.3581946875,19.291248828125Q12.5371846875,19.282448828125,12.7155246875,19.264848828125Q12.8938646875,19.247248828125002,13.0711346875,19.220948828125Q13.2483946875,19.194648828125,13.4242046875,19.159748828125Q13.5999046875,19.124748828125,13.7737046875,19.081248828125Q13.9476046875,19.037648828125,14.1191046875,18.985648828125Q14.2906046875,18.933648828125,14.4593046875,18.873248828125Q14.6280046875,18.812848828125,14.7936046875,18.744348828125Q14.9591046875,18.675748828125002,15.1211046875,18.599148828125Q15.2831046875,18.522548828125,15.4412046875,18.438048828124998Q15.5992046875,18.353548828125,15.7529046875,18.261448828124998Q15.9067046875,18.169248828125,16.0557046875,18.069748828125Q16.204704687499998,17.970148828124998,16.3486046875,17.863448828125Q16.492504687500002,17.756648828125,16.6311046875,17.642948828125Q16.7696046875,17.529248828125,16.902404687500002,17.408948828125Q17.0352046875,17.288548828125002,17.161904687499998,17.161848828125002Q17.288604687499998,17.035148828125,17.408904687499998,16.902348828125Q17.5293046875,16.769548828125,17.6430046875,16.631048828125Q17.756704687499997,16.492548828125003,17.8634046875,16.348648828125Q17.9702046875,16.204648828125002,18.0697046875,16.055648828125Q18.169304687500002,15.906648828125,18.2614046875,15.752948828125Q18.3535046875,15.599248828125,18.438004687499998,15.441148828125Q18.5225046875,15.283148828125,18.599104687500002,15.121148828125Q18.6757046875,14.959148828125,18.744304687499998,14.793548828125Q18.8129046875,14.628048828125,18.8733046875,14.459248828125Q18.9336046875,14.290548828125,18.9857046875,14.119048828125Q19.0377046875,13.947548828125,19.081204687499998,13.773748828125Q19.1248046875,13.599948828125,19.1597046875,13.424148828125Q19.1947046875,13.248398828125,19.2210046875,13.071128828125Q19.247304687499998,12.893868828125,19.2648046875,12.715528828125Q19.282404687499998,12.537178828125,19.2912046875,12.358198828125Q19.3000046875,12.179208828125,19.3000046875,11.999998828125ZM11.2999946875,12.800058828125L11.2999946875,11.800058828125Q11.2999946875,10.843868828125,12.4059946875,10.189588828125Q12.8032746875,9.955118828125,12.7999746875,9.494548828125Q12.7966846875,9.033968828125001,12.3967246875,8.805558828125001Q11.9967646875,8.577148828125,11.5984146875,8.808358828125Q11.2000646875,9.039568828124999,11.2000046875,9.500158828124999Q11.1999946875,9.569088828125,11.1865346875,9.636708828125Q11.1730746875,9.704318828125,11.146684687499999,9.767998828125Q11.1203046875,9.831688828125,11.0819946875,9.889008828125Q11.0436946875,9.946328828125,10.9949446875,9.995068828125Q10.9461946875,10.043808828125,10.8888746875,10.082108828125001Q10.8315446875,10.120408828125,10.7678546875,10.146788828125Q10.7041646875,10.173168828125,10.6365546875,10.186608828125Q10.5689346875,10.200058828125,10.500004687499999,10.200058828125Q10.4310546875,10.200058828125,10.3634346875,10.186608828125Q10.2958146875,10.173158828125,10.2321246875,10.146778828125Q10.1684246875,10.120388828125,10.1111046875,10.082088828125Q10.053774687499999,10.043788828124999,10.0050246875,9.995038828125Q9.956274687499999,9.946278828125,9.9179746875,9.888958828125Q9.8796646875,9.831638828125,9.8532846875,9.767938828125Q9.826894687500001,9.704238828125,9.813444687499999,9.636618828125Q9.7999946875,9.569008828125,9.8000046875,9.500058828124999L9.8000046875,9.499388828125Q9.8002246875,8.886928828125,10.1096246875,8.370658828125Q10.400844687500001,7.884718828125,10.8956346875,7.597528828125Q11.3904246875,7.310348828125,11.9568346875,7.298518828125Q12.5588646875,7.285948828125,13.0909946875,7.589838828125Q13.6231046875,7.893718828125,13.9182046875,8.418628828125Q14.1959046875,8.912458828125,14.1999046875,9.484538828125Q14.2040046875,10.056628828125,13.9335046875,10.554378828125Q13.6459046875,11.083438828125,13.1188046875,11.394528828125Q12.7000046875,11.642288828125,12.7000046875,11.800058828125L12.7000046875,12.800058828125Q12.6999946875,12.869008828125,12.6865446875,12.936618828125Q12.6730946875,13.004238828125,12.6467146875,13.067938828125Q12.6203346875,13.131628828125,12.5820246875,13.188958828125Q12.5437246875,13.246278828125,12.4949746875,13.295038828125Q12.4462246875,13.343748828125,12.3888946875,13.382048828125Q12.3315746875,13.420348828125,12.2678746875,13.446748828125Q12.2041846875,13.473148828125,12.1365646875,13.486648828125Q12.0689446875,13.500048828125,12.0000046875,13.500048828125Q11.9310546875,13.500048828125,11.8634346875,13.486648828125Q11.7958146875,13.473148828125,11.7321246875,13.446748828125Q11.6684246875,13.420348828125,11.6110946875,13.382048828125Q11.5537746875,13.343748828125,11.5050246875,13.295038828125Q11.4562746875,13.246278828125,11.4179746875,13.188958828125Q11.3796646875,13.131628828125,11.3532846875,13.067938828125Q11.3268946875,13.004238828125,11.3134446875,12.936618828125Q11.2999946875,12.869008828125,11.2999946875,12.800058828125ZM12.8001946875,15.200148828125Q12.8001946875,15.278948828125,12.7848246875,15.356248828125Q12.7694546875,15.433448828125,12.7392946875,15.506248828125Q12.7091446875,15.579048828125,12.6653746875,15.644648828125Q12.6215946875,15.710148828125,12.5658846875,15.765848828125Q12.5101646875,15.821548828125,12.4446546875,15.865348828125Q12.3791346875,15.909048828125,12.3063446875,15.939248828125Q12.2335446875,15.969448828125,12.1562646875,15.984748828125Q12.0789846875,16.000148828125,12.0001946875,16.000148828125Q11.9214046875,16.000148828125,11.8441246875,15.984748828125Q11.7668446875,15.969448828125,11.6940446875,15.939248828125Q11.6212546875,15.909048828125,11.5557346875,15.865348828125Q11.4902246875,15.821548828125,11.4345046875,15.765848828125Q11.3787946875,15.710148828125,11.3350146875,15.644648828125Q11.2912446875,15.579048828125,11.2610946875,15.506248828125Q11.2309346875,15.433448828125,11.215564687499999,15.356248828125Q11.2001946875,15.278948828125,11.2001946875,15.200148828125Q11.2001946875,15.121348828125,11.215564687499999,15.044048828125Q11.2309346875,14.966748828125,11.2610946875,14.893948828125Q11.2912446875,14.821248828125,11.3350146875,14.755648828125Q11.3787946875,14.690148828125,11.4345046875,14.634448828125Q11.4902246875,14.578748828125,11.5557346875,14.534948828125Q11.6212546875,14.491148828125,11.6940446875,14.461048828125Q11.7668446875,14.430848828125,11.8441246875,14.415548828125Q11.9214046875,14.400148828125,12.0001946875,14.400148828125Q12.0789846875,14.400148828125,12.1562646875,14.415548828125Q12.2335446875,14.430848828125,12.3063446875,14.461048828125Q12.3791346875,14.491148828125,12.4446546875,14.534948828125Q12.5101646875,14.578748828125,12.5658846875,14.634448828125Q12.6215946875,14.690148828125,12.6653746875,14.755648828125Q12.7091446875,14.821248828125,12.7392946875,14.893948828125Q12.7694546875,14.966748828125,12.7848246875,15.044048828125Q12.8001946875,15.121348828125,12.8001946875,15.200148828125Z" fill-rule="evenodd" fill="var(--el-color-primary)" fill-opacity="1" style="mix-blend-mode:passthrough"/></g></g></svg>