<svg xmlns="http://www.w3.org/2000/svg" xmlns:xlink="http://www.w3.org/1999/xlink" version="1.1" width="16" height="16" viewBox="0 0 16 16"><g><path d="M2.3431,13.6569Q4.68621,16,8,16Q11.3138,16,13.6569,13.6569Q16,11.3138,16,8Q16,4.68621,13.6569,2.3431Q11.3138,0,8,0Q4.68621,0,2.3431,2.3431Q0,4.68621,0,8Q0,11.3138,2.3431,13.6569ZM12.6753,12.6753Q10.7388,14.6119,8,14.6119Q5.26119,14.6119,3.32466,12.6753Q1.38813,10.7388,1.38813,8Q1.38813,5.26119,3.32466,3.32466Q5.26119,1.38813,8,1.38813Q10.7388,1.38813,12.6753,3.32466Q14.6119,5.26119,14.6119,8Q14.6119,10.7388,12.6753,12.6753ZM11.2554,5.68659C11.478,5.56485,11.6165,5.33136,11.6165,5.07764C11.6165,4.69432,11.3057,4.38358,10.9224,4.38358C10.806,4.38358,10.6915,4.41284,10.5887,4.46905Q8.37858,5.67806,6.69152,8.89787Q6.15584,8.36364,5.42134,7.94497C5.31663,7.88528,5.19817,7.8539,5.07764,7.8539C4.69432,7.8539,4.38358,8.16464,4.38358,8.54796C4.38358,8.7973,4.51732,9.02747,4.73394,9.15095Q5.74446,9.72695,6.23536,10.548C6.30752,10.6687,6.41462,10.7646,6.5425,10.823C6.89112,10.9824,7.30293,10.829,7.4623,10.4804Q9.11984,6.85448,11.2554,5.68659Z" fill-rule="evenodd" fill-opacity="1" style="mix-blend-mode:passthrough"/></g></svg>