<svg xmlns="http://www.w3.org/2000/svg" xmlns:xlink="http://www.w3.org/1999/xlink" version="1.1" width="16" height="16" viewBox="0 0 16 16"><g><path d="M13.6569,2.34315Q11.3137,0,8,0Q4.68629,0,2.34315,2.34315Q0,4.68629,0,8Q0,11.3137,2.34315,13.6569Q4.68629,16,8,16Q11.3137,16,13.6569,13.6569Q16,11.3137,16,8Q16,4.68629,13.6569,2.34315ZM3.3247,3.3247Q5.26127,1.38813,8,1.38813Q10.7387,1.38813,12.6753,3.3247Q14.6119,5.26127,14.6119,8Q14.6119,10.7387,12.6753,12.6753Q10.7387,14.6119,8,14.6119Q5.26127,14.6119,3.3247,12.6753Q1.38813,10.7387,1.38813,8Q1.38813,5.26127,3.3247,3.3247ZM8.69411,11.6524L8.69411,6.02265L10.3505,7.67901C10.4806,7.80917,10.6572,7.88229,10.8412,7.88229C11.2246,7.88229,11.5353,7.57155,11.5353,7.18823C11.5353,7.00415,11.4622,6.82761,11.3316,6.69703L8.49082,3.85625C8.21977,3.5852,7.78032,3.5852,7.50927,3.85625L4.66807,6.69745C4.53791,6.82761,4.46478,7.00415,4.46478,7.18823C4.46478,7.57155,4.77553,7.88229,5.15885,7.88229C5.34292,7.88229,5.51946,7.80917,5.64962,7.67901L7.30598,6.02265L7.30598,11.653C7.30598,12.0363,7.61672,12.347,8.00004,12.347C8.38337,12.347,8.69411,12.0363,8.69411,11.6524Z" fill-rule="evenodd"  fill-opacity="1" style="mix-blend-mode:passthrough"/></g></svg>