<svg xmlns="http://www.w3.org/2000/svg" xmlns:xlink="http://www.w3.org/1999/xlink"  version="1.1" width="16" height="16" viewBox="0 0 16 16"><g><path d="M8,0Q11.3137,0,13.6569,2.34315Q16,4.68629,16,8Q16,11.3137,13.6569,13.6569Q11.3137,16,8,16Q4.68629,16,2.34315,13.6569Q1.16302e-7,11.3137,2.90754e-7,8Q2.90754e-7,4.68629,2.34315,2.34315Q4.68629,-1.74453e-7,8,0ZM8,1.36585Q5.59996,1.36585,3.81388,2.84807L13.1519,12.1861Q14.6341,10.4,14.6341,8Q14.6341,5.25205,12.6911,3.30895Q10.748,1.36585,8,1.36585ZM1.36585,8Q1.36585,5.59996,2.84807,3.81388L12.1861,13.1519Q10.4,14.6341,8,14.6341Q5.25205,14.6341,3.30895,12.6911Q1.36585,10.748,1.36585,8Z" fill-rule="evenodd" fill-opacity="1" style="mix-blend-mode:passthrough"/></g></svg>