<svg xmlns="http://www.w3.org/2000/svg" xmlns:xlink="http://www.w3.org/1999/xlink" fill="var(--el-color-primary)" version="1.1" width="24" height="24" viewBox="0 0 24 24"><g><g><path d="M13.779249952316285,19.1761985458374Q10.919279952316284,19.742698545837403,8.332139952316284,18.5669985458374L4.645674952316284,19.3513985458374C4.267539952316284,19.431798545837403,3.895780052316284,19.1904985458374,3.8153258523162843,18.812398545837404C3.789369552316284,18.690398545837404,3.7964800023162844,18.5635985458374,3.8359217523162843,18.445298545837403L4.813099952316284,15.513798545837401Q3.420754952316284,13.248358545837402,3.944125952316284,10.663098545837403Q4.498448952316284,7.9249485458374025,6.928239952316284,6.200798545837403Q9.326889952316284,4.499434545837403,12.381769952316285,4.623190225837402Q15.439899952316285,4.747079545837402,17.658399952316284,6.639068545837402Q19.907699952316285,8.558048545837401,20.179899952316283,11.335698545837403Q20.452899952316283,14.121588545837403,18.601899952316284,16.367698545837403Q16.776699952316285,18.5823985458374,13.779249952316285,19.1761985458374ZM8.270989952316285,17.1486985458374C8.423379952316285,17.116298545837402,8.582219952316283,17.135598545837404,8.722379952316285,17.2035985458374Q10.985539952316284,18.302298545837402,13.507209952316284,17.802798545837405Q16.014299952316286,17.306198545837404,17.521499952316283,15.477298545837403Q19.002899952316284,13.679728545837403,18.786599952316283,11.472238545837403Q18.56939995231628,9.256598545837402,16.749899952316284,7.704288545837402Q14.899699952316285,6.1263385458374024,12.325099952316284,6.022038545837402Q9.747359952316284,5.917618545837403,7.738419952316284,7.342558545837402Q5.760639952316284,8.745958545837404,5.316289952316284,10.940888545837403Q4.875199952316284,13.119718545837403,6.163209952316285,15.024598545837403C6.285109952316285,15.204898545837402,6.316229952316284,15.431598545837403,6.247409952316284,15.637998545837402L5.550959952316284,17.727398545837403L8.270989952316285,17.1486985458374Z" fill-rule="evenodd" fill="var(--el-color-primary)" fill-opacity="1" style="mix-blend-mode:passthrough"/></g></g></svg>