<svg xmlns="http://www.w3.org/2000/svg" xmlns:xlink="http://www.w3.org/1999/xlink"  version="1.1" width="16" height="16.000015258789062" viewBox="0 0 16 16.000015258789062"><g><path d="M13.6569,2.34315Q11.3137,0,8.00001,0Q4.68629,0,2.34315,2.34315Q0,4.6863,0,8.00001Q0,11.3137,2.34315,13.6569Q4.6863,16,8.00001,16Q11.3137,16,13.6569,13.6569Q16,11.3137,16,8.00001Q16,4.68629,13.6569,2.34315ZM3.3247,3.3247Q5.26128,1.38813,8.00001,1.38813Q10.7387,1.38813,12.6753,3.3247Q14.6119,5.26128,14.6119,8.00001Q14.6119,10.7387,12.6753,12.6753Q10.7387,14.6119,8.00001,14.6119Q5.26128,14.6119,3.3247,12.6753Q1.38813,10.7387,1.38813,8.00001Q1.38813,5.26128,3.3247,3.3247ZM8.69411,4.34761L8.69411,9.97734L10.3505,8.32098C10.4806,8.19082,10.6572,8.1177,10.8412,8.1177C11.2246,8.1177,11.5353,8.42844,11.5353,8.81176C11.5353,8.99584,11.4622,9.17238,11.3316,9.30296L8.49082,12.1437C8.21978,12.4148,7.78032,12.4148,7.50927,12.1437L4.66807,9.30254C4.53791,9.17238,4.46478,8.99584,4.46478,8.81176C4.46478,8.42844,4.77553,8.1177,5.15885,8.1177C5.34292,8.1177,5.51946,8.19082,5.64962,8.32098L7.30598,9.97734L7.30598,4.34702C7.30598,3.9637,7.61673,3.65295,8.00005,3.65295C8.38337,3.65295,8.69411,3.9637,8.69411,4.34761Z" fill-rule="evenodd"  fill-opacity="1" style="mix-blend-mode:passthrough"/></g></svg>