<svg xmlns="http://www.w3.org/2000/svg" xmlns:xlink="http://www.w3.org/1999/xlink"  version="1.1" width="15.615989685058594" height="16.000946044921875" viewBox="0 0 15.615989685058594 16.000946044921875"><g><path d="M15.616030786132812,6.07733Q15.616030786132812,6.22652,15.608630786132812,6.37553Q15.601330786132813,6.52455,15.586730786132813,6.67302Q15.572130786132812,6.82149,15.550230786132813,6.96907Q15.528330786132813,7.11664,15.499230786132813,7.26296Q15.470130786132813,7.40929,15.433830786132813,7.55401Q15.397630786132812,7.69873,15.354330786132813,7.84149Q15.311030786132813,7.98426,15.260730786132813,8.12473Q15.210430786132813,8.2652,15.153330786132813,8.40303Q15.096330786132812,8.54087,15.032530786132812,8.67573Q14.968730786132813,8.8106,14.898430786132813,8.94217Q14.828030786132812,9.07375,14.751330786132813,9.20171Q14.674630786132813,9.32968,14.591730786132812,9.45372Q14.508930786132812,9.57777,14.420030786132813,9.6976Q14.331130786132812,9.81743,14.236530786132812,9.93276Q14.141830786132813,10.0481,14.041630786132812,10.1586Q13.941430786132813,10.2692,13.835930786132813,10.3747Q13.730530786132812,10.4802,13.619930786132812,10.5803Q13.509430786132812,10.6805,13.394030786132813,10.7752Q13.278730786132812,10.8698,13.158930786132812,10.9587Q13.039130786132812,11.0476,12.915030786132812,11.1305Q12.791030786132813,11.2133,12.663030786132813,11.29Q12.535030786132813,11.3667,12.403530786132812,11.4371Q12.271930786132813,11.5074,12.137030786132813,11.5712Q12.002130786132813,11.635,11.864330786132813,11.6921Q11.726530786132813,11.7492,11.586030786132813,11.7994Q11.445530786132812,11.8497,11.302830786132812,11.893Q11.160030786132813,11.9363,11.015330786132813,11.9725Q10.870630786132812,12.0088,10.724230786132813,12.0379Q10.577930786132812,12.067,10.430330786132812,12.0889Q10.282830786132813,12.1108,10.134330786132812,12.1254Q9.985850786132813,12.14,9.836840786132813,12.1474Q9.687830786132812,12.1547,9.538640786132813,12.1547Q9.027790786132812,12.1547,8.524110786132812,12.0694Q8.020430786132813,11.9841,7.538050786132812,11.816Q7.055670786132812,11.6478,6.608130786132812,11.4014Q6.160590786132812,11.1551,5.760460786132812,10.8375L3.9836807861328123,12.6143L4.621070786132813,13.2517Q4.730690786132812,13.3505,4.790680786132812,13.4854Q4.850670786132812,13.6203,4.850670786132812,13.7679Q4.850670786132812,13.8363,4.837320786132812,13.9035Q4.823970786132812,13.9706,4.797770786132813,14.0338Q4.771570786132813,14.0971,4.733550786132812,14.154Q4.695520786132812,14.2109,4.647110786132813,14.2593Q4.598710786132813,14.3077,4.541790786132813,14.3457Q4.484880786132813,14.3838,4.421640786132812,14.41Q4.358400786132813,14.4362,4.2912607861328125,14.4495Q4.224130786132813,14.4629,4.155670786132813,14.4629Q4.008070786132812,14.4629,3.8732107861328124,14.4029Q3.7383407861328126,14.3429,3.6395007861328126,14.2333L3.0021207861328123,13.5959L2.4456007861328124,14.1524L3.0829907861328123,14.7898Q3.1926207861328124,14.8886,3.2526107861328124,15.0235Q3.3126007861328124,15.1583,3.3126007861328124,15.3059Q3.3126007861328124,15.3744,3.2992407861328124,15.4415Q3.2858907861328124,15.5087,3.2596907861328126,15.5719Q3.2335007861328124,15.6351,3.1954707861328124,15.6921Q3.1574407861328124,15.749,3.1090407861328124,15.7974Q3.0606307861328124,15.8458,3.0037207861328126,15.8838Q2.9468007861328127,15.9218,2.8835607861328123,15.948Q2.8203207861328123,15.9742,2.7531807861328126,15.9876Q2.6860507861328125,16.0009,2.6176007861328126,16.0009Q2.4699907861328123,16.0009,2.3351307861328126,15.941Q2.2002607861328123,15.881,2.1014207861328127,15.7713L1.4640407861328124,15.134L1.2111707861328125,15.3868Q1.1123307861328124,15.4964,0.9774687861328125,15.5564Q0.8426047861328125,15.6164,0.6949997861328125,15.6164Q0.6265477861328125,15.6164,0.5594117861328125,15.6031Q0.4922757861328125,15.5897,0.4290347861328125,15.5635Q0.3657937861328125,15.5373,0.3088787861328125,15.4993Q0.2519627861328125,15.4613,0.2035607861328125,15.4129Q0.1551577861328125,15.3645,0.1171287861328125,15.3075Q0.0790986861328125,15.2506,0.0529033861328125,15.1874Q0.0267081861328125,15.1241,0.0133538861328125,15.057Q-2.978671874999915e-7,14.9899,-2.978671874999915e-7,14.9214Q-2.978671874999915e-7,14.7738,0.0599905861328125,14.639Q0.1199817861328125,14.5041,0.2296067861328125,14.4053L0.9478657861328125,13.687Q0.9719417861328125,13.6603,0.9986457861328125,13.6362L2.4859507861328125,12.1489Q2.5100207861328125,12.1222,2.5367207861328125,12.0981L4.778840786132813,9.85601Q4.461160786132813,9.45585,4.214760786132812,9.00826Q3.9683507861328127,8.56068,3.8001307861328124,8.07823Q3.6319107861328126,7.59578,3.5466107861328124,7.09203Q3.4613007861328127,6.58827,3.4613007861328127,6.07733Q3.4613007861328127,5.92814,3.4686207861328127,5.77913Q3.4759407861328127,5.63012,3.4905607861328125,5.48165Q3.5051907861328124,5.33318,3.5270807861328124,5.1856Q3.5489707861328124,5.03803,3.5780707861328125,4.8917Q3.6071807861328127,4.74538,3.6434307861328126,4.60066Q3.6796807861328125,4.45594,3.7229907861328124,4.31317Q3.7663007861328124,4.17041,3.8165607861328126,4.02994Q3.8668207861328123,3.88947,3.9239107861328124,3.75163Q3.9810007861328125,3.6138,4.044790786132812,3.47893Q4.108580786132812,3.34407,4.178900786132813,3.21249Q4.249230786132813,3.08092,4.325930786132813,2.95295Q4.4026307861328124,2.82499,4.485520786132812,2.70094Q4.568400786132813,2.57689,4.657270786132813,2.45706Q4.746150786132812,2.33723,4.840790786132812,2.22191Q4.935440786132813,2.10658,5.0356307861328125,1.99604Q5.135820786132813,1.8855,5.2413107861328125,1.78Q5.346810786132813,1.67451,5.457350786132812,1.57432Q5.567890786132812,1.47413,5.683220786132813,1.37948Q5.798540786132812,1.28484,5.9183707861328125,1.19596Q6.038200786132813,1.10709,6.162250786132812,1.02421Q6.286300786132813,0.941321,6.414260786132813,0.864622Q6.542230786132812,0.787922,6.673800786132812,0.717595Q6.805380786132813,0.647267,6.940240786132812,0.583479Q7.075110786132813,0.519692,7.212940786132813,0.4626Q7.3507807861328125,0.405507,7.491250786132812,0.355246Q7.631720786132813,0.304985,7.774480786132813,0.261678Q7.917250786132812,0.21837,8.061970786132813,0.18212Q8.206690786132812,0.145869,8.353010786132813,0.116764Q8.499340786132812,0.0876582,8.646910786132812,0.0657674Q8.794490786132812,0.0438766,8.942960786132813,0.0292534Q9.091430786132813,0.0146302,9.240440786132812,0.00730976Q9.389450786132812,-0.0000106692,9.538640786132813,-0.0000106692Q9.687830786132812,-0.0000106692,9.836840786132813,0.00730976Q9.985850786132813,0.0146302,10.134330786132812,0.0292534Q10.282830786132813,0.0438766,10.430330786132812,0.0657674Q10.577930786132812,0.0876582,10.724230786132813,0.116764Q10.870630786132812,0.145869,11.015330786132813,0.18212Q11.160030786132813,0.21837,11.302830786132812,0.261678Q11.445530786132812,0.304985,11.586030786132813,0.355246Q11.726530786132813,0.405507,11.864330786132813,0.4626Q12.002130786132813,0.519692,12.137030786132813,0.583479Q12.271930786132813,0.647267,12.403530786132812,0.717594Q12.535030786132813,0.787922,12.663030786132813,0.864621Q12.791030786132813,0.941321,12.915030786132812,1.02421Q13.039130786132812,1.10709,13.158930786132812,1.19596Q13.278730786132812,1.28484,13.394030786132813,1.37948Q13.509430786132812,1.47413,13.619930786132812,1.57432Q13.730530786132812,1.67451,13.835930786132813,1.78Q13.941430786132813,1.8855,14.041630786132812,1.99604Q14.141830786132813,2.10658,14.236530786132812,2.22191Q14.331130786132812,2.33723,14.420030786132813,2.45706Q14.508930786132812,2.57689,14.591730786132812,2.70094Q14.674630786132813,2.82499,14.751330786132813,2.95295Q14.828030786132812,3.08092,14.898430786132813,3.21249Q14.968730786132813,3.34407,15.032530786132812,3.47893Q15.096330786132812,3.6138,15.153330786132813,3.75163Q15.210430786132813,3.88947,15.260730786132813,4.02994Q15.311030786132813,4.17041,15.354330786132813,4.31317Q15.397630786132812,4.45594,15.433830786132813,4.60066Q15.470130786132813,4.74538,15.499230786132813,4.8917Q15.528330786132813,5.03803,15.550230786132813,5.1856Q15.572130786132812,5.33318,15.586730786132813,5.48165Q15.601330786132813,5.63012,15.608630786132812,5.77913Q15.616030786132812,5.92814,15.616030786132812,6.07733ZM14.227830786132813,6.07733Q14.227830786132813,5.96222,14.222230786132812,5.84725Q14.216530786132813,5.73227,14.205230786132812,5.61771Q14.194030786132812,5.50315,14.177130786132812,5.38929Q14.160230786132812,5.27542,14.137730786132812,5.16252Q14.115330786132812,5.04961,14.087330786132812,4.93795Q14.059330786132813,4.82629,14.025930786132813,4.71613Q13.992530786132813,4.60597,13.953730786132812,4.49759Q13.914930786132812,4.3892,13.870930786132812,4.28285Q13.826830786132813,4.1765,13.777630786132812,4.07244Q13.728430786132812,3.96838,13.674130786132812,3.86686Q13.619930786132812,3.76534,13.560730786132812,3.6666Q13.501530786132813,3.56787,13.437530786132813,3.47215Q13.373630786132813,3.37644,13.305030786132813,3.28398Q13.236430786132813,3.19152,13.163430786132812,3.10254Q13.090430786132812,3.01355,13.013130786132812,2.92826Q12.935830786132813,2.84297,12.854430786132813,2.76157Q12.773030786132813,2.68017,12.687730786132812,2.60287Q12.602430786132812,2.52556,12.513430786132812,2.45253Q12.424430786132813,2.37951,12.332030786132812,2.31093Q12.239530786132812,2.24236,12.143830786132812,2.17841Q12.048130786132813,2.11445,11.949330786132812,2.05527Q11.850630786132813,1.99609,11.749130786132813,1.94183Q11.647630786132812,1.88756,11.543530786132813,1.83835Q11.439430786132812,1.78913,11.333130786132813,1.74508Q11.226730786132812,1.70103,11.118430786132812,1.66224Q11.010030786132813,1.62346,10.899830786132812,1.59005Q10.789730786132813,1.55663,10.678030786132812,1.52866Q10.566330786132813,1.50069,10.453430786132813,1.47823Q10.340530786132813,1.45578,10.226730786132812,1.43889Q10.112830786132813,1.422,9.998270786132812,1.41071Q9.883710786132813,1.39943,9.768730786132812,1.39378Q9.653760786132812,1.38813,9.538640786132813,1.38813Q9.423530786132812,1.38813,9.308560786132812,1.39378Q9.193580786132813,1.39943,9.079020786132812,1.41071Q8.964460786132813,1.422,8.850590786132813,1.43889Q8.736730786132812,1.45578,8.623830786132812,1.47823Q8.510920786132813,1.50069,8.399260786132812,1.52866Q8.287600786132813,1.55663,8.177440786132813,1.59005Q8.067280786132812,1.62346,7.958900786132813,1.66224Q7.850510786132812,1.70103,7.744160786132812,1.74508Q7.637810786132812,1.78913,7.533750786132813,1.83835Q7.429690786132812,1.88756,7.328170786132812,1.94183Q7.226650786132812,1.99609,7.127910786132812,2.05527Q7.029180786132812,2.11445,6.933460786132812,2.17841Q6.837750786132813,2.24236,6.745290786132813,2.31093Q6.652830786132813,2.37951,6.563850786132813,2.45253Q6.474860786132813,2.52556,6.389570786132812,2.60287Q6.3042807861328125,2.68017,6.222880786132812,2.76157Q6.141480786132813,2.84297,6.0641807861328125,2.92826Q5.986870786132813,3.01355,5.913840786132813,3.10254Q5.840820786132812,3.19152,5.772240786132812,3.28398Q5.703670786132813,3.37644,5.639720786132813,3.47215Q5.575760786132813,3.56787,5.516580786132812,3.6666Q5.457400786132813,3.76534,5.403140786132813,3.86686Q5.348870786132813,3.96838,5.299660786132812,4.07244Q5.250440786132812,4.1765,5.206390786132813,4.28285Q5.1623407861328126,4.3892,5.123550786132813,4.49759Q5.084770786132813,4.60597,5.051360786132813,4.71613Q5.0179407861328125,4.82629,4.989970786132813,4.93795Q4.962000786132813,5.04961,4.939540786132812,5.16252Q4.917090786132812,5.27542,4.900200786132812,5.38929Q4.883310786132813,5.50315,4.872020786132812,5.61771Q4.860740786132813,5.73227,4.855090786132813,5.84725Q4.849440786132813,5.96222,4.849440786132813,6.07733Q4.849440786132813,6.19245,4.855090786132813,6.30742Q4.860740786132813,6.4224,4.872020786132812,6.53696Q4.883310786132813,6.65152,4.900200786132812,6.76538Q4.917090786132812,6.87925,4.939540786132812,6.99215Q4.962000786132813,7.10505,4.989970786132813,7.21672Q5.0179407861328125,7.32838,5.051360786132813,7.43854Q5.084770786132813,7.54869,5.123550786132813,7.65708Q5.1623407861328126,7.76546,5.206390786132813,7.87181Q5.250440786132812,7.97816,5.299660786132812,8.08222Q5.348870786132813,8.18629,5.403140786132813,8.28781Q5.457400786132813,8.38933,5.516580786132812,8.48806Q5.575760786132813,8.5868,5.639720786132813,8.68251Q5.703670786132813,8.77822,5.772240786132812,8.87069Q5.840820786132812,8.96315,5.913840786132813,9.05213Q5.986870786132813,9.14111,6.0641807861328125,9.22641Q6.141480786132813,9.3117,6.222880786132812,9.3931Q6.3042807861328125,9.4745,6.389570786132812,9.5518Q6.474860786132813,9.62911,6.563850786132813,9.70214Q6.652830786132813,9.77516,6.745290786132813,9.84373Q6.837750786132813,9.91231,6.933460786132812,9.97626Q7.029180786132812,10.0402,7.127910786132812,10.0994Q7.226650786132812,10.1586,7.328170786132812,10.2128Q7.429690786132812,10.2671,7.533750786132813,10.3163Q7.637810786132812,10.3655,7.744160786132812,10.4096Q7.850510786132812,10.4536,7.958900786132813,10.4924Q8.067280786132812,10.5312,8.177440786132813,10.5646Q8.287600786132813,10.598,8.399260786132812,10.626Q8.510920786132813,10.654,8.623830786132812,10.6764Q8.736730786132812,10.6989,8.850590786132813,10.7158Q8.964460786132813,10.7327,9.079020786132812,10.744Q9.193580786132813,10.7552,9.308550786132813,10.7609Q9.423530786132812,10.7665,9.538640786132813,10.7665Q9.653760786132812,10.7665,9.768730786132812,10.7609Q9.883710786132813,10.7552,9.998270786132812,10.744Q10.112830786132813,10.7327,10.226730786132812,10.7158Q10.340530786132813,10.6989,10.453430786132813,10.6764Q10.566330786132813,10.654,10.678030786132812,10.626Q10.789730786132813,10.598,10.899830786132812,10.5646Q11.010030786132813,10.5312,11.118430786132812,10.4924Q11.226730786132812,10.4536,11.333130786132813,10.4096Q11.439430786132812,10.3655,11.543530786132813,10.3163Q11.647630786132812,10.2671,11.749130786132813,10.2128Q11.850630786132813,10.1586,11.949330786132812,10.0994Q12.048130786132813,10.0402,12.143830786132812,9.97626Q12.239530786132812,9.91231,12.332030786132812,9.84373Q12.424430786132813,9.77516,12.513430786132812,9.70214Q12.602430786132812,9.62911,12.687730786132812,9.5518Q12.773030786132813,9.4745,12.854430786132813,9.3931Q12.935830786132813,9.3117,13.013130786132812,9.22641Q13.090430786132812,9.14112,13.163430786132812,9.05213Q13.236430786132813,8.96315,13.305030786132813,8.87069Q13.373630786132813,8.77823,13.437530786132813,8.68251Q13.501530786132813,8.5868,13.560730786132812,8.48806Q13.619930786132812,8.38933,13.674130786132812,8.28781Q13.728430786132812,8.18629,13.777630786132812,8.08222Q13.826830786132813,7.97816,13.870930786132812,7.87181Q13.914930786132812,7.76546,13.953730786132812,7.65708Q13.992530786132813,7.54869,14.025930786132813,7.43854Q14.059330786132813,7.32838,14.087330786132812,7.21672Q14.115330786132812,7.10505,14.137730786132812,6.99215Q14.160230786132812,6.87925,14.177130786132812,6.76538Q14.194030786132812,6.65152,14.205230786132812,6.53696Q14.216530786132813,6.4224,14.222230786132812,6.30742Q14.227830786132813,6.19245,14.227830786132813,6.07733ZM11.770230786132812,6.07781Q11.770230786132812,6.18747,11.759430786132812,6.2966Q11.748730786132812,6.40573,11.727330786132812,6.51328Q11.705930786132813,6.62083,11.674130786132812,6.72577Q11.642230786132812,6.83071,11.600330786132812,6.93202Q11.558330786132812,7.03333,11.506630786132812,7.13004Q11.454930786132813,7.22675,11.394030786132813,7.31793Q11.333130786132813,7.4091,11.263530786132813,7.49387Q11.194030786132812,7.57864,11.116430786132813,7.65618Q11.038930786132813,7.73372,10.954130786132813,7.80329Q10.869330786132812,7.87285,10.778230786132813,7.93377Q10.687030786132812,7.9947,10.590330786132812,8.04639Q10.493630786132812,8.09808,10.392330786132813,8.14005Q10.290930786132812,8.18201,10.186030786132813,8.21385Q10.081130786132812,8.24568,9.973550786132812,8.26707Q9.866000786132812,8.28846,9.756870786132813,8.29921Q9.647740786132813,8.30996,9.538080786132813,8.30996Q9.428420786132813,8.30996,9.319290786132813,8.29921Q9.210160786132812,8.28846,9.102610786132812,8.26707Q8.995050786132813,8.24568,8.890120786132812,8.21385Q8.785180786132813,8.18201,8.683870786132813,8.14005Q8.582560786132813,8.09808,8.485850786132813,8.04639Q8.389140786132813,7.9947,8.297960786132812,7.93378Q8.206780786132812,7.87285,8.122020786132813,7.80329Q8.037250786132812,7.73372,7.9597107861328125,7.65618Q7.8821707861328125,7.57864,7.812600786132813,7.49387Q7.743030786132812,7.4091,7.682110786132813,7.31793Q7.6211907861328125,7.22675,7.569500786132813,7.13004Q7.517800786132812,7.03333,7.475840786132813,6.93202Q7.433870786132813,6.83071,7.402040786132813,6.72577Q7.370210786132812,6.62083,7.348820786132812,6.51328Q7.327420786132812,6.40573,7.316680786132813,6.2966Q7.305930786132812,6.18747,7.305930786132812,6.07781Q7.305930786132812,5.96815,7.316680786132813,5.85902Q7.327420786132812,5.74989,7.348820786132812,5.64234Q7.370210786132812,5.53479,7.402040786132813,5.42985Q7.433870786132813,5.32492,7.475840786132813,5.2236Q7.517800786132812,5.12229,7.569500786132813,5.02558Q7.6211907861328125,4.92887,7.682110786132813,4.8377Q7.743030786132812,4.74652,7.812600786132813,4.66175Q7.8821707861328125,4.57698,7.9597107861328125,4.49944Q8.037250786132812,4.4219,8.122020786132813,4.35234Q8.206780786132812,4.28277,8.297960786132812,4.22185Q8.389140786132813,4.16092,8.485850786132813,4.10923Q8.582560786132813,4.05754,8.683870786132813,4.01557Q8.785180786132813,3.97361,8.890120786132812,3.94178Q8.995050786132813,3.90995,9.102610786132812,3.88855Q9.210160786132812,3.86716,9.319290786132813,3.85641Q9.428420786132813,3.84566,9.538080786132813,3.84566Q9.647740786132813,3.84566,9.756870786132813,3.85641Q9.866000786132812,3.86716,9.973550786132812,3.88855Q10.081130786132812,3.90995,10.186030786132813,3.94178Q10.290930786132812,3.97361,10.392330786132813,4.01557Q10.493630786132812,4.05754,10.590330786132812,4.10923Q10.687030786132812,4.16092,10.778230786132813,4.22185Q10.869330786132812,4.28277,10.954130786132813,4.35234Q11.038930786132813,4.4219,11.116430786132813,4.49944Q11.194030786132812,4.57698,11.263530786132813,4.66175Q11.333130786132813,4.74652,11.394030786132813,4.8377Q11.454930786132813,4.92887,11.506630786132812,5.02558Q11.558330786132812,5.12229,11.600330786132812,5.2236Q11.642230786132812,5.32492,11.674130786132812,5.42985Q11.705930786132813,5.53479,11.727330786132812,5.64234Q11.748730786132812,5.74989,11.759430786132812,5.85902Q11.770230786132812,5.96815,11.770230786132812,6.07781ZM10.382130786132812,6.07781Q10.382130786132812,5.99468,10.365830786132813,5.91315Q10.349630786132812,5.83162,10.317830786132813,5.75482Q10.286030786132812,5.67802,10.239830786132812,5.60891Q10.193630786132813,5.53979,10.134830786132813,5.48101Q10.076130786132813,5.42223,10.007030786132812,5.37605Q9.937860786132813,5.32986,9.861060786132812,5.29805Q9.784260786132812,5.26624,9.702730786132813,5.25002Q9.621200786132812,5.23381,9.538080786132813,5.23381Q9.454950786132812,5.23381,9.373420786132813,5.25002Q9.291890786132813,5.26624,9.215090786132812,5.29805Q9.138290786132812,5.32986,9.069170786132812,5.37605Q9.000050786132812,5.42223,8.941270786132813,5.48101Q8.882490786132813,5.53979,8.836310786132813,5.60891Q8.790130786132812,5.67802,8.758320786132812,5.75482Q8.726500786132812,5.83162,8.710290786132813,5.91315Q8.694070786132812,5.99468,8.694070786132812,6.07781Q8.694070786132812,6.16094,8.710290786132813,6.24247Q8.726500786132812,6.324,8.758320786132812,6.4008Q8.790130786132812,6.4776,8.836310786132813,6.54672Q8.882490786132813,6.61583,8.941270786132813,6.67461Q9.000050786132812,6.73339,9.069170786132812,6.77958Q9.138290786132812,6.82576,9.215090786132812,6.85757Q9.291890786132813,6.88938,9.373420786132813,6.9056Q9.454950786132812,6.92182,9.538080786132813,6.92182Q9.621200786132812,6.92182,9.702730786132813,6.9056Q9.784260786132812,6.88938,9.861060786132812,6.85757Q9.937860786132813,6.82576,10.007030786132812,6.77958Q10.076130786132813,6.73339,10.134830786132813,6.67461Q10.193630786132813,6.61583,10.239830786132812,6.54672Q10.286030786132812,6.4776,10.317830786132813,6.4008Q10.349630786132812,6.324,10.365830786132813,6.24247Q10.382130786132812,6.16094,10.382130786132812,6.07781Z" fill-rule="evenodd" fill-opacity="1" style="mix-blend-mode:passthrough"/></g></svg>