<?xml version="1.0" encoding="UTF-8"?>
<svg width="18px" height="18px" viewBox="0 0 18 18" version="1.1" xmlns="http://www.w3.org/2000/svg" xmlns:xlink="http://www.w3.org/1999/xlink">
    <title>预览</title>
    <g id="预览" stroke="none" stroke-width="1"  fill-rule="evenodd">
        <path d="M2.754071,11.49933 C4.47400367,13.73311 6.55598,14.85 9,14.85 C11.444,14.85 13.5260333,13.7330567 15.2461,11.49917 L15.2476,11.49712 C15.6037333,11.0341533 15.8368333,10.6779933 15.9469,10.42864 C16.1156333,10.0463867 16.2,9.57017333 16.2,9 C16.2,8.43031333 16.1157,7.95438667 15.9471,7.57222 C15.8371,7.32295333 15.6041667,6.96678667 15.2483,6.50372 L15.2459,6.50067 C13.5259667,4.26689 11.444,3.15 9,3.15 C6.55597333,3.15 4.47395467,4.26694333 2.753944,6.50083 L2.752374,6.50287 C2.39623933,6.96584333 2.16314233,7.32200667 2.053083,7.57136 C1.884361,7.95361333 1.8,8.42982667 1.8,9 C1.8,9.57042 1.88450633,10.0469633 2.053519,10.42963 C2.16388833,10.6795233 2.39740567,11.03609 2.754071,11.49933 Z M14.5327,10.95043 C12.9929667,12.9501433 11.1487333,13.95 9,13.95 C6.85124667,13.95 5.00697333,12.9500867 3.46718,10.95026 C3.1547,10.5444133 2.95790333,10.2496633 2.87679,10.06601 C2.75893,9.79915667 2.7,9.44382 2.7,9 C2.7,8.55635333 2.75881333,8.20128 2.87644,7.93478 C2.95728667,7.75162667 3.15372,7.45723667 3.46574,7.05161 L3.46731,7.04957 C5.00701667,5.04985733 6.85124667,4.05 9,4.05 C11.1487333,4.05 12.993,5.04991 14.5328,7.04973 L14.5347,7.05214 C14.8465667,7.45792 15.0429,7.75238 15.1237,7.93552 C15.2412333,8.20196667 15.3,8.55679333 15.3,9 C15.3,9.44364667 15.2412,9.79872 15.1236,10.06522 C15.0427333,10.2483733 14.8463,10.54276 14.5343,10.94838 L14.5327,10.95043 Z M10.7497,7.25186 C10.2664267,6.76858667 9.68306333,6.52695 8.99961,6.52695 C8.31615667,6.52695 7.73279333,6.76858667 7.24952,7.25186 C6.76624667,7.73513333 6.52461,8.31849667 6.52461,9.00195 C6.52461,9.68540333 6.76624667,10.2687667 7.24952,10.75204 C7.73279333,11.2353133 8.31615667,11.47695 8.99961,11.47695 C9.68306333,11.47695 10.2664267,11.2353133 10.7497,10.75204 C11.2329733,10.2687667 11.47461,9.68540333 11.47461,9.00195 C11.47461,8.31849667 11.2329733,7.73513333 10.7497,7.25186 Z M7.88592,7.88826 C8.19345333,7.58072 8.56468333,7.42695 8.99961,7.42695 C9.43453667,7.42695 9.80576667,7.58072 10.1133,7.88826 C10.42084,8.1958 10.57461,8.56703 10.57461,9.00195 C10.57461,9.43687667 10.42084,9.80811 10.1133,10.11565 C9.80576667,10.4231833 9.43453667,10.57695 8.99961,10.57695 C8.56468333,10.57695 8.19345333,10.4231833 7.88592,10.11565 C7.57838,9.80811 7.42461,9.43687667 7.42461,9.00195 C7.42461,8.56703 7.57838,8.1958 7.88592,7.88826 Z" ></path>
    </g>
</svg>
