<svg xmlns="http://www.w3.org/2000/svg" xmlns:xlink="http://www.w3.org/1999/xlink" fill="var(--el-color-primary)" version="1.1" width="14" height="14" viewBox="0 0 14 14"><defs><clipPath id="master_svg0_37_81138"><rect x="14" y="0" width="14" height="14" rx="0"/></clipPath></defs><g transform="matrix(0,1,-1,0,14,-14)" clip-path="url(#master_svg0_37_81138)"><g><path d="M24.85908,12.79710625L24.34544,12.79710625C24.23498,12.79710625,24.14544,12.70760625,24.14544,12.59710625L24.14544,11.56990625C24.14544,11.45940625,24.23498,11.36987625,24.34544,11.36987625L24.85908,11.36987625Q25.1547,11.36987625,25.3637,11.16085625Q25.572699999999998,10.95183625,25.572699999999998,10.65623625L25.572699999999998,3.51982625Q25.572699999999998,3.22422625,25.3637,3.0152062500000003Q25.1547,2.80618625,24.85908,2.80618625L24.34544,2.80618625C24.23498,2.80618625,24.14544,2.71664625,24.14544,2.60618625L24.14544,1.57890625C24.14544,1.46844935,24.23498,1.37890625,24.34544,1.37890625L24.85908,1.37890625Q25.7459,1.37890625,26.3729,2.00596825Q27,2.63302625,27,3.51982625L27,10.65623625Q27,11.54300625,26.3729,12.17010625Q25.7459,12.79720625,24.85908,12.79710625ZM15.713640999999999,7.64087625C15.319508,7.64087625,15,7.32136625,15,6.92723625C15,6.53310625,15.319508,6.21359625,15.713640999999999,6.21359625L20.41368,6.21359625L18.20508,4.00500625C18.12697,3.92689625,18.12697,3.80026625,18.20508,3.72215625L18.93132,2.99591625C19.009430000000002,2.91780625,19.13606,2.91780625,19.21417,2.99591625L22.64095,6.42269625L23.145490000000002,6.92723625L22.64095,7.43178625L19.21417,10.85856625C19.13606,10.93666625,19.009430000000002,10.93666625,18.93132,10.85856625L18.20508,10.13231625C18.12697,10.05421625,18.12697,9.92757625,18.20508,9.84947625L20.41368,7.64087625L15.713640999999999,7.64087625Z" fill-rule="evenodd" fill="var(--el-color-primary)" fill-opacity="1" style="mix-blend-mode:passthrough"/></g></g></svg>