<svg xmlns="http://www.w3.org/2000/svg" xmlns:xlink="http://www.w3.org/1999/xlink" version="1.1" width="16" height="14.961456298828125" viewBox="0 0 16 14.961456298828125"><g><path d="M8.42101,2.95508L8.42101,3.72877C8.42101,4.13043,8.74662,4.45605,9.14829,4.45605C9.54995,4.45605,9.87557,4.13043,9.87557,3.72877L9.87557,2.24322C9.87568,2.23809,9.87573,2.23295,9.87573,2.2278L9.87557,2.21238L9.87557,0.727282C9.87557,0.325615,9.54995,0,9.14829,0C8.74662,0,8.42101,0.325615,8.42101,0.727282L8.42101,1.50052L0.727282,1.50052C0.325615,1.50052,0,1.82613,0,2.2278C0,2.62947,0.325615,2.95508,0.727282,2.95508L8.42101,2.95508ZM14.5075,1.50052L12.2108,1.50052C11.8091,1.50052,11.4835,1.82613,11.4835,2.2278C11.4835,2.62947,11.8091,2.95508,12.2108,2.95508L14.5075,2.95508C14.9092,2.95508,15.2348,2.62947,15.2348,2.2278C15.2348,1.82613,14.9092,1.50052,14.5075,1.50052ZM6.12448,5.98L6.12448,7.4627C6.12434,7.46862,6.12427,7.47455,6.12427,7.4805C6.12427,7.48645,6.12434,7.49239,6.12448,7.4983L6.12448,8.98148C6.12448,9.38315,6.4501,9.70876,6.85176,9.70876C7.25343,9.70876,7.57905,9.38315,7.57905,8.98148L7.57905,8.20778L15.2727,8.20778C15.6744,8.20778,16,7.88217,16,7.4805C16,7.07884,15.6744,6.75322,15.2727,6.75322L7.57905,6.75322L7.57905,5.98C7.57905,5.57833,7.25343,5.25272,6.85176,5.25272C6.4501,5.25272,6.12448,5.57833,6.12448,5.98ZM3.78952,6.75322L0.727282,6.75322C0.325615,6.75322,0,7.07884,0,7.4805C0,7.88217,0.325615,8.20778,0.727282,8.20778L3.78952,8.20778C4.19119,8.20778,4.51681,7.88217,4.51681,7.4805C4.51681,7.07884,4.19119,6.75322,3.78952,6.75322ZM8.42101,13.4605L8.42101,14.2342C8.42101,14.6358,8.74662,14.9615,9.14829,14.9615C9.54995,14.9615,9.87557,14.6358,9.87557,14.2342L9.87557,12.7486C9.87568,12.7435,9.87573,12.7384,9.87573,12.7332L9.87557,12.7178L9.87557,11.2327C9.87557,10.831,9.54995,10.5054,9.14829,10.5054C8.74662,10.5054,8.42101,10.831,8.42101,11.2327L8.42101,12.0059L0.727282,12.0059C0.325615,12.0059,0,12.3316,0,12.7332C0,13.1349,0.325615,13.4605,0.727282,13.4605L8.42101,13.4605ZM14.5075,12.0059L12.2108,12.0059C11.8091,12.0059,11.4835,12.3316,11.4835,12.7332C11.4835,13.1349,11.8091,13.4605,12.2108,13.4605L14.5075,13.4605C14.9092,13.4605,15.2348,13.1349,15.2348,12.7332C15.2348,12.3316,14.9092,12.0059,14.5075,12.0059Z" fill-rule="evenodd" fill-opacity="1"/></g></svg>