<svg xmlns="http://www.w3.org/2000/svg" xmlns:xlink="http://www.w3.org/1999/xlink" version="1.1" width="13.095870971679688" height="16" viewBox="0 0 13.095870971679688 16"><g><path d="M2.90415,3.64379Q2.90414,5.15309,3.97139,6.22034Q5.03863,7.28758,6.54793,7.28758Q8.05694,7.28706,9.12374,6.21989Q10.1905,5.15273,10.1905,3.64379Q10.1905,2.13485,9.12374,1.06769Q8.05694,0.000521046,6.54793,0Q5.03863,0,3.97139,1.06724Q2.90415,2.13448,2.90415,3.64379ZM5.75358,0.287051C4.23197,0.645871,3.09949,2.01255,3.09949,3.64373C3.09949,5.54838,4.64351,7.0924,6.54816,7.0924C6.82147,7.09231,7.08735,7.06042,7.3423,7.00024C7.08728,7.06045,6.82133,7.09236,6.54793,7.09245C4.64329,7.09245,3.09927,5.54843,3.09927,3.64379C3.09927,2.01252,4.23186,0.645789,5.75358,0.287051ZM6.00429,1.34595C6.17882,1.3048,6.36083,1.28302,6.54793,1.28302C7.85156,1.28302,8.90818,2.34016,8.90755,3.64379C8.907,4.75946,8.13222,5.69398,7.09145,5.93935C8.13234,5.69406,8.90723,4.75949,8.90777,3.64373C8.90841,2.34011,7.85179,1.28297,6.54816,1.28297C6.36098,1.28297,6.17889,1.30476,6.00429,1.34595ZM4.38344,3.64369Q4.383,2.74682,5.01703,2.11248Q5.65106,1.47814,6.54793,1.47814Q7.4448,1.47814,8.07883,2.11248Q8.71286,2.74682,8.71243,3.64369Q8.71199,4.53995,8.07809,5.17354Q7.44419,5.80713,6.54793,5.80713Q5.65168,5.80713,5.01778,5.17354Q4.38388,4.53994,4.38344,3.64369ZM0.00000513181,12.0672Q-0.000787581,12.9883,0.120873,13.4765Q0.33519,14.3364,0.999031,14.8773Q1.71525,15.4603,3.04399,15.7282Q4.38258,16,6.54793,16Q8.7118,16,10.0528,15.7282Q11.3798,15.4606,12.0974,14.8774Q12.761,14.3367,12.9752,13.4773Q13.0967,12.9896,13.0959,12.0686L13.0959,12.0671L13.0959,11.9932Q13.0959,11.0788,12.4906,10.2768Q11.9538,9.56525,11.0181,9.03812Q9.14673,7.98638,6.54793,7.98638Q3.94868,7.98638,2.07865,9.03805Q1.1424,9.56514,0.605329,10.2767Q0.00000530627,11.0788,0.00000530627,11.9932L0.00000513181,12.0672ZM4.17006,8.45096C3.42641,8.62708,2.74977,8.88449,2.1743,9.20812C1.04459,9.84413,0.195127,10.8069,0.195127,11.9932L0.195127,12.0672C0.194401,12.9109,0.193675,13.9695,1.12227,14.726C1.57895,15.0977,2.21859,15.3627,3.08257,15.537C3.948,15.7127,5.07699,15.8049,6.54793,15.8049C8.01888,15.8049,9.14714,15.7127,10.014,15.537C10.0188,15.536,10.0236,15.535,10.0284,15.5341C10.0237,15.535,10.019,15.536,10.0143,15.5369C9.14736,15.7126,8.01911,15.8048,6.54816,15.8048C5.07721,15.8048,3.94823,15.7126,3.08279,15.5369C2.21881,15.3627,1.57918,15.0977,1.1225,14.7259C0.193901,13.9694,0.194627,12.9108,0.195353,12.0672L0.195353,11.9931C0.195353,10.8068,1.04481,9.84408,2.17452,9.20807C2.74994,8.88447,3.4265,8.62708,4.17006,8.45096ZM4.42094,9.51086C5.06855,9.35736,5.78717,9.27056,6.54866,9.27056C8.07624,9.27056,9.43247,9.62051,10.3879,10.1578C11.3608,10.7045,11.8117,11.3753,11.8117,11.9932C11.8117,12.9428,11.7826,13.4772,11.286,13.8809C11.0675,14.0592,10.729,14.2342,10.1961,14.3769C10.7291,14.2342,11.0677,14.0592,11.2863,13.8808C11.7829,13.4772,11.8119,12.9428,11.8119,11.9931C11.8119,11.3753,11.361,10.7044,10.3882,10.1577C9.4327,9.62045,8.07646,9.27051,6.54888,9.27051C5.78731,9.27051,5.06861,9.35732,4.42094,9.51086ZM1.4793,11.9932Q1.4793,11.0726,2.80358,10.3279Q4.33683,9.46568,6.54866,9.46568Q8.75904,9.46568,10.2923,10.3279Q11.6166,11.072,11.6166,11.9932Q11.6166,12.7853,11.5449,13.0982Q11.4546,13.4924,11.163,13.7295Q10.7307,14.0823,9.75905,14.2784Q8.56245,14.5207,6.54793,14.5207Q4.5323,14.5207,3.33695,14.2785Q2.36586,14.0824,1.93296,13.7302Q1.64127,13.4927,1.55098,13.0983Q1.4793,12.7853,1.4793,11.9932Z" fill-rule="evenodd"  fill-opacity="1"/></g></svg>