<svg xmlns="http://www.w3.org/2000/svg" xmlns:xlink="http://www.w3.org/1999/xlink"  version="1.1" width="14" height="14" viewBox="0 0 14 14"><g><g><path d="M7.46875,1.375L6.53125,1.375C6.44792,1.375,6.40625,1.4166667,6.40625,1.5L6.40625,6.40625L1.75,6.40625Q1.625,6.40625,1.625,6.53125L1.625,7.46875C1.625,7.55208,1.6666667,7.59375,1.75,7.59375L6.40625,7.59375L6.40625,12.5C6.40625,12.5833,6.44792,12.625,6.53125,12.625L7.46875,12.625C7.55208,12.625,7.59375,12.5833,7.59375,12.5L7.59375,7.59375L12.25,7.59375C12.3333,7.59375,12.375,7.55208,12.375,7.46875L12.375,6.53125C12.375,6.44792,12.3333,6.40625,12.25,6.40625L7.59375,6.40625L7.59375,1.5Q7.59375,1.375,7.46875,1.375Z" fill-rule="evenodd" fill="var(--el-color-primary)" fill-opacity="1"/></g></g></svg>