<svg xmlns="http://www.w3.org/2000/svg" xmlns:xlink="http://www.w3.org/1999/xlink" version="1.1" width="16" height="16" viewBox="0 0 16 16"><g><path d="M0.139905,12.1011Q0.371722,13.8257,1.27303,14.727Q2.17432,15.6283,3.89918,15.8601Q4.94005,16,8,16Q11.0603,16,12.1011,15.8601Q13.8257,15.6283,14.727,14.727Q15.6283,13.8257,15.8601,12.1008Q16,11.06,16,8Q16,4.93969,15.8601,3.89888Q15.6283,2.17434,14.727,1.27303Q13.8257,0.37174,12.1008,0.139903Q11.0599,0,8,0Q4.93967,0,3.89888,0.139905Q2.17434,0.371721,1.27303,1.27303Q0.37174,2.17432,0.139903,3.89918Q0,4.94006,0,8Q0,11.0603,0.139905,12.1011ZM4.08409,14.4843Q2.82416,14.315,2.25458,13.7454Q1.68498,13.1758,1.51566,11.9162Q1.38813,10.9675,1.38813,8Q1.38813,5.03293,1.51566,4.08409Q1.68501,2.82416,2.25458,2.25458Q2.82419,1.68498,4.08381,1.51566Q5.03255,1.38813,8,1.38813Q10.9671,1.38813,11.9159,1.51566Q13.1758,1.68501,13.7454,2.25458Q14.315,2.82419,14.4843,4.08381Q14.6119,5.03256,14.6119,7.99999Q14.6119,10.9671,14.4843,11.9159Q14.315,13.1758,13.7454,13.7454Q13.1758,14.315,11.9162,14.4843Q10.9674,14.6119,8.00001,14.6119Q5.03292,14.6119,4.08409,14.4843ZM11.4092,6.30179C11.6318,6.18006,11.7703,5.94656,11.7703,5.69284C11.7703,5.30952,11.4595,4.99878,11.0762,4.99878C10.9598,4.99878,10.8453,5.02805,10.7432,5.08389Q8.41079,6.35941,6.63191,9.7753Q6.06058,9.19486,5.26753,8.74282C5.16282,8.68314,5.04436,8.65175,4.92383,8.65175C4.54051,8.65175,4.22977,8.96249,4.22977,9.34581C4.22977,9.59515,4.36351,9.82533,4.58013,9.9488Q5.65218,10.5599,6.17384,11.4323C6.24599,11.553,6.3531,11.6489,6.48098,11.7074C6.8296,11.8668,7.2414,11.7133,7.40077,11.3647Q9.1506,7.53697,11.4092,6.30179Z" fill-rule="evenodd"  fill-opacity="1" style="mix-blend-mode:passthrough"/></g></svg>