<svg xmlns="http://www.w3.org/2000/svg" xmlns:xlink="http://www.w3.org/1999/xlink" fill="var(--el-color-primary)" version="1.1" width="24" height="24" viewBox="0 0 24 24"><defs><clipPath id="master_svg0_sa33_92777"><rect x="0" y="0" width="24" height="24" rx="0"/></clipPath></defs><g clip-path="url(#master_svg0_sa33_92777)"><g><path d="M10.477496223449707,5.000000038146973C10.477496223449707,5.1663770381469725,10.415136223449707,5.326711038146973,10.302706223449707,5.449360038146972L6.511706223449707,9.585000038146973L18.999996223449706,9.585000038146973C19.367296223449706,9.585000038146973,19.664996223449705,9.882730038146972,19.664996223449705,10.250000038146972C19.664996223449705,10.617270038146973,19.367296223449706,10.915000038146973,18.999996223449706,10.915000038146973L5.000000223449707,10.915000038146973C4.833622223449707,10.915000038146973,4.673289223449707,10.852630038146973,4.550643223449707,10.740210038146973C4.279909123449707,10.492030038146972,4.261619723449707,10.071380038146973,4.509792223449707,9.800640038146973L9.322296223449708,4.550643038146973C9.448246223449708,4.413234938146973,9.626096223449707,4.335000038146973,9.812496223449706,4.335000038146973C10.179766223449707,4.335000038146973,10.477496223449707,4.632731038146972,10.477496223449707,5.000000038146973ZM13.697296223449706,18.550600038146975L17.48829622344971,14.415000038146973L5.000000223449707,14.415000038146973C4.632731223449707,14.415000038146973,4.3350001573597075,14.117270038146973,4.3350001573597075,13.750000038146972C4.3350001573597075,13.382730038146972,4.632730223449707,13.085000038146973,5.000000223449707,13.085000038146973L18.999996223449706,13.085000038146973C19.16639622344971,13.085000038146973,19.32669622344971,13.147370038146972,19.449396223449707,13.259790038146972C19.72009622344971,13.507970038146972,19.738396223449705,13.928620038146972,19.490196223449708,14.199360038146972L14.678496223449708,19.448500038146975L14.678496223449708,19.448500038146975C14.551796223449706,19.586800038146972,14.373896223449707,19.66500003814697,14.187496223449706,19.66500003814697C13.820226223449707,19.66500003814697,13.522496223449707,19.367300038146972,13.522496223449707,19.000000038146972C13.522496223449707,18.833600038146972,13.584866223449707,18.673300038146973,13.697296223449706,18.550600038146975Z" fill-rule="evenodd" fill="var(--el-color-primary)" fill-opacity="1" style="mix-blend-mode:passthrough"/></g></g></svg>