<svg xmlns="http://www.w3.org/2000/svg" xmlns:xlink="http://www.w3.org/1999/xlink" version="1.1" width="16" height="16" viewBox="0 0 16 16"><g><path d="M12.7299,9.31031L13.3144,8.72584Q14.6001,7.47339,14.6118,5.68768Q14.6235,3.90196,13.3608,2.63925Q12.098,1.37653,10.3123,1.38824Q8.52661,1.39994,7.28056,2.67911L6.68882,3.27011L6.68882,3.27011C6.5584,3.40035,6.38201,3.47334,6.1981,3.47334C5.81478,3.47334,5.50404,3.1626,5.50404,2.77928C5.50404,2.59504,5.5773,2.41835,5.70767,2.28816L6.28622,1.71051Q7.9372,0.0156527,10.3032,0.00014246Q12.6692,-0.0153677,14.3423,1.6577Q16.0154,3.33076,15.9999,5.69678Q15.9843,8.06279,14.296,9.70739L13.7115,10.2919C13.5813,10.422,13.4048,10.4951,13.2207,10.4951C12.8374,10.4951,12.5267,10.1844,12.5267,9.80109C12.5267,9.61701,12.5998,9.44047,12.7299,9.31031ZM10.4039,6.29018C10.4039,6.47426,10.3308,6.6508,10.2006,6.78096L6.68888,10.2927C6.55872,10.4228,6.38218,10.496,6.1981,10.496C5.81478,10.496,5.50404,10.1852,5.50404,9.8019C5.50404,9.61782,5.57716,9.44128,5.70732,9.31112L9.21904,5.79941C9.3492,5.66924,9.52574,5.59612,9.70982,5.59612C10.0931,5.59612,10.4039,5.90686,10.4039,6.29018ZM3.38126,6.29099C3.38126,6.47507,3.30814,6.65161,3.17797,6.78177L2.5935,7.36624Q1.37674,8.61543,1.38824,10.3683Q1.39973,12.1212,2.63925,13.3608Q3.87876,14.6003,5.63167,14.6118Q7.38457,14.6233,8.64023,13.4001L9.21938,12.8217C9.34952,12.6917,9.52591,12.6187,9.70982,12.6187C10.0931,12.6187,10.4039,12.9295,10.4039,13.3128C10.4039,13.497,10.3306,13.6737,10.2003,13.8039L10.2003,13.8039L9.60883,14.3944Q7.94511,16.0151,5.62256,15.9999Q3.30002,15.9846,1.65769,14.3423Q0.0153713,12.7,0.000141216,10.3774Q-0.0150887,8.05489,1.61195,6.38469L2.19642,5.80022C2.32659,5.67006,2.50312,5.59693,2.6872,5.59693C3.07052,5.59693,3.38126,5.90767,3.38126,6.29099Z" fill-rule="evenodd"  fill-opacity="1" style="mix-blend-mode:passthrough"/></g></svg>