<svg xmlns="http://www.w3.org/2000/svg" xmlns:xlink="http://www.w3.org/1999/xlink" fill="var(--el-color-primary)" version="1.1" width="16" height="16" viewBox="0 0 16 16"><g><g style="opacity:0;"><path d="M0 0C0 0 0 0 0 0L16 0C16 0 16 0 16 0L16 16C16 16 16 16 16 16L0 16C0 16 0 16 0 16Z" fill="#000000" fill-opacity="1"/></g><g><path d="M11.0625,6L12,6.9375L8,10.9375L4,6.9375L4.9375,6L8,9.0625L11.0625,6Z" fill-rule="evenodd" fill="var(--el-color-primary)" fill-opacity="1"/></g><g><path d="M1,8.00065C1,4.14049,4.1398399999999995,1,8,1C11.8602,1,15,4.14049,15,8.00065C15,11.8602,11.8602,15.0013,8,15.0013C4.1398399999999995,15.0013,1,11.8602,1,8.00065ZM2.30273,7.99992C2.30273,11.1411,4.85902,13.698,8.00017,13.698C11.1413,13.698,13.6976,11.1411,13.6976,8.00057C13.6976,4.858779999999999,11.1413,2.3024899999999997,8.00017,2.3024899999999997C4.85902,2.3024899999999997,2.30273,4.858779999999999,2.30273,7.99992Z" fill-rule="evenodd" fill="var(--el-color-primary)" fill-opacity="1"/></g></g></svg>