<svg xmlns="http://www.w3.org/2000/svg" xmlns:xlink="http://www.w3.org/1999/xlink" 
fill="none" version="1.1" width="40" height="40" viewBox="0 0 40 40">
<defs><linearGradient x1="0.5" y1="0" x2="0.5" y2="1" id="master_svg0_sa7_31586">
<stop offset="0%" stop-color="var(--el-color-primary)" stop-opacity="1"/>
<stop offset="100%" stop-color="var(--el-color-primary)" stop-opacity="1"/>
</linearGradient></defs><g><g>
<path d="M7.26506,16.9735L7.26506,13.012C7.26506,5.82569,13.0908,0,20.2771,0C27.4635,0,33.2892,5.82569,33.2892,13.012L33.2892,16.9735C35.4386,17.1335,36.8361,17.5383,37.8598,18.5619C39.5542,20.2545,39.5542,22.9822,39.5542,28.4337C39.5542,33.8853,39.5542,36.613,37.8598,38.3055C36.1672,40,33.4395,40,27.988,40L12.5663,40C7.1147,40,4.38699,40,2.6944600000000003,38.3055C1,36.613,1,33.8853,1,28.4337C1,22.9822,1,20.2545,2.6944600000000003,18.5619C3.71614,17.5383,5.11566,17.1335,7.26506,16.9735ZM10.15663,13.012C10.15663,7.42266,14.6877,2.89157,20.2771,2.89157C25.8665,2.89157,30.3976,7.42266,30.3976,13.012L30.3976,16.8752Q29.2911,16.8655,27.988,16.8675L12.5663,16.8675Q11.2612,16.8655,10.15663,16.8752L10.15663,13.012ZM12.5663,30.3614C13.6309,30.3614,14.494,29.4984,14.494,28.4337C14.494,27.3691,13.6309,26.506,12.5663,26.506C11.5016,26.506,10.63855,27.3691,10.63855,28.4337C10.63855,29.4984,11.5016,30.3614,12.5663,30.3614ZM20.2771,30.3614C21.3418,30.3614,22.2048,29.4984,22.2048,28.4337C22.2048,27.3691,21.3418,26.506,20.2771,26.506C19.2125,26.506,18.3494,27.3691,18.3494,28.4337C18.3494,29.4984,19.2125,30.3614,20.2771,30.3614ZM29.9157,28.4337C29.9157,29.4984,29.0526,30.3614,27.988,30.3614C26.9233,30.3614,26.0602,29.4984,26.0602,28.4337C26.0602,27.3691,26.9233,26.506,27.988,26.506C29.0526,26.506,29.9157,27.3691,29.9157,28.4337Z" fill-rule="evenodd" fill="url(#master_svg0_sa7_31586)" fill-opacity="1"/></g></g></svg>