<svg xmlns="http://www.w3.org/2000/svg" xmlns:xlink="http://www.w3.org/1999/xlink" fill="var(--el-color-primary)" version="1.1" width="24" height="24" viewBox="0 0 24 24"><g><g><path d="M12.46113,4.5L11.35586,4.5Q11.2912,4.5,11.254909999999999,4.5320875Q11.2085,4.5731297,11.2085,4.666668L11.2085,11.2085L4.674419,11.2085Q4.5,11.2085,4.5,11.35586L4.5,12.46113C4.5,12.55937,4.5581395,12.6085,4.674419,12.6085L11.2085,12.6085L11.2085,19.3335C11.2085,19.4446,11.25762,19.5001,11.35586,19.5001L12.46113,19.5001C12.55937,19.5001,12.6085,19.4446,12.6085,19.3335L12.6085,12.6085L19.3256,12.6085C19.4419,12.6085,19.5,12.55937,19.5,12.46113L19.5,11.35586Q19.5,11.2085,19.3256,11.2085L12.6085,11.2085L12.6085,4.666668Q12.6085,4.5,12.46113,4.5Z" fill-rule="evenodd" fill="var(--el-color-primary)" fill-opacity="1"/></g></g></svg>