<svg xmlns="http://www.w3.org/2000/svg" xmlns:xlink="http://www.w3.org/1999/xlink" version="1.1" width="14" height="14" viewBox="0 0 14 14"><defs><clipPath id="master_svg0_3_29859"><rect x="-0.6000000238418579" y="-0.6000000238418579" width="15.200000047683716" height="15.200000047683716" rx="0"/></clipPath><clipPath id="master_svg1_3_29860"><rect x="1.399999976158142" y="0.3999999761581421" width="11.200000047683716" height="13.200000047683716" rx="0"/></clipPath></defs><g clip-path="url(#master_svg0_3_29859)"><g clip-path="url(#master_svg1_3_29860)"><path d="M1.39999998,1.60000002L1.39999998,12.4Q1.4000000400000001,12.904267,1.76754114,13.257103Q2.12472898,13.6,2.625,13.6L11.375,13.6Q11.8752775,13.6,12.232464,13.2571Q12.599999,12.904266,12.599999,12.4L12.599999,4Q12.599999,3.8774676,12.551956,3.7647464Q12.503913,3.6520252,12.41552,3.5671675L9.290518800000001,0.56716758Q9.206716499999999,0.4867171,9.0989428,0.44335853999999997Q8.991169,0.39999998000000003,8.875,0.39999998000000003L2.625,0.40000004Q2.12473024,0.40000004,1.76753908,0.74290347Q1.39999998,1.095741041,1.39999998,1.60000002ZM2.625,12.400002L2.60000008,12.4L2.60000002,1.60000002L2.625,1.60000008L8.633614099999999,1.60000002L11.3999996,4.2557304L11.3999996,12.4L11.375,12.400002L2.625,12.400002Z"/><path d="M4.5,6.400000095367432L9.5,6.400000095367432Q9.5590944,6.400000095367432,9.617054,6.388471185367432Q9.675013100000001,6.376942395367432,9.729609499999999,6.3543277353674315Q9.7842064,6.331713135367432,9.8333421,6.298881825367432Q9.8824778,6.266050455367432,9.924264,6.224264145367432Q9.9660501,6.1824777153674315,9.9988813,6.1333421753674315Q10.031712500000001,6.0842066453674315,10.054327,6.029610125367432Q10.0769415,5.975013615367431,10.0884705,5.917054265367431Q10.0999994,5.859094915367431,10.0999999,5.800000105367432Q10.0999994,5.740905255367432,10.0884705,5.682945914367432Q10.0769415,5.624986566367432,10.054327,5.570390060367432Q10.031712500000001,5.5157935653674315,9.9988813,5.466657995367432Q9.9660501,5.417522435367432,9.924264,5.375736055367431Q9.8824778,5.333949685367432,9.8333421,5.301118375367432Q9.7842064,5.268287035367432,9.729609499999999,5.245672405367432Q9.675013100000001,5.223057775367431,9.617054,5.211528925367432Q9.5590944,5.200000105367431,9.5,5.200000075367432L4.5,5.200000075367432Q4.440905157,5.200000105367431,4.38294581,5.211528955367432Q4.32498646,5.223057775367431,4.27038994,5.245672405367432Q4.21579343,5.268287035367432,4.16665787,5.301118375367432Q4.1175223,5.333949685367432,4.0757359300000005,5.375736055367431Q4.03394958,5.417522435367432,4.00111824,5.466657995367432Q3.96828693,5.5157935653674315,3.94567233,5.570390060367432Q3.92305768,5.624986566367432,3.91152883,5.682945910367431Q3.89999998,5.740905255367432,3.89999998,5.800000105367432Q3.89999998,5.859094915367431,3.91152883,5.917054265367431Q3.92305768,5.975013615367431,3.94567233,6.029610095367431Q3.96828693,6.084206615367432,4.00111827,6.1333421753674315Q4.03394958,6.1824777153674315,4.0757359300000005,6.224264145367432Q4.1175223,6.266050455367432,4.16665787,6.298881825367432Q4.21579343,6.331713135367432,4.27038994,6.3543277353674315Q4.32498646,6.376942395367432,4.38294581,6.388471185367432Q4.440905157,6.400000095367432,4.5,6.400000095367432Z"/><path d="M4.5,8.7998046875L9.5,8.7998046875Q9.5590944,8.7998046875,9.617054,8.7882757775Q9.675013100000001,8.7767469875,9.729609499999999,8.7541323275Q9.7842064,8.7315177275,9.8333421,8.6986864175Q9.8824778,8.6658550475,9.924264,8.6240687375Q9.9660501,8.5822823075,9.9988813,8.5331467675Q10.031712500000001,8.4840112375,10.054327,8.4294147175Q10.0769415,8.3748182075,10.0884705,8.3168588575Q10.0999994,8.2588995075,10.0999999,8.1998046975Q10.0999994,8.1407098475,10.0884705,8.0827505065Q10.0769415,8.0247911585,10.054327,7.9701946525Q10.031712500000001,7.9155981575,9.9988813,7.8664625875Q9.9660501,7.8173270275,9.924264,7.7755406475Q9.8824778,7.7337542775,9.8333421,7.7009229675Q9.7842064,7.6680916275,9.729609499999999,7.6454769975Q9.675013100000001,7.6228623675,9.617054,7.6113335175Q9.5590944,7.5998046975,9.5,7.5998046675L4.5,7.5998046675Q4.440905157,7.5998046975,4.38294581,7.6113335475Q4.32498646,7.6228623675,4.27038994,7.6454769975Q4.21579343,7.6680916275,4.16665787,7.7009229675Q4.1175223,7.7337542775,4.0757359300000005,7.7755406475Q4.03394958,7.8173270275,4.00111824,7.8664625875Q3.96828693,7.9155981575,3.94567233,7.9701946525Q3.92305768,8.0247911585,3.91152883,8.0827505025Q3.89999998,8.1407098475,3.89999998,8.1998046975Q3.89999998,8.2588995075,3.91152883,8.3168588575Q3.92305768,8.3748182075,3.94567233,8.4294146875Q3.96828693,8.4840112075,4.00111827,8.5331467675Q4.03394958,8.5822823075,4.0757359300000005,8.6240687375Q4.1175223,8.6658550475,4.16665787,8.6986864175Q4.21579343,8.7315177275,4.27038994,8.7541323275Q4.32498646,8.7767469875,4.38294581,8.7882757775Q4.440905157,8.7998046875,4.5,8.7998046875Z"/></g></g></svg>
