<?xml version="1.0" standalone="no"?><!DOCTYPE svg PUBLIC "-//W3C//DTD SVG 1.1//EN" "http://www.w3.org/Graphics/SVG/1.1/DTD/svg11.dtd"><svg t="1764657001255" class="icon" viewBox="0 0 1024 1024" version="1.1" xmlns="http://www.w3.org/2000/svg" p-id="5758" xmlns:xlink="http://www.w3.org/1999/xlink" width="200" height="200"><path d="M789.44 898.24H234.56A138.56 138.56 0 0 1 96 759.68v-274.24a138.56 138.56 0 0 1 138.56-138.56h554.88A138.56 138.56 0 0 1 928 485.44v274.24a138.56 138.56 0 0 1-138.56 138.56zM234.56 416a69.44 69.44 0 0 0-69.12 69.44v274.24a69.44 69.44 0 0 0 69.12 69.44h554.88a69.44 69.44 0 0 0 69.12-69.44v-274.24A69.44 69.44 0 0 0 789.44 416z" p-id="5759"></path><path d="M640 777.92a155.2 155.2 0 1 1 109.44-45.44A152.96 152.96 0 0 1 640 777.92zM640 544a78.08 78.08 0 0 0-54.72 22.72A77.44 77.44 0 0 0 640 700.16a77.44 77.44 0 0 0 55.04-132.16A79.36 79.36 0 0 0 640 544z" p-id="5760"></path><path d="M746.24 704.32l131.2 127.04-22.08 22.08-131.2-127.04 22.08-22.08z" p-id="5761"></path><path d="M855.36 880.64l-159.04-154.24 49.6-49.28 159.36 154.24-49.92 49.28z" p-id="5762"></path><path d="M269.44 416a34.88 34.88 0 0 1-34.88-34.88v-43.84a277.44 277.44 0 0 1 537.28-96 34.56 34.56 0 0 1-20.16 44.48 34.88 34.88 0 0 1-44.8-20.16A208 208 0 0 0 304 337.28v43.84A34.88 34.88 0 0 1 269.44 416z" p-id="5763"></path></svg>
