<svg xmlns="http://www.w3.org/2000/svg" xmlns:xlink="http://www.w3.org/1999/xlink" version="1.1" width="24" height="24" viewBox="0 0 24 24"><defs><clipPath id="master_svg0_19_21247"><rect x="2.399999976158142" y="2.399999976158142" width="19.200000047683716" height="19.200000047683716" rx="0"/></clipPath></defs><g clip-path="url(#master_svg0_19_21247)"><g><path d="M19.800934,13.824910125L19.800934,5.2875154250000005Q19.800936,4.346781525,19.155804,3.6786093749999997Q18.583814,3.086193353,17.80105,3.012141297Q17.689225999999998,3.00156240462,17.5731,3.00156240462L6.5038128,3.00156249999Q5.6909499,3.00156249999,5.0888481,3.519924935Q5.0028334,3.593976915,4.9211205,3.678607105Q4.2759765000000005,4.346783525,4.2759765000000005,5.2875154250000005L4.2759765000000005,13.822756125L3.092026137,18.157859125Q3.02716586,18.395355125000002,3.0080208061,18.624071125Q2.989993279,18.839436125,3.012500511,19.047016125Q3.06170059,19.500776125,3.30459198,19.917332125Q3.37201989,20.032968125,3.45437908,20.145744125Q4.1226338,21.060799125,5.2372072,21.060799125L18.839098,21.060799125Q19.953695,21.060799125,20.621952,20.145746125Q21.280825,19.243549125,20.984287,18.157855124999998L19.800934,13.824910125ZM5.3338964,14.503910125L4.2496331000000005,18.474001125Q4.1053292,19.002392125,4.4234691999999995,19.438026125Q4.7322149,19.860800125,5.2372072,19.860800125L18.839098,19.860800125Q19.344114,19.860800125,19.652861,19.438028125Q19.971003,19.002396125,19.826689,18.474032125L19.826681,18.474002125L18.742426000000002,14.503910125L5.3338964,14.503910125ZM18.600934000000002,13.303910125L18.600934000000002,5.2875154250000005Q18.600934000000002,4.888545425,18.364806,4.5941121250000005Q18.331072,4.552049125,18.292521,4.5121218249999995Q17.99267,4.201562325,17.5731,4.201562325L6.5038128,4.201562525Q6.1366993999999995,4.201562525,5.8612316,4.439337625Q5.8218791,4.4733051249999995,5.7843969,4.512125825Q5.4759765,4.831557225,5.4759765,5.2875154250000005L5.4759767,12.103910425L5.4759767,13.303910125L18.600936,13.303910125L18.600934000000002,13.303910125Z" fill-rule="evenodd"/></g><path d="M11.224609375,18.53320695L12.852445675,18.53320695Q12.911540475,18.53320695,12.969499875,18.52167805Q13.027459175,18.51014924,13.082055575,18.48753458Q13.136652075,18.46491998,13.185787675,18.43208867Q13.234923375000001,18.3992573,13.276709575,18.35747099Q13.318495975,18.31568456,13.351327375,18.26654899Q13.384158575,18.21741343,13.406773375,18.16281688Q13.429388075,18.1082204,13.440916775,18.05026108Q13.452445475000001,17.99230176,13.452445775000001,17.93320695Q13.452445475000001,17.87411207,13.440916775,17.81615272Q13.429387775,17.75819337,13.406773075,17.70359686Q13.384158575,17.64900035,13.351327375,17.599864788Q13.318495975,17.550729226,13.276709575,17.5089428611Q13.234923375000001,17.4671565,13.185787675,17.434325173Q13.136652075,17.40149384,13.082055575,17.37887922Q13.027459175,17.35626462,12.969499875,17.34473577Q12.911540475,17.33320694,12.852445675,17.33320692L11.224609375,17.33320692Q11.165514532,17.33320694,11.107555185,17.34473577Q11.049595835,17.35626462,10.994999315,17.37887922Q10.940402805,17.40149383,10.891267245,17.434325166Q10.842131675,17.467156496,10.800345305,17.5089428574Q10.758558955,17.550729223,10.725727615,17.599864781Q10.692896305,17.64900035,10.670281705,17.70359686Q10.647667055,17.75819337,10.636138205,17.81615272Q10.624609355,17.87411207,10.624609355,17.93320695Q10.624609355,17.99230176,10.636138205,18.05026108Q10.647667055,18.10822046,10.670281705,18.16281694Q10.692896305,18.21741343,10.725727645,18.26654899Q10.758558955,18.31568456,10.800345305,18.35747099Q10.842131675,18.3992573,10.891267245,18.43208867Q10.940402805,18.46491998,10.994999315,18.48753458Q11.049595835,18.51014924,11.107555185,18.52167805Q11.165514532,18.53320695,11.224609375,18.53320695Z"/><path d="M14.459820335,8.658609049999999L13.234377235,9.92780235Q13.193330045,9.97031495,13.161365385,10.02001835Q13.129400735,10.06972215,13.107746895,10.12470675Q13.086093125,10.17969135,13.075582385,10.23784375Q13.065071645,10.29599665,13.066107865,10.35508255Q13.067144095,10.41416815,13.079687475,10.47191645Q13.092230855,10.52966455,13.115799365,10.583856149999999Q13.139367815,10.63804765,13.173055735,10.68660025Q13.206743625,10.735152750000001,13.249256285,10.77620005Q13.335114475,10.85909845,13.446160925,10.90283015Q13.557207415,10.94656185,13.676536408,10.944469250000001Q13.795865535,10.94237665,13.905310455,10.89477755Q14.014755365,10.84717895,14.097654015,10.76132085L15.725490324999999,9.07536845Q15.765615425,9.03381085,15.797074825,8.98536135Q15.828534125000001,8.93691175,15.850171525,8.88334985Q15.871809525,8.82978825,15.882830825,8.77308225Q15.893852225,8.716376050000001,15.893852025000001,8.65860895Q15.893852225,8.60084175,15.882830825,8.54413585Q15.871809525,8.48742975,15.850171525,8.433868050000001Q15.828534125000001,8.380306449999999,15.797074825,8.33185685Q15.765615425,8.28340725,15.725490324999999,8.24184965L14.097654015,6.55589691Q14.056606795,6.51338425,14.008054495,6.47969636Q13.959502165,6.44600844,13.905310575,6.42243999Q13.851119015,6.39887148,13.793370735,6.3863281Q13.735622451,6.37378472,13.676536694,6.37274849Q13.617450934,6.37171227,13.559298335,6.38222301Q13.501145735,6.39273375,13.446161065,6.41438752Q13.391176405,6.43604136,13.341472685,6.46800601Q13.291768965,6.49997067,13.249256285,6.54101786Q13.206743625,6.58206508,13.173055735,6.63061738Q13.139367815,6.67916971,13.115799365,6.7333613Q13.092230855,6.78755286,13.079687475,6.84530114Q13.067144095,6.903049424,13.066107865,6.962135181Q13.065071645,7.021220941,13.075582385,7.07937354Q13.086093125,7.13752614,13.107746895,7.19251081Q13.129400735,7.24749547,13.161365385,7.29719919Q13.193330045,7.34690291,13.234377235,7.38941559L14.459820335,8.658609049999999Z"/><path d="M8.350560992781983,9.07536845L9.978397382781983,10.76132085Q10.061295982781981,10.84717915,10.170740682781982,10.89477825Q10.280185482781983,10.942377050000001,10.399514582781983,10.94446965Q10.518843682781982,10.94656225,10.629890282781982,10.90283065Q10.740936882781982,10.85909865,10.826795082781983,10.77620005Q10.912653482781982,10.693301250000001,10.960252082781983,10.583856149999999Q11.007850682781982,10.47441145,11.009943482781981,10.35508255Q11.012036282781983,10.23575355,10.968304682781982,10.12470695Q10.924572682781982,10.01366045,10.841674082781982,9.92780235L9.616231022781982,8.658609049999999L10.841674082781982,7.38941559Q10.924572682781982,7.3035574,10.968304682781982,7.19251081Q11.012036282781983,7.08146426,11.009943482781981,6.962135187Q11.007850682781982,6.84280612,10.960252082781983,6.73336127Q10.912653482781982,6.62391645,10.826795082781983,6.54101786Q10.784282182781983,6.49997067,10.734578582781982,6.46800601Q10.684874882781983,6.43604136,10.629890182781983,6.41438752Q10.574905382781981,6.39273375,10.516752982781982,6.38222301Q10.458600282781983,6.37171227,10.399514582781983,6.37274849Q10.340428682781983,6.37378472,10.282680482781982,6.3863281Q10.224932182781982,6.39887148,10.170740582781983,6.42243999Q10.116548982781982,6.44600844,10.067996782781982,6.47969636Q10.019444482781982,6.51338425,9.978397382781983,6.55589691L8.350560992781983,8.24184965Q8.310435952781983,8.28340725,8.278976682781982,8.33185685Q8.247517462781982,8.380306449999999,8.225879732781982,8.43386815Q8.204241932781983,8.48742985,8.193220612781982,8.54413585Q8.182199242781982,8.60084175,8.182199302781981,8.65860895Q8.182199242781982,8.716376050000001,8.193220612781982,8.77308225Q8.204241932781983,8.82978825,8.225879732781982,8.88334985Q8.247517462781982,8.93691175,8.278976682781982,8.98536105Q8.310435952781983,9.03381085,8.350560992781983,9.07536845Z" /></g></svg>
