<svg xmlns="http://www.w3.org/2000/svg" xmlns:xlink="http://www.w3.org/1999/xlink" version="1.1" width="14" height="14" viewBox="0 0 14 14"><defs><clipPath id="master_svg0_29_08795"><rect x="-0.6000000238418579" y="-0.6000000238418579" width="15.200000047683716" height="15.200000047683716" rx="0"/></clipPath></defs><g clip-path="url(#master_svg0_29_08795)"><path d="M10.9598303,3.0402076Q9.319622500000001,1.4000000400000001,7.0000181,1.39999998L7.0000181,1.40011996Q6.9409351,1.4001200200000001,6.8829875,1.41164654Q6.8250399,1.42317307,6.7704539,1.4457832000000002Q6.7158685,1.46839327,6.6667428,1.50121802Q6.6176171,1.53404278,6.575839,1.5758208Q6.534061,1.61759883,6.501236,1.66672456Q6.468411,1.7158502900000001,6.4458008,1.77043588Q6.4231911,1.82502148,6.4116645,1.88296923Q6.4001379,1.940916978,6.4001384,2Q6.4001379,2.059083022,6.4116645,2.11703077Q6.4231911,2.17497852,6.4458013,2.22956412Q6.4684114,2.28414971,6.501236,2.33327544Q6.534061,2.38240117,6.575839,2.4241792Q6.6176171,2.46595722,6.6667428,2.49878198Q6.7158685,2.53160679,6.7704539,2.55421686Q6.8250399,2.57682693,6.8829875,2.58835351Q6.9409351,2.59987998,7.0000186,2.59988004L7.0000181,2.60000002Q8.822567,2.60000008,10.1113024,3.8887358Q11.4000378,5.1774716000000005,11.4000378,7.0000196Q11.4000378,8.8225679,10.1113024,10.1113033Q8.822567,11.4000387,7.0000181,11.4000387Q5.177471199999999,11.4000387,3.8887358,10.1113033Q2.60000026,8.8225675,2.6000009200000003,7.0000196Q2.60000002,5.7798836,3.2034292,4.7379797Q3.7938269,3.7185764,4.7972975,3.1461740000000002L4.7972380999999995,3.1460699Q4.866183299999999,3.1067419999999997,4.9225276000000004,3.0508363999999997Q4.9788718,2.99493086,5.0187373,2.92629528Q5.0586028,2.85765958,5.079246299999999,2.78101772Q5.0998893,2.70437586,5.0998895,2.62500256Q5.0998893,2.56591952,5.0883629,2.50797176Q5.0768360999999995,2.45002398,5.0542262000000004,2.39543837Q5.0316162,2.3408528,4.998791199999999,2.29172704Q4.9659667,2.24260131,4.9241886,2.20082332Q4.882410500000001,2.1590453099999998,4.833284900000001,2.12622054Q4.7841591999999995,2.09339577,4.7295736999999995,2.070785671Q4.674988,2.048175577,4.6170402,2.036649048Q4.5590925,2.025122523,4.5000095,2.025122523Q4.340946199999999,2.025122523,4.202781,2.10393523L4.2027214,2.10383087Q2.91780126,2.83677828,2.16501349,4.1365704999999995Q1.39999998,5.4574721,1.40000087,7.0000196Q1.4000001,9.319623499999999,3.0402074,10.9598312Q4.6804147,12.600039,7.0000181,12.600039Q9.319621999999999,12.600039,10.9598303,10.9598312Q12.600039,9.319623499999999,12.600039,7.0000196Q12.600039,4.6804159,10.9598303,3.0402076Z" style="mix-blend-mode:passthrough"/><path d="M4.5000095,2.02499998L2,2.02499998L2,2.02511996Q1.940916978,2.02512002,1.88296923,2.03664654Q1.82502148,2.04817307,1.77043588,2.0707832Q1.7158502900000001,2.09339327,1.66672456,2.12621802Q1.61759883,2.15904278,1.5758208,2.2008208Q1.53404278,2.24259883,1.50121802,2.29172456Q1.46839321,2.34085029,1.44578314,2.39543588Q1.42317307,2.45002148,1.4116464899999999,2.50796923Q1.4001200200000001,2.565916978,1.40011996,2.625Q1.4001200200000001,2.684083022,1.41164654,2.74203077Q1.42317307,2.79997852,1.4457832000000002,2.85456412Q1.46839327,2.90914971,1.50121802,2.95827544Q1.53404278,3.00740117,1.5758208,3.0491792Q1.61759883,3.09095722,1.66672456,3.12378198Q1.7158502900000001,3.15660679,1.77043588,3.17921686Q1.82502148,3.20182693,1.88296923,3.21335351Q1.940916978,3.22487998,2,3.22488004L2,3.22500002L3.9000095,3.22500002L3.9000095,5.1250095L3.9001296,5.1250095Q3.9001294,5.1840925,3.9116559,5.2420402Q3.9231824,5.2999878,3.9457924,5.3545735Q3.9684024,5.4091591999999995,4.0012270999999995,5.458284900000001Q4.0340519,5.507410500000001,4.07583,5.5491886Q4.1176081,5.5909667,4.1667337,5.623791499999999Q4.215859399999999,5.6566162,4.2704451,5.6792262000000004Q4.3250308,5.7018360999999995,4.3829784,5.7133629Q4.4409266,5.7248893,4.5000095,5.7248895Q4.5590925,5.7248893,4.6170402,5.7133629Q4.6749878,5.7018360999999995,4.7295735,5.6792262000000004Q4.7841591999999995,5.6566162,4.833284900000001,5.623791199999999Q4.882410500000001,5.5909667,4.9241886,5.5491886Q4.9659667,5.507410500000001,4.998791499999999,5.458284900000001Q5.0316162,5.4091591999999995,5.0542262000000004,5.3545736999999995Q5.0768360999999995,5.299988,5.0883629,5.2420402Q5.0998893,5.1840925,5.0998895,5.1250095L5.100009399999999,5.1250095L5.100009399999999,2.625Q5.100009399999999,2.565905157,5.0884805,2.50794581Q5.0769515,2.44998646,5.0543368,2.39538994Q5.0317221,2.34079343,4.9988909,2.29165787Q4.966059700000001,2.2425223,4.9242735,2.20073593Q4.8824871000000005,2.15894958,4.8333516,2.12611824Q4.7842158999999995,2.09328693,4.7296195,2.07067233Q4.6750228,2.04805768,4.6170635,2.03652883Q4.5591042,2.02499998,4.5000095,2.02499998Z" style="mix-blend-mode:passthrough"/></g></svg>
