<svg xmlns="http://www.w3.org/2000/svg" xmlns:xlink="http://www.w3.org/1999/xlink" version="1.1" width="24" height="24" viewBox="0 0 24 24"><defs><clipPath id="master_svg0_3_015231"><rect x="3.5" y="2.5" width="17.5" height="19" rx="0"/></clipPath></defs><g clip-path="url(#master_svg0_3_015231)"><g><path d="M13.5528374,6.4285717L13.5528374,11.1411428C13.075532,11.3377647,12.6278687,11.5982018,12.2224159,11.915143C12.240942,11.8037148,12.250206,11.6891422,12.250206,11.5714283L12.250206,6.4285717C12.250206,5.2451041,11.2781925,4.2857143,10.0791531,4.2857143C8.8801136,4.2857143,7.9081004,5.2451041,7.9081004,6.4285717L7.9081004,11.5714283C7.9079683,12.26229,8.2453103,12.9108362,8.8141737,13.313372C9.3830371,13.715907,10.113633199999999,13.823048,10.776495,13.601143C10.5319891,14.039978,10.348547,14.50935,10.2311268,14.996572L10.0791531,15C8.160690299999999,15,6.605468800000001,13.464976,6.605468800000001,11.5714283L6.605468800000001,6.4285717C6.605468800000001,4.5350237,8.160690299999999,3,10.0791531,3C11.9976158,3,13.5528374,4.5350237,13.5528374,6.4285717ZM10.0789471,16.286096999999998C10.0789471,17.225524999999998,10.31429,18.110951999999997,10.7302632,18.887525L10.7302632,19.500381C10.7301579,19.838339,10.4649491,20.118511,10.123340599999999,20.141546C9.7817326,20.164581,9.4803824,19.922613,9.433710600000001,19.587811L9.4276314,19.500381L9.4276314,17.556381000000002C6.4452724,17.337782,4.10779548,14.938318,4.0034736842,11.9883823L4,11.7860966L4,11.3575249C4.00010494773,11.0195675,4.26531371,10.7393951,4.60692215,10.7163601C4.9485305,10.6933246,5.2498806,10.9352927,5.2965526999999994,11.2700968L5.3026316,11.3575249L5.3026316,11.7860966C5.3024242,14.199507,7.2311678,16.183372,9.674263,16.282667L9.8618422,16.286096999999998L10.0789471,16.286096999999998ZM20.499897,16.284598000000003C20.499897,18.888227,18.361466999999998,20.998884,15.723581,20.998884C13.0856953,20.998884,10.9472656,18.888227,10.9472656,16.284598000000003C10.9472656,13.68097,13.0856953,11.5703125,15.723581,11.5703125C18.361466999999998,11.5703125,20.499897,13.68097,20.499897,16.284598000000003ZM18.531185,13.505771Q17.367725999999998,12.3574219,15.723684,12.3574219Q14.079641,12.3574219,12.9161835,13.505771Q11.750000499999999,14.656809,11.750000499999999,16.285994000000002Q11.75,17.915177999999997,12.9161835,19.066216Q14.079641,20.214565,15.723684,20.214565Q17.367727000000002,20.214565,18.531185,19.066216Q19.697368,17.915177999999997,19.697368,16.285994000000002Q19.697368,14.656809,18.531185,13.505771ZM13.6186543,14.217484Q14.490032,13.357422,15.723684,13.357422Q16.957335999999998,13.357422,17.828713999999998,14.217484Q18.697369000000002,15.074856,18.697369000000002,16.285994000000002Q18.697369000000002,17.497131,17.828713999999998,18.354504Q16.957335999999998,19.214565,15.723684,19.214565Q14.490032,19.214565,13.6186533,18.354504Q12.75,17.49713,12.75,16.285994000000002Q12.75,15.074856,13.6186543,14.217484Z" fill-rule="evenodd" fill-opacity="1"/><path d="M13.5528374,11.1411428L13.5528374,6.4285717C13.5528374,4.5350237,11.9976158,3,10.0791531,3C8.160690299999999,3,6.605468800000001,4.5350237,6.605468800000001,6.4285717L6.605468800000001,11.5714283C6.605468800000001,13.464976,8.160690299999999,15,10.0791531,15L10.2311268,14.996572C10.316705200000001,14.641474,10.4373536,14.295856,10.5911522,13.964633C10.648376500000001,13.841393,10.7101908,13.720145,10.7764955,13.601143C10.649282,13.643729,10.519574200000001,13.674198,10.3889937,13.692784C9.8391652,13.771045,9.2738638,13.638655,8.8141742,13.313372C8.2453103,12.9108362,7.9079683,12.26229,7.9081006,11.5714283L7.9081006,6.4285717C7.9081006,5.2451041,8.8801136,4.2857143,10.0791531,4.2857143C11.278192,4.2857143,12.250206,5.2451041,12.250206,6.4285717L12.250206,11.5714283C12.250206,11.6891422,12.240943,11.8037148,12.2224159,11.915143C12.3281183,11.8325157,12.4366894,11.7537298,12.5479069,11.6789122C12.8632965,11.4667463,13.1999664,11.2865057,13.5528374,11.1411428ZM13.2528372,10.943912000000001L13.2528372,6.4285717Q13.2528372,5.1338246000000005,12.3246784,4.2177193Q11.3948836,3.3000000099999998,10.0791531,3.3000000099999998Q8.7634234,3.2999998,7.8336284,4.2177193Q6.9054687,5.1338251,6.9054687,6.4285717L6.9054687,11.5714283Q6.9054687,12.8661757,7.8336284,13.782281Q8.7349868,14.671933,9.9990344,14.699142Q10.097645799999999,14.351566,10.2381797,14.019976Q9.3941588,14.091289,8.6408863,13.558262Q7.6078598,12.8272791,7.6081007,11.5714283L7.6081002,6.4285717Q7.6081007,5.4155567,8.3332458,4.6998287Q9.056756499999999,3.98571426,10.0791535,3.9857147299999998Q11.1015487,3.98571455,11.8250594,4.6998287Q12.5502062,5.4155576,12.5502062,6.4285717L12.5502062,11.3196669Q12.887784,11.1087542,13.2528372,10.943912000000001ZM9.4276314,17.556381000000002L9.4276314,19.500381L9.433710600000001,19.587812C9.4803824,19.922613,9.7817326,20.164581,10.123340599999999,20.141546C10.4649491,20.118513,10.7301574,19.838339,10.7302637,19.500381L10.7302637,18.887525C10.31429,18.110953000000002,10.0789471,17.225524999999998,10.0789471,16.286096999999998L9.8618426,16.286096999999998L9.674263,16.282668C7.2311676,16.183372,5.3024243,14.199508,5.3026316,11.7860966L5.3026316,11.3575249L5.2965526999999994,11.2700968C5.2498807,10.9352927,4.9485305,10.6933246,4.60692215,10.7163606C4.26531371,10.7393951,4.00010494773,11.0195684,4,11.3575249L4,11.7860966L4.0034736842,11.9883823C4.10779548,14.938318,6.4452724,17.337783,9.4276314,17.556381000000002ZM4.99806511,11.3022671Q4.95029384,10.9938865,4.62710536,11.0156813Q4.30009931,11.0377302,4.30000001,11.3575249L4.29995579,11.7809458L4.30328587,11.9777794Q4.37743399,14.07447,5.8511781,15.587295Q7.3263199,17.101557,9.4495616,17.257184000000002L9.727631599999999,17.277565L9.727631599999999,19.489965L9.7321982,19.555643Q9.779969699999999,19.864019,10.1031575,19.842226Q10.4301629,19.820175,10.430263499999999,19.500381L10.430263499999999,18.961807Q9.8477554,17.840978,9.7862163,16.584764L9.6654296,16.582557L9.6620803,16.58242Q7.7102311,16.503092000000002,6.3571095,15.111298Q5.0024656,13.717938,5.0026315,11.7860966L5.0026315,11.3679428L4.99806511,11.3022671ZM15.723581,20.998884C18.361466999999998,20.998884,20.499897,18.888227999999998,20.499897,16.284598000000003C20.499897,13.68097,18.361466999999998,11.5703125,15.723581,11.5703125C13.0856953,11.5703125,10.9472656,13.68097,10.9472656,16.284598000000003C10.9472656,18.888227999999998,13.0856953,20.998884,15.723581,20.998884ZM18.890205,13.164609Q20.199896,14.457291,20.199896,16.284598000000003Q20.199896,18.111908,18.890205,19.404591Q17.578879999999998,20.698885,15.723581,20.698885Q13.8682823,20.698885,12.5569572,19.404591Q11.247265800000001,18.111907000000002,11.247265800000001,16.284598000000003Q11.247265800000001,14.457291,12.5569563,13.164609Q13.8682833,11.8703127,15.723581,11.8703136Q17.578879,11.8703127,18.890205,13.164609ZM19.997368,16.285995Q19.997368,14.531395,18.741927,13.292257Q17.490844,12.0574217,15.723685,12.0574217Q13.9565239,12.0574217,12.7054424,13.292257Q11.4500008,14.531394,11.4500008,16.285995Q11.4500003,18.040593,12.7054434,19.27973Q13.9565248,20.514566,15.723685,20.514566Q17.490844,20.514566,18.741927,19.27973Q19.997368,18.040591,19.997368,16.285995ZM15.723685,12.3574219Q17.367725999999998,12.3574219,18.531185999999998,13.505771Q19.697368,14.656809,19.697368,16.285995Q19.697368,17.915177999999997,18.531185999999998,19.066216Q17.367728,20.214567,15.723685,20.214567Q14.079642,20.214567,12.9161835,19.066216Q11.75,17.915177999999997,11.750001000000001,16.285995Q11.750001000000001,14.656809,12.9161835,13.505771Q14.079642,12.3574219,15.723685,12.3574219ZM15.723685,13.357422Q14.490032,13.357422,13.6186543,14.217484Q12.75,15.074856,12.75,16.285995Q12.75,17.49713,13.6186533,18.354505Q14.490032,19.214567,15.723685,19.214567Q16.957335999999998,19.214567,17.828713999999998,18.354505Q18.69737,17.497131,18.69737,16.285995Q18.69737,15.074856,17.828713999999998,14.217484Q16.957335999999998,13.357422,15.723685,13.357422ZM13.0500002,16.285995Q13.0500002,15.200271,13.8293943,14.430998Q14.613149,13.657422,15.723685,13.657422Q16.834220000000002,13.657422,17.617973,14.430998Q18.397368999999998,15.200271,18.397368999999998,16.285995Q18.397368999999998,17.371716,17.617973,18.140990000000002Q16.834221,18.914566,15.723685,18.914566Q14.61315,18.914566,13.8293943,18.140990000000002Q13.0500002,17.371716,13.0500002,16.285995Z" fill-rule="evenodd" fill-opacity="1"/></g><path d="M20.56278135,14.78422922L21.532781149999998,16.0775623C21.77996895,16.4071465,21.90682985,16.578238,21.90117595,16.7160919C21.89646335,16.8309953,21.84173675,16.9404485,21.75264165,17.0131607C21.64575095,17.1003962,21.43276095,17.1015625,21.02078125,17.1015625L19.08078125,17.1015625C18.66880143,17.1015625,18.4558115,17.1003962,18.34892094,17.0131607C18.25982592,16.9404485,18.20509931,16.8309953,18.20038646,16.7160919C18.19473228,16.578238,18.3215934,16.4071465,18.56878132,16.0775625L19.53878115,14.78422922C19.71247645,14.55263549,19.80239745,14.43399587,19.90934135,14.39382917C20.00022125,14.35969585,20.10134125,14.35969585,20.19222115,14.39382917C20.29916505,14.43399587,20.38908605,14.55263549,20.56278135,14.78422922" fill-rule="evenodd" fill-opacity="1" transform="matrix(0,1,-1,0,31.90234375,-3.69921875)"/></g></svg>