<?xml version="1.0" encoding="UTF-8"?>
<svg width="20px" height="20px" viewBox="0 0 20 20" version="1.1" xmlns="http://www.w3.org/2000/svg" xmlns:xlink="http://www.w3.org/1999/xlink">
    <title>关于</title>
    <g id="关于" stroke="none" stroke-width="1"  fill-rule="evenodd">
        <path d="M10,2.9 C11.9081298,2.9 13.6979157,3.6570169 15.0204495,4.97954282 C16.3429792,6.3020882 17.1,8.09187362 17.1,10 C17.1,11.9081288 16.3429772,13.6979154 15.0204468,15.0204472 C13.6979154,16.3429772 11.9081288,17.1 10,17.1 C8.09187362,17.1 6.3020882,16.3429792 4.97953905,15.0204457 C3.6570169,13.6979157 2.9,11.9081298 2.9,10 C2.9,8.09187265 3.65701486,6.30208788 4.97954385,4.97953676 C6.30208788,3.65701486 8.09187265,2.9 10,2.9 Z M10,4.1 C8.41340204,4.1 6.92779796,4.72835732 5.82807199,5.82806489 C4.72835732,6.92779796 4.1,8.41340204 4.1,10 C4.1,11.586599 4.72835815,13.072202 5.82806593,14.1719163 C6.92780061,15.271638 8.41340469,15.9 10,15.9 C11.5865964,15.9 13.0721994,15.2716371 14.1719186,14.1719191 C15.2716371,13.0721994 15.9,11.5865964 15.9,10 C15.9,8.41340469 15.271638,6.92780061 14.1719201,5.8280697 C13.072202,4.72835815 11.586599,4.1 10,4.1 Z M10.1625,8.1 C10.4607338,8.1 10.7081468,8.31758961 10.754647,8.60267688 L10.7625,8.7 L10.762,12.725 L11.3263482,12.7505788 C11.6573994,12.7651305 11.9139729,13.045297 11.8994212,13.3763482 C11.8863247,13.6742943 11.6580802,13.9119134 11.3712259,13.9458496 L11.2736518,13.9494212 L8.99865182,13.8494212 C8.66760063,13.8348695 8.4110271,13.554703 8.4255788,13.2236518 C8.43867533,12.9257057 8.66691985,12.6880866 8.9537741,12.6541504 L9.05134818,12.6505788 L9.562,12.672 L9.562,9.3 L9.5125,9.3 C9.21426624,9.3 8.96685325,9.08241039 8.92035299,8.79732312 L8.9125,8.7 C8.9125,8.40176624 9.13008961,8.15435325 9.41517688,8.10785299 L9.5125,8.1 L10.1625,8.1 Z M10,5.775 C10.4487272,5.775 10.8125,6.13877246 10.8125,6.5875 C10.8125,7.03622754 10.4487272,7.4 10,7.4 C9.55127277,7.4 9.1875,7.03622754 9.1875,6.5875 C9.1875,6.13877246 9.55127277,5.775 10,5.775 Z" id="形状结合" fill-rule="nonzero"></path>
    </g>
</svg>