<?xml version="1.0" encoding="UTF-8"?>
<svg width="20px" height="20px" viewBox="0 0 20 20" version="1.1" xmlns="http://www.w3.org/2000/svg" xmlns:xlink="http://www.w3.org/1999/xlink">
    <title>应用使用分析</title>
    <g id="应用使用分析" stroke="none" stroke-width="1" fill-rule="evenodd">
        <path d="M15.3617077,4.32 C15.7759213,4.32 16.1117077,4.65578644 16.1117077,5.07 L16.1117077,5.07 L16.1117077,14.725039 C16.1117077,14.7616701 16.1090816,14.7976879 16.1040074,14.8329143 C16.1090816,14.867481 16.1117077,14.9034987 16.1117077,14.9401299 C16.1117077,15.3198256 15.8295539,15.6336208 15.4634783,15.6832833 L15.3617077,15.6901299 L7.04879716,15.6901299 C6.6345836,15.6901299 6.29879716,15.3543434 6.29879716,14.9401299 C6.29879716,14.5604341 6.58095104,14.2466389 6.9470266,14.1969765 L7.04879716,14.1901299 L14.611,14.19 L14.611,8.936 L5.38,8.936 L5.38000029,11.6081558 C5.38000029,12.0223694 5.04421385,12.3581558 4.63000029,12.3581558 C4.25030452,12.3581558 3.93650933,12.076002 3.88684691,11.7099264 L3.88000029,11.6081558 L3.88000029,5.07 C3.88000029,4.65578644 4.21578673,4.32 4.63000029,4.32 L4.63000029,4.32 Z M12.2424942,10.1646551 L12.3345553,10.2388602 L13.5366133,11.3734056 C13.8378435,11.6577175 13.8515585,12.1323932 13.5672466,12.4336234 C13.3087813,12.707469 12.8929905,12.7436988 12.5932095,12.5344151 L12.5070289,12.4642567 L11.825854,11.821 L10.1830354,13.4093029 C9.92531393,13.6583995 9.53281852,13.6871181 9.24399653,13.492982 L9.15188937,13.4200127 L7.90985401,12.269 L5.15442045,14.9646424 C4.88521936,15.2279417 4.468313,15.2475286 4.1771339,15.0264336 L4.09382542,14.9528877 C3.83052609,14.6836866 3.81093918,14.2667802 4.03203419,13.9756011 L4.10558013,13.8922927 L7.37220829,10.6972797 C7.62955364,10.4455762 8.02391276,10.4154835 8.31403053,10.6102231 L8.40654472,10.6834678 L9.64985401,11.837 L11.2985334,10.2450088 C11.557925,9.99429789 11.9534753,9.96703322 12.2424942,10.1646551 Z M14.610854,5.82 L5.37985401,5.82 L5.37985401,7.436 L14.610854,7.436 L14.610854,5.82 Z" id="形状结合" fill-rule="nonzero"></path>
    </g>
</svg>