<?xml version="1.0" encoding="UTF-8"?>
<svg width="20px" height="20px" viewBox="0 0 20 20" version="1.1" xmlns="http://www.w3.org/2000/svg" xmlns:xlink="http://www.w3.org/1999/xlink">
    <title>租户审核</title>
    <g id="租户审核" stroke="none" stroke-width="1" fill-rule="evenodd">
        <path d="M14.8499156,14.6033333 C15.0708295,14.6033333 15.2499156,14.7824194 15.2499156,15.0033333 L15.2499156,15.7033333 C15.2499156,15.9242472 15.0708295,16.1033333 14.8499156,16.1033333 L5.15,16.1033333 C4.9290861,16.1033333 4.75,15.9242472 4.75,15.7033333 L4.75,15.0033333 C4.75,14.7824194 4.9290861,14.6033333 5.15,14.6033333 L14.8499156,14.6033333 Z M10.089957,3.75 C11.9628206,3.75 13.3196025,4.89618828 13.3196025,7.09682133 C13.3196025,8.14249864 13.0214994,8.89275406 12.4661497,9.57664169 L12.4661497,9.57664169 L12.1239574,9.97281396 L11.9939654,10.1271786 L11.9483384,10.1830167 L11.948,10.215 L14.2187526,10.2158293 C14.7570454,10.2158293 15.188856,10.6287677 15.2440384,11.1466856 L15.2440384,11.1466856 L15.2499994,11.2591627 L15.2499994,13.5933333 C15.2499994,14.0075469 14.9142136,14.3433333 14.5,14.3433333 L14.5,14.3433333 L5.5,14.3433333 C5.08562374,14.3433333 4.74976994,14.0072929 4.74999941,13.5929167 L4.74999941,13.5929167 L4.75129747,11.2579902 C4.75218615,10.6895115 5.2059759,10.2164826 5.78270704,10.2158293 L5.78270704,10.2158293 L8.076,10.215 L7.83394818,9.93718768 L7.57257084,9.62542358 C7.02626886,8.92415692 6.72494711,8.14031576 6.72494711,7.09682133 C6.72494711,4.89924796 8.18298106,3.75 10.089957,3.75 Z M10.089957,5.25 C8.94360979,5.25 8.22494711,5.81646255 8.22494711,7.09682133 C8.22494711,7.78547613 8.40448569,8.25251751 8.75588545,8.70359576 L8.75588545,8.70359576 L9.11444666,9.1237138 L9.28142165,9.32200438 C9.42552316,9.50735477 9.51514589,9.66928722 9.56766245,9.87416234 C9.59114668,9.96577789 9.60350919,10.0596779 9.60350919,10.155232 L9.60350919,10.155232 L9.60211156,10.4447898 L9.59514289,10.6553065 C9.59146688,10.7144664 9.58622575,10.7648131 9.57878356,10.8129437 L9.57878356,10.8129437 L9.5492179,10.9572838 C9.43646375,11.4116825 9.08147241,11.7158293 8.59571785,11.7158293 L8.59571785,11.7158293 L6.251,11.715 L6.25,12.843 L13.75,12.843 L13.75,11.715 L11.4178101,11.7158293 C10.6719359,11.7158293 10.4770002,11.338936 10.4516494,10.5658203 L10.4516494,10.5658203 L10.4487904,10.4162132 L10.4482685,10.155232 C10.4482685,9.85615271 10.5438939,9.59223273 10.7123878,9.33913934 C10.7360397,9.30361201 10.7733557,9.25452504 10.8180138,9.19861295 L10.8180138,9.19861295 L10.9676925,9.01713578 L11.3017213,8.63106965 C11.6509516,8.20100858 11.8196025,7.77655391 11.8196025,7.09682133 C11.8196025,5.78595279 11.185177,5.25 10.089957,5.25 Z" id="形状结合" fill-rule="nonzero"></path>
    </g>
</svg>