<svg xmlns="http://www.w3.org/2000/svg" xmlns:xlink="http://www.w3.org/1999/xlink" version="1.1" width="14" height="14" viewBox="0 0 14 14"><defs><clipPath id="master_svg0_3_96010"><rect x="-0.6000000238418579" y="-0.6000000238418579" width="15.200000047683716" height="15.200000047683716" rx="0"/></clipPath><clipPath id="master_svg1_3_96012"><rect x="0.3999999761581421" y="0.8999999761581421" width="13.200000047683716" height="12.200000047683716" rx="0"/></clipPath></defs><g clip-path="url(#master_svg0_3_96010)"><g clip-path="url(#master_svg1_3_96012)"><path d="M12.368421210913086,2.12309027L10.473684310913086,2.12309027Q10.414589467913085,2.1230903,10.356630120913087,2.13461915Q10.298670770913086,2.146148,10.244074250913085,2.16876262Q10.189477740913086,2.19137722,10.140342180913086,2.22420853Q10.091206610913085,2.25703984,10.049420240913086,2.29882622Q10.007633890913086,2.34061258,9.974802550913086,2.38974814Q9.941971240913086,2.43888371,9.919356640913087,2.49348022Q9.896741990913085,2.548076732,9.885213140913086,2.606036082Q9.873684290913086,2.66399543,9.873684290913086,2.72309028Q9.873684290913086,2.78218511,9.885213140913086,2.84014446Q9.896741990913085,2.8981038,9.919356640913087,2.95270032Q9.941971240913086,3.0072967999999998,9.974802580913085,3.05643237Q10.007633890913086,3.10556793,10.049420240913086,3.1473543Q10.091206610913085,3.18914068,10.140342180913086,3.22197199Q10.189477740913086,3.2548033,10.244074250913085,3.27741796Q10.298670770913086,3.30003262,10.356630120913087,3.31156141Q10.414589467913085,3.32309031,10.473684310913086,3.32309031L12.368421210913086,3.32309031Q12.427516010913086,3.32309031,12.485475310913086,3.31156141Q12.543434610913085,3.30003262,12.598031010913086,3.27741796Q12.652627510913085,3.25480336,12.701762910913086,3.2219720499999998Q12.750898410913086,3.18914068,12.792685010913086,3.14735436Q12.834471210913087,3.10556793,12.867302410913085,3.0564324Q12.900133810913086,3.00729683,12.922748610913086,2.95270032Q12.945363310913086,2.8981038,12.956892210913086,2.84014446Q12.968421010913087,2.78218511,12.968421210913085,2.72309028Q12.968421010913087,2.66399543,12.956892210913086,2.606036082Q12.945363310913086,2.548076732,12.922748610913086,2.49348022Q12.900133810913086,2.43888371,12.867302610913086,2.38974814Q12.834471210913087,2.34061258,12.792685010913086,2.29882622Q12.750898410913086,2.25703984,12.701762910913086,2.22420853Q12.652627510913085,2.19137722,12.598031010913086,2.16876259Q12.543434610913085,2.14614797,12.485475110913086,2.13461915Q12.427516010913086,2.1230903,12.368421210913086,2.12309027Z"/><path d="M7.347368243630371,1.5L7.347368243630371,3.9444444Q7.347368243630371,4.003539099999999,7.358897093630371,4.0614984Q7.370425943630371,4.1194577,7.393040563630371,4.1740541Q7.415655193630371,4.2286506,7.448486503630371,4.2777863Q7.481317813630371,4.3269219,7.523104193630371,4.3687084Q7.564890563630371,4.4104948,7.614026133630371,4.443326Q7.6631616936303715,4.4761574,7.7177582086303715,4.4987721Q7.772354718630371,4.5213866,7.830314066630371,4.5329156Q7.888273417630371,4.5444446,7.947368263630371,4.5444446Q8.006463093630371,4.5444446,8.06442242363037,4.5329156Q8.122381773630371,4.5213866,8.176978293630372,4.4987721Q8.231574803630371,4.4761574,8.280710403630371,4.443326Q8.32984596363037,4.4104948,8.371632333630371,4.3687084Q8.413418653630371,4.3269219,8.446249963630372,4.2777864999999995Q8.47908133363037,4.2286506,8.501695933630371,4.1740541Q8.524310593630371,4.1194577,8.535839433630372,4.0614984Q8.547368283630371,4.003539099999999,8.547368283630371,3.9444444L8.547368283630371,1.5Q8.547368283630371,1.440905157,8.535839433630372,1.38294581Q8.524310593630371,1.32498646,8.50169599363037,1.27038994Q8.479081393630372,1.21579343,8.446250023630371,1.1666578699999999Q8.413418653630371,1.1175223,8.371632333630371,1.07573593Q8.32984596363037,1.03394958,8.280710403630371,1.00111824Q8.23157483363037,0.96828693,8.17697832363037,0.94567233Q8.122381803630372,0.92305768,8.06442242363037,0.91152883Q8.006463093630371,0.89999998,7.947368263630371,0.89999998Q7.888273417630371,0.89999998,7.830314066630371,0.91152883Q7.772354718630371,0.92305768,7.7177582086303715,0.94567233Q7.6631616936303715,0.96828693,7.614026133630371,1.00111827Q7.564890563630371,1.03394958,7.523104193630371,1.07573593Q7.481317813630371,1.1175223,7.448486503630371,1.1666578699999999Q7.415655193630371,1.21579343,7.393040593630371,1.27038994Q7.370425973630371,1.32498646,7.358897123630371,1.38294581Q7.347368243630371,1.440905157,7.347368243630371,1.5Z" fill-rule="evenodd"/><path d="M7.9473686,2.12309027L1,2.12309027Q0.940905157,2.1230903,0.88294581,2.13461915Q0.82498646,2.146148,0.77038994,2.16876262Q0.71579343,2.19137722,0.66665787,2.22420853Q0.6175223000000001,2.25703984,0.57573593,2.29882622Q0.53394958,2.34061258,0.50111824,2.38974814Q0.46828693,2.43888371,0.44567232999999995,2.49348022Q0.42305768,2.548076732,0.41152882999999996,2.606036082Q0.39999998000000003,2.66399543,0.39999998000000003,2.72309028Q0.39999998000000003,2.78218511,0.41152882999999996,2.84014446Q0.42305768,2.8981038,0.44567232999999995,2.95270032Q0.46828693,3.0072967999999998,0.50111827,3.05643237Q0.53394958,3.10556793,0.57573593,3.1473543Q0.6175223000000001,3.18914068,0.66665787,3.22197199Q0.71579343,3.2548033,0.77038994,3.27741796Q0.82498646,3.30003262,0.88294581,3.31156141Q0.940905157,3.32309031,1,3.32309031L7.9473686,3.32309031Q8.006463100000001,3.32309031,8.0644221,3.31156141Q8.1223812,3.30003262,8.1769781,3.27741796Q8.231575,3.25480336,8.2807107,3.2219720499999998Q8.329846400000001,3.18914068,8.3716326,3.14735436Q8.413418799999999,3.10556793,8.44625,3.0564324Q8.4790812,3.00729683,8.5016956,2.95270032Q8.524310100000001,2.8981038,8.5358396,2.84014446Q8.547367999999999,2.78218511,8.547368500000001,2.72309028Q8.547367999999999,2.66399543,8.5358391,2.606036082Q8.524310100000001,2.548076732,8.5016952,2.49348022Q8.4790807,2.43888371,8.4462495,2.38974814Q8.413417800000001,2.34061258,8.3716316,2.29882622Q8.3298454,2.25703984,8.2807093,2.22420853Q8.2315741,2.19137722,8.1769776,2.16876259Q8.1223812,2.14614797,8.0644226,2.13461915Q8.006463100000001,2.1230903,7.9473686,2.12309027Z"/><path d="M3.5263157,6.40043402L1,6.40043402Q0.940905157,6.40043405,0.88294581,6.4119629Q0.82498646,6.42349175,0.77038994,6.44610637Q0.71579343,6.46872097,0.66665787,6.50155228Q0.6175223000000001,6.53438359,0.57573593,6.57616997Q0.53394958,6.61795633,0.50111824,6.66709189Q0.46828693,6.71622746,0.44567232999999995,6.77082397Q0.42305768,6.825420482,0.41152882999999996,6.883379832Q0.39999998000000003,6.94133918,0.39999998000000003,7.00043403Q0.39999998000000003,7.05952886,0.41152882999999996,7.11748821Q0.42305768,7.17544755,0.44567232999999995,7.23004407Q0.46828693,7.28464055,0.50111827,7.33377612Q0.53394958,7.38291168,0.57573593,7.42469805Q0.6175223000000001,7.4664844299999995,0.66665787,7.49931574Q0.71579343,7.53214705,0.77038994,7.55476171Q0.82498646,7.57737637,0.88294581,7.58890516Q0.940905157,7.6004340599999995,1,7.6004340599999995L3.5263157,7.6004340599999995Q3.5854104,7.6004340599999995,3.6433697,7.58890516Q3.701329,7.57737637,3.7559257,7.55476171Q3.8105221,7.53214711,3.8596578,7.4993158Q3.908793,7.4664844299999995,3.9505796,7.42469811Q3.9923658,7.38291168,4.025197,7.33377615Q4.0580285,7.28464058,4.0806432,7.23004407Q4.1032577,7.17544755,4.1147866,7.11748821Q4.1263156,7.05952886,4.1263156,7.00043403Q4.1263156,6.94133918,4.1147866,6.883379832Q4.1032577,6.825420482,4.0806432,6.77082397Q4.0580285,6.71622746,4.025197,6.66709189Q3.9923658,6.61795633,3.9505796,6.57616997Q3.908793,6.53438359,3.8596575,6.50155228Q3.8105221,6.46872097,3.7559257,6.44610634Q3.701329,6.42349172,3.6433697,6.4119629Q3.5854104,6.40043405,3.5263157,6.40043402Z"/><path d="M5.452631476815186,5.77734375L5.452631476815186,8.22178815Q5.452631476815186,8.28088285,5.464160326815185,8.33884215Q5.475689176815186,8.39680145,5.498303796815185,8.45139785Q5.520918426815186,8.50599435,5.553749736815186,8.555130049999999Q5.586581046815185,8.60426565,5.628367426815186,8.64605215Q5.670153796815185,8.68783855,5.719289366815185,8.720669749999999Q5.768424926815186,8.75350115,5.823021441815186,8.77611585Q5.877617951815186,8.79873035,5.9355772998151854,8.810259349999999Q5.9935366508151855,8.82178835,6.052631496815185,8.82178835Q6.111726326815186,8.82178835,6.169685656815186,8.810259349999999Q6.227645006815186,8.79873035,6.282241526815185,8.77611585Q6.336838036815186,8.75350115,6.385973636815185,8.720669749999999Q6.435109196815185,8.68783855,6.476895566815186,8.64605215Q6.518681886815186,8.60426565,6.551513196815185,8.55513025Q6.584344566815186,8.50599435,6.6069591668151855,8.45139785Q6.629573826815186,8.39680145,6.641102666815185,8.33884215Q6.652631516815186,8.28088285,6.652631516815186,8.22178815L6.652631516815186,5.77734375Q6.652631516815186,5.718248907,6.641102666815185,5.66028956Q6.629573826815186,5.60233021,6.606959226815185,5.54773369Q6.584344626815185,5.49313718,6.551513256815186,5.44400162Q6.518681886815186,5.39486605,6.476895566815186,5.3530796800000005Q6.435109196815185,5.31129333,6.385973636815185,5.27846199Q6.336838066815186,5.24563068,6.282241556815186,5.22301608Q6.227645036815185,5.20040143,6.169685656815186,5.18887258Q6.111726326815186,5.1773437300000005,6.052631496815185,5.1773437300000005Q5.9935366508151855,5.1773437300000005,5.9355772998151854,5.18887258Q5.877617951815186,5.20040143,5.823021441815186,5.22301608Q5.768424926815186,5.24563068,5.719289366815185,5.27846202Q5.670153796815185,5.31129333,5.628367426815186,5.3530796800000005Q5.586581046815185,5.39486605,5.553749736815186,5.44400162Q5.520918426815186,5.49313718,5.498303826815185,5.54773369Q5.4756892068151855,5.60233021,5.464160356815185,5.66028956Q5.452631476815186,5.718248907,5.452631476815186,5.77734375Z"/><path d="M13.000102975,6.40043402L6.052734375,6.40043402Q5.993639532,6.40043405,5.935680185,6.4119629Q5.877720835,6.42349175,5.823124315,6.44610637Q5.768527805,6.46872097,5.719392245,6.50155228Q5.670256675,6.53438359,5.6284703050000005,6.57616997Q5.586683955,6.61795633,5.553852615,6.66709189Q5.521021305,6.71622746,5.498406705,6.77082397Q5.475792055,6.825420482,5.464263205,6.883379832Q5.4527343550000005,6.94133918,5.4527343550000005,7.00043403Q5.4527343550000005,7.05952886,5.464263205,7.11748821Q5.475792055,7.17544755,5.498406705,7.23004407Q5.521021305,7.28464055,5.553852645,7.33377612Q5.586683955,7.38291168,5.6284703050000005,7.42469805Q5.670256675,7.4664844299999995,5.719392245,7.49931574Q5.768527805,7.53214705,5.823124315,7.55476171Q5.877720835,7.57737637,5.935680185,7.58890516Q5.993639532,7.6004340599999995,6.052734375,7.6004340599999995L13.000102975,7.6004340599999995Q13.059197475000001,7.6004340599999995,13.117156475,7.58890516Q13.175115575,7.57737637,13.229712475,7.55476171Q13.284309375,7.53214711,13.333445075,7.4993158Q13.382580775000001,7.4664844299999995,13.424366975,7.42469811Q13.466153174999999,7.38291168,13.498984375,7.33377615Q13.531815575,7.28464058,13.554429975,7.23004407Q13.577044475000001,7.17544755,13.588573975,7.11748821Q13.600102374999999,7.05952886,13.600102875000001,7.00043403Q13.600102374999999,6.94133918,13.588573475,6.883379832Q13.577044475000001,6.825420482,13.554429575,6.77082397Q13.531815075,6.71622746,13.498983875,6.66709189Q13.466152175000001,6.61795633,13.424365975,6.57616997Q13.382579775,6.53438359,13.333443675,6.50155228Q13.284308475,6.46872097,13.229711975,6.44610634Q13.175115575,6.42349172,13.117156975,6.4119629Q13.059197475000001,6.40043405,13.000102975,6.40043402Z"/><path d="M12.368421210913086,10.67777777L10.473684310913086,10.67777777Q10.414589467913085,10.6777778,10.356630120913087,10.68930665Q10.298670770913086,10.7008355,10.244074250913085,10.72345012Q10.189477740913086,10.74606472,10.140342180913086,10.77889603Q10.091206610913085,10.811727340000001,10.049420240913086,10.85351372Q10.007633890913086,10.89530008,9.974802550913086,10.94443564Q9.941971240913086,10.99357121,9.919356640913087,11.04816772Q9.896741990913085,11.102764232,9.885213140913086,11.160723582Q9.873684290913086,11.21868293,9.873684290913086,11.27777778Q9.873684290913086,11.33687261,9.885213140913086,11.39483196Q9.896741990913085,11.4527913,9.919356640913087,11.50738782Q9.941971240913086,11.5619843,9.974802580913085,11.61111987Q10.007633890913086,11.66025543,10.049420240913086,11.7020418Q10.091206610913085,11.74382818,10.140342180913086,11.77665949Q10.189477740913086,11.8094908,10.244074250913085,11.83210546Q10.298670770913086,11.85472012,10.356630120913087,11.86624891Q10.414589467913085,11.87777781,10.473684310913086,11.87777781L12.368421210913086,11.87777781Q12.427516010913086,11.87777781,12.485475310913086,11.86624891Q12.543434610913085,11.85472012,12.598031010913086,11.83210546Q12.652627510913085,11.80949086,12.701762910913086,11.77665955Q12.750898410913086,11.74382818,12.792685010913086,11.70204186Q12.834471210913087,11.66025543,12.867302410913085,11.6111199Q12.900133810913086,11.56198433,12.922748610913086,11.50738782Q12.945363310913086,11.4527913,12.956892210913086,11.39483196Q12.968421010913087,11.33687261,12.968421210913085,11.27777778Q12.968421010913087,11.21868293,12.956892210913086,11.160723582Q12.945363310913086,11.102764232,12.922748610913086,11.04816772Q12.900133810913086,10.99357121,12.867302610913086,10.94443564Q12.834471210913087,10.89530008,12.792685010913086,10.85351372Q12.750898410913086,10.811727340000001,12.701762910913086,10.77889603Q12.652627510913085,10.74606472,12.598031010913086,10.72345009Q12.543434610913085,10.70083547,12.485475110913086,10.68930665Q12.427516010913086,10.6777778,12.368421210913086,10.67777777Z"/><path d="M7.347368243630371,10.0546875L7.347368243630371,12.4991319Q7.347368243630371,12.5582266,7.358897093630371,12.6161859Q7.370425943630371,12.6741452,7.393040563630371,12.7287416Q7.415655193630371,12.7833381,7.448486503630371,12.832473799999999Q7.481317813630371,12.8816094,7.523104193630371,12.9233959Q7.564890563630371,12.9651823,7.614026133630371,12.998013499999999Q7.6631616936303715,13.0308449,7.7177582086303715,13.0534596Q7.772354718630371,13.0760741,7.830314066630371,13.087603099999999Q7.888273417630371,13.0991321,7.947368263630371,13.0991321Q8.006463093630371,13.0991321,8.06442242363037,13.087603099999999Q8.122381773630371,13.0760741,8.176978293630372,13.0534596Q8.231574803630371,13.0308449,8.280710403630371,12.998013499999999Q8.32984596363037,12.9651823,8.371632333630371,12.9233959Q8.413418653630371,12.8816094,8.446249963630372,12.832474Q8.47908133363037,12.7833381,8.501695933630371,12.7287416Q8.524310593630371,12.6741452,8.535839433630372,12.6161859Q8.547368283630371,12.5582266,8.547368283630371,12.4991319L8.547368283630371,10.0546875Q8.547368283630371,9.995592657,8.535839433630372,9.93763331Q8.524310593630371,9.87967396,8.50169599363037,9.82507744Q8.479081393630372,9.77048093,8.446250023630371,9.72134537Q8.413418653630371,9.6722098,8.371632333630371,9.63042343Q8.32984596363037,9.58863708,8.280710403630371,9.55580574Q8.23157483363037,9.52297443,8.17697832363037,9.50035983Q8.122381803630372,9.47774518,8.06442242363037,9.46621633Q8.006463093630371,9.45468748,7.947368263630371,9.45468748Q7.888273417630371,9.45468748,7.830314066630371,9.46621633Q7.772354718630371,9.47774518,7.7177582086303715,9.50035983Q7.6631616936303715,9.52297443,7.614026133630371,9.55580577Q7.564890563630371,9.58863708,7.523104193630371,9.63042343Q7.481317813630371,9.6722098,7.448486503630371,9.72134537Q7.415655193630371,9.77048093,7.393040593630371,9.82507744Q7.370425973630371,9.87967396,7.358897123630371,9.93763331Q7.347368243630371,9.995592657,7.347368243630371,10.0546875Z"/><path d="M7.9473686,10.67777777L1,10.67777777Q0.940905157,10.6777778,0.88294581,10.68930665Q0.82498646,10.7008355,0.77038994,10.72345012Q0.71579343,10.74606472,0.66665787,10.77889603Q0.6175223000000001,10.811727340000001,0.57573593,10.85351372Q0.53394958,10.89530008,0.50111824,10.94443564Q0.46828693,10.99357121,0.44567232999999995,11.04816772Q0.42305768,11.102764232,0.41152882999999996,11.160723582Q0.39999998000000003,11.21868293,0.39999998000000003,11.27777778Q0.39999998000000003,11.33687261,0.41152882999999996,11.39483196Q0.42305768,11.4527913,0.44567232999999995,11.50738782Q0.46828693,11.5619843,0.50111827,11.61111987Q0.53394958,11.66025543,0.57573593,11.7020418Q0.6175223000000001,11.74382818,0.66665787,11.77665949Q0.71579343,11.8094908,0.77038994,11.83210546Q0.82498646,11.85472012,0.88294581,11.86624891Q0.940905157,11.87777781,1,11.87777781L7.9473686,11.87777781Q8.006463100000001,11.87777781,8.0644221,11.86624891Q8.1223812,11.85472012,8.1769781,11.83210546Q8.231575,11.80949086,8.2807107,11.77665955Q8.329846400000001,11.74382818,8.3716326,11.70204186Q8.413418799999999,11.66025543,8.44625,11.6111199Q8.4790812,11.56198433,8.5016956,11.50738782Q8.524310100000001,11.4527913,8.5358396,11.39483196Q8.547367999999999,11.33687261,8.547368500000001,11.27777778Q8.547367999999999,11.21868293,8.5358391,11.160723582Q8.524310100000001,11.102764232,8.5016952,11.04816772Q8.4790807,10.99357121,8.4462495,10.94443564Q8.413417800000001,10.89530008,8.3716316,10.85351372Q8.3298454,10.811727340000001,8.2807093,10.77889603Q8.2315741,10.74606472,8.1769776,10.72345009Q8.1223812,10.70083547,8.0644226,10.68930665Q8.006463100000001,10.6777778,7.9473686,10.67777777Z"/></g></g></svg>
