<svg xmlns="http://www.w3.org/2000/svg" xmlns:xlink="http://www.w3.org/1999/xlink" version="1.1" width="24" height="24" viewBox="0 0 24 24"><defs><clipPath id="master_svg0_19_21007"><rect x="2.399999976158142" y="2.399999976158142" width="19.200000047683716" height="19.200000047683716" rx="0"/></clipPath></defs><g clip-path="url(#master_svg0_19_21007)"><path d="M6.3999999800000005,18.333333500000002L6.3999999800000005,20L7.6000000199999995,20L7.6000000199999995,18.333333500000002Q7.6000000199999995,17.0064516,7.66558146,16.6002049Q7.73966265,16.1413064,7.9701106,15.94926655Q8.234679,15.72879267,8.8723447,15.65730655Q9.3835268,15.59999996,11,15.59999996L12,15.60000002Q13.6164732,15.60000002,14.127655,15.65730655Q14.765321700000001,15.72879279,15.029891,15.94926643Q15.2603378,16.1413062,15.3344193,16.6002046Q15.4000006,17.0064502,15.4000006,18.333333500000002L15.4000006,20L16.6000004,20L16.6000004,18.333333500000002Q16.6000004,16.9102157,16.5190821,16.4089615Q16.3734522,15.50685149,15.798111,15.027400367Q15.2568903,14.57638329,14.261344900000001,14.46477681Q13.683526,14.39999998,12,14.39999998L11,14.399999919999999Q9.3164735,14.399999919999999,8.738655099999999,14.46477681Q7.74311018,14.57638326,7.2018895,15.027400814Q6.62654856,15.506851319999999,6.48091859,16.4089618Q6.3999999800000005,16.9102149,6.3999999800000005,18.333333500000002Z"/><path d="M7,8.6L12,8.6Q12.0590944,8.5999999,12.117054,8.5884712Q12.175013100000001,8.5769422,12.229609499999999,8.5543276Q12.2842064,8.531713,12.3333421,8.4988817Q12.3824778,8.46605033,12.424264,8.42426401Q12.4660501,8.38247764,12.4988813,8.33334208Q12.531712500000001,8.28420651,12.554327,8.22961003Q12.5769415,8.17501354,12.5884705,8.11705416Q12.5999994,8.05909479,12.5999999,8Q12.5999994,7.94090515,12.5884705,7.88294578Q12.5769415,7.82498643,12.554327,7.7703899100000005Q12.531712500000001,7.7157934,12.4988813,7.66665784Q12.4660501,7.61752227,12.424264,7.575735904Q12.3824778,7.533949539,12.3333421,7.5011182064Q12.2842064,7.468286872,12.229609499999999,7.445672259Q12.175013100000001,7.423057638,12.117054,7.411528811Q12.0590944,7.39999998,12,7.39999998L7,7.39999998Q6.940905157,7.39999998,6.88294581,7.411528811Q6.82498646,7.423057638,6.77038994,7.445672259Q6.71579343,7.468286876,6.66665787,7.5011182111Q6.6175223,7.533949547,6.5757359300000005,7.575735912Q6.53394958,7.61752227,6.50111824,7.66665784Q6.46828693,7.7157934,6.44567233,7.7703899100000005Q6.42305768,7.82498643,6.41152883,7.88294578Q6.3999999800000005,7.94090515,6.3999999800000005,8Q6.3999999800000005,8.05909479,6.41152883,8.11705416Q6.42305768,8.17501354,6.44567233,8.22961003Q6.46828693,8.28420651,6.50111827,8.33334208Q6.53394958,8.38247764,6.5757359300000005,8.42426401Q6.6175223,8.46605033,6.66665787,8.49888164Q6.71579343,8.531713,6.77038994,8.5543276Q6.82498646,8.5769422,6.88294581,8.5884712Q6.940905157,8.5999999,7,8.6Z"/><path d="M3.39999998,9.333333L3.39999998,14.666666Q3.40000004,16.90661,3.5030200799999998,17.672638Q3.67658538,18.963221,4.35682783,19.642688Q5.0367795,20.323416,6.3273616,20.496981Q7.0933869000000005,20.6,9.333333,20.6L14.666666,20.6Q16.906613,20.6,17.672638,20.496981Q18.963221,20.323416,19.642688,19.643172Q20.323416,18.963221,20.496981,17.672638Q20.6,16.906613,20.6,14.666666L20.6,8.2915554Q20.6,7.627026799999999,20.487001,7.3549447Q20.373768,7.0807970000000005,19.903391,6.610419L19.903374,6.6104023000000005L17.390329,4.097357132Q16.921965999999998,3.62737489,16.646124999999998,3.51344085Q16.372970000000002,3.39999998,15.708444,3.39999998L9.333333,3.39999998Q7.0933895,3.40000004,6.3273613,3.5030200799999998Q5.0367787,3.67658538,4.35731077,4.35682803Q3.67658535,5.0367788000000004,3.5030200799999998,6.3273618Q3.39999998,7.0933905,3.39999998,9.333333ZM5.2058393,18.794643999999998Q4.60000008,18.189493,4.6000000199999995,14.666666L4.6000000199999995,9.333333Q4.6000000199999995,5.8105061,5.2053557999999995,5.205839Q5.8105059,4.60000008,9.333333,4.6000000199999995L15.708444,4.6000000199999995Q16.133696999999998,4.6000000199999995,16.185876999999998,4.62167031Q16.241664,4.64471388,16.540339,4.94442064L19.054845,7.4589303000000005L19.054862,7.4589455000000005Q19.356009999999998,7.7600963,19.377886,7.8130555Q19.400001,7.8663068,19.400001,8.2915554L19.400001,14.666666Q19.400001,18.189493,18.794643999999998,18.794161000000003Q18.189494,19.400001,14.666666,19.400001L9.333333,19.400001Q5.8105057,19.400001,5.2058393,18.794643999999998Z"/></g></svg>
