<?xml version="1.0" standalone="no"?><!DOCTYPE svg PUBLIC "-//W3C//DTD SVG 1.1//EN" "http://www.w3.org/Graphics/SVG/1.1/DTD/svg11.dtd"><svg t="1767772294809" class="icon" viewBox="0 0 1024 1024" version="1.1" xmlns="http://www.w3.org/2000/svg" p-id="7786" xmlns:xlink="http://www.w3.org/1999/xlink" width="200" height="200"><path d="M512 1023.999097a510.462115 510.462115 0 1 1 199.29478-40.247601 508.793229 508.793229 0 0 1-199.29478 40.247601z m0-983.980111a470.45456 470.45456 0 1 0 183.714695 37.081289A469.014288 469.014288 0 0 0 512 40.007555z" p-id="7787"></path><path d="M712.460714 741.500033a19.946624 19.946624 0 0 1-14.448443-6.161164L306.246858 326.404499a20.003778 20.003778 0 0 1 28.885455-27.673798L726.909157 707.676502a20.003778 20.003778 0 0 1-14.437012 33.846392z" p-id="7788"></path><path d="M320.68387 741.500033a20.003778 20.003778 0 0 1-14.437012-33.823531l391.776844-408.93437a20.003778 20.003778 0 0 1 28.885455 27.673798L335.132313 735.338869a19.946624 19.946624 0 0 1-14.448443 6.161164z" p-id="7789"></path></svg>