<?xml version="1.0" encoding="UTF-8"?>
<svg width="20px" height="20px" viewBox="0 0 20 20" version="1.1" xmlns="http://www.w3.org/2000/svg" xmlns:xlink="http://www.w3.org/1999/xlink">
    <title>收起</title>
    <g id="收起" stroke="none" stroke-width="1" fill-rule="evenodd">
        <path d="M7.67857122,8.43464293 C7.67857122,8.43464293 18.3928566,8.43464293 18.3928566,8.43464293 C18.4910717,8.43464293 18.5714283,8.35428585 18.5714283,8.2560717 C18.5714283,8.2560717 18.5714283,7.0060717 18.5714283,7.0060717 C18.5714283,6.90785707 18.4910717,6.8275 18.3928566,6.8275 C18.3928566,6.8275 7.67857122,6.8275 7.67857122,6.8275 C7.58035707,6.8275 7.5,6.90785707 7.5,7.0060717 C7.5,7.0060717 7.5,8.2560717 7.5,8.2560717 C7.5,8.35428585 7.58035707,8.43464293 7.67857122,8.43464293 Z M7.5,12.9882141 C7.5,13.0864283 7.58035707,13.1667859 7.67857122,13.1667859 C7.67857122,13.1667859 18.3928566,13.1667859 18.3928566,13.1667859 C18.4910717,13.1667859 18.5714283,13.0864283 18.5714283,12.9882141 C18.5714283,12.9882141 18.5714283,11.7382141 18.5714283,11.7382141 C18.5714283,11.64 18.4910717,11.5596434 18.3928566,11.5596434 C18.3928566,11.5596434 7.67857122,11.5596434 7.67857122,11.5596434 C7.58035707,11.5596434 7.5,11.64 7.5,11.7382141 C7.5,11.7382141 7.5,12.9882141 7.5,12.9882141 Z M18.75,2.14 C18.75,2.14 1.24999973,2.14 1.24999973,2.14 C1.15178544,2.14 1.0714283,2.22035714 1.0714283,2.31857143 C1.0714283,2.31857143 1.0714283,3.56857146 1.0714283,3.56857146 C1.0714283,3.66678573 1.15178544,3.74714293 1.24999973,3.74714293 C1.24999973,3.74714293 18.75,3.74714293 18.75,3.74714293 C18.8482151,3.74714293 18.9285717,3.66678573 18.9285717,3.56857146 C18.9285717,3.56857146 18.9285717,2.31857143 18.9285717,2.31857143 C18.9285717,2.22035714 18.8482151,2.14 18.75,2.14 Z M18.75,16.2471434 C18.75,16.2471434 1.24999973,16.2471434 1.24999973,16.2471434 C1.15178544,16.2471434 1.0714283,16.3275 1.0714283,16.4257141 C1.0714283,16.4257141 1.0714283,17.6757141 1.0714283,17.6757141 C1.0714283,17.7739283 1.15178544,17.8542859 1.24999973,17.8542859 C1.24999973,17.8542859 18.75,17.8542859 18.75,17.8542859 C18.8482151,17.8542859 18.9285717,17.7739283 18.9285717,17.6757141 C18.9285717,17.6757141 18.9285717,16.4257141 18.9285717,16.4257141 C18.9285717,16.3275 18.8482151,16.2471434 18.75,16.2471434 Z M1.14732119,10.1511618 C1.14732119,10.1511618 4.63616085,12.8989283 4.63616085,12.8989283 C4.765625,13.0016076 4.95758915,12.9100891 4.95758915,12.7449099 C4.95758915,12.7449099 4.95758915,7.249375 4.95758915,7.249375 C4.95758915,7.08419622 4.76785731,6.99267878 4.63616085,7.09535707 C4.63616085,7.09535707 1.14732119,9.843125 1.14732119,9.843125 C1.12386182,9.86136402 1.10487881,9.88472094 1.09182075,9.91141285 C1.07876269,9.93810524 1.07197462,9.96742786 1.07197462,9.99714293 C1.07197462,10.026858 1.07876269,10.0561806 1.09182075,10.082873 C1.10487881,10.1095649 1.12386182,10.1329228 1.14732119,10.1511618 Z" id="Vector" fill-rule="nonzero"></path>
    </g>
</svg>