<svg xmlns="http://www.w3.org/2000/svg" xmlns:xlink="http://www.w3.org/1999/xlink" version="1.1" width="16" height="16" viewBox="0 0 16 16"><path d="M7.9999995,15.999999C6.92028,15.999999,5.8725252,15.788389,4.8858471,15.371069C3.9331396,14.968112,3.0776572,14.391371,2.343153,13.656866C1.6086487,12.922342,1.0319072,12.066861,0.62893057,11.114153C0.21161008,10.127475,0,9.0797195,0,7.9999995C0,6.92028,0.21161008,5.8725243,0.62893057,4.8858471C1.031888,3.9331396,1.6086295,3.0776572,2.343153,2.343153C3.0776763,1.6086487,3.9331388,1.0319072,4.8858471,0.62893057C5.8725252,0.21161008,6.92028,0,7.9999995,0C9.249629,0,10.446779,0.28028291,11.558195,0.83304083C12.617344,1.3598101,13.564307,2.1315043,14.296671,3.0647011C14.507028,3.3327415,14.460276,3.7205648,14.192235,3.9309218C13.924194,4.1412592,13.536391,4.0945067,13.326033,3.8264859C12.032948,2.1788542,10.091672,1.2338773,7.999999,1.2338773C4.2691388,1.2338773,1.2338771,4.2691393,1.2338771,7.999999C1.2338771,11.730859,4.2691388,14.76612,7.999999,14.76612C11.857313,14.76612,14.766122,12.039655,14.766122,8.4241438C14.766122,8.0834198,15.042336,7.8072047,15.38306,7.8072047C15.723784,7.8072047,15.999999,8.0834198,15.999999,8.4241438C15.999999,10.54464,15.161329,12.484566,13.638474,13.886559C12.158109,15.249453,10.155661,15.999998,7.9999995,15.999999Z" style="mix-blend-mode:passthrough"/><path d="M10.381058807646484,10.091263574557495C10.277142877646485,10.091263574557495,10.171877647646484,10.065004574557495,10.075250327646485,10.009712474557496C9.779505149646484,9.840516774557496,9.676939315646484,9.463586574557496,9.846134811646484,9.167841674557495L13.171645687646485,3.355390164557495C13.340840587646484,3.059625768557495,13.717829187646483,2.957059547557495,14.013516387646485,3.126274652557495C14.309261787646484,3.295489374557495,14.411827587646485,3.6724005945574953,14.242632887646485,3.968145374557495L10.917101387646484,9.780595974557496C10.803199087646485,9.979693674557495,10.595078587646483,10.091263574557495,10.381058807646484,10.091263574557495Z" style="mix-blend-mode:passthrough"/><path d="M10.216382009454346,10.323097664215087C10.082782709454346,10.323182564215088,9.952799809454346,10.279701264215088,9.846141809454345,10.199247364215088L5.885472159454346,7.221823464215088C5.613113094454346,7.017076964215088,5.558301597454346,6.630314234215088,5.763048069454346,6.357973964215088C5.967794539454346,6.085614845215088,6.354538379454346,6.030803345215088,6.626897449454345,6.235549834215088L10.587586909454345,9.213012264215088C10.859945809454345,9.417739864215088,10.914757209454347,9.804502764215087,10.710011009454345,10.076861864215088C10.588763709454346,10.238094764215088,10.403700309454345,10.323097664215087,10.216382009454346,10.323097664215087Z" style="mix-blend-mode:passthrough"/><path d="M2.332314792032776,12.693762273327636C2.200956642032776,12.693845273327636,2.0730337520327757,12.651802073327637,1.967337462032776,12.573806273327637C1.692838294032776,12.371952073327638,1.6339396610327759,11.985805073327636,1.8357945620327758,11.711307073327637L5.739647982032776,6.402317043327637C5.941464582032776,6.127798294327636,6.327648282032776,6.068900451327637,6.602147182032776,6.270774173327637C6.876646682032776,6.472629073327637,6.9355450820327755,6.858774363327637,6.733690382032776,7.133273543327637L2.829837582032776,12.442263173327635C2.708936932032776,12.606677573327637,2.521869482032776,12.693762273327636,2.332314792032776,12.693762273327636Z" style="mix-blend-mode:passthrough"/></svg>
