<svg xmlns="http://www.w3.org/2000/svg" xmlns:xlink="http://www.w3.org/1999/xlink" version="1.1" width="14" height="14" viewBox="0 0 14 14"><g><path d="M2.649512276158142,4.100002376158142L2.000000356158142,4.100002376158142Q1.940905336158142,4.100002376158142,1.8829453261581421,4.088472476158142C1.844306026158142,4.080785676158142,1.8067876661581421,4.069402376158142,1.7703903361581421,4.054322376158142C1.733992336158142,4.039249076158142,1.699414666158142,4.020768976158142,1.6666573561581421,3.998882376158142C1.633900676158142,3.9769957761581423,1.603593676158142,3.952122376158142,1.5757363461581422,3.924262376158142C1.547878336158142,3.896402476158142,1.523005676158142,3.866095676158142,1.501118346158142,3.8333424761581423Q1.468286842158142,3.784202176158142,1.445672244158142,3.729612476158142C1.430595843158142,3.693212376158142,1.419214710158142,3.655692476158142,1.411528843158142,3.617052476158142C1.403842932058142,3.578412376158142,1.399999976158142,3.539395676158142,1.399999976158142,3.500002476158142C1.399999976158142,3.460602376158142,1.403842932058142,3.421582376158142,1.411528843158142,3.382942476158142C1.419214710158142,3.344302376158142,1.430595843158142,3.306785676158142,1.445672244158142,3.270392376158142C1.460748643158142,3.233992476158142,1.479230679158142,3.199415676158142,1.501118346158142,3.166662476158142Q1.5339493461581422,3.117522376158142,1.5757363461581422,3.0757323761581423C1.603593676158142,3.047879076158142,1.633900676158142,3.023009076158142,1.6666573561581421,3.001122376158142C1.699414666158142,2.979229076158142,1.733992336158142,2.960745676158142,1.7703903361581421,2.945672376158142C1.8067876661581421,2.930599076158142,1.844306026158142,2.919218976158142,1.8829453261581421,2.911532376158142C1.9215853261581421,2.9038457761581418,1.9606036561581421,2.900002376158142,2.000000356158142,2.900002376158142L4.644662276158142,2.900002376158142L5.296112376158142,1.711589396158142C5.321965576158142,1.664422746158142,5.3535922761581425,1.6215084061581422,5.390992276158142,1.5828464061581422C5.428385576158142,1.5441850761581422,5.470225676158142,1.511150006158142,5.516512276158142,1.4837412011581421C5.562792176158142,1.456332203158142,5.6118725761581425,1.435523104158142,5.663752476158142,1.4213139041581422C5.715625676158142,1.4071046183581422,5.768459176158142,1.399999976158142,5.822252176158142,1.399999976158142L8.194272376158143,1.399999976158142C8.248498776158142,1.399999976158142,8.301742476158143,1.4072174518581422,8.354002376158142,1.4216524031581421C8.406268976158142,1.436087336158142,8.455672176158142,1.457218837158142,8.502212376158141,1.485046901158142C8.548745476158143,1.5128752361581421,8.59073577615814,1.5463957361581422,8.628182276158142,1.5856084061581421C8.665635476158142,1.6248210661581421,8.697189176158142,1.668310736158142,8.722842576158143,1.716077416158142L9.358792176158143,2.900002376158142L12.000001976158142,2.900002376158142C12.039401976158143,2.900002376158142,12.078434976158142,2.9038457761581418,12.117101976158143,2.911532376158142C12.155701976158142,2.919218976158142,12.193201976158143,2.930599076158142,12.229601976158142,2.945672376158142C12.266001976158142,2.960745676158142,12.300568976158143,2.979229076158142,12.333301976158141,3.001122376158142C12.366102976158142,3.023009076158142,12.396435976158141,3.047879076158142,12.424301976158143,3.0757323761581423C12.452101976158142,3.103592376158142,12.476968976158142,3.133902476158142,12.498902976158142,3.166662476158142C12.520769976158142,3.199415676158142,12.539234976158141,3.233992476158142,12.554302976158143,3.270392376158142C12.569368976158142,3.306785676158142,12.580768976158142,3.344302376158142,12.588501976158142,3.382942476158142C12.596168976158141,3.421582376158142,12.600002976158143,3.460602376158142,12.600002976158143,3.500002476158142C12.600002976158143,3.539395676158142,12.596168976158141,3.578412376158142,12.588501976158142,3.617052476158142C12.580768976158142,3.655692476158142,12.569368976158142,3.693212376158142,12.554302976158143,3.729612476158142C12.539234976158141,3.766005676158142,12.520769976158142,3.800582276158142,12.498902976158142,3.8333424761581423C12.476968976158142,3.866095676158142,12.452101976158142,3.896402476158142,12.424301976158143,3.924262376158142C12.396435976158141,3.952122376158142,12.366102976158142,3.9769957761581423,12.333301976158141,3.998882376158142C12.300568976158143,4.020768976158142,12.266001976158142,4.039249076158142,12.229601976158142,4.054322376158142C12.193201976158143,4.069402376158142,12.155701976158142,4.080785676158142,12.117101976158143,4.088472476158142C12.078434976158142,4.096159076158142,12.039401976158143,4.100002376158142,12.000001976158142,4.100002376158142L11.349512476158143,4.100002376158142L11.349512476158143,12.000001976158142C11.349512476158143,12.039401976158143,11.345669176158141,12.078434976158142,11.337982576158142,12.117101976158143C11.330295876158143,12.155701976158142,11.318915676158142,12.193201976158143,11.303841976158141,12.229601976158142Q11.281222676158142,12.284201976158142,11.248392476158141,12.333302976158143C11.226505676158142,12.366102976158142,11.201631876158142,12.396435976158141,11.173772176158142,12.424301976158143C11.145919176158142,12.452101976158142,11.115612376158142,12.476968976158142,11.082852676158142,12.498902976158142C11.050092076158142,12.520769976158142,11.015515676158142,12.539234976158141,10.979122476158143,12.554302976158143C10.942722676158143,12.569368976158142,10.905202276158143,12.580768976158142,10.866562276158142,12.588501976158142C10.827922176158141,12.596168976158141,10.788905476158142,12.600002976158143,10.749512076158142,12.600002976158143L3.249512276158142,12.600002976158143C3.210112376158142,12.600002976158143,3.1710957761581424,12.596168976158141,3.1324623761581423,12.588501976158142C3.0938223761581423,12.580768976158142,3.056302276158142,12.569368976158142,3.019902376158142,12.554302976158143C2.983502376158142,12.539234976158141,2.948925776158142,12.520769976158142,2.9161723761581424,12.498902976158142C2.883412376158142,12.476968976158142,2.853105676158142,12.452101976158142,2.825252276158142,12.424301976158143C2.7973923761581423,12.396435976158141,2.772518976158142,12.366102976158142,2.750632276158142,12.333302976158143C2.728745676158142,12.300568976158143,2.710262276158142,12.266001976158142,2.695182276158142,12.229601976158142C2.680108976158142,12.193201976158143,2.668729076158142,12.155701976158142,2.661042376158142,12.117101976158143C2.6533556761581423,12.078434976158142,2.649512276158142,12.039401976158143,2.649512276158142,12.000001976158142L2.649512276158142,4.100002376158142ZM6.013281176158142,2.9000975761581422L7.996781276158142,2.9000975761581422L7.835631276158142,2.600097676158142L6.1777313761581425,2.600097676158142L6.013281176158142,2.9000975761581422ZM10.149707176158142,4.099951176158142L3.849706976158142,4.099951176158142L3.849706976158142,11.399951376158143L10.149707176158142,11.399951376158143L10.149707176158142,4.099951176158142ZM5.399999976158142,5.999999876158142L5.399999976158142,9.249999876158142Q5.399999976158142,9.309089976158141,5.411529876158142,9.367050076158142C5.419216476158142,9.405689576158142,5.430596676158142,9.443209976158142,5.445669976158142,9.479609876158142C5.4607432761581425,9.516002976158141,5.4792231761581425,9.550579476158141,5.501109976158142,9.583340076158143C5.523003476158142,9.616093076158142,5.547876676158142,9.646399876158142,5.575730176158142,9.674259576158143C5.603589876158142,9.702120176158141,5.633896676158142,9.726993876158142,5.666650176158142,9.748879776158143C5.699409876158142,9.770766576158142,5.733990076158142,9.789245976158142,5.770389876158142,9.804319776158142C5.806783076158142,9.819400176158142,5.844300176158142,9.830783276158142,5.882940176158142,9.838469876158142C5.921579676158142,9.846156476158143,5.960599776158142,9.849999776158143,5.999999876158142,9.849999776158143Q6.059089976158142,9.849999776158143,6.117050076158142,9.838469876158142C6.155690076158142,9.830783276158142,6.193209976158142,9.819400176158142,6.229609876158142,9.804319776158142C6.266003476158142,9.789245976158142,6.300579876158142,9.770766576158142,6.333340076158142,9.748879776158143C6.3660934761581425,9.726993876158142,6.396399876158142,9.702120176158141,6.424259976158142,9.674259576158143C6.452120176158142,9.646399876158142,6.4769934761581425,9.616093076158142,6.498879776158142,9.583340076158143C6.520766576158142,9.550579476158141,6.539246876158142,9.516002976158141,6.554319776158142,9.479609876158142C6.569400176158142,9.443209976158142,6.580783276158142,9.405689576158142,6.588469876158142,9.367050076158142Q6.599999776158142,9.309089976158141,6.599999776158142,9.249999876158142L6.599999776158142,5.999999876158142C6.599999776158142,5.960599776158142,6.596156476158142,5.921579676158142,6.588469876158142,5.882940176158142C6.580783276158142,5.844300176158142,6.569400176158142,5.806783076158142,6.554319776158142,5.770389876158142C6.539246876158142,5.733990076158142,6.520766576158142,5.699413176158142,6.498879776158142,5.666660176158142C6.4769934761581425,5.633900076158142,6.452120176158142,5.603589876158142,6.424259976158142,5.575730176158142C6.396399876158142,5.547876676158142,6.3660934761581425,5.523006776158142,6.333340076158142,5.501119976158142C6.300579876158142,5.479226476158142,6.266003476158142,5.4607432761581425,6.229609876158142,5.445669976158142C6.193209976158142,5.430596676158142,6.155690076158142,5.419216476158142,6.117050076158142,5.411529876158142Q6.059089976158142,5.399999976158142,5.999999876158142,5.399999976158142C5.960599776158142,5.399999976158142,5.921579676158142,5.403843276158142,5.882940176158142,5.411529876158142C5.844300176158142,5.419216476158142,5.806783076158142,5.430596676158142,5.770389876158142,5.445669976158142C5.733990076158142,5.4607432761581425,5.699413176158142,5.4792231761581425,5.666660176158142,5.501109976158142C5.633900076158142,5.523003476158142,5.603589876158142,5.547876676158142,5.575730176158142,5.575730176158142C5.547876676158142,5.603589876158142,5.523006776158142,5.633896676158142,5.501119976158142,5.666650176158142C5.479226476158142,5.699409876158142,5.4607432761581425,5.733990076158142,5.445669976158142,5.770389876158142C5.430596676158142,5.806783076158142,5.419216476158142,5.844300176158142,5.411529876158142,5.882940176158142C5.403843276158142,5.921579676158142,5.399999976158142,5.960599776158142,5.399999976158142,5.999999876158142ZM7.399999976158142,9.249999876158142L7.399999976158142,5.999999876158142C7.399999976158142,5.960599776158142,7.403843276158142,5.921579676158142,7.411529876158142,5.882940176158142C7.419209876158142,5.844300176158142,7.4305900761581425,5.806783076158142,7.445669976158142,5.770389876158142C7.4607432761581425,5.733990076158142,7.479226476158142,5.699409876158142,7.501119976158142,5.666650176158142C7.523006776158142,5.633896676158142,7.547876676158142,5.603589876158142,7.575730176158142,5.575730176158142C7.603589876158142,5.547876676158142,7.633900076158142,5.523003476158142,7.666660176158142,5.501109976158142C7.699413176158142,5.4792231761581425,7.733990076158142,5.4607432761581425,7.770389876158142,5.445669976158142C7.806783076158142,5.430596676158142,7.844300176158142,5.419216476158142,7.882940176158142,5.411529876158142C7.921579676158142,5.403843276158142,7.960599776158142,5.399999976158142,7.999999876158142,5.399999976158142Q8.059089976158141,5.399999976158142,8.117050076158142,5.411529876158142C8.155690076158141,5.419216476158142,8.193209976158142,5.430596676158142,8.229609876158143,5.445669976158142C8.266003476158142,5.4607432761581425,8.300579876158142,5.479226476158142,8.33334007615814,5.501119976158142C8.366093476158142,5.523006776158142,8.396399876158142,5.547876676158142,8.424259976158142,5.575730176158142C8.452120176158143,5.603589876158142,8.476993476158142,5.633900076158142,8.498879776158141,5.666660176158142C8.520766576158142,5.699413176158142,8.539246876158142,5.733990076158142,8.554319776158142,5.770389876158142C8.569400176158142,5.806783076158142,8.580783276158142,5.844300176158142,8.588469876158143,5.882940176158142C8.596156476158143,5.921579676158142,8.599999776158143,5.960599776158142,8.599999776158143,5.999999876158142L8.599999776158143,9.249999876158142Q8.599999776158143,9.309089976158141,8.588469876158143,9.367050076158142C8.580783276158142,9.405689576158142,8.569400176158142,9.443209976158142,8.554319776158142,9.479609876158142C8.539246876158142,9.516002976158141,8.520766576158142,9.550579476158141,8.498879776158141,9.583340076158143C8.476993476158142,9.616093076158142,8.452120176158143,9.646399876158142,8.424259976158142,9.674259576158143C8.396399876158142,9.702120176158141,8.366093476158142,9.726993876158142,8.33334007615814,9.748879776158143C8.300579876158142,9.770766576158142,8.266003476158142,9.789245976158142,8.229609876158143,9.804319776158142C8.193209976158142,9.819400176158142,8.155690076158141,9.830783276158142,8.117050076158142,9.838469876158142Q8.059089976158141,9.849999776158143,7.999999876158142,9.849999776158143C7.960599776158142,9.849999776158143,7.921579676158142,9.846156476158143,7.882940176158142,9.838469876158142C7.844300176158142,9.830783276158142,7.806783076158142,9.819400176158142,7.770389876158142,9.804319776158142C7.733990076158142,9.789245976158142,7.699409876158142,9.770766576158142,7.666650176158142,9.748879776158143C7.633896676158142,9.726993876158142,7.603589876158142,9.702120176158141,7.575730176158142,9.674259576158143C7.547876676158142,9.646399876158142,7.523006776158142,9.616093076158142,7.501119976158142,9.583340076158143C7.479226476158142,9.550579476158141,7.4607432761581425,9.516002976158141,7.445669976158142,9.479609876158142C7.4305900761581425,9.443209976158142,7.419209876158142,9.405689576158142,7.411529876158142,9.367050076158142Q7.399999976158142,9.309089976158141,7.399999976158142,9.249999876158142Z"/></g></svg>
