<svg xmlns="http://www.w3.org/2000/svg" xmlns:xlink="http://www.w3.org/1999/xlink" version="1.1" width="16.69927978515625" height="15.999998092651367" viewBox="0 0 16.69927978515625 15.999998092651367"><g><path d="M9.07394,0.694064L9.07394,9.45936L11.2039,7.22725C11.3411,7.08344,11.5352,7.00152,11.7385,7.00152C12.1386,7.00152,12.4629,7.31226,12.4629,7.69559C12.4629,7.86892,12.3952,8.03599,12.2728,8.16428L8.88417,11.7154C8.74693,11.8592,8.55292,11.9411,8.34954,11.9411C8.14616,11.9411,7.95215,11.8592,7.81442,11.7149L4.42592,8.16392C4.30384,8.03599,4.23615,7.86892,4.23615,7.69559C4.23615,7.31226,4.56047,7.00152,4.96054,7.00152C5.16392,7.00152,5.35793,7.08344,5.49517,7.22725L7.62514,9.45936L7.62514,0.694064C7.62514,0.310743,7.94947,0,8.34954,0C8.74961,0,9.07394,0.310743,9.07394,0.694064ZM0,10.4353C0,10.052,0.324324,9.74125,0.724398,9.74125C1.12447,9.74125,1.4488,10.052,1.4488,10.4353Q1.4488,12.3978,1.53542,13.0149Q1.64242,13.7772,1.98165,14.1019Q2.31991,14.4264,3.11551,14.5289Q3.75966,14.6119,5.80789,14.6119L10.8914,14.6119Q12.9396,14.6119,13.5838,14.5289Q14.3794,14.4264,14.7182,14.1013Q15.0569,13.7772,15.1639,13.0149Q15.2505,12.3978,15.2505,10.4353C15.2505,10.052,15.5748,9.74125,15.9749,9.74125C16.375,9.74125,16.6993,10.052,16.6993,10.4353Q16.6993,12.4907,16.5997,13.2Q16.4274,14.4276,15.7421,15.0834Q15.0581,15.7395,13.7769,15.9046Q13.0366,16,10.8914,16L5.80789,16Q3.66268,16,2.92241,15.9046Q1.64116,15.7395,0.956612,15.0829Q0.271864,14.4276,0.0995549,13.2Q0,12.4907,0,10.4353Z" fill-rule="evenodd" fill-opacity="1" style="mix-blend-mode:passthrough"/></g></svg>