<svg xmlns="http://www.w3.org/2000/svg" xmlns:xlink="http://www.w3.org/1999/xlink" version="1.1" width="32" height="32" viewBox="0 0 32 32"><g><path d="M7.24888393,9.234375L24.7488845,9.234375C24.8470995,9.234375,24.9274555,9.303252548,24.9274555,9.38743623L24.9274555,10.4588648C24.9274555,10.5430484,24.8470995,10.611926,24.7488845,10.611926L7.24888393,10.611926C7.150669642,10.611926,7.0703125,10.5430484,7.0703125,10.4588648L7.0703125,9.38743623C7.0703125,9.303252548,7.150669642,9.234375,7.24888393,9.234375ZM13.6774554,14.6297827L24.3917405,14.6297827C24.4899555,14.6297827,24.5703125,14.5609055,24.5703125,14.4767218L24.5703125,13.405293499999999C24.5703125,13.3211093,24.4899555,13.2522321,24.3917405,13.2522321L13.6774554,13.2522321C13.5792413,13.2522321,13.498884199999999,13.3211093,13.498884199999999,13.405293499999999L13.498884199999999,14.4767218C13.498884199999999,14.5609055,13.5792413,14.6297827,13.6774554,14.6297827ZM7.146205395,16.1010847L10.6350451,18.4563131C10.764509199999999,18.544323900000002,10.9564734,18.4658794,10.9564734,18.324297L10.9564734,13.6138391C10.9564734,13.4722571,10.7667415,13.3938136,10.6350451,13.4818234L7.146205395,15.837053300000001C7.122746017,15.8526864,7.103763014,15.8727069,7.090704953,15.8955855C7.0776468916,15.918464700000001,7.07085881918,15.9435983,7.07085881918,15.969068499999999C7.07085881918,15.9945388,7.0776468916,16.0196724,7.090704953,16.042551500000002C7.103763014,16.0654302,7.122746017,16.0854511,7.146205395,16.1010847ZM13.498884199999999,18.5328436C13.498884199999999,18.6170273,13.5792413,18.6859055,13.6774554,18.6859055L24.3917405,18.6859055C24.4899555,18.6859055,24.5703125,18.6170273,24.5703125,18.5328436L24.5703125,17.4614153C24.5703125,17.377231600000002,24.4899555,17.3083544,24.3917405,17.3083544L13.6774554,17.3083544C13.5792413,17.3083544,13.498884199999999,17.377231600000002,13.498884199999999,17.4614153L13.498884199999999,18.5328436ZM7.24888393,21.326211999999998L24.7488845,21.326211999999998C24.8470995,21.326211999999998,24.9274555,21.395088,24.9274555,21.479272L24.9274555,22.5507C24.9274555,22.634884,24.8470995,22.703761999999998,24.7488845,22.703761999999998L7.24888393,22.703761999999998C7.150669642,22.703761999999998,7.0703125,22.634884,7.0703125,22.5507L7.0703125,21.479272C7.0703125,21.395088,7.150669642,21.326211999999998,7.24888393,21.326211999999998Z"/></g></svg>
