<svg xmlns="http://www.w3.org/2000/svg" xmlns:xlink="http://www.w3.org/1999/xlink" version="1.1" width="14" height="14" viewBox="0 0 14 14"><defs><clipPath id="master_svg0_29_08286"><rect x="-0.6000000238418579" y="-0.6000000238418579" width="15.200000047683716" height="15.200000047683716" rx="0"/></clipPath></defs><g clip-path="url(#master_svg0_29_08286)"><path d="M3.4893616,2.60000002L4.7127659,2.60000002L4.7127659,2.59988004Q4.7718487,2.59987998,4.8297966,2.58835346Q4.8877439,2.57682693,4.9423294,2.5542168Q4.9969151,2.53160673,5.0460408,2.49878198Q5.0951667,2.46595722,5.1369448,2.4241792Q5.1787229,2.38240117,5.211547400000001,2.33327544Q5.2443724,2.28414971,5.2669823000000004,2.22956412Q5.2895923,2.17497852,5.3011189000000005,2.11703077Q5.3126457,2.059083022,5.3126459,2Q5.3126457,1.940916978,5.3011189000000005,1.88296923Q5.2895923,1.82502148,5.2669823000000004,1.77043588Q5.2443724,1.7158502900000001,5.211547400000001,1.66672456Q5.1787229,1.61759883,5.136945,1.5758208Q5.095166900000001,1.53404278,5.046041300000001,1.50121802Q4.9969152999999995,1.46839321,4.9423299,1.44578314Q4.8877444,1.42317307,4.8297966,1.4116464899999999Q4.7718487,1.4001200200000001,4.7127659,1.40011996L4.7127659,1.39999998L3.4893616,1.39999998Q2.6239196099999997,1.39999998,2.011959895,2.011959821Q1.39999998,2.62391973,1.39999998,3.4893616L1.39999998,4.7127659L1.40011996,4.7127659Q1.4001200200000001,4.7718487,1.41164654,4.8297966Q1.42317307,4.8877439,1.4457832000000002,4.9423294Q1.46839327,4.9969151,1.50121802,5.0460408Q1.53404278,5.0951667,1.5758208,5.1369448Q1.61759883,5.1787229,1.66672456,5.211547400000001Q1.7158502900000001,5.2443724,1.77043588,5.2669823000000004Q1.82502148,5.2895923,1.88296923,5.3011189000000005Q1.940916978,5.3126457,2,5.3126459Q2.059083022,5.3126457,2.11703077,5.3011189000000005Q2.17497852,5.2895923,2.22956412,5.2669823000000004Q2.28414971,5.2443724,2.33327544,5.211547400000001Q2.38240117,5.1787229,2.4241792,5.136945Q2.46595722,5.095166900000001,2.49878198,5.046041300000001Q2.53160679,4.9969152999999995,2.55421686,4.9423299Q2.57682693,4.8877444,2.58835351,4.8297966Q2.59987998,4.7718487,2.59988004,4.7127659L2.60000002,4.7127659L2.60000002,3.4893616Q2.60000008,3.1209759999999998,2.8604880599999998,2.86048794Q3.1209759999999998,2.60000002,3.4893616,2.60000002ZM10.5106382,1.39999998L9.2872334,1.39999998L9.2872334,1.40011996Q9.2281504,1.4001200200000001,9.1702023,1.41164654Q9.112254100000001,1.42317307,9.0576687,1.4457832000000002Q9.003083199999999,1.46839327,8.9539571,1.50121802Q8.904831399999999,1.53404278,8.8630533,1.5758208Q8.821275700000001,1.61759883,8.7884507,1.66672456Q8.7556257,1.7158502900000001,8.733016,1.77043588Q8.7104058,1.82502148,8.6988792,1.88296923Q8.6873531,1.940916978,8.6873531,2Q8.6873531,2.059083022,8.698879699999999,2.11703077Q8.7104058,2.17497852,8.733016,2.22956412Q8.7556257,2.28414971,8.7884507,2.33327544Q8.821275700000001,2.38240117,8.8630533,2.4241792Q8.904831399999999,2.46595722,8.9539571,2.49878198Q9.0030828,2.53160679,9.0576682,2.55421686Q9.112254100000001,2.57682693,9.1702023,2.58835351Q9.2281504,2.59987998,9.2872334,2.59988004L9.2872334,2.60000002L10.5106382,2.60000002Q10.8790245,2.60000002,11.1395121,2.86048794Q11.3999996,3.1209759,11.3999996,3.4893616L11.3999996,4.7127659L11.4001198,4.7127659Q11.4001198,4.7718487,11.4116459,4.8297966Q11.423172,4.8877439,11.4457827,4.9423294Q11.4683924,4.9969151,11.5012169,5.0460408Q11.5340424,5.0951667,11.57582,5.1369448Q11.6175976,5.1787229,11.6667233,5.211547400000001Q11.7158489,5.2443724,11.7704353,5.2669823000000004Q11.8250208,5.2895923,11.8829689,5.3011189000000005Q11.940917,5.3126457,12,5.3126459Q12.059083,5.3126457,12.11703,5.3011189000000005Q12.174978,5.2895923,12.229563,5.2669823000000004Q12.284149,5.2443724,12.333275,5.211547400000001Q12.382401,5.1787229,12.424179,5.136945Q12.465957,5.095166900000001,12.498781,5.046041300000001Q12.531607,4.9969152999999995,12.554216,4.9423299Q12.576827,4.8877444,12.588354,4.8297966Q12.59988,4.7718487,12.59988,4.7127659L12.599999,4.7127659L12.599999,3.4893616Q12.599999,2.62391919,11.98804,2.011959858Q11.3760805,1.39999998,10.5106382,1.39999998ZM2.59988004,9.2872334L2.60000002,9.2872334L2.60000002,10.5106382Q2.60000002,10.8790245,2.86048794,11.1395121Q3.1209759,11.3999996,3.4893616,11.3999996L4.7127659,11.3999996L4.7127659,11.4001198Q4.7718487,11.4001198,4.8297966,11.4116459Q4.8877439,11.423172,4.9423294,11.4457827Q4.9969151,11.4683924,5.0460408,11.5012169Q5.0951667,11.5340424,5.1369448,11.57582Q5.1787229,11.6175976,5.211547400000001,11.6667233Q5.2443724,11.7158489,5.2669823000000004,11.7704353Q5.2895923,11.8250208,5.3011189000000005,11.8829689Q5.3126457,11.940917,5.3126459,12Q5.3126457,12.059083,5.3011189000000005,12.11703Q5.2895923,12.174978,5.2669823000000004,12.229563Q5.2443724,12.284149,5.211547400000001,12.333275Q5.1787229,12.382401,5.136945,12.424179Q5.095166900000001,12.465957,5.046041300000001,12.498781Q4.9969152999999995,12.531607,4.9423299,12.554216Q4.8877444,12.576827,4.8297966,12.588354Q4.7718487,12.59988,4.7127659,12.59988L4.7127659,12.599999L3.4893616,12.599999Q2.62391919,12.599999,2.011959858,11.98804Q1.39999998,11.3760805,1.39999998,10.5106382L1.39999998,9.2872334L1.40011996,9.2872334Q1.4001200200000001,9.2281504,1.41164654,9.1702023Q1.42317307,9.112254100000001,1.4457832000000002,9.0576687Q1.46839327,9.003083199999999,1.50121802,8.9539571Q1.53404278,8.904831399999999,1.5758208,8.8630533Q1.61759883,8.821275700000001,1.66672456,8.7884507Q1.7158502900000001,8.7556257,1.77043588,8.733016Q1.82502148,8.710406299999999,1.88296923,8.698879699999999Q1.940916978,8.6873531,2,8.6873531Q2.059083022,8.6873531,2.11703077,8.698879699999999Q2.17497852,8.710406299999999,2.22956412,8.733016Q2.28414971,8.7556257,2.33327544,8.7884507Q2.38240117,8.821275700000001,2.4241792,8.8630533Q2.46595722,8.904831399999999,2.49878198,8.9539571Q2.53160679,9.0030828,2.55421686,9.0576682Q2.57682693,9.112254100000001,2.58835351,9.1702023Q2.59987998,9.2281504,2.59988004,9.2872334ZM11.4001198,9.2872334Q11.4001198,9.2281504,11.4116459,9.1702023Q11.423172,9.112254100000001,11.4457827,9.0576687Q11.4683924,9.003083199999999,11.5012169,8.9539571Q11.5340424,8.904831399999999,11.57582,8.8630533Q11.6175976,8.821275700000001,11.6667233,8.7884507Q11.7158489,8.7556257,11.7704353,8.733016Q11.8250208,8.710406299999999,11.8829689,8.698879699999999Q11.940917,8.6873531,12,8.6873531Q12.059083,8.6873531,12.11703,8.698879699999999Q12.174978,8.710406299999999,12.229563,8.733016Q12.284149,8.7556257,12.333275,8.7884507Q12.382401,8.821275700000001,12.424179,8.8630533Q12.465957,8.904831399999999,12.498781,8.9539571Q12.531607,9.0030828,12.554216,9.0576682Q12.576827,9.112254100000001,12.588354,9.1702023Q12.59988,9.2281504,12.59988,9.2872334L12.599999,9.2872334L12.599999,10.5106382Q12.599999,11.3760805,11.98804,11.98804Q11.3760815,12.599999,10.5106392,12.599999L9.2872334,12.599999L9.2872334,12.59988Q9.2281504,12.59988,9.1702023,12.588353Q9.112254100000001,12.576827,9.0576687,12.554216Q9.003083199999999,12.531607,8.9539571,12.498781Q8.904831399999999,12.465957,8.8630533,12.424179Q8.821275700000001,12.382401,8.7884507,12.333275Q8.7556257,12.284149,8.733016,12.229563Q8.7104058,12.174978,8.6988792,12.117031Q8.6873531,12.059083,8.6873531,12Q8.6873531,11.940917,8.698879699999999,11.8829689Q8.7104058,11.8250208,8.733016,11.7704353Q8.7556257,11.7158489,8.7884507,11.6667233Q8.821275700000001,11.6175976,8.8630533,11.57582Q8.904831399999999,11.5340424,8.9539571,11.5012169Q9.0030828,11.4683924,9.0576682,11.4457827Q9.112254100000001,11.423172,9.1702023,11.4116459Q9.2281504,11.4001198,9.2872334,11.4001198L9.2872334,11.3999996L10.5106392,11.3999996Q10.8790245,11.3999996,11.1395121,11.1395121Q11.3999996,10.8790245,11.3999996,10.5106382L11.3999996,9.2872334L11.4001198,9.2872334Z" style="mix-blend-mode:passthrough"/><ellipse cx="7" cy="7" rx="1" ry="1"/></g></svg>
