<svg xmlns="http://www.w3.org/2000/svg" xmlns:xlink="http://www.w3.org/1999/xlink"  version="1.1" width="40" height="40" viewBox="0 0 40 40"><path d="M40,20C40,31.045696,31.045696,40,20,40C8.9543037,40,0,31.045696,0,20C0,8.9543037,8.9543037,0,20,0C31.045696,0,40,8.9543037,40,20ZM37.166668,20C37.166668,10.519112,29.480888,2.833333,20,2.833333C10.519112,2.833333,2.833333,10.519112,2.833333,20C2.833333,29.480888,10.519112,37.166668,20,37.166668C29.480888,37.166668,37.166668,29.480888,37.166668,20ZM25.746582,16.819178Q25.249916,17.613848,25.249916,18.640011Q25.249916,20.070194,26.15712,20.946384Q27.026283,21.785831,28.811531,22.128586Q30.045128,22.375305,30.505802,22.74498Q30.889915,23.053219,30.889915,23.60001Q30.889915,24.21384,30.498661,24.528755Q30.066395,24.876678,29.199913,24.876678Q28.349434,24.876678,27.81263,24.529995Q27.298553,24.197987,27.090473,23.54089L26.947102,23.088139L24.763023,24.108738L24.867859,24.454308Q25.273308,25.790783,26.432827,26.513603Q27.560677,27.216675,29.213249,27.216675Q30.426228,27.216675,31.390388,26.763813Q32.376785,26.300507,32.928043,25.462292Q33.483246,24.61808,33.483246,23.560013Q33.483246,21.985401,32.545429,21.062958Q31.641685,20.174026,29.679092,19.804268Q28.898788,19.653242,28.475304,19.465698Q28.116264,19.306696,27.976376,19.103634Q27.843246,18.910381,27.843246,18.573343Q27.843246,18.052738,28.167969,17.791159Q28.533531,17.496677,29.333248,17.496677Q30.057678,17.496677,30.457962,17.770555Q30.855591,18.042616,31.062798,18.598804L31.221039,19.023571L33.376289,18.006945L33.262848,17.657892Q32.869221,16.446743,31.820286,15.793056Q30.799118,15.156677,29.293247,15.156677Q28.093952,15.156677,27.18338,15.58259Q26.245174,16.021427,25.746582,16.819178ZM13.097799,27.043343L16.914173,15.881479L17.102726,15.330011L14.427227,15.330011L11.775047,23.788315L9.1467609,15.330011L6.3637695,15.330011L10.368696,27.043343L13.097799,27.043343ZM24.603249,27.043343L24.603249,24.730011L20.003246,24.730011L20.003246,15.330011L17.423248,15.330011L17.423248,27.043343L24.603249,27.043343Z" fill-rule="evenodd"  fill-opacity="1"/></svg>