<svg xmlns="http://www.w3.org/2000/svg" xmlns:xlink="http://www.w3.org/1999/xlink" version="1.1" width="246.36749267578125" height="40" viewBox="0 0 246.36749267578125 40"><path d="M20,40C31.045696,40,40,31.045696,40,20C40,8.9543037,31.045696,0,20,0C8.9543037,0,0,8.9543037,0,20C0,31.045696,8.9543037,40,20,40ZM20,2.833333C29.480888,2.833333,37.166668,10.519112,37.166668,20C37.166668,29.480888,29.480888,37.166668,20,37.166668C10.519112,37.166668,2.833333,29.480888,2.833333,20C2.833333,10.519112,10.519112,2.833333,20,2.833333ZM78.060547,25.755859L78.060547,28.387695Q78.382812,28.591797,78.90918,28.75293Q79.435547,28.914062,80.026367,29.026855Q80.617188,29.139648,81.181152,29.19873Q81.745117,29.257812,82.131836,29.257812Q83.291992,29.257812,84.333984,29.032227Q85.375977,28.806641,86.17627,28.301758Q86.976562,27.796875,87.449219,26.991211Q87.921875,26.185547,87.921875,25.014648Q87.921875,24.144531,87.60498,23.462402Q87.288086,22.780273,86.745605,22.22168Q86.203125,21.663086,85.48877,21.201172Q84.774414,20.739258,83.96875,20.320312Q83.18457,19.976562,82.588379,19.681152Q81.992188,19.385742,81.578613,19.074219Q81.165039,18.762695,80.950195,18.386719Q80.735352,18.010742,80.735352,17.495117Q80.735352,16.947266,81.014648,16.560547Q81.293945,16.173828,81.739746,15.926758Q82.185547,15.679688,82.749512,15.572266Q83.313477,15.464844,83.882812,15.464844Q85.945312,15.464844,87.255859,16.410156L87.255859,13.885742Q86.149414,13.337891,83.732422,13.337891Q82.668945,13.337891,81.648438,13.590332Q80.62793,13.842773,79.827637,14.36377Q79.027344,14.884766,78.538574,15.685059Q78.049805,16.485352,78.049805,17.570312Q78.049805,18.451172,78.334473,19.106445Q78.619141,19.761719,79.118652,20.282715Q79.618164,20.803711,80.294922,21.233398Q80.97168,21.663086,81.755859,22.082031Q82.486328,22.415039,83.125488,22.721191Q83.764648,23.027344,84.237305,23.360352Q84.709961,23.693359,84.973145,24.096191Q85.236328,24.499023,85.236328,25.046875Q85.236328,26.067383,84.446777,26.604492Q83.657227,27.141602,82.045898,27.141602Q81.583984,27.141602,81.036133,27.044922Q80.488281,26.948242,79.94043,26.770996Q79.392578,26.59375,78.903809,26.335938Q78.415039,26.078125,78.060547,25.755859ZM180.15266,29.257812Q182.74153,29.257812,184.48177,28.355469L184.48177,25.992188Q182.88118,27.023438,180.70052,27.023438Q178.33723,27.023438,176.88704,25.51416Q175.43684,24.004883,175.43684,21.458984Q175.43684,18.78418,176.98909,17.183594Q178.54134,15.583008,181.04427,15.583008Q182.92415,15.583008,184.48177,16.506836L184.48177,13.97168Q183.01009,13.337891,180.77571,13.337891Q177.30598,13.337891,175.03401,15.615234Q172.76204,17.892578,172.76204,21.587891Q172.76204,25.025391,174.78157,27.141602Q176.8011,29.257812,180.15266,29.257812ZM60.443359,29L65.975586,13.595703L63.268555,13.595703L59.379883,25.261719Q59.143555,25.970703,59.068359,26.583008L59.025391,26.583008Q58.928711,25.841797,58.746094,25.283203L54.943359,13.595703L52.150391,13.595703L57.585938,29L60.443359,29ZM68.016602,29L76.545898,29L76.545898,26.84082L70.573242,26.84082L70.573242,13.595703L68.016602,13.595703L68.016602,29ZM154.45735,29L157.08919,29L157.08919,13.595703L154.45735,13.595703L154.45735,29ZM163.42708,29L163.42708,23.414062L165.47884,23.414062Q168.07845,23.414062,169.60384,21.985352Q171.12923,20.556641,171.12923,18.311523Q171.12923,16.066406,169.66829,14.831055Q168.20735,13.595703,165.55403,13.595703L160.88118,13.595703L160.88118,29L163.42708,29ZM94.345703,29.24707Q95.538086,29.24707,96.268555,28.881836L96.268555,26.905273Q95.806641,27.270508,95.172852,27.270508Q94.345703,27.270508,93.991211,26.851562Q93.636719,26.432617,93.636719,25.455078L93.636719,19.955078L96.268555,19.955078L96.268555,18L93.636719,18L93.636719,14.745117L91.144531,15.454102L91.144531,18L89.307617,18L89.307617,19.955078L91.144531,19.955078L91.144531,26.174805Q91.144531,29.24707,94.345703,29.24707ZM25.249916,18.640011Q25.249916,17.613848,25.746582,16.819178Q26.245174,16.021427,27.18338,15.58259Q28.093952,15.156677,29.293247,15.156677Q30.799118,15.156677,31.820286,15.793056Q32.869221,16.446743,33.262848,17.657892L33.376289,18.006945L31.221039,19.023571L31.062798,18.598804Q30.855591,18.042616,30.457962,17.770555Q30.057678,17.496677,29.333248,17.496677Q28.533531,17.496677,28.167969,17.791159Q27.843246,18.052738,27.843246,18.573343Q27.843246,18.910381,27.976376,19.103634Q28.116264,19.306696,28.475304,19.465698Q28.898788,19.653242,29.679092,19.804268Q31.641685,20.174026,32.545429,21.062958Q33.483246,21.985401,33.483246,23.560013Q33.483246,24.61808,32.928043,25.462292Q32.376785,26.300507,31.390388,26.763813Q30.426228,27.216675,29.213249,27.216675Q27.560677,27.216675,26.432827,26.513603Q25.273308,25.790783,24.867859,24.454308L24.763023,24.108738L26.947102,23.088139L27.090473,23.54089Q27.298553,24.197987,27.81263,24.529995Q28.349434,24.876678,29.199913,24.876678Q30.066395,24.876678,30.498661,24.528755Q30.889915,24.21384,30.889915,23.60001Q30.889915,23.053219,30.505802,22.74498Q30.045128,22.375305,28.811531,22.128586Q27.026283,21.785831,26.15712,20.946384Q25.249916,20.070194,25.249916,18.640011ZM16.914173,15.881479L13.097799,27.043343L10.368696,27.043343L6.3637695,15.330011L9.1467609,15.330011L11.775047,23.788315L14.427227,15.330011L17.102726,15.330011L16.914173,15.881479ZM24.603249,24.730011L24.603249,27.043343L17.423248,27.043343L17.423248,15.330011L20.003246,15.330011L20.003246,24.730011L24.603249,24.730011ZM163.42708,21.330078L163.42708,15.701172L165.28548,15.701172Q168.44368,15.701172,168.44368,18.418945Q168.44368,19.804688,167.5843,20.567383Q166.72493,21.330078,165.08138,21.330078L163.42708,21.330078ZM108.375,24.176758L115.87305,24.176758L115.87305,23.220703Q115.87305,20.642578,114.6377,19.192383Q113.40234,17.742188,111.14648,17.742188Q108.89062,17.742188,107.37061,19.358887Q105.85059,20.975586,105.85059,23.542969Q105.85059,26.260742,107.23096,27.759277Q108.61133,29.257812,111.03906,29.257812Q113.50977,29.257812,115.01367,28.3125L115.01367,26.303711Q113.54199,27.356445,111.78027,27.356445Q110.21191,27.356445,109.31494,26.529297Q108.41797,25.702148,108.375,24.176758ZM124.27344,29L126.69043,29L126.69043,21.845703Q126.69043,17.742188,122.52246,17.742188Q120.24512,17.742188,118.50488,18.773438L118.50488,20.954102Q120.08398,19.600586,122.0498,19.600586Q124.28418,19.600586,124.28418,21.953125L121.01855,22.415039Q117.43066,22.930664,117.43066,26.045898Q117.43066,27.496094,118.34912,28.376953Q119.26758,29.257812,120.88965,29.257812Q123.0918,29.257812,124.23047,27.28125L124.27344,27.28125L124.27344,29ZM143.68457,29L146.17676,29L146.17676,22.22168Q146.17676,17.742188,142.5459,17.742188Q140.11816,17.742188,138.89355,20.019531Q138.58203,18.999023,137.72803,18.370605Q136.87402,17.742188,135.73535,17.742188Q133.45801,17.742188,132.26562,19.740234L132.22266,19.740234L132.22266,18L129.73047,18L129.73047,29L132.22266,29L132.22266,23.048828Q132.22266,21.577148,132.87256,20.65332Q133.52246,19.729492,134.53223,19.729492Q136.70215,19.729492,136.70215,22.801758L136.70215,29L139.20508,29L139.20508,23.048828Q139.20508,21.68457,139.88721,20.707031Q140.56934,19.729492,141.54688,19.729492Q142.70703,19.729492,143.1958,20.50293Q143.68457,21.276367,143.68457,23.005859L143.68457,29ZM193.15071,29L195.5677,29L195.5677,21.845703Q195.5677,17.742188,191.39973,17.742188Q189.12239,17.742188,187.38216,18.773438L187.38216,20.954102Q188.96126,19.600586,190.92708,19.600586Q193.16145,19.600586,193.16145,21.953125L189.89583,22.415039Q186.30794,22.930664,186.30794,26.045898Q186.30794,27.496094,187.22639,28.376953Q188.14485,29.257812,189.76692,29.257812Q191.96907,29.257812,193.10774,27.28125L193.15071,27.28125L193.15071,29ZM212.56184,29L215.05403,29L215.05403,22.22168Q215.05403,17.742188,211.42317,17.742188Q208.99544,17.742188,207.77083,20.019531Q207.4593,18.999023,206.6053,18.370605Q205.7513,17.742188,204.61263,17.742188Q202.33528,17.742188,201.1429,19.740234L201.09993,19.740234L201.09993,18L198.60774,18L198.60774,29L201.09993,29L201.09993,23.048828Q201.09993,21.577148,201.74983,20.65332Q202.39973,19.729492,203.4095,19.729492Q205.57942,19.729492,205.57942,22.801758L205.57942,29L208.08235,29L208.08235,23.048828Q208.08235,21.68457,208.76448,20.707031Q209.44661,19.729492,210.42415,19.729492Q211.5843,19.729492,212.07307,20.50293Q212.56184,21.276367,212.56184,23.005859L212.56184,29ZM219.9095,24.176758L227.40755,24.176758L227.40755,23.220703Q227.40755,20.642578,226.1722,19.192383Q224.93684,17.742188,222.68098,17.742188Q220.42513,17.742188,218.90511,19.358887Q217.38509,20.975586,217.38509,23.542969Q217.38509,26.260742,218.76546,27.759277Q220.14583,29.257812,222.57356,29.257812Q225.04427,29.257812,226.54817,28.3125L226.54817,26.303711Q225.07649,27.356445,223.31477,27.356445Q221.74641,27.356445,220.84944,26.529297Q219.95247,25.702148,219.9095,24.176758ZM243.95052,29L246.36749,29L246.36749,21.845703Q246.36749,17.742188,242.19954,17.742188Q239.9222,17.742188,238.18196,18.773438L238.18196,20.954102Q239.76106,19.600586,241.72688,19.600586Q243.96126,19.600586,243.96126,21.953125L240.69563,22.415039Q237.10774,22.930664,237.10774,26.045898Q237.10774,27.496094,238.0262,28.376953Q238.94466,29.257812,240.56673,29.257812Q242.76888,29.257812,243.90755,27.28125L243.95052,27.28125L243.95052,29ZM103.49805,20.019531Q104.34668,20.019531,104.79785,20.374023L104.79785,18.010742Q104.44336,17.806641,103.7666,17.806641Q102.83203,17.806641,102.07471,18.456543Q101.31738,19.106445,100.95215,20.266602L100.90918,20.266602L100.90918,18L98.416992,18L98.416992,29L100.90918,29L100.90918,23.736328Q100.90918,22.017578,101.65039,21.018555Q102.3916,20.019531,103.49805,20.019531ZM234.86263,20.019531Q235.71126,20.019531,236.16243,20.374023L236.16243,18.010742Q235.80794,17.806641,235.13118,17.806641Q234.19661,17.806641,233.43929,18.456543Q232.68196,19.106445,232.31673,20.266602L232.27376,20.266602L232.27376,18L229.78157,18L229.78157,29L232.27376,29L232.27376,23.736328Q232.27376,22.017578,233.01497,21.018555Q233.75618,20.019531,234.86263,20.019531ZM112.83301,20.325684Q113.45605,21.072266,113.4668,22.415039L108.375,22.415039Q108.54688,21.147461,109.29346,20.363281Q110.04004,19.579102,111.11426,19.579102Q112.20996,19.579102,112.83301,20.325684ZM224.36751,20.325684Q224.99055,21.072266,225.0013,22.415039L219.9095,22.415039Q220.08138,21.147461,220.82796,20.363281Q221.57454,19.579102,222.64876,19.579102Q223.74446,19.579102,224.36751,20.325684ZM121.97461,23.918945L124.28418,23.59668L124.28418,24.552734Q124.28418,25.766602,123.5376,26.566895Q122.79102,27.367188,121.65234,27.367188Q120.81445,27.367188,120.31494,26.921387Q119.81543,26.475586,119.81543,25.777344Q119.81543,24.821289,120.35791,24.439941Q120.90039,24.058594,121.97461,23.918945ZM190.85188,23.918945L193.16145,23.59668L193.16145,24.552734Q193.16145,25.766602,192.41487,26.566895Q191.66829,27.367188,190.52962,27.367188Q189.69173,27.367188,189.19221,26.921387Q188.6927,26.475586,188.6927,25.777344Q188.6927,24.821289,189.23518,24.439941Q189.77766,24.058594,190.85188,23.918945ZM241.65169,23.918945L243.96126,23.59668L243.96126,24.552734Q243.96126,25.766602,243.21468,26.566895Q242.46809,27.367188,241.32942,27.367188Q240.49153,27.367188,239.99202,26.921387Q239.49251,26.475586,239.49251,25.777344Q239.49251,24.821289,240.03499,24.439941Q240.57747,24.058594,241.65169,23.918945Z" fill-rule="evenodd"  fill-opacity="1"/></svg>