<svg xmlns="http://www.w3.org/2000/svg" xmlns:xlink="http://www.w3.org/1999/xlink" version="1.1" width="20" height="20" viewBox="0 0 20 20"><defs><clipPath id="master_svg0_80_73228"><rect x="0" y="0" width="20" height="20" rx="0"/></clipPath></defs><g clip-path="url(#master_svg0_80_73228)"><g><path d="M3.157893755859375,10.706057944335939L3.339211755859375,11.964887944335938Q3.621328755859375,13.927467944335937,3.806093755859375,14.596667944335938Q4.1154147558593746,15.716767944335938,4.775334755859375,16.28516794433594Q5.434174755859376,16.852667944335938,6.592554755859375,16.99796794433594Q7.284304755859375,17.084667944335937,9.281174755859375,17.084667944335937L10.718904755859375,17.084667944335937Q12.715764755859375,17.084667944335937,13.407574755859375,16.99796794433594Q14.565874755859374,16.852667944335938,15.224774755859375,16.28516794433594Q15.884674755859375,15.716767944335938,16.193974755859376,14.596667944335938Q16.378774755859375,13.927467944335937,16.660874755859375,11.964757944335938L16.841574755859376,10.706087944335938L16.842474755859374,10.699337944335937Q17.062674755859376,9.171657944335937,17.081474755859375,8.620627944335936Q17.112974755859376,7.698127944335938,16.809374755859373,7.065687944335938Q16.505874755859374,6.433467944335938,15.765074755859375,5.8761579443359375Q15.321574755859375,5.542537944335938,13.986674755859376,4.747397944335938L13.086574755859376,4.211237944335938Q10.912084755859375,2.9152679443359375,10.000044755859374,2.9152679443359375Q9.086964755859375,2.9152679443359375,6.913584755859375,4.211177944335938L6.0134747558593755,4.747337944335937Q4.679084755859375,5.541827944335937,4.234704755859375,5.876197944335937Q3.4942287558593748,6.433347944335937,3.190684755859375,7.065687944335938Q2.886747855859375,7.698837944335938,2.918351415859375,8.622707944335938Q2.937238355859375,9.174827944335938,3.157893755859375,10.706057944335939ZM4.933884755859375,14.285167944335937Q4.768864755859375,13.687567944335937,4.497304755859375,11.798417944335938L4.315944755859375,10.539257944335937Q3.9708047558593753,8.144157944335937,4.245454755859375,7.572007944335938Q4.5212447558593745,6.997477944335937,6.612034755859375,5.752647944335937L7.512344755859375,5.216357944335938Q9.409294755859374,4.085267944335937,10.000044755859374,4.085267944335937Q10.589874755859375,4.085267944335937,12.487624755859375,5.216287944335937L13.387974755859375,5.752577944335938Q15.479174755859376,6.998237944335938,15.754674755859375,7.572007944335938Q16.028774755859374,8.143117944335938,15.684474755859375,10.532457944335938L15.683474755859375,10.539217944335938L15.502774755859376,11.798537944335937Q15.231174755859374,13.687567944335937,15.066174755859375,14.285167944335937Q14.851574755859374,15.062467944335937,14.461174755859375,15.398667944335937Q14.069874755859376,15.735667944335937,13.261874755859376,15.837067944335937Q12.642674755859375,15.914667944335937,10.718904755859375,15.914667944335937L9.281174755859375,15.914667944335937Q7.357414755859375,15.914667944335937,6.738174755859375,15.837067944335937Q5.930154755859375,15.735667944335937,5.538874755859375,15.398667944335937Q5.148514755859376,15.062467944335937,4.933884755859375,14.285167944335937ZM9.515054755859374,11.949897944335937C9.515054755859374,11.682037944335937,9.732194755859375,11.464897944335938,10.000054755859374,11.464897944335938C10.267914755859376,11.464897944335938,10.485054755859375,11.682037944335937,10.485054755859375,11.949897944335937L10.487534755859375,11.949897944335937L10.487534755859375,13.899767944335938L10.485054755859375,13.899767944335938C10.485054755859375,14.167667944335937,10.267914755859376,14.384767944335938,10.000054755859374,14.384767944335938C9.732194755859375,14.384767944335938,9.515054755859374,14.167667944335937,9.515054755859374,13.899767944335938L9.512574755859376,13.899767944335938L9.512574755859376,11.949897944335937L9.515054755859374,11.949897944335937Z" fill-rule="evenodd"  fill-opacity="1" style="mix-blend-mode:passthrough"/></g></g></svg>