<svg xmlns="http://www.w3.org/2000/svg" xmlns:xlink="http://www.w3.org/1999/xlink" fill="none" version="1.1" width="20" height="20" viewBox="0 0 20 20"><defs><clipPath id="master_svg0_107_85494"><rect x="0" y="0" width="20" height="20" rx="0"/></clipPath></defs><g clip-path="url(#master_svg0_107_85494)"><g><path d="M6.79113,6.1883099999999995Q6.79113,7.50896,7.724959999999999,8.442789999999999Q8.6588,9.376629999999999,9.97944,9.376629999999999Q11.29982,9.37618,12.233270000000001,8.4424Q13.16671,7.50864,13.16671,6.18832Q13.16672,4.86799,12.233270000000001,3.934225Q11.29982,3.000455915,9.97944,3Q8.6588,3,7.724959999999999,3.933836Q6.79113,4.86767,6.79113,6.1883099999999995ZM9.27989,3.2522320000000002C7.95075,3.567826,6.96206,4.76259,6.96206,6.18827C6.96206,7.85483,8.31307,9.20585,9.97964,9.20585C10.21879,9.205770000000001,10.45143,9.17787,10.67451,9.12521C10.45137,9.177900000000001,10.21866,9.20582,9.97944,9.2059C8.31288,9.2059,6.96186,7.85488,6.96186,6.1883099999999995C6.96186,4.76256,7.9506499999999996,3.567754,9.27989,3.2522320000000002ZM9.49752,4.17919C9.65213,4.14222,9.813500000000001,4.1226400000000005,9.97944,4.1226400000000005C11.12012,4.1226400000000005,12.04466,5.0476399999999995,12.0441,6.1883099999999995C12.04363,7.16453,11.36569,7.98223,10.455020000000001,8.19693C11.36579,7.98231,12.04382,7.16455,12.0443,6.18827C12.04486,5.04759,11.12032,4.1226,9.97964,4.1226C9.81363,4.1226,9.652190000000001,4.14219,9.49752,4.17919ZM8.08551,6.18823Q8.08513,5.40347,8.6399,4.84842Q9.19468,4.29338,9.97944,4.29338Q10.764199999999999,4.29338,11.31898,4.84842Q11.87376,5.40347,11.873370000000001,6.18823Q11.87299,6.97245,11.31833,7.52684Q10.76366,8.081240000000001,9.97944,8.081240000000001Q9.195219999999999,8.081240000000001,8.64056,7.52684Q8.0859,6.97245,8.08551,6.18823ZM4.25000449034,13.5588Q4.249310867,14.3648,4.355764,14.7919Q4.543291,15.5444,5.1241520000000005,16.0176Q5.75084,16.5277,6.9134899999999995,16.7622Q8.08476,17,9.97944,17Q11.87282,17,13.04619,16.7622Q14.20734,16.528,14.8352,16.017699999999998Q15.4159,15.5446,15.6033,14.7926Q15.7096,14.3659,15.7089,13.56L15.7089,13.5587L15.7089,13.494Q15.7089,12.69399,15.1793,11.99216Q14.7095,11.36959,13.89081,10.90836Q12.25339,9.98809,9.97944,9.98809Q7.70509,9.98809,6.0688200000000005,10.908290000000001Q5.249601,11.3695,4.779663,11.99214Q4.25000464298,12.69391,4.25000464298,13.494L4.25000449034,13.5588ZM7.89881,10.39459C7.2481100000000005,10.54869,6.6560500000000005,10.77393,6.1525099999999995,11.05711C5.164014,11.61361,4.420736,12.45599,4.420736,13.494L4.420736,13.5588C4.420101,14.297,4.419466,15.2233,5.23199,15.8852C5.63158,16.2105,6.19126,16.4424,6.94725,16.5948C7.7044999999999995,16.7486,8.69236,16.8293,9.97944,16.8293C11.26652,16.8293,12.25375,16.7486,13.01227,16.5948C12.25377,16.7486,11.26661,16.8292,9.97964,16.8292C8.69256,16.8292,7.7047,16.7485,6.94744,16.5948C6.19146,16.4423,5.63178,16.2105,5.232187,15.8852C4.419663,15.2232,4.420299,14.297,4.420934,13.5588L4.420934,13.494C4.420934,12.45595,5.164212,11.61357,6.15271,11.05706C6.6562,10.77391,7.24819,10.54869,7.89881,10.39459ZM13.19618,15.5731C13.64841,15.4495,13.93765,15.299,14.12548,15.1457C14.56,14.7925,14.5854,14.3249,14.5854,13.494C14.5854,12.95337,14.19091,12.36637,13.33964,11.88801C12.50361,11.4179,11.31691,11.11169,9.98027,11.11169C9.31912,11.11169,8.6949,11.18647,8.13167,11.31885C8.694849999999999,11.1865,9.318999999999999,11.11174,9.980080000000001,11.11174C11.31671,11.11174,12.50341,11.41794,13.33944,11.88805C14.19072,12.36642,14.5852,12.95342,14.5852,13.494C14.5852,14.325,14.5598,14.7926,14.12528,15.1458C13.93748,15.2991,13.6483,15.4495,13.19618,15.5731ZM5.54439,13.494Q5.54439,12.6885,6.70313,12.03687Q8.04473,11.28247,9.980080000000001,11.28247Q11.914159999999999,11.28247,13.25576,12.03687Q14.4145,12.68801,14.4145,13.494Q14.4145,14.1871,14.3518,14.4609Q14.2728,14.8058,14.01759,15.0133Q13.63939,15.322,12.78917,15.4936Q11.742149999999999,15.7056,9.97944,15.7056Q8.21576,15.7056,7.16983,15.4937Q6.32012,15.3221,5.94134,15.014Q5.68611,14.8061,5.6071,14.461Q5.54439,14.1871,5.54439,13.494Z" fill-rule="evenodd" fill="#595959" fill-opacity="1"/></g></g></svg>