<?xml version="1.0" standalone="no"?><!DOCTYPE svg PUBLIC "-//W3C//DTD SVG 1.1//EN" "http://www.w3.org/Graphics/SVG/1.1/DTD/svg11.dtd"><svg t="1746773166873" class="icon" viewBox="0 0 1045 1024" version="1.1" xmlns="http://www.w3.org/2000/svg" p-id="1061" width="16.328125" height="16" xmlns:xlink="http://www.w3.org/1999/xlink"><path d="M874.432451 229.907546c9.256018 65.501257 45.123088 106.257595 107.526566 122.231691 42.062631 10.82357 63.075285 36.42691 63.075284 76.959312v170.415236c0 37.322654-18.885263 62.328832-56.693111 75.205147-65.949129 22.393592-98.905032 69.308168-98.905032 140.781049 0 10.189084 0.970389 20.228878 2.94849 30.119382 7.725789 38.442333-4.292105 67.068809-35.979038 85.804781l-135.29462 79.945124c-34.859358 20.602105-67.554003 15.563547-98.009288-15.078352-27.99199-28.178603-61.545056-42.249244-100.584551-42.249244-39.076818 0-72.592561 14.07064-100.584552 42.249244-30.455285 30.641899-63.112607 35.680457-98.009288 15.078352l-120.738785-71.360914c-33.030548-19.519748-44.787184-49.153935-35.232585-88.902561 2.761876-11.644668 4.142815-23.513272 4.142815-35.605812 0-77.22057-36.352265-125.142858-109.056794-143.804184C21.012654 660.872227 0 635.231564 0 594.736485v-153.582719c0-37.285331 18.885263-62.328832 56.693111-75.167825 65.949129-22.393592 98.905032-69.308168 98.905032-140.781049 0-13.510801-1.679519-26.685697-5.150526-39.52469-10.898215-40.681692 0.634485-71.062332 34.635422-91.179243L323.848665 12.503089c34.896681-20.602105 67.591326-15.600869 98.083934 15.078352 27.954668 28.141281 61.47041 42.211921 100.584552 42.211921 39.114141 0 72.629884-14.07064 100.584551-42.174598 30.492608-30.716544 63.187253-35.71778 98.083934-15.115675l120.664139 71.286268c32.993226 19.55707 44.787184 49.153935 35.232585 88.902561a152.276427 152.276427 0 0 0-4.180137 35.643134h-74.645308c0-17.989519 2.090069-35.680457 6.232884-52.998168 0.970389-4.030847 0.746453-6.419496-0.634486-7.240594l-120.664139-71.323592c-1.567551-0.933066-3.918879 0.223936-7.128626 3.433685-42.547825 42.846406-93.754506 64.232287-153.545397 64.232286-59.790891 0-110.997572-21.385881-153.545397-64.232286-3.209748-3.209748-5.598398-4.36675-7.128627-3.433685L223.077501 158.770568c-1.492906 0.858421-1.642197 3.359039-0.522518 7.539176 5.150526 19.221167 7.725789 38.81556 7.72579 58.895148 0 107.116016-49.863065 177.655831-149.589196 211.470155-4.030847 1.380938-6.04627 2.873844-6.04627 4.478719v153.582719c0 1.903455 2.314005 3.471007 6.979336 4.665332 110.101828 28.253249 165.11542 100.28597 165.11542 216.098164 0 17.989519-2.052746 35.643134-6.232883 52.998169-0.970389 3.993524-0.746453 6.419496 0.634485 7.240594l120.738784 71.360914c1.567551 0.895744 3.956201-0.223936 7.091305-3.433684C411.631547 900.819568 462.800905 879.396364 522.517151 879.396364s110.922927 21.423203 153.508074 64.26961c3.172426 3.209748 5.561075 4.329428 7.091304 3.433684l135.294619-79.945124c1.26897-0.746453 1.530229-3.023135 0.783776-6.830046a226.623153 226.623153 0 0 1-4.441396-44.787184c0-107.190661 49.863065-177.655831 149.589196-211.544801 4.030847-1.343616 6.04627-2.836522 6.04627-4.478718v-170.415236c0-1.903455-2.314005-3.433684-6.942014-4.628009-94.687572-24.259725-148.992033-85.618167-162.913383-184.075328l73.898854-10.450343z m-2.239359-22.318947l0.746453 0.746453c0 20.900686-16.421968 37.322654-37.322653 37.322654s-37.322654-16.421968-37.322654-37.322654l0.746453-0.746453h73.152401z m-70.838396 33.441098l-0.821099-0.634485a36.949427 36.949427 0 0 1 31.724256-42.174599 36.949427 36.949427 0 0 1 42.174598 31.724256l-0.634485 0.821098-72.405948 10.26373z" fill="#626262" p-id="1062"></path><path d="M522.517151 659.565935a147.797708 147.797708 0 0 0 147.648417-147.648418A147.797708 147.797708 0 0 0 522.517151 364.269099a147.797708 147.797708 0 0 0-147.685741 147.648418A147.797708 147.797708 0 0 0 522.517151 659.603257z m54.752332-92.858763c-12.167185 12.167185-30.417963 18.250778-54.752332 18.250778-24.33437 0-42.585148-6.083593-54.752333-18.2881-12.167185-12.129862-18.2881-30.417963-18.288101-54.752333 0-24.33437 6.120915-42.585148 18.288101-54.752333 12.167185-12.167185 30.417963-18.2881 54.752333-18.2881 24.33437 0 42.585148 6.120915 54.752332 18.2881 12.167185 12.167185 18.2881 30.417963 18.288101 54.752333 0 24.33437-6.120915 42.62247-18.288101 54.789655z" fill="#626262" p-id="1063"></path></svg>