<svg xmlns="http://www.w3.org/2000/svg" xmlns:xlink="http://www.w3.org/1999/xlink" version="1.1" width="20" height="20" viewBox="0 0 20 20"><defs><clipPath id="master_svg0_80_73191"><rect x="0" y="0" width="20" height="20" rx="0"/></clipPath></defs><g clip-path="url(#master_svg0_80_73191)"><g><path d="M11.875000095367431,2.9000000953674316L5.625000095367431,2.9000000953674316C4.943072095367432,2.9000000953674316,4.400000095367432,3.464795095367432,4.400000095367432,4.150000095367432L4.400000095367432,15.850000095367431C4.400000095367432,16.53520009536743,4.943070095367432,17.10000009536743,5.625000095367431,17.10000009536743L14.375000095367431,17.10000009536743C15.056900095367432,17.10000009536743,15.600000095367431,16.53520009536743,15.600000095367431,15.850000095367431L15.600000095367431,6.750000095367431C15.600000095367431,6.5949400953674315,15.540000095367432,6.445910095367432,15.432500095367432,6.334130095367431L12.30750009536743,3.0841350953674316C12.194380095367432,2.9664875953674317,12.038210095367432,2.9000000953674316,11.875000095367431,2.9000000953674316ZM11.620010095367432,4.100000095367432L14.400000095367432,6.991000095367432L14.400000095367432,15.850000095367431C14.400000095367432,15.88280009536743,14.383450095367431,15.900000095367432,14.375010095367431,15.900000095367432L5.625010095367432,15.900000095367432C5.616580095367432,15.900000095367432,5.600010095367431,15.88280009536743,5.600010095367431,15.850000095367431L5.600010095367431,4.150000095367432C5.600010095367431,4.117240095367432,5.616580095367432,4.100000095367432,5.625010095367432,4.100000095367432L11.620010095367432,4.100000095367432ZM13.100000095367431,8.700000095367432C13.100000095367431,8.368630095367433,12.831370095367431,8.100000095367431,12.500000095367431,8.100000095367431L7.500000095367431,8.100000095367431L7.402680095367431,8.107850095367432C7.117590095367431,8.15435009536743,6.900000095367432,8.401770095367432,6.900000095367432,8.700000095367432C6.900000095367432,9.031370095367432,7.168630095367432,9.300000095367432,7.500000095367431,9.300000095367432L12.500000095367431,9.300000095367432L12.597320095367431,9.292150095367433C12.882410095367431,9.24565009536743,13.100000095367431,8.998230095367433,13.100000095367431,8.700000095367432ZM13.100000095367431,11.300000095367432C13.100000095367431,10.968630095367432,12.831370095367431,10.700000095367432,12.500000095367431,10.700000095367432L7.500000095367431,10.700000095367432L7.402680095367431,10.707850095367432C7.117590095367431,10.754350095367432,6.900000095367432,11.001770095367432,6.900000095367432,11.300000095367432C6.900000095367432,11.631370095367432,7.168630095367432,11.900000095367432,7.500000095367431,11.900000095367432L12.500000095367431,11.900000095367432L12.597320095367431,11.892150095367432C12.882410095367431,11.845650095367432,13.100000095367431,11.598230095367432,13.100000095367431,11.300000095367432Z" fill-rule="evenodd"  fill-opacity="1"/></g></g></svg>