<svg xmlns="http://www.w3.org/2000/svg" xmlns:xlink="http://www.w3.org/1999/xlink" version="1.1" width="20" height="20" viewBox="0 0 20 20"><defs><clipPath id="master_svg0_80_73242"><rect x="0" y="0" width="20" height="20" rx="0"/></clipPath></defs><g clip-path="url(#master_svg0_80_73242)"><g><path d="M6.51062802734375,16.300093286132814Q6.677208027343751,16.257993286132812,6.83709802734375,16.34089328613281L6.84544802734375,16.345093286132812Q8.335838027343751,17.087093286132813,10.00072802734375,17.084993286132814Q12.93477802734375,17.084993286132814,15.00987802734375,15.009893286132813Q17.08497802734375,12.934793286132813,17.08497802734375,10.000003286132813Q17.08497802734375,7.065223286132812,15.00987802734375,4.990103286132813Q12.93477802734375,2.9149932861328125,9.99997802734375,2.9149932861328125Q7.06520802734375,2.9149932861328125,4.9900880273437505,4.990103286132813Q2.91497802734375,7.0652132861328125,2.91497802734375,10.000003286132813Q2.91497802734375,11.668893286132812,3.65414302734375,13.154993286132813Q3.7422470273437503,13.331193286132812,3.69990302734375,13.489493286132813L3.31312002734375,14.936493286132812Q3.09997102734375,15.733293286132813,3.68309502734375,16.316793286132814Q4.26621802734375,16.900293286132815,5.06324802734375,16.687593286132813L6.51062802734375,16.300093286132814ZM7.37060802734375,15.299593286132813Q8.61233802734375,15.916793286132812,9.99923802734375,15.914993286132812Q12.45013802734375,15.914993286132812,14.18257802734375,14.182593286132812Q15.91497802734375,12.450153286132812,15.91497802734375,10.000003286132813Q15.91497802734375,7.549853286132812,14.18257802734375,5.817423286132812Q12.45013802734375,4.084993286132812,9.99997802734375,4.084993286132812Q7.54982802734375,4.084993286132812,5.81740802734375,5.817423286132812Q4.08497802734375,7.549843286132813,4.08497802734375,10.000003286132813Q4.08497802734375,11.393983286132812,4.70171802734375,12.633923286132813Q4.98718802734375,13.204893286132812,4.83015802734375,13.791793286132812L4.44343802734375,15.238593286132813Q4.40464802734375,15.383593286132813,4.51066802734375,15.489693286132812Q4.61668802734375,15.595793286132812,4.76160802734375,15.557093286132812L6.20802802734375,15.169893286132812Q6.81852802734375,15.015593286132813,7.37060802734375,15.299593286132813ZM7.40026802734375,8.440013286132812L12.60000802734375,8.440013286132812C12.75515802734375,8.440013286132812,12.90395802734375,8.501643286132811,13.01367802734375,8.611353286132813C13.12337802734375,8.721063286132813,13.18497802734375,8.869853286132813,13.18497802734375,9.025013286132811C13.18497802734375,9.348093286132812,12.92307802734375,9.610013286132812,12.59973802734375,9.610013286132812L7.39999802734375,9.610013286132812C7.24484802734375,9.610013286132812,7.09605802734375,9.548373286132811,6.98634802734375,9.438663286132812C6.87663802734375,9.328963286132812,6.81499802734375,9.180163286132814,6.81499802734375,9.025013286132811C6.81499802734375,8.701923286132812,7.07691802734375,8.440013286132812,7.40026802734375,8.440013286132812ZM10.97500802734375,10.715013286132812L7.39999802734375,10.715013286132812C7.07691802734375,10.715013286132812,6.81499802734375,10.976923286132813,6.81499802734375,11.300013286132813C6.81499802734375,11.623103286132812,7.07691802734375,11.885013286132812,7.40052802734375,11.885013286132812L10.97500802734375,11.885013286132812C11.13015802734375,11.885013286132812,11.27895802734375,11.823373286132812,11.38865802734375,11.713673286132812C11.49836802734375,11.603963286132812,11.56000802734375,11.455163286132812,11.56000802734375,11.300013286132813C11.56000802734375,10.976923286132813,11.29808802734375,10.715013286132812,10.97500802734375,10.715013286132812Z" fill-rule="evenodd"  fill-opacity="1" style="mix-blend-mode:passthrough"/></g></g></svg>