<svg xmlns="http://www.w3.org/2000/svg" xmlns:xlink="http://www.w3.org/1999/xlink" fill="none" version="1.1" width="20" height="20" viewBox="0 0 20 20"><defs><clipPath id="master_svg0_107_85506"><rect x="0" y="0" width="20" height="20" rx="0"/></clipPath></defs><g clip-path="url(#master_svg0_107_85506)"><g><path d="M4.07578,14.2957L4.07578,5.68946C4.07578,4.77504,4.77504,4.07578,5.68946,4.07578L14.2957,4.07578C15.2101,4.07578,15.9094,4.77504,15.9094,5.68946L15.9094,7.14177C15.9094,7.4645,16.1246,7.67966,16.4473,7.67966C16.77,7.67966,16.9852,7.4645,16.9852,7.14177L16.9852,5.1515699999999995C16.9852,3.968205,16.017,3,14.8336,3L5.1515699999999995,3C3.968205,3,3,3.968205,3,5.1515699999999995L3,14.8336C3,16.017,3.968205,16.9852,5.1515699999999995,16.9852L7.14177,16.9852C7.4645,16.9852,7.67966,16.77,7.67966,16.4473C7.67966,16.1246,7.4645,15.9094,7.14177,15.9094L5.68946,15.9094C4.77504,15.9094,4.07578,15.2101,4.07578,14.2957ZM12.9509,7.3032L6.4962,7.3032C6.227259999999999,7.3032,5.95831,7.08804,5.95831,6.7653099999999995C5.95831,6.49636,6.17347,6.22742,6.4962,6.22742L12.9509,6.22742C13.2199,6.22742,13.4888,6.44257,13.4888,6.7653099999999995C13.4888,7.08804,13.2198,7.3032,12.9509,7.3032ZM12.37035,8.830079999999999C12.04933,8.830079999999999,11.78909,9.09032,11.78909,9.41134C11.78909,9.73236,12.04933,9.9926,12.37035,9.9926L12.80342,9.9926Q11.7683,10.17989,10.98149,10.96669Q9.948879999999999,11.9993,9.948879999999999,13.4596Q9.948879999999999,14.92,10.98149,15.9526Q12.0141,16.9852,13.4744,16.9852Q14.9348,16.9852,15.9674,15.9526Q17,14.92,17,13.4596Q17,12.29894,16.3476,11.40845L16.4616,11.29446C16.5706,11.18545,16.6319,11.03761,16.6319,10.88345C16.6319,10.562429999999999,16.3716,10.30219,16.0506,10.30219C15.8965,10.30219,15.7486,10.363430000000001,15.6396,10.47243L15.5256,10.58642Q14.9018,10.12946,14.1454,9.9926L14.5785,9.9926C14.8995,9.9926,15.1598,9.73236,15.1598,9.41134C15.1598,9.09032,14.8995,8.830079999999999,14.5785,8.830079999999999L12.37035,8.830079999999999ZM10.58418,10.53055L6.4962,10.53055C6.227259999999999,10.53055,5.95831,10.31539,5.95831,9.99266C5.95831,9.72371,6.17347,9.45477,6.4962,9.45477L10.58418,9.45477C10.90692,9.45477,11.12207,9.669920000000001,11.12207,9.99266C11.12207,10.31539,10.85313,10.53055,10.58418,10.53055ZM13.4744,15.8227Q12.49563,15.8227,11.80352,15.1306Q11.1114,14.4384,11.1114,13.4596Q11.1114,12.48084,11.80352,11.78872Q12.49563,11.0966,13.4744,11.0966Q14.4532,11.0966,15.1454,11.78872Q15.8375,12.48083,15.8375,13.4596Q15.8375,14.4384,15.1454,15.1306Q14.4532,15.8227,13.4744,15.8227ZM12.89318,11.98753C12.89318,11.66651,13.1534,11.40627,13.4744,11.40627C13.7955,11.40627,14.0557,11.66651,14.0557,11.98753L14.0557,13.4596C14.0557,13.7807,13.7955,14.0409,13.4744,14.0409C13.1534,14.0409,12.89318,13.7807,12.89318,13.4596L12.89318,11.98753Z" fill-rule="evenodd" fill="#F05A1F" fill-opacity="1" style="mix-blend-mode:passthrough"/></g></g></svg>