<?xml version="1.0" encoding="UTF-8"?>
<svg width="16px" height="16px" viewBox="0 0 16 16" version="1.1" xmlns="http://www.w3.org/2000/svg" xmlns:xlink="http://www.w3.org/1999/xlink">
    <title>icon_cz_数据备份</title>
    <g id="页面-1备份" stroke="none" stroke-width="1" fill-rule="evenodd">
        <path d="M14.4448864,1.55473445 C15.5285793,2.63916703 15.665,3.65342956 15.665,8 C15.665,12.3472647 15.528566,13.3616259 14.4450471,14.4444047 C13.3623826,15.5285493 12.3478039,15.665 8,15.665 C3.65289078,15.665 2.63841049,15.5285625 1.55473467,14.4448866 C0.500625127,13.3914971 0.343061742,12.402643 0.335314787,8.34528347 L0.335,8 C0.335,3.65293836 0.471331101,2.63855675 1.55489507,1.55425313 C2.61000467,0.500582974 3.59860621,0.343059815 7.65481452,0.335314714 L8,0.335 C12.3472172,0.335 13.3614796,0.471327603 14.4448864,1.55473445 Z M8.32717484,1.66530454 L7.67282634,1.66530444 C4.04692551,1.6723293 3.18587675,1.80511797 2.49518652,2.49486544 C1.80516369,3.1853596 1.67233165,4.04674413 1.66530453,7.67281205 L1.66530463,8.32718909 C1.6723338,11.9532774 1.80519906,12.8149182 2.49502601,13.504274 C3.20581451,14.2150625 4.09760922,14.335 8,14.335 C11.9023961,14.335 12.7944967,14.2150214 13.5044346,13.5041135 C14.215059,12.7939741 14.335,11.9022353 14.335,8 C14.335,4.09777044 14.2151001,3.20633741 13.504274,2.49502601 C12.8347006,1.8254526 12.0036139,1.68062715 8.64000051,1.66626203 L8.32717484,1.66530454 Z M12.4083177,6.47511748 C12.6982023,6.70062512 12.7503902,7.11843309 12.5248825,7.4083177 L11.2671581,9.02509192 C10.4749667,10.0443389 10.2691786,10.2435 9.6669,10.2435 C9.0641217,10.2435 8.85785603,10.0439822 8.06608078,9.02527051 L7.88394192,8.79109192 C7.52808284,8.33323751 7.37404789,8.15989093 7.33798385,8.10662347 C7.29601928,8.15517153 7.16561895,8.30300756 6.87487762,8.67340003 L6.78278252,8.7913177 L5.52488252,10.4083177 C5.29937488,10.6982023 4.88156691,10.7503902 4.5916823,10.5248825 C4.30179769,10.2993749 4.24960984,9.88156691 4.47511748,9.5916823 L5.73284192,7.97490808 C6.52503327,6.95566109 6.73082141,6.7565 7.3331,6.7565 C7.9358783,6.7565 8.14214397,6.95601779 8.93391922,7.97472949 L9.11605808,8.20890808 C9.47191716,8.66676249 9.62595211,8.84010907 9.66201615,8.89337653 C9.70398072,8.84482847 9.83438105,8.69699244 10.1251224,8.32659997 L10.2172175,8.2086823 L11.4751175,6.5916823 C11.7006251,6.30179769 12.1184331,6.24960984 12.4083177,6.47511748 Z" id="icon_cz_数据备份" fill-rule="nonzero"></path>
    </g>
</svg>
