<?xml version="1.0" encoding="UTF-8"?>
<svg width="20px" height="20px" viewBox="0 0 20 20" version="1.1" xmlns="http://www.w3.org/2000/svg" xmlns:xlink="http://www.w3.org/1999/xlink">
    <title>设置</title>
    <g id="页面-1备份-2" stroke="none" stroke-width="1" fill="none" fill-rule="evenodd">
        <g id="门牌" transform="translate(-957, -240)" fill="var(--el-color-primary)" fill-rule="nonzero">
            <g id="订单列表" transform="translate(48, 144)">
                <g id="编组-20" transform="translate(840, 92)">
                    <g id="设置" transform="translate(67, 2)">
                        <path d="M14.410794,4.15135684 C14.4452133,4.30050834 14.5111309,4.43234365 14.609442,4.54190602 C14.7123603,4.66197709 14.833273,4.74953469 14.9920533,4.81351362 C15.1210507,4.8702724 15.2671862,4.89370927 15.4245953,4.88204934 C15.5712622,4.87118502 15.7272173,4.82019973 15.8592488,4.73983333 C18.0709243,3.38984948 20.61015,5.92907547 19.2606484,8.13996088 C19.1798002,8.27278258 19.1288151,8.4287373 19.1179508,8.57540238 C19.106291,8.73281349 19.1297279,8.87894925 19.1963572,9.03145602 C19.2504658,9.16672714 19.3380237,9.28764052 19.4717238,9.40252943 C19.5676567,9.48886899 19.6994928,9.55478711 19.8580032,9.59142968 C22.3806662,10.2077618 22.3806662,13.792238 19.8486434,14.4107941 C19.6994918,14.4452133 19.5676566,14.5111309 19.4580942,14.609442 C19.3380233,14.7123601 19.2504655,14.8332731 19.1864866,14.9920528 C19.1297279,15.1210501 19.106291,15.2671863 19.1179506,15.4245946 C19.1288152,15.5712629 19.1798003,15.7272178 19.2601668,15.859249 C20.6101499,18.0709245 18.0709245,20.6101499 15.8600385,19.260648 C15.7272178,19.1798003 15.5712629,19.1288152 15.424597,19.1179508 C15.2671863,19.106291 15.1210501,19.1297279 14.9685435,19.1963572 C14.8332731,19.2504655 14.7123601,19.3380233 14.5974699,19.4717246 C14.5111309,19.5676566 14.4452133,19.6994918 14.4085707,19.8580034 C13.792238,22.3806662 10.2077618,22.3806662 9.58920671,19.8486446 C9.55478711,19.6994928 9.48886899,19.5676567 9.39055731,19.4580935 C9.28764052,19.3380237 9.16672714,19.2504658 9.00794677,19.1864866 C8.87894925,19.1297279 8.73281349,19.106291 8.57540501,19.1179506 C8.4287373,19.1288151 8.27278258,19.1798002 8.14075104,19.2601668 C5.92907547,20.61015 3.38984948,18.0709243 4.73935138,15.8600395 C4.82019973,15.7272173 4.87118502,15.5712622 4.8820493,15.4245957 C4.89370927,15.2671862 4.8702724,15.1210507 4.80364239,14.9685424 C4.74953469,14.833273 4.66197709,14.7123603 4.52827585,14.5974701 C4.43234365,14.5111309 4.30050834,14.4452133 4.14199693,14.4085707 C1.61933435,13.792238 1.61933435,10.2077618 4.15135557,9.58920674 C4.30050735,9.55478713 4.43234356,9.48886895 4.54190676,9.39055731 C4.66197664,9.28764039 4.7495344,9.16672726 4.81351362,9.00794622 C4.87027246,8.87894874 4.89370928,8.73281357 4.88204934,8.57540435 C4.87118505,8.428738 4.82019977,8.27278301 4.73983333,8.14075119 C3.38984943,5.92907563 5.92907563,3.38984943 8.14056935,4.73972238 C8.7053253,5.08422345 9.43873659,4.78100433 9.59053427,4.1457029 C10.2077618,1.61933435 13.792238,1.61933435 14.410794,4.15135684 Z M12,9 C10.34,9 9,10.34 9,12 C9,13.6599998 10.34,15 12,15 C13.6599998,15 15,13.6599998 15,12 C15,10.34 13.6599998,9 12,9 Z"></path>
                    </g>
                </g>
            </g>
        </g>
    </g>
</svg>