<svg xmlns="http://www.w3.org/2000/svg" xmlns:xlink="http://www.w3.org/1999/xlink" version="1.1" width="14" height="14" viewBox="0 0 14 14"><defs><clipPath id="master_svg0_3_16368"><rect x="-0.6000000238418579" y="-0.6000000238418579" width="15.200000047683716" height="15.200000047683716" rx="0"/></clipPath><clipPath id="master_svg1_3_16370"><rect x="0.7999999523162842" y="1.3600000143051147" width="12.399999856948853" height="11.27999997138977" rx="0"/></clipPath></defs><g clip-path="url(#master_svg0_3_16368)"><g clip-path="url(#master_svg1_3_16370)"><path d="M3.9755582,11.791389559604644Q4.0145319,11.861540859604645,4.0705709,11.918984459604644Q4.126610299999999,11.976427159604645,4.1957757,12.017124259604644Q4.2649412,12.057821359604645,4.3423704999999995,12.078910859604644Q4.4197998,12.100000459604646,4.5000501,12.100000459604646L9.500074900000001,12.100000459604646Q9.580327,12.100000459604646,9.657757799999999,12.078909959604644Q9.7351894,12.057819459604644,9.804355600000001,12.017121359604644Q9.873521799999999,11.976423359604645,9.9295611,11.918977759604644Q9.9856,11.861532259604644,10.0245724,11.791379059604644L12.524499,7.291379059604645Q12.561636,7.224529359604645,12.580818,7.150501359604645Q12.6,7.0764732596046445,12.6,7.000000059604645Q12.6,6.923527259604644,12.580818,6.849499259604645Q12.561636,6.775470759604644,12.524499,6.708621059604645L10.0245724,2.2086209096046447Q9.9856,2.1384677296046446,9.9295607,2.081022739604645Q9.873521799999999,2.0235777196046447,9.8043551,1.9828793996046448Q9.735189,1.9421810496046448,9.6577582,1.921090539604645Q9.580327,1.9000000396046448,9.500074900000001,1.9000000396046448L4.5000501,1.9000000396046448Q4.4197998,1.9000000396046448,4.3423704999999995,1.9210897096046446Q4.2649412,1.942179379604645,4.1957757,1.9828761796046448Q4.126610299999999,2.0235729796046447,4.0705712,2.0810159396046446Q4.0145319,2.1384588796046446,3.9755582,2.2086098196046446L1.47550809,6.708609659604645Q1.43836737,6.775461759604645,1.4191836100000002,6.849493059604645Q1.39999992,6.923523959604645,1.39999998,7.000000059604645Q1.39999992,7.076476659604645,1.4191836100000002,7.150507959604645Q1.43836737,7.224538859604645,1.47550809,7.291390459604645L3.9755582,11.791389559604644ZM4.8530885999999995,10.899999659604644L2.68637872,7.000000059604645L4.8530888999999995,3.1000000796046447L9.147027999999999,3.1000000796046447L11.3136301,7.000000059604645L9.147027999999999,10.899999659604644L4.8530885999999995,10.899999659604644Z"/><path d="M5.574040317658142,5.539816791646973Q5.000195148658142,6.147417545646973,5.000195088658142,6.999970125646973Q5.000195268658143,7.852522825646973,5.574040358658142,8.460123525646972Q6.1616732486581425,9.082322825646973,7.0001952886581424,9.082322825646973Q7.838717388658142,9.082322825646973,8.426350488658143,8.460123025646972Q9.000195388658142,7.852522325646973,9.000195388658142,6.999969625646973Q9.000195388658142,6.147417185646972,8.426349988658142,5.539816707646973Q7.838716888658142,4.917617205646973,7.000194588658142,4.917617205646973Q6.161673308658142,4.917617205646973,5.574040317658142,5.539816791646973ZM6.446456138658142,7.636174925646973Q6.200195308658142,7.375428425646973,6.200195308658142,6.999970125646973Q6.200195188658142,6.624511925646972,6.446456138658142,6.363765065646973Q6.678929088658142,6.117617245646972,7.000194588658142,6.117617245646972Q7.321460988658142,6.117617245646972,7.553934188658142,6.363765235646973Q7.800195088658143,6.624512125646973,7.800195088658143,6.999969625646973Q7.800195088658143,7.375428125646973,7.553934188658142,7.636174925646973Q7.321461288658142,7.882322825646973,7.0001952886581424,7.882322825646973Q6.678929088658142,7.882322825646973,6.446456138658142,7.636174925646973Z"/></g></g></svg>
