<svg xmlns="http://www.w3.org/2000/svg" xmlns:xlink="http://www.w3.org/1999/xlink"  version="1.1" width="20" height="20" viewBox="0 0 20 20"><defs><clipPath id="master_svg0_38_93995"><rect x="0" y="0" width="20" height="20" rx="0"/></clipPath></defs><g clip-path="url(#master_svg0_38_93995)"><g><path d="M14.8052609375,1.374021L18.3894609375,5.18023L18.3894609375,5.18123C18.6134609375,5.41725,18.7304609375,5.73726,18.7304609375,6.07128L18.7304609375,15.4838C18.7304609375,16.183799999999998,18.2084609375,16.7499,17.5403609375,16.7499L13.8853609375,16.7498L13.8853609375,17.7409C13.8853609375,18.4409,13.3535609375,19,12.6855609375,19L2.4882809375,19C1.8212449375,19,1.2724609375,18.441,1.2724609375,17.741L1.2724609375,4.52319C1.2724609375,3.82315,1.8212449375,3.25,2.4882809375,3.25L8.018870937500001,3.25013L8.018870937500001,2.26607C8.018870937500001,1.5660319999999999,8.5759009375,1,9.2429409375,1L13.9531609375,1C14.1222609375,1,14.2892609375,1.0390022,14.4392609375,1.109006C14.4542609375,1.116006,14.4712609375,1.123007,14.4862609375,1.132007C14.5112609375,1.144008,14.5352609375,1.158009,14.5582609375,1.17201C14.6472609375,1.229013,14.7292609375,1.295016,14.8052609375,1.374021ZM9.224940937500001,15.4848L17.5233609375,15.4848L17.5243609375,15.4858L17.5243609375,6.62531L14.5892609375,6.62531C13.9221609375,6.62531,13.3651609375,6.05928,13.3651609375,5.35924L13.3651609375,2.26607L9.224940937500001,2.26607L9.224940937500001,15.4848ZM16.867360937500003,5.36024L14.5722609375,2.94011L14.5722609375,5.36024L16.867360937500003,5.36024ZM2.4775409374999997,17.7349L12.6767609375,17.7349L12.6776609375,17.7349L12.6776609375,16.7509L9.2419409375,16.7509C8.5749009375,16.7509,8.018870937500001,16.1848,8.018870937500001,15.4848L8.018870937500001,4.5161999999999995L2.4775409374999997,4.516109999999999L2.4775409374999997,17.7349ZM13.8533609375,9.01656C14.1863609375,9.01656,14.4564609375,8.73354,14.4564609375,8.38352L14.4554609375,8.38352C14.4554609375,8.0335,14.1853609375,7.75049,13.8523609375,7.75049L10.7672109375,7.75049C10.4342009375,7.75049,10.1641809375,8.0335,10.1641809375,8.38352C10.1641809375,8.73354,10.4342009375,9.01656,10.7672109375,9.01656L13.8533609375,9.01656ZM6.8533809375,10.01656C7.1864009375,10.01656,7.4564209375,9.73354,7.4564209375,9.38352L7.4554209375,9.38352C7.4554209375,9.0335,7.1854009375,8.75049,6.8523909375,8.75049L3.7672109375,8.75049C3.4342009375,8.75049,3.1641809375000003,9.0335,3.1641809375000003,9.38352C3.1641809375000003,9.73354,3.4342009375,10.01656,3.7672109375,10.01656L6.8533809375,10.01656ZM15.9984609375,11.2667C16.3325609375,11.2667,16.6025609375,10.98367,16.6025609375,10.63365C16.6025609375,10.28363,16.3325609375,10.00061,15.9984609375,10.00061L10.7682109375,10.00061C10.4351909375,10.00061,10.1651809375,10.28363,10.1651809375,10.63365C10.1651809375,10.98367,10.4351909375,11.2667,10.7682109375,11.2667L15.9984609375,11.2667ZM6.9980509375,12.2666C7.3320609375,12.2666,7.6025409375,11.9836,7.6025409375,11.6335C7.6025409375,11.2835,7.3320709375,11.0007,6.9980509375,11.0007L3.7682109375,11.0006C3.4352009375,11.0006,3.1651809374999997,11.2836,3.1651809374999997,11.6336C3.1651809374999997,11.9837,3.4352009375,12.2667,3.7682109375,12.2667L6.9980509375,12.2666ZM14.9254609375,13.5168C15.2594609375,13.5168,15.5294609375,13.2338,15.5294609375,12.8838C15.5294609375,12.5338,15.2594609375,12.2507,14.9254609375,12.2507L10.7682109375,12.2507C10.4351909375,12.2507,10.1651809375,12.5338,10.1651809375,12.8838C10.1651809375,13.2338,10.4351909375,13.5168,10.7682109375,13.5168L14.9254609375,13.5168ZM5.9257809375,14.5168C6.2598009375,14.5168,6.5293009375,14.2338,6.5293009375,13.8838C6.5293009375,13.5338,6.2598009375,13.2507,5.9257809375,13.2507L3.7682109375,13.2507C3.4352009375,13.2507,3.1651809374999997,13.5338,3.1651809374999997,13.8838C3.1651809374999997,14.2338,3.4352009375,14.5168,3.7682109375,14.5168L5.9257809375,14.5168Z" fill-rule="evenodd" fill="var(--el-color-primary)" fill-opacity="1" style="mix-blend-mode:passthrough"/></g></g></svg>