<svg xmlns="http://www.w3.org/2000/svg" xmlns:xlink="http://www.w3.org/1999/xlink"  version="1.1" width="16" height="16" viewBox="0 0 16 16"><g><path d="M6.81007,3.31433L8.90752,1.21688Q10.1244,-6.22097e-8,11.8453,0Q13.5662,-6.22097e-8,14.7831,1.21688Q16,2.43375,16,4.15468Q16,5.8756,14.7831,7.09248L12.6861,9.18951L12.6861,9.18951C12.5555,9.32009,12.379,9.39321,12.1949,9.39321C11.8116,9.39321,11.5008,9.08247,11.5008,8.69915C11.5008,8.51507,11.574,8.33853,11.7041,8.20837L13.8016,6.11092Q14.6119,5.30062,14.6119,4.15468Q14.6119,3.00874,13.8016,2.19843Q12.9913,1.38813,11.8453,1.38813Q10.6994,1.38813,9.88908,2.19843L7.79163,4.29588C7.66147,4.42604,7.48493,4.49917,7.30085,4.49917C6.91753,4.49917,6.60679,4.18842,6.60679,3.8051C6.60679,3.62103,6.67991,3.44449,6.81007,3.31433ZM2.41189,3.10595C2.41189,3.29003,2.48501,3.46657,2.61517,3.59673L12.4029,13.3844L12.4029,13.3844C12.5334,13.515,12.71,13.5881,12.894,13.5881C13.2774,13.5881,13.5881,13.2774,13.5881,12.894C13.5881,12.71,13.515,12.5334,13.3848,12.4033L3.59673,2.61518C3.46657,2.48501,3.29003,2.41189,3.10595,2.41189C2.72263,2.41189,2.41189,2.72263,2.41189,3.10595ZM4.49917,7.30085C4.49917,7.48493,4.42604,7.66147,4.29588,7.79163L4.29588,7.79163L2.19843,9.88908Q1.38813,10.6994,1.38813,11.8453Q1.38813,12.9913,2.19843,13.8016Q3.00873,14.6119,4.15468,14.6119Q5.30062,14.6119,6.11092,13.8016L8.20837,11.7041C8.33854,11.574,8.51507,11.5008,8.69915,11.5008C9.08247,11.5008,9.39321,11.8116,9.39321,12.1949C9.39321,12.379,9.32009,12.5555,9.18993,12.6857L9.18993,12.6857L7.09248,14.7831Q5.8756,16,4.15468,16Q2.43375,16,1.21688,14.7831Q3.11048e-7,13.5662,0,11.8453Q-3.11048e-7,10.1244,1.21688,8.90752L3.31433,6.81007C3.44449,6.67991,3.62103,6.60679,3.8051,6.60679C4.18842,6.60679,4.49917,6.91753,4.49917,7.30085Z" fill-rule="evenodd" fill-opacity="1" style="mix-blend-mode:passthrough"/></g></svg>