<svg xmlns="http://www.w3.org/2000/svg" xmlns:xlink="http://www.w3.org/1999/xlink" version="1.1" width="16" height="16" viewBox="0 0 16 16"><g><path d="M15.99993896484375,7.999999482421876C15.99993896484375,12.418269482421875,12.41823896484375,15.999969482421875,7.99998896484375,15.999969482421875C3.58170896484375,15.999969482421875,-0.000015258756250000002,12.418269482421875,-0.000015258756250000002,7.999999482421876C-0.000015258756250000002,3.581719482421875,3.58170896484375,2.187500000068324e-11,7.99998896484375,2.187500000068324e-11C12.41823896484375,2.187500000068324e-11,15.99993896484375,3.581719482421875,15.99993896484375,7.999999482421876ZM14.61183896484375,7.999999482421876C14.61183896484375,4.348359482421875,11.65163896484375,1.388129482421875,7.99998896484375,1.388129482421875C4.34834896484375,1.388129482421875,1.38810896484375,4.348359482421875,1.38810896484375,7.999999482421876C1.38810896484375,11.651669482421875,4.34834896484375,14.611869482421875,7.99998896484375,14.611869482421875C11.65163896484375,14.611869482421875,14.61183896484375,11.651669482421875,14.61183896484375,7.999999482421876ZM11.82513896484375,7.999999482421876C11.82513896484375,7.616679482421875,11.51443896484375,7.305939482421875,11.13113896484375,7.305939482421875L4.86886896484375,7.305939482421875C4.48554896484375,7.305939482421875,4.17480896484375,7.616679482421875,4.17480896484375,7.999999482421876C4.17480896484375,8.383319482421875,4.48554896484375,8.694069482421876,4.86886896484375,8.694069482421876L11.13113896484375,8.694069482421876C11.51443896484375,8.694069482421876,11.82513896484375,8.383319482421875,11.82513896484375,7.999999482421876Z" fill-rule="evenodd"  fill-opacity="1"/></g></svg>