<svg xmlns="http://www.w3.org/2000/svg" xmlns:xlink="http://www.w3.org/1999/xlink" fill="var(--el-color-primary)" version="1.1" width="40" height="40" viewBox="0 0 40 40"><defs><clipPath id="master_svg0_37_85405"><rect x="0" y="0" width="40" height="40" rx="0"/></clipPath><linearGradient x1="0.5" y1="0" x2="0.5" y2="1" id="master_svg1_sa7_31586"><stop offset="0%" stop-color="var(--el-color-primary)" stop-opacity="1"/><stop offset="100%" stop-color="var(--el-color-primary)" stop-opacity="1"/></linearGradient></defs><g clip-path="url(#master_svg0_37_85405)"><g><path d="M16.467553125000002,1.00048166975L16.366853125,1.00048166975C13.119853125,1.00048166975,10.547313125,1.00048166975,8.533363125000001,1.27027571875C6.462413125,1.54956871875,4.782853125,2.13665171875,3.460493125,3.45902171875C2.138123125,4.78138171875,1.551039125,6.46094171875,1.271746125,8.53189171875C1.001953125,10.54394171875,1.001953125,13.11651171875,1.001953125,16.36541171875L1.001953125,16.46611171875C1.028933425,17.17851171875,1.614277125,17.74201171875,2.327173125,17.74201171875C3.040063125,17.74201171875,3.625403125,17.17851171875,3.652383125,16.46611171875C3.652383125,13.09561171875,3.656183125,10.70163171875,3.899383125,8.88528171875C4.138773125,7.10692171875,4.587163125,6.08285171875,5.333843125,5.33427171875C6.084323125,4.585691718750001,7.108393125,4.13730171875,8.886753125,3.89791171875C10.703103125,3.65471171875,13.097053125,3.65091171875,16.467553125000002,3.65091171875C17.219153125,3.67937171875,17.843953125,3.07780171875,17.843953125,2.32570171875C17.843953125,1.57359471875,17.219153125,0.97201941875,16.467553125000002,1.00048166975ZM23.535353125,3.65091171875C26.905853125,3.65091171875,29.299853125,3.65471171875,31.116153125,3.89791171875C32.894553125,4.13730171875,33.920553125,4.585691718750001,34.667153125,5.33237171875C35.415753125,6.08285171875,35.864153125,7.10692171875,36.103553125,8.88528171875C36.346753125,10.70163171875,36.350553125,13.09561171875,36.350553125,16.46611171875C36.322153125,17.21761171875,36.923653125,17.84241171875,37.675753125,17.84241171875C38.427853125,17.84241171875,39.029453125,17.21761171875,39.000953125,16.46611171875L39.000953125,16.36541171875C39.000953125,13.11841171875,39.000953125,10.54584171875,38.731153125,8.53189171875C38.451853125,6.46094171875,37.864853125,4.78138171875,36.542453125,3.45902171875C35.220053125,2.13665171875,33.540553125,1.54956771875,31.469553125,1.27027471875C29.457553125,1.00048133075,26.884953125,1.00048133075,23.636053125,1.00048133075L23.535353125,1.00048133075C22.822953125,1.02745681875,22.259353125,1.6128017187500001,22.259353125,2.32570171875C22.259353125,3.03859171875,22.822953125,3.62394171875,23.535353125,3.65091171875ZM5.862303125,16.46611171875C5.862303125,11.46541171875,5.862303125,8.966971718749999,7.416463125,7.41471171875C8.968723125,5.86054171875,11.469053125,5.86054171875,16.465953125,5.86054171875L23.537553125,5.86054171875C28.536353125,5.86054171875,31.034753125,5.86054171875,32.588953125,7.41470171875C34.141153125,8.96696171875,34.141153125,11.46731171875,34.141153125,16.46421171875L34.141153125,23.53581171875C34.141153125,28.53461171875,34.141153125,31.03301171875,32.588953125,32.587111718749995C31.034753125,34.13941171875,28.536353125,34.13941171875,23.535653125,34.13941171875L16.467853124999998,34.13941171875C11.467153125,34.13941171875,8.968723125,34.13941171875,7.416463125,32.587111718749995C5.862303125,31.03301171875,5.862303125,28.53461171875,5.862303125,23.53391171875L5.862303125,16.46611171875ZM16.908653125,17.01711171875C16.908653125,18.29761171875,16.217053125,19.33501171875,15.362053125,19.33501171875C14.508953125,19.33501171875,13.815453125,18.29761171875,13.815453125,17.01521171875C13.815453125,15.73461171875,14.507053125,14.69531171875,15.362053125,14.69531171875C16.217053125,14.69531171875,16.908653125,15.73461171875,16.908653125,17.01711171875ZM24.641453125,19.33501171875C25.494453125,19.33501171875,26.187953125,18.29761171875,26.187953125,17.01521171875C26.187953125,15.73461171875,25.496353125,14.69531171875,24.641453125,14.69531171875C23.786453125,14.69531171875,23.094853125,15.73461171875,23.094853125,17.01711171875C23.094853125,18.29761171875,23.786453125,19.33501171875,24.641453125,19.33501171875ZM3.652383125,23.53391171875C3.652383125,22.80241171875,3.059603125,22.20961171875,2.3281231250000003,22.20961171875C1.594740125,22.20961171875,1.001953125,22.80241171875,1.001953125,23.53391171875L1.001953125,23.63461171875C1.001953125,26.88161171875,1.001953125,29.45411171875,1.271746125,31.46811171875C1.551039125,33.53901171875,2.138123125,35.21861171875,3.460493125,36.54101171875C4.782853125,37.86331171875,6.462413125,38.45041171875,8.533363125000001,38.72971171875C10.545403125,38.99951171875,13.117953125,38.99951171875,16.366853125,38.99951171875L16.467553125000002,38.99951171875C17.219153125,39.02801171875,17.843953125,38.42641171875,17.843953125,37.67431171875C17.843953125,36.92221171875,17.219153125,36.32061171875,16.467553125000002,36.34911171875C13.097053125,36.34911171875,10.703103125,36.34531171875,8.886753125,36.10211171875C7.108393125,35.86271171875,6.084323125,35.41431171875,5.335743125,34.66761171875C4.587163125,33.91901171875,4.138773125,32.89301171875,3.899373125,31.11471171875C3.656183125,29.29831171875,3.652383125,26.90441171875,3.652383125,23.53391171875ZM39.000953125,23.53391171875C39.000953125,22.80241171875,38.408153125,22.20961171875,37.674853125,22.20961171875C36.943353125,22.20961171875,36.350553125,22.80241171875,36.350553125,23.53391171875C36.350553125,26.90441171875,36.346753125,29.29831171875,36.103553125,31.11471171875C35.864153125,32.89301171875,35.415753125,33.91901171875,34.669053125,34.66571171875C33.920553125,35.41431171875,32.894553125,35.86271171875,31.116153125,36.10211171875C29.299853125,36.34531171875,26.905853125,36.34911171875,23.535353125,36.34911171875C22.822953125,36.37601171875,22.259353125,36.96141171875,22.259353125,37.67431171875C22.259353125,38.38721171875,22.822953125,38.97251171875,23.535353125,38.99951171875L23.636053125,38.99951171875C26.883053125,38.99951171875,29.455653125,38.99951171875,31.469553125,38.72971171875C33.540553125,38.45041171875,35.220053125,37.86331171875,36.542453125,36.54101171875C37.864853125,35.21861171875,38.451853125,33.53901171875,38.731153125,31.46811171875C39.000953125,29.45601171875,39.000953125,26.88351171875,39.000953125,23.63461171875L39.000953125,23.53391171875ZM16.053653125,24.59031171875C15.538553125,24.20871171875,14.811653125,24.31761171875,14.431053125,24.83341171875C14.049053125,25.34611171875,14.157153125,26.07301171875,14.672353125,26.45411171875C16.211653124999998,27.60351171875,18.080653125,28.22581171875,20.001753125,28.22871171875C21.922853125,28.22581171875,23.791753125,27.60351171875,25.331053125,26.45411171875C25.845753125,26.07271171875,25.953853125,25.34621171875,25.572353125,24.83151171875C25.190953125,24.31691171875,24.464553125,24.20881171875,23.949853125,24.59031171875C22.825053125,25.42621171875,21.464653125,25.90881171875,20.001753125,25.90881171875C18.538753125,25.90881171875,17.178453125,25.42621171875,16.053653125,24.59031171875Z" fill-rule="evenodd" fill="url(#master_svg1_sa7_31586)" fill-opacity="1"/></g></g></svg>