<svg xmlns="http://www.w3.org/2000/svg" xmlns:xlink="http://www.w3.org/1999/xlink" fill="var(--el-color-primary)" version="1.1" width="24" height="24" viewBox="0 0 24 24"><defs><clipPath id="master_svg0_38_93673"><rect x="0" y="0" width="24" height="24" rx="0"/></clipPath></defs><g clip-path="url(#master_svg0_38_93673)"><g><rect x="15.427734375" y="4" width="4.5714287757873535" height="16" rx="0" fill="var(--el-color-primary-hb)" fill-opacity="1"/></g><g><path d="M3.3000000115,9.777818828125L3.3000000115,19.500048828125Q3.3000000115,20.700048828125,4.5000046875,20.700048828125L14.2144046875,20.700048828125L14.2222046875,20.700048828125L16.888904687500002,20.700048828125L16.896704687499998,20.700048828125L19.5000046875,20.700048828125Q20.7000046875,20.700048828125,20.7000046875,19.500048828125L20.7000046875,4.499998828125Q20.7000046875,3.300000011925,19.5000046875,3.300000011925L4.5000046875,3.300000011925Q3.3000000115,3.300000011925,3.3000000115,4.499998828125L3.3000000115,9.777818828125ZM4.7000046875,9.777818828125L4.7000046875,19.300048828125L14.8556046875,19.300048828125L14.8556046875,9.144488828124999L4.7000046875,9.144488828124999L4.7000046875,9.777818828125ZM4.7000046875,7.744488828125L14.8558046875,7.744488828125L14.8558046875,4.6999988281250005L4.7000046875,4.6999988281250005L4.7000046875,7.744488828125ZM16.2558046875,4.6999988281250005L16.2558046875,10.222198828125Q16.2558046875,10.231518828125001,16.2556046875,10.240828828125L16.2556046875,19.300048828125L19.3000046875,19.300048828125L19.3000046875,4.6999988281250005L16.2558046875,4.6999988281250005Z" fill-rule="evenodd" fill="var(--el-color-primary)" fill-opacity="1" style="mix-blend-mode:passthrough"/></g></g></svg>