<svg xmlns="http://www.w3.org/2000/svg" xmlns:xlink="http://www.w3.org/1999/xlink" fill="var(--el-color-primary)" version="1.1" width="40" height="40" viewBox="0 0 40 40"><defs><clipPath id="master_svg0_37_85430"><rect x="0" y="0" width="40" height="40" rx="0"/></clipPath><linearGradient x1="0.5" y1="0" x2="0.5" y2="1" id="master_svg1_sa7_31586"><stop offset="0%" stop-color="var(--el-color-primary)" stop-opacity="1"/><stop offset="100%" stop-color="var(--el-color-primary)" stop-opacity="1"/></linearGradient></defs><g clip-path="url(#master_svg0_37_85430)"><g><path d="M8.572265625,5C8.572265625,2.24,10.812265625,0,13.572265625,0L26.429365625,0C29.189365625,0,31.429365625,2.24,31.429365625,5L31.429365625,35C31.429365625,37.7614,29.190865625,40,26.429365625,40L13.572265625,40C10.810845624999999,40,8.572265625,37.7614,8.572265625,35L8.572265625,5ZM17.143695625,31.4286C16.354715625,31.4286,15.715125624999999,32.0682,15.715125624999999,32.8571C15.715125624999999,33.6461,16.354715625,34.2857,17.143695625,34.2857L22.857965625,34.2857C23.646965625,34.2857,24.286565625,33.6461,24.286565625,32.8571C24.286565625,32.0682,23.646965625,31.4286,22.857965625,31.4286L17.143695625,31.4286Z" fill="url(#master_svg1_sa7_31586)" fill-opacity="1"/></g></g></svg>