<svg xmlns="http://www.w3.org/2000/svg" xmlns:xlink="http://www.w3.org/1999/xlink" fill="var(--el-color-primary)" version="1.1" width="40" height="40" viewBox="0 0 40 40"><defs><clipPath id="master_svg0_37_85379"><rect x="0" y="0" width="40" height="40" rx="0"/></clipPath><linearGradient x1="0.5" y1="0" x2="0.5" y2="1" id="master_svg1_sa7_31586"><stop offset="0%" stop-color="var(--el-color-primary)" stop-opacity="1"/><stop offset="100%" stop-color="var(--el-color-primary)" stop-opacity="1"/></linearGradient></defs><g clip-path="url(#master_svg0_37_85379)"><g><path d="M7.64822875,5.833736953124999C15.43861875,0.30770695312500007,26.57261875,0.7593869531249999,33.77541875,6.904966953125C41.10421875,13.154476953125,42.10541875,23.369176953125,36.07781875,30.681876953125C30.39791875,37.570876953125,20.15921875,39.841276953125,11.63331875,36.287876953125L11.16971875,36.085976953125L2.42598875,37.946676953125L2.27608875,37.972676953125L2.05624875,37.990576953125L1.83040875,37.982576953125L1.74247875,37.972676953125L1.52262875,37.932676953125L1.31278875,37.864676953125L1.11292875,37.776776953125L0.96103675,37.692876953125L0.74519175,37.538976953125L0.58330775,37.391076953125L0.43741275,37.225176953125L0.33148875,37.075276953125L0.20158275,36.845476953125L0.11764275,36.633576953125L0.05568715,36.407776953125L0.02970595,36.257876953125L0.01171875,36.037976953125L0.01971314,35.812176953125L0.02970595,35.724276953125L0.06967715,35.504376953125L0.11364575,35.360476953125L2.41198875,28.463476953125L2.36802875,28.391476953125C-2.04879125,20.902876953125,-0.04823385,11.619576953125,7.18656875,6.171496953125L7.64623875,5.835736953125L7.64822875,5.833736953124999Z" fill="url(#master_svg1_sa7_31586)" fill-opacity="1"/></g></g></svg>