<svg xmlns="http://www.w3.org/2000/svg" xmlns:xlink="http://www.w3.org/1999/xlink" fill="var(--el-color-primary)" version="1.1" width="40" height="40" viewBox="0 0 40 40"><defs><clipPath id="master_svg0_37_85344"><rect x="0" y="0" width="40" height="40" rx="0"/></clipPath><linearGradient x1="0.5" y1="0" x2="0.5" y2="1" id="master_svg1_sa7_31586"><stop offset="0%" stop-color="var(--el-color-primary)" stop-opacity="1"/><stop offset="100%" stop-color="var(--el-color-primary)" stop-opacity="1"/></linearGradient></defs><g clip-path="url(#master_svg0_37_85344)"><g><path d="M16,4.000007629394531L24,4.000007629394531C31.542,4.000007629394531,35.314,4.000007629394531,37.656,6.344007629394531C39.998,8.68800762939453,40,12.458007629394531,40,20.00000762939453C40,27.542007629394533,40,31.31400762939453,37.656,33.65600762939453C35.312,35.998007629394536,31.542,36.00000762939453,24,36.00000762939453L16,36.00000762939453C8.458,36.00000762939453,4.686,36.00000762939453,2.344,33.65600762939453C0.00199735,31.312007629394532,0,27.542007629394533,0,20.00000762939453C0,12.458007629394531,0,8.686007629394531,2.344,6.344007629394531C4.688,4.002006769394531,8.458,4.000007629394531,16,4.000007629394531ZM22.5,14.000007629394531C22.5,13.17157762939453,23.1716,12.500007629394531,24,12.500007629394531L34,12.500007629394531C34.8284,12.500007629394531,35.5,13.17157762939453,35.5,14.000007629394531C35.5,14.828407629394531,34.8284,15.500007629394531,34,15.500007629394531L24,15.500007629394531C23.1716,15.500007629394531,22.5,14.828407629394531,22.5,14.000007629394531ZM24.5,20.00000762939453C24.5,19.17160762939453,25.1716,18.50000762939453,26,18.50000762939453L34,18.50000762939453C34.8284,18.50000762939453,35.5,19.17160762939453,35.5,20.00000762939453C35.5,20.82840762939453,34.8284,21.50000762939453,34,21.50000762939453L26,21.50000762939453C25.1716,21.50000762939453,24.5,20.82840762939453,24.5,20.00000762939453ZM26.5,26.00000762939453C26.5,25.171607629394533,27.1716,24.50000762939453,28,24.50000762939453L34,24.50000762939453C34.8284,24.50000762939453,35.5,25.171607629394533,35.5,26.00000762939453C35.5,26.82840762939453,34.8284,27.50000762939453,34,27.50000762939453L28,27.50000762939453C27.1716,27.50000762939453,26.5,26.82840762939453,26.5,26.00000762939453ZM18,14.000007629394531C18.0011,16.20990762939453,16.2099,18.002007629394534,14,18.002007629394534C11.7901,18.002007629394534,9.99892,16.20990762939453,10,14.000007629394531C10,11.790867629394532,11.7909,10.000007629394531,14,10.000007629394531C16.2091,10.000007629394531,18,11.790867629394532,18,14.000007629394531ZM14,30.00000762939453C22,30.00000762939453,22,28.210007629394532,22,26.00000762939453C22,23.79000762939453,18.42,22.00000762939453,14,22.00000762939453C9.58,22.00000762939453,6,23.79000762939453,6,26.00000762939453C6,28.210007629394532,6,30.00000762939453,14,30.00000762939453Z" fill-rule="evenodd" fill="url(#master_svg1_sa7_31586)" fill-opacity="1"/></g></g></svg>