<svg xmlns="http://www.w3.org/2000/svg" xmlns:xlink="http://www.w3.org/1999/xlink" fill="var(--el-color-primary)" version="1.1" width="20" height="20" viewBox="0 0 20 20"><defs><clipPath id="master_svg0_sa33_043313"><rect x="0" y="0" width="20" height="20" rx="0"/></clipPath></defs><g clip-path="url(#master_svg0_sa33_043313)"><g><g><g><path d="M12.26156,5.8125L6.07178,5.8125C5.61154,5.8125,5.238440000000001,5.4394,5.238440000000001,4.97917L5.238440000000001,3L2.5,3L2.5,18L15.8333,18L15.8333,3L13.0949,3L13.0949,4.97917C13.0949,5.4394,12.7218,5.8125,12.26156,5.8125" fill="var(--el-color-primary-hb)" fill-opacity="1" style="mix-blend-mode:passthrough"/></g><g><path d="M15.0002921875,2.16667L11.5169921875,2.16667C11.1669921875,1.2,10.2503221875,0.5,9.1669921875,0.5C8.0836621875,0.5,7.1669921875,1.2,6.8169921875,2.16667L3.3336621875,2.16667C2.4169921875,2.16667,1.6669921875,2.91667,1.6669921875,3.83333L1.6669921875,17.1667C1.6669921875,18.0833,2.4169921875,18.8333,3.3336621875,18.8333L15.0002921875,18.8333C15.9169921875,18.8333,16.6669921875,18.0833,16.6669921875,17.1667L16.6669921875,3.83333C16.6669921875,2.91667,15.9169921875,2.16667,15.0002921875,2.16667ZM9.1669921875,2.16667C9.6253221875,2.16667,10.0003221875,2.54167,10.0003221875,3C10.0003221875,3.45833,9.6253221875,3.83333,9.1669921875,3.83333C8.7086621875,3.83333,8.3336621875,3.45833,8.3336621875,3C8.3336621875,2.54167,8.7086621875,2.16667,9.1669921875,2.16667ZM14.8169921875,17.5833L3.5169921875,17.5833C3.1856221875,17.5833,2.9169921875,17.3147,2.9169921875,16.9833L2.9169921875,4.0166699999999995C2.9169921875,3.6853,3.1856221875,3.41667,3.5169921875,3.41667L4.4003221875000005,3.41667C4.7316921875,3.41667,5.0003221875,3.6853,5.0003221875,4.0166699999999995L5.0003221875,5.5C5.0003221875,5.96024,5.3734221875,6.33333,5.8336621875,6.33333L12.5002921875,6.33333C12.9605921875,6.33333,13.3336921875,5.96024,13.3336921875,5.5L13.3336921875,4.0166699999999995C13.3336921875,3.6853,13.6022921875,3.41667,13.9336921875,3.41667L14.8169921875,3.41667C15.1483921875,3.41667,15.4169921875,3.6853,15.4169921875,4.0166699999999995L15.4169921875,16.9833C15.4169921875,17.3147,15.1483921875,17.5833,14.8169921875,17.5833" fill="var(--el-color-primary)" fill-opacity="1" style="mix-blend-mode:passthrough"/></g></g><g><g><path d="M8.888671875,18.259171953124998Q8.889292733,18.771551953124998,9.253449875,19.135751953125002Q9.617606875,19.499951953125,10.129411875,19.499951953125L16.953491874999997,19.499951953125Q17.465911875,19.500551953124997,17.830071875,19.135751953125002Q18.194231875,18.770951953125,18.194231875,18.259171953124998L18.194231875,12.469691953125C18.194231875,12.204471953125001,18.088871875000002,11.950111953124999,17.901331875,11.762581953125L14.764901875,8.626144953125C14.577361875000001,8.438608953125,14.323011874999999,8.333251953125,14.057791875,8.333251953125L10.129411875,8.333251953125Q9.618227875,8.333872334125,9.253449875,8.698029953125Q8.888671875,9.062186953125,8.888671875,9.573991953125L8.888671875,18.259171953124998Z" fill="var(--el-color-primary)" fill-opacity="1" style="mix-blend-mode:passthrough"/></g><g><path d="M10.1298828125,17.85939875C10.1298828125,18.08031875,10.3089688125,18.259398750000003,10.5298828125,18.259398750000003L16.5539628125,18.259398750000003C16.7748728125,18.259398750000003,16.953962812500002,18.08031875,16.953962812500002,17.85939875L16.953962812500002,13.076068750000001C16.953962812500002,12.855158750000001,16.7748728125,12.67606875,16.5539628125,12.67606875L14.2521028125,12.67606875C14.0311928125,12.67606875,13.8521028125,12.49698875,13.8521028125,12.27606875L13.8521028125,9.97421875C13.8521028125,9.75330475,13.673022812500001,9.57421875,13.4521028125,9.57421875L10.1298828125,9.57421875L10.1298828125,12.67606875L10.1298828125,17.85939875Z" fill="var(--el-color-primary-hb)" fill-opacity="1" style="mix-blend-mode:passthrough"/></g></g></g></g></svg>