<svg xmlns="http://www.w3.org/2000/svg" xmlns:xlink="http://www.w3.org/1999/xlink" fill="var(--el-color-primary)" version="1.1" width="24" height="24" viewBox="0 0 24 24"><defs><clipPath id="master_svg0_sa33_043074"><rect x="0" y="0" width="24" height="24" rx="0"/></clipPath></defs><g clip-path="url(#master_svg0_sa33_043074)"><g><path d="M2.97728025,10.754921015625001L2.97728195,10.754841015625Q3.02654495,8.467101015625001,3.16715075,7.658211015625Q3.40234875,6.305151015625,4.20605375,5.498611015625Q5.01060375,4.690496015625,6.38948375,4.450243015625Q7.21363375,4.306645115625,9.55943375,4.247795415625L9.56279375,4.247711115625Q11.99795375,4.186263815625,14.43304375,4.247708715625L14.43644375,4.247795515625Q16.78224375,4.306645315625,17.60644375,4.450243015625Q18.98534375,4.690496015625,19.78964375,5.498391015625Q20.59354375,6.305151015625,20.82874375,7.658211015625Q20.96934375,8.467081015625,21.01864375,10.754841015625L21.01864375,10.755791015625Q21.04384375,11.999991015625,21.01864375,13.245061015625L21.01864375,13.245141015625Q20.96934375,15.532941015625,20.82874375,16.341741015625Q20.59354375,17.694841015625002,19.78984375,18.501341015625Q18.98524375,19.309441015624998,17.60644375,19.549741015625003Q16.78224375,19.693341015625002,14.43644375,19.752141015625L14.43344375,19.752241015625Q11.99795375,19.815041015625,9.56289375,19.752241015625L9.559463749999999,19.752141015625Q7.21363375,19.693341015625002,6.38949375,19.549741015625003Q5.01060375,19.309441015624998,4.20627375,18.501541015625Q3.4022437500000002,17.694741015625,3.16723475,16.341641015625Q3.02661355,15.532041015625,2.97812725,13.245671015625Q2.95042775,12.009861015624999,2.97727855,10.755011015625L2.97728025,10.754921015625001ZM4.37695375,10.784961015625L4.37695375,10.785061015625Q4.3507637500000005,12.009201015624999,4.37777375,13.214301015625Q4.42405375,15.396641015625,4.54658375,16.102041015624998Q4.70595375,17.019641015624998,5.1979637499999995,17.513341015625002Q5.6890037499999995,18.006641015625,6.629803750000001,18.170541015625Q7.35209375,18.296341015625,9.59457375,18.352641015625L9.59800375,18.352741015625Q11.99795375,18.414541015624998,14.39744375,18.352741015625L14.40134375,18.352641015625Q16.643843750000002,18.296341015625,17.36614375,18.170541015625Q18.306943750000002,18.006641015625,18.797743750000002,17.513641015624998Q19.28994375,17.019641015624998,19.44944375,16.102041015624998Q19.57194375,15.397141015625,19.61894375,13.215001015625L19.61894375,13.214921015625Q19.64354375,12.000381015624999,19.61894375,10.784981015625L19.61894375,10.784181015625Q19.57194375,8.602671015624999,19.44944375,7.897971015625Q19.28994375,6.980311015625,18.79794375,6.486591015625001Q18.306943750000002,5.993391015625,17.36614375,5.829461015625Q16.643843750000002,5.703611015625,14.40134375,5.647351015625L14.39784375,5.647271015625Q11.99795375,5.586711015625,9.59811375,5.647261015625L9.59454375,5.647351015625Q7.35209375,5.703611015625,6.62979375,5.829461015625Q5.68899375,5.993391015625,5.19818375,6.486371015625Q4.70598375,6.980311015625,4.54646375,7.897971015625Q4.42394375,8.602811015625,4.37695375,10.784961015625ZM10.63996375,9.930691015625001L8.18837375,8.480741015625Q8.02354375,8.383251015625,7.83203375,8.383251015625Q7.76308375,8.383251015625,7.69546375,8.396701015625Q7.62784375,8.410151015625,7.56415375,8.436531015625Q7.50045375,8.462921015625,7.44313375,8.501221015625Q7.38580375,8.539521015624999,7.33705375,8.588281015625Q7.28830375,8.637031015625,7.25000375,8.694351015625Q7.21169375,8.751681015625,7.18531375,8.815371015625Q7.15893375,8.879071015625,7.14548375,8.946691015625Q7.13203375,9.014311015625001,7.13203375,9.083251015624999Q7.13203375,9.174471015624999,7.15541375,9.262651015625Q7.17878375,9.350821015625,7.22398375,9.430061015625Q7.26918375,9.509301015624999,7.33317375,9.574311015625Q7.39716375,9.639321015625,7.47568375,9.685761015625001L9.927433749999999,11.135811015625Q10.53896375,11.497381015624999,10.97193375,11.662581015625001Q11.50772375,11.867001015625,11.99838375,11.867001015625Q12.48900375,11.867001015625,13.02494375,11.662611015625Q13.45794375,11.497431015625,14.07004375,11.135761015625L16.52174375,9.685761015625001Q16.60024375,9.639321015625,16.66424375,9.574311015625Q16.72824375,9.509301015624999,16.77344375,9.430061015625Q16.81864375,9.350831015625001,16.84194375,9.262651015625Q16.86534375,9.174471015624999,16.86534375,9.083251015624999Q16.86534375,9.014311015625001,16.85194375,8.946691015625Q16.83844375,8.879071015625,16.81204375,8.815371015625Q16.78574375,8.751681015625,16.74734375,8.694351015625Q16.70904375,8.637031015625,16.66034375,8.588281015625Q16.61154375,8.539531015625,16.554243749999998,8.501221015625Q16.49694375,8.462921015625,16.433243750000003,8.436541015625Q16.36954375,8.410151015625,16.30194375,8.396701015625Q16.23434375,8.383251015625,16.165343749999998,8.383251015625Q15.97384375,8.383251015625,15.80904375,8.480741015625L15.80864375,8.480951015625L13.35734375,9.930741015625Q12.44983375,10.467001015625,11.99838375,10.467001015625Q11.54703375,10.467001015625,10.63996375,9.930691015625001Z" fill-rule="evenodd" fill="var(--el-color-primary)" fill-opacity="1" style="mix-blend-mode:passthrough"/></g></g></svg>