<svg xmlns="http://www.w3.org/2000/svg" xmlns:xlink="http://www.w3.org/1999/xlink" version="1.1"
    width="15.980987548828125" height="16" viewBox="0 0 15.980987548828125 16">
    <g>
        <path
            d="M3.39936,14.5088Q0.001233,12.1293,0,7.98094C0,7.59847,0.309789,7.28869,0.691934,7.28869C1.074,7.28869,1.38376,7.59835,1.38387,7.98042Q1.38493,11.4088,4.19314,13.3752Q7.00143,15.3417,10.2234,14.1702Q13.4454,12.9987,14.3348,9.68773Q15.2242,6.37677,13.023,3.74844Q10.8217,1.12012,7.40607,1.41467Q4.63676,1.65348,2.98289,3.6486L5.24206,3.6486C5.6242,3.6486,5.93399,3.95839,5.93399,4.34054C5.93399,4.72268,5.6242,5.03247,5.24206,5.03247L1.60197,5.03247C1.21982,5.03247,0.910034,4.72268,0.910034,4.34054L0.910034,0.700449C0.910034,0.318304,1.21982,0.0085144,1.60197,0.0085144C1.98411,0.0085144,2.2939,0.318304,2.2939,0.700449L2.2939,2.33451Q4.22815,0.299717,7.28717,0.0359187Q11.4203,-0.320506,14.0839,2.8599Q16.7475,6.04031,15.6713,10.0467Q14.595,14.0532,10.6963,15.4708Q6.79754,16.8884,3.39936,14.5088ZM9.86681,7.98065C9.86681,9.02706,9.01853,9.87534,7.97212,9.87534C6.92571,9.87534,6.07742,9.02706,6.07742,7.98065C6.07742,6.93424,6.92571,6.08595,7.97212,6.08595C9.01853,6.08595,9.86681,6.93424,9.86681,7.98065Z"
            fill-rule="evenodd" fill-opacity="1" style="mix-blend-mode:passthrough" />
    </g>
</svg>