<svg xmlns="http://www.w3.org/2000/svg" xmlns:xlink="http://www.w3.org/1999/xlink"  version="1.1" width="13.077621459960938" height="16" viewBox="0 0 13.077621459960938 16"><g><path d="M1.42465,16L5.44292,16C5.82624,16,6.13698,15.6893,6.13698,15.3059C6.13698,14.9226,5.82624,14.6119,5.44292,14.6119L1.42465,14.6119Q1.38812,14.6119,1.38812,14.5753L1.38812,1.42465Q1.38812,1.38812,1.42465,1.38812L11.653,1.38812Q11.6681,1.38812,11.6788,1.39882Q11.6895,1.40952,11.6895,1.42465L11.6895,9.09589C11.6895,9.47921,12.0002,9.78995,12.3836,9.78995C12.7669,9.78995,13.0776,9.47921,13.0776,9.09589L13.0776,1.42466Q13.0776,0.834545,12.6604,0.417272Q12.2431,0,11.653,0L1.42465,0Q0.834542,0,0.417271,0.417271Q0,0.834542,0,1.42465L0,14.5753Q0,15.1655,0.417271,15.5827Q0.834541,16,1.42465,16ZM3.98173,2.92238C3.59841,2.92238,3.28767,3.23312,3.28767,3.61643C3.28767,3.99975,3.59841,4.31049,3.98173,4.31049L9.09589,4.31049C9.47921,4.31049,9.78995,3.99975,9.78995,3.61643C9.78995,3.23312,9.47921,2.92238,9.09589,2.92238L3.98173,2.92238ZM3.98173,5.84475C3.59841,5.84475,3.28767,6.15549,3.28767,6.53881C3.28767,6.92213,3.59841,7.23287,3.98173,7.23287L9.09589,7.23287C9.47921,7.23287,9.78995,6.92213,9.78995,6.53881C9.78995,6.15549,9.47921,5.84475,9.09589,5.84475L3.98173,5.84475ZM3.98256,8.76713L6.17351,8.76713C6.35759,8.76713,6.53413,8.84025,6.66429,8.97041C6.79445,9.10057,6.86757,9.27711,6.86757,9.46119C6.86757,9.84451,6.55683,10.1552,6.17351,10.1552L3.98173,10.1552C3.59841,10.1552,3.28767,9.84451,3.28767,9.46119C3.28767,9.07787,3.59841,8.76713,3.98256,8.76713ZM6.94608,12.7488Q6.94852,13.7896,7.68458,14.5255Q8.42063,15.2613,9.46137,15.2635Q10.1378,15.2649,10.6866,14.9558L11.5272,15.7965C11.6574,15.9266,11.8339,15.9998,12.018,15.9998C12.4013,15.9998,12.7121,15.689,12.7121,15.3057C12.7121,15.1216,12.6389,14.9451,12.5088,14.8149L11.675,13.9812Q11.9933,13.4327,11.9976,12.748Q12.0042,11.6947,11.2593,10.9498Q10.5144,10.205,9.46096,10.2118Q8.40757,10.2185,7.67225,10.9728Q6.94364,11.7081,6.94608,12.7488ZM10.2691,13.5417Q10.6066,13.2087,10.6095,12.7393Q10.6125,12.2661,10.2778,11.9314Q9.94312,11.5968,9.46986,11.5998Q8.99659,11.6029,8.66623,11.9418Q8.3331,12.278,8.3342,12.7456Q8.33529,13.2132,8.66599,13.5438Q8.99668,13.8744,9.46424,13.8754Q9.93169,13.8763,10.2635,13.5472L10.2691,13.5417Z" fill-rule="evenodd" fill-opacity="1" style="mix-blend-mode:passthrough"/></g></svg>