<svg xmlns="http://www.w3.org/2000/svg" xmlns:xlink="http://www.w3.org/1999/xlink"  version="1.1" width="15.287567138671875" height="16" viewBox="0 0 15.287567138671875 16"><g><path d="M13.1655,2.04636L13.1632,2.04562Q12.6168,1.87129,11.5077,1.2599Q9.22207,0,7.64225,0Q6.06233,0,3.77838,1.25999Q2.67003,1.87143,2.12419,2.04565L2.11029,2.05009Q0.916175,2.432,0.652691,2.7246Q0.382406,3.02334,0.226385,3.8892L0.225308,3.89518Q-0.483715,7.82519,1.03849,10.9808Q2.64199,14.305,6.22,15.675Q7.06749,16,7.64444,16Q8.21967,16,9.07034,15.6743Q12.6476,14.3049,14.2502,10.9806Q15.7712,7.82545,15.0621,3.89504Q14.9054,3.02521,14.634,2.72387Q14.3695,2.43017,13.1655,2.04636ZM10.8376,2.47557Q12.0658,3.15258,12.7413,3.36808L12.7439,3.36892Q13.5896,3.63851,13.6025,3.65275Q13.6093,3.66037,13.696,4.1415Q14.3251,7.62852,12.9998,10.3778Q11.6366,13.2056,8.57325,14.3782Q7.96302,14.6119,7.64444,14.6119Q7.32451,14.6119,6.71638,14.3787Q3.65289,13.2057,2.28876,10.3777Q0.962387,7.62807,1.59143,4.14135L1.59251,4.13536Q1.67813,3.66023,1.68423,3.65348Q1.69655,3.63981,2.53315,3.37224L2.54625,3.36805Q3.22156,3.15252,4.4489,2.47543Q6.41983,1.38813,7.64225,1.38813Q8.86482,1.38813,10.8376,2.47557ZM11.5284,6.46246C11.8055,6.3643,11.9908,6.10221,11.9908,5.80823C11.9908,5.42491,11.68,5.11417,11.2967,5.11417C11.2177,5.11417,11.1394,5.12764,11.0649,5.154Q9.06128,5.86376,6.93389,8.90807Q6.24892,8.03654,5.45194,8.03654C5.06862,8.03654,4.75787,8.34728,4.75787,8.73061C4.75787,9.11393,5.06862,9.42467,5.45194,9.42467Q5.52974,9.42467,5.69175,9.58668Q5.97741,9.87233,6.29234,10.5022C6.34866,10.6148,6.43459,10.7101,6.5409,10.7776C6.86444,10.9832,7.29336,10.8876,7.49894,10.564Q9.69164,7.11312,11.5284,6.46246Z" fill-rule="evenodd"  fill-opacity="1" style="mix-blend-mode:passthrough"/></g></svg>