<svg xmlns="http://www.w3.org/2000/svg" xmlns:xlink="http://www.w3.org/1999/xlink" version="1.1" width="16" height="16" viewBox="0 0 16 16"><g><path d="M0,5.26027L3.73258e-7,1.60731Q3.73258e-7,0.941538,0.470769,0.470769Q0.941538,4.35468e-7,1.60731,6.22097e-8L5.26027,0Q5.92604,4.35468e-7,6.39681,0.470769Q6.86758,0.941539,6.86758,1.60731L6.86758,5.26027Q6.86758,5.92604,6.39681,6.39681Q5.92604,6.86758,5.26027,6.86758L1.60731,6.86758Q0.941539,6.86758,0.470769,6.39681Q4.97677e-7,5.92604,0,5.26027ZM13.2603,2.73973L13.2603,0.694064C13.2603,0.310743,12.9495,0,12.5662,0C12.1829,0,11.8721,0.310743,11.8721,0.694064L11.8721,2.73973L9.82648,2.73973C9.44316,2.73973,9.13242,3.05047,9.13242,3.43379C9.13242,3.61787,9.20554,3.7944,9.33571,3.92457C9.46587,4.05473,9.64241,4.12785,9.82648,4.12785L11.8721,4.12785L11.8721,6.17352C11.8721,6.55684,12.1829,6.86758,12.5662,6.86758C12.9495,6.86758,13.2603,6.55684,13.2603,6.17352L13.2603,4.12785L15.3053,4.12785L15.3053,4.12785C15.6893,4.12785,16,3.81711,16,3.43379C16,3.05047,15.6893,2.73973,15.3059,2.73973L13.2603,2.73973ZM1.38813,5.26027Q1.38813,5.35106,1.45232,5.41526Q1.51652,5.47945,1.60731,5.47945L5.26028,5.47945Q5.35106,5.47945,5.41526,5.41526Q5.47945,5.35106,5.47945,5.26027L5.47945,1.6073Q5.47945,1.51652,5.41526,1.45232Q5.35106,1.38813,5.26027,1.38813L1.60731,1.38813Q1.38813,1.38813,1.38813,1.60731L1.38813,5.26027ZM0,14.3927L3.73258e-7,10.7397Q3.73258e-7,10.074,0.470769,9.60319Q0.941538,9.13242,1.60731,9.13242L5.26027,9.13242Q5.92604,9.13242,6.39681,9.60319Q6.86758,10.074,6.86758,10.7397L6.86758,14.3927Q6.86758,15.0585,6.39681,15.5292Q5.92604,16,5.26027,16L1.60731,16Q0.941537,16,0.470768,15.5292Q4.97677e-7,15.0585,0,14.3927ZM9.13242,14.3927L9.13242,10.7397Q9.13242,10.074,9.60319,9.60319Q10.074,9.13242,10.7397,9.13242L14.3927,9.13242Q15.0585,9.13242,15.5292,9.60319Q16,10.074,16,10.7397L16,14.3927Q16,15.0585,15.5292,15.5292Q15.0585,16,14.3927,16L10.7397,16Q10.074,16,9.60319,15.5292Q9.13242,15.0585,9.13242,14.3927ZM1.38813,14.3927Q1.38813,14.6119,1.60731,14.6119L5.26027,14.6119Q5.35106,14.6119,5.41526,14.5477Q5.47945,14.4835,5.47945,14.3927L5.47945,10.7397Q5.47945,10.6489,5.41526,10.5847Q5.35106,10.5205,5.26027,10.5205L1.60731,10.5205Q1.38813,10.5205,1.38813,10.7397L1.38813,14.3927ZM10.5205,14.3927Q10.5205,14.6119,10.7397,14.6119L14.3927,14.6119Q14.6119,14.6119,14.6119,14.3927L14.6119,10.7397Q14.6119,10.6489,14.5477,10.5847Q14.4835,10.5205,14.3927,10.5205L10.7397,10.5205Q10.5205,10.5205,10.5205,10.7397L10.5205,14.3927Z" fill-rule="evenodd"  fill-opacity="1" style="mix-blend-mode:passthrough"/></g></svg>