<svg xmlns="http://www.w3.org/2000/svg" xmlns:xlink="http://www.w3.org/1999/xlink" version="1.1" width="16" height="16" viewBox="0 0 16 16"><g><path d="M0.139905,12.1011Q0.371722,13.8257,1.27303,14.727Q2.17432,15.6283,3.89918,15.8601Q4.94005,16,8,16Q11.0603,16,12.1011,15.8601Q13.8257,15.6283,14.727,14.727Q15.6283,13.8257,15.8601,12.1008Q16,11.06,16,8Q16,4.93969,15.8601,3.89888Q15.6283,2.17434,14.727,1.27303Q13.8257,0.37174,12.1008,0.139903Q11.0599,0,8,0Q4.93967,0,3.89888,0.139905Q2.17434,0.371721,1.27303,1.27303Q0.37174,2.17432,0.139903,3.89918Q0,4.94006,0,8Q0,11.0603,0.139905,12.1011ZM4.08409,14.4843Q2.82416,14.315,2.25458,13.7454Q1.68498,13.1758,1.51566,11.9162Q1.38813,10.9675,1.38813,8Q1.38813,5.03293,1.51566,4.08409Q1.68501,2.82416,2.25458,2.25458Q2.82419,1.68498,4.08381,1.51566Q5.03255,1.38813,8,1.38813Q10.9671,1.38813,11.9159,1.51566Q13.1758,1.68501,13.7454,2.25458Q14.315,2.82419,14.4843,4.08381Q14.6119,5.03256,14.6119,7.99999Q14.6119,10.9671,14.4843,11.9159Q14.315,13.1758,13.7454,13.7454Q13.1758,14.315,11.9162,14.4843Q10.9674,14.6119,8.00001,14.6119Q5.03292,14.6119,4.08409,14.4843ZM11.2273,5.75477C11.3575,5.62461,11.4306,5.44805,11.4306,5.26395C11.4306,4.88063,11.1199,4.56989,10.7366,4.56989C10.5525,4.56989,10.376,4.64299,10.2456,4.77342L8.00008,7.01847L5.75526,4.77322C5.6251,4.64303,5.44854,4.56989,5.26444,4.56989C4.88112,4.56989,4.57037,4.88063,4.57037,5.26395C4.57037,5.448,4.64348,5.62452,4.77361,5.75468L7.01874,8.00024L4.77366,10.2453C4.6435,10.3755,4.57037,10.552,4.57037,10.7361C4.57037,11.1194,4.88112,11.4302,5.26444,11.4302C5.44851,11.4302,5.62505,11.357,5.75546,11.2266L8.00051,8.98158L10.2458,11.2269C10.376,11.357,10.5525,11.4302,10.7366,11.4302C11.1199,11.4302,11.4306,11.1194,11.4306,10.7361C11.4306,10.552,11.3575,10.3755,11.2274,10.2453L8.98185,7.99981L11.2273,5.75477Z" fill-rule="evenodd"  fill-opacity="1" style="mix-blend-mode:passthrough"/></g></svg>