<svg xmlns="http://www.w3.org/2000/svg" xmlns:xlink="http://www.w3.org/1999/xlink" fill="var(--el-color-primary)" version="1.1" width="14" height="14" viewBox="0 0 14 14"><defs><clipPath id="master_svg0_sa38_81888"><rect x="14" y="0" width="14" height="14" rx="0"/></clipPath></defs><g transform="matrix(0,1,-1,0,14,-14)" clip-path="url(#master_svg0_sa38_81888)"><g><g><path d="M24.85881964691162,12.796812160682679L24.34517964691162,12.796812160682679C24.23471964691162,12.796812160682679,24.14517964691162,12.707312160682678,24.14517964691162,12.596812160682678L24.14517964691162,11.569612160682679C24.14517964691162,11.459112160682679,24.23471964691162,11.369582160682679,24.34517964691162,11.369582160682679L24.85881964691162,11.369582160682679Q25.15443964691162,11.369582160682679,25.363439646911623,11.160562160682678Q25.57243964691162,10.951542160682678,25.57243964691162,10.655942160682677L25.57243964691162,3.519532160682678Q25.57243964691162,3.2239321606826783,25.363439646911623,3.0149121606826785Q25.15443964691162,2.8058921606826783,24.85881964691162,2.8058921606826783L24.34517964691162,2.8058921606826783C24.23471964691162,2.8058921606826783,24.14517964691162,2.7163521606826784,24.14517964691162,2.605892160682678L24.14517964691162,1.5786121606826782C24.14517964691162,1.4681552606826782,24.23471964691162,1.3786121606826782,24.34517964691162,1.3786121606826782L24.85881964691162,1.3786121606826782Q25.74563964691162,1.3786121606826782,26.372639646911622,2.0056741606826782Q26.99973964691162,2.632732160682678,26.99973964691162,3.519532160682678L26.99973964691162,10.655942160682677Q26.99973964691162,11.542712160682678,26.372639646911622,12.169812160682678Q25.74563964691162,12.796912160682679,24.85881964691162,12.796812160682679ZM22.43160964691162,7.640582160682678C22.82573964691162,7.640582160682678,23.145249646911623,7.321072160682678,23.145249646911623,6.926942160682678C23.145249646911623,6.532812160682679,22.82573964691162,6.213302160682678,22.43160964691162,6.213302160682678L17.73156964691162,6.213302160682678L19.94016964691162,4.004712160682678C20.01826964691162,3.926602160682678,20.01826964691162,3.799972160682678,19.94016964691162,3.721862160682678L19.21391964691162,2.9956221606826783C19.13581964691162,2.917512160682678,19.009189646911622,2.917512160682678,18.93107964691162,2.9956221606826783L15.504298646911622,6.422402160682679L14.99975490571162,6.926942160682678L15.50429964691162,7.431492160682678L18.93107964691162,10.858272160682679C19.009189646911622,10.936372160682678,19.13581964691162,10.936372160682678,19.21391964691162,10.858272160682679L19.94016964691162,10.132022160682679C20.01826964691162,10.053922160682678,20.01826964691162,9.927282160682678,19.94016964691162,9.849182160682679L17.73156964691162,7.640582160682678L22.43160964691162,7.640582160682678Z" fill-rule="evenodd" fill="var(--el-color-primary)" fill-opacity="1" style="mix-blend-mode:passthrough"/></g></g></g></svg>