<svg xmlns="http://www.w3.org/2000/svg" xmlns:xlink="http://www.w3.org/1999/xlink" fill="var(--el-color-primary)" version="1.1" width="20" height="20" viewBox="0 0 20 20"><defs><clipPath id="master_svg0_38_93704"><rect x="0" y="0" width="20" height="20" rx="0"/></clipPath></defs><g clip-path="url(#master_svg0_38_93704)"><g><path d="M12.570940625,1.4635379276657106C12.447640625,1.3528559276657104,12.287840625,1.2916674455657104,12.122240625,1.2917479276657104L1.9776936250000001,1.2917479276657104C1.607080625,1.2917479276657104,1.306640625,1.5921879276657105,1.306640625,1.9628009276657106L1.306640625,15.01114792766571L1.309772255,15.07564792766571C1.343170025,15.419447927665711,1.6322026250000001,15.68184792766571,1.9776936250000001,15.68184792766571L3.481300625,15.68184792766571L3.481300625,17.62064792766571L3.483980625,17.68514792766571C3.517160625,18.02914792766571,3.806260625,18.29174792766571,4.151900625,18.29174792766571L17.200740625,18.29174792766571L17.265140625,18.28864792766571C17.609240625,18.25544792766571,17.871740625,17.966347927665712,17.871840625,17.62064792766571L17.871840625,7.45156792766571L17.868240625,7.384907927665711C17.850740625,7.2081079276657105,17.763840625,7.04545792766571,17.626640625,6.93261792766571L15.731540625,5.375777927665711L15.696740625,5.349827927665711L15.697140625,4.57229792766571C15.696940625,4.38195792766571,15.616040625,4.20063792766571,15.474340625,4.0734879276657106L12.570940625,1.4635379276657106ZM2.648300625,2.6334079276657105L4.2570306250000005,2.6334079276657105L4.257040625,2.6338579276657104L4.257040625,4.69711792766571L4.260170625000001,4.761987927665711C4.293580625000001,5.106027927665711,4.582870625,5.368407927665711,4.928540625,5.36816792766571L8.525380625,5.36816792766571L8.589800624999999,5.3650379276657105C8.933670625000001,5.33163792766571,9.195990625,5.04260792766571,9.195980625,4.69711792766571L9.195980625,2.6334079276657105L11.864540625,2.6334079276657105L14.354540625,4.8711379276657105L14.354540625,14.33964792766571L2.648300625,14.33964792766571L2.648300625,2.6334079276657105ZM5.599140625,2.6338579276657104L7.853880625,2.6338579276657104L7.853880625,4.02650792766571L5.599140625,4.02650792766571L5.599140625,2.6338579276657104ZM15.696740625,15.01114792766571L15.696740625,7.084277927665711L16.529240625,7.76829792766571L16.529240625,16.94964792766571L4.823400625,16.94964792766571L4.823400625,15.68184792766571L15.025640625,15.68224792766571C15.396240625,15.68224792766571,15.696740625,15.38184792766571,15.696740625,15.01114792766571ZM4.258610625,9.40103792766571C4.2412906249999995,9.043417927665711,4.5077606249999995,8.73518792766571,4.864120625,8.70063792766571L4.928540625,8.697507927665711L12.122640625,8.697507927665711C12.480740625,8.69744792766571,12.775740625,8.978477927665711,12.793040625,9.33608792766571C12.810340625,9.69369792766571,12.543940625,10.00192792766571,12.187540625,10.036477927665711L12.122640625,10.039617927665711L4.928990625,10.039617927665711C4.570960625,10.039667927665711,4.2759406250000005,9.758647927665711,4.258610625,9.40103792766571ZM4.258600625,12.36324792766571C4.241400625,12.00574792766571,4.507840625,11.697647927665711,4.864120625,11.66314792766571L4.928540625,11.65994792766571L8.737440625,11.65994792766571C9.095380625,11.66014792766571,9.390170625,11.94124792766571,9.407370625,12.29874792766571C9.424580625,12.65634792766571,9.158130625,12.964447927665711,8.801860625,12.99894792766571L8.737440625,13.00204792766571L4.928540625,13.00204792766571C4.570600625,13.00194792766571,4.2758006250000005,12.72084792766571,4.258600625,12.36324792766571Z" fill-rule="evenodd" fill="var(--el-color-primary)" fill-opacity="1" style="mix-blend-mode:passthrough"/></g></g></svg>