<?xml version="1.0" encoding="UTF-8"?>
<svg width="18px" height="18px" viewBox="0 0 18 18" version="1.1" xmlns="http://www.w3.org/2000/svg" xmlns:xlink="http://www.w3.org/1999/xlink">
    <title>下载</title>
    <g id="下载" stroke="none" stroke-width="1"  fill-rule="evenodd">
        <path d="M15.005,10.48 C15.0394667,10.48 15.0736,10.4833627 15.1074,10.490088 C15.1412,10.4968133 15.1740333,10.5067717 15.2059,10.519963 C15.2377667,10.533155 15.2680333,10.5493267 15.2967,10.568478 C15.3253667,10.58763 15.3518667,10.6093937 15.3762,10.633769 C15.4006,10.6581443 15.4223667,10.6846633 15.4415,10.713326 C15.4606333,10.741988 15.4768,10.772243 15.49,10.804091 C15.5032,10.835939 15.5131667,10.868768 15.5199,10.902578 C15.5266333,10.9363873 15.53,10.970528 15.53,11.005 L15.5251312,11.7783975 C15.5153937,12.4827025 15.49105,12.97973 15.4521,13.26948 C15.3630333,13.9315267 15.1423333,14.4385133 14.79,14.79044 C14.4384,15.1424867 13.9315667,15.36303 13.2695,15.45207 L13.0456194,15.4758819 C12.6213065,15.5119606 11.9411,15.53 11.005,15.53 L7.005,15.53 C5.88168,15.53 5.12685333,15.5040233 4.74052,15.45207 C4.07847133,15.36303 3.571484,15.1423467 3.219558,14.79002 C2.867512,14.4383733 2.64697067,13.9315233 2.557934,13.26947 L2.53412083,13.0455986 C2.49804028,12.6212995 2.48,11.9411 2.48,11.005 C2.48,10.970528 2.48336267,10.9363873 2.490088,10.902578 C2.49681333,10.868768 2.50677167,10.835939 2.519963,10.804091 C2.533155,10.772243 2.54932667,10.741988 2.568478,10.713326 C2.58763,10.6846633 2.60939367,10.6581443 2.633769,10.633769 C2.65814433,10.6093937 2.68466333,10.58763 2.713326,10.568478 C2.741988,10.5493267 2.772243,10.533155 2.804091,10.519963 C2.835939,10.5067717 2.868768,10.4968133 2.902578,10.490088 C2.93638733,10.4833627 2.970528,10.48 3.005,10.48 C3.039472,10.48 3.07361267,10.4833627 3.107422,10.490088 C3.141232,10.4968133 3.174061,10.5067717 3.205909,10.519963 C3.237757,10.533155 3.268012,10.5493267 3.296674,10.568478 C3.32533667,10.58763 3.35185567,10.6093937 3.376231,10.633769 C3.40060633,10.6581443 3.42237,10.6846633 3.441522,10.713326 C3.46067333,10.741988 3.476845,10.772243 3.490037,10.804091 C3.50322833,10.835939 3.51318667,10.868768 3.519912,10.902578 C3.52663733,10.9363873 3.53,10.970528 3.53,11.005 L3.53190461,11.5125394 C3.53825331,12.3072876 3.56047378,12.8462811 3.598566,13.12952 C3.65604667,13.5569333 3.77733867,13.8630867 3.962442,14.04798 C4.147054,14.2328 4.45306667,14.35395 4.88048,14.41143 L5.08111389,14.4323819 C5.46665463,14.4641273 6.10795,14.48 7.005,14.48 L11.5125389,14.4780953 C12.3072852,14.4717462 12.8462722,14.4495244 13.1295,14.41143 C13.5569,14.35395 13.8630667,14.23266 14.048,14.04756 C14.2328,13.8629467 14.3539333,13.5569333 14.4114,13.12952 L14.4323611,12.9288833 C14.4641204,12.5433389 14.48,11.9020444 14.48,11.005 C14.48,10.970528 14.4833667,10.9363873 14.4901,10.902578 C14.4968333,10.868768 14.5068,10.835939 14.52,10.804091 C14.5331333,10.772243 14.5493,10.741988 14.5685,10.713326 C14.5876333,10.6846633 14.6094,10.6581443 14.6338,10.633769 C14.6581333,10.6093937 14.6846333,10.58763 14.7133,10.568478 C14.7419667,10.5493267 14.7722333,10.533155 14.8041,10.519963 C14.8359667,10.5067717 14.8688,10.4968133 14.9026,10.490088 C14.9364,10.4833627 14.9705333,10.48 15.005,10.48 Z M9.00516609,2.48 C9.03963276,2.48 9.07377276,2.48336333 9.10758609,2.49009 C9.14139276,2.49681667 9.17422276,2.50677667 9.20607609,2.51997 C9.23792276,2.53316333 9.26817609,2.54933333 9.29683609,2.56848 C9.32549609,2.58763333 9.35201609,2.60939667 9.37639609,2.63377 C9.40076943,2.65815 9.42253276,2.68467 9.44168609,2.71333 C9.46083943,2.74199 9.47700943,2.77224667 9.49019609,2.8041 C9.50338943,2.83594667 9.51334943,2.86877333 9.52007609,2.90258 C9.52680276,2.93639333 9.53016609,2.97053333 9.53016609,3.005 L9.53016609,10.31941 L11.2843661,8.40075 C11.3340928,8.34635667 11.3926761,8.3043 11.4601161,8.27458 C11.5275628,8.24486 11.5981328,8.23 11.6718261,8.23 C11.7062994,8.23 11.7404428,8.23336333 11.7742561,8.24009 C11.8080628,8.24681667 11.8408894,8.25677667 11.8727361,8.26997 C11.9045828,8.28315667 11.9348394,8.29932667 11.9635061,8.31848 C11.9921661,8.33763333 12.0186828,8.35939667 12.0430561,8.38377 C12.0674361,8.40815 12.0891994,8.43467 12.1083461,8.46333 C12.1274994,8.49199 12.1436728,8.52224333 12.1568661,8.55409 C12.1700594,8.58594333 12.1800194,8.61877333 12.1867461,8.65258 C12.1934661,8.68638667 12.1968261,8.72052667 12.1968261,8.755 C12.1968261,8.82056 12.1849628,8.88389667 12.1612361,8.94501 C12.1375094,9.00612333 12.1035294,9.06087333 12.0592961,9.10926 L9.39262609,12.025924 C9.34289943,12.0803153 9.28431609,12.122371 9.21687609,12.152091 C9.14942943,12.1818103 9.07885943,12.19667 9.00516609,12.19667 C8.93146609,12.19667 8.86089609,12.1818103 8.79345609,12.152091 C8.72601609,12.1223717 8.66742943,12.080316 8.61769609,12.025924 L5.95136709,9.10962 L5.91021276,9.05875222 C5.88527943,9.0236663 5.86490387,8.98575222 5.84908609,8.94501 C5.82535943,8.88389667 5.81349609,8.82056 5.81349609,8.755 C5.81349609,8.72053333 5.81685876,8.68639333 5.82358409,8.65258 C5.83030943,8.61877333 5.84026776,8.58594667 5.85345909,8.5541 C5.86665109,8.52224667 5.88282276,8.49199 5.90197409,8.46333 C5.92112609,8.43467 5.94288976,8.40815 5.96726509,8.38377 C5.99164043,8.35939667 6.01815943,8.33763333 6.04682209,8.31848 C6.07548409,8.29932667 6.10573909,8.28315667 6.13758709,8.26997 C6.16943509,8.25677667 6.20226409,8.24681667 6.23607409,8.24009 C6.26988343,8.23336333 6.30402409,8.23 6.33849609,8.23 C6.41219476,8.23 6.48276443,8.24486 6.55020509,8.27458 C6.61764643,8.3043 6.67623176,8.34635667 6.72596109,8.40075 L8.48016609,10.31941 L8.48016609,3.0055 L8.48268609,2.953545 L8.49024609,2.90258 C8.49697276,2.86877333 8.50693276,2.83594333 8.52012609,2.80409 C8.53331943,2.77224333 8.54948943,2.74199 8.56863609,2.71333 C8.58778943,2.68466333 8.60955609,2.65814333 8.63393609,2.63377 C8.65830943,2.60939667 8.68482609,2.58763333 8.71348609,2.56848 C8.74215276,2.54932667 8.77240943,2.53315667 8.80425609,2.51997 C8.83610276,2.50677667 8.86892943,2.49681667 8.90273609,2.49009 C8.93654943,2.48336333 8.97069276,2.48 9.00516609,2.48 Z" id="形状"></path>
    </g>
</svg>
