<svg xmlns="http://www.w3.org/2000/svg" xmlns:xlink="http://www.w3.org/1999/xlink" fill="var(--el-color-primary)" version="1.1" width="16" height="16" viewBox="0 0 16 16"><g transform="matrix(1,0,0,-1,0,32)"><g style="opacity:0;"><path d="M0 16C0 16 0 16 0 16L16 16C16 16 16 16 16 16L16 32C16 32 16 32 16 32L0 32C0 32 0 32 0 32Z" fill="#000000" fill-opacity="1"/></g><g><path d="M11.0625,22L12,22.9375L8,26.9375L4,22.9375L4.9375,22L8,25.0625L11.0625,22Z" fill-rule="evenodd" fill="var(--el-color-primary)" fill-opacity="1"/></g><g><path d="M1,24.00065C1,20.14049,4.1398399999999995,17,8,17C11.8602,17,15,20.14049,15,24.00065C15,27.8602,11.8602,31.0013,8,31.0013C4.1398399999999995,31.0013,1,27.8602,1,24.00065ZM2.30273,23.99992C2.30273,27.1411,4.85902,29.698,8.00017,29.698C11.1413,29.698,13.6976,27.1411,13.6976,24.00057C13.6976,20.85878,11.1413,18.30249,8.00017,18.30249C4.85902,18.30249,2.30273,20.85878,2.30273,23.99992Z" fill-rule="evenodd" fill="var(--el-color-primary)" fill-opacity="1"/></g></g></svg>