<?xml version="1.0" encoding="UTF-8"?>
<svg width="18px" height="18px" viewBox="0 0 18 18" version="1.1" xmlns="http://www.w3.org/2000/svg" xmlns:xlink="http://www.w3.org/1999/xlink">
    <title>删除</title>
    <g id="删除" stroke="none" stroke-width="1"  fill-rule="evenodd">
        <path d="M10.4322511,2.47695313 C10.4796978,2.47695313 10.5262844,2.48326846 10.5720111,2.49589913 C10.6177444,2.50852979 10.6609711,2.52701979 10.7016911,2.55136913 C10.7424111,2.57571846 10.7791544,2.60504879 10.8119211,2.63936013 C10.8446878,2.67367146 10.8722978,2.71172513 10.8947511,2.75352113 L11.7125117,4.27495313 L14.9995117,4.27539063 C15.0339784,4.27539063 15.0681117,4.27875329 15.1019117,4.28547863 C15.1357117,4.29220396 15.1685451,4.30216229 15.2004117,4.31535363 C15.2322784,4.32854563 15.2625451,4.34471763 15.2912117,4.36386963 C15.3198784,4.38302096 15.3463784,4.40478429 15.3707117,4.42915963 C15.3951117,4.45353496 15.4168784,4.48005396 15.4360117,4.50871663 C15.4551451,4.53737883 15.4713117,4.56763389 15.4845117,4.59948183 C15.4977117,4.6313298 15.5076784,4.6641586 15.5144117,4.69796823 C15.5211451,4.73177783 15.5245117,4.76591863 15.5245117,4.80039063 C15.5245117,4.83486263 15.5211451,4.86900329 15.5144117,4.90281263 C15.5076784,4.93662263 15.4977117,4.96945163 15.4845117,5.00129963 C15.4713117,5.03314763 15.4551451,5.06340263 15.4360117,5.09206463 C15.4168784,5.12072729 15.3951117,5.14724629 15.3707117,5.17162163 C15.3463784,5.19599696 15.3198784,5.21776029 15.2912117,5.23691163 C15.2625451,5.25606363 15.2322784,5.27223563 15.2004117,5.28542763 C15.1685451,5.29861896 15.1357117,5.30857729 15.1019117,5.31530263 C15.0681117,5.32202796 15.0339784,5.32539063 14.9995117,5.32539063 L14.0235117,5.32495313 L14.0240234,15.0007813 C14.0240234,15.0352479 14.0206601,15.0693813 14.0139334,15.1031813 C14.0072068,15.1369813 13.9972468,15.1698146 13.9840534,15.2016813 C13.9708668,15.2335479 13.9546968,15.2638146 13.9355434,15.2924813 C13.9163901,15.3211479 13.8946268,15.3476479 13.8702534,15.3719813 C13.8458801,15.3963813 13.8193601,15.4181479 13.7906934,15.4372813 C13.7620334,15.4564146 13.7317801,15.4725813 13.6999334,15.4857813 C13.6680868,15.4989813 13.6352568,15.5089479 13.6014434,15.5156813 C13.5676368,15.5224146 13.5334968,15.5257813 13.4990234,15.5257813 L4.49902344,15.5257813 C4.46455144,15.5257813 4.43041077,15.5224146 4.39660144,15.5156813 C4.36279144,15.5089479 4.32996244,15.4989813 4.29811444,15.4857813 C4.26626644,15.4725813 4.23601144,15.4564146 4.20734944,15.4372813 C4.17868677,15.4181479 4.15216777,15.3963813 4.12779244,15.3719813 C4.1034171,15.3476479 4.08165344,15.3211479 4.06250144,15.2924813 C4.0433501,15.2638146 4.02717844,15.2335479 4.01398644,15.2016813 C4.0007951,15.1698146 3.99083677,15.1369813 3.98411144,15.1031813 C3.9773861,15.0693813 3.97402344,15.0352479 3.97402344,15.0007813 L3.97351172,5.32495313 L2.99951172,5.32539063 C2.96503972,5.32539063 2.93089905,5.32202796 2.89708972,5.31530263 C2.86327972,5.30857729 2.83045072,5.29861896 2.79860272,5.28542763 C2.76675472,5.27223563 2.73649972,5.25606363 2.70783772,5.23691163 C2.67917505,5.21776029 2.65265605,5.19599696 2.62828072,5.17162163 C2.60390539,5.14724629 2.58214172,5.12072729 2.56298972,5.09206463 C2.54383839,5.06340263 2.52766672,5.03314763 2.51447472,5.00129963 C2.50128339,4.96945163 2.49132505,4.93662263 2.48459972,4.90281263 C2.47787439,4.86900329 2.47451172,4.83486263 2.47451172,4.80039063 C2.47451172,4.76591863 2.47787439,4.73177783 2.48459972,4.69796823 C2.49132505,4.6641586 2.50128339,4.6313298 2.51447472,4.59948183 C2.52766672,4.56763389 2.54383839,4.53737883 2.56298972,4.50871663 C2.58214172,4.48005396 2.60390539,4.45353496 2.62828072,4.42915963 C2.65265605,4.40478429 2.67917505,4.38302096 2.70783772,4.36386963 C2.73649972,4.34471763 2.76675472,4.32854563 2.79860272,4.31535363 C2.83045072,4.30216229 2.86327972,4.29220396 2.89708972,4.28547863 C2.93089905,4.27875329 2.96503972,4.27539063 2.99951172,4.27539063 L6.28851172,4.27495313 L7.12545209,2.74959413 C7.13676376,2.72895846 7.14933776,2.70925313 7.16317409,2.69047813 L7.20847009,2.63694413 C7.24119276,2.60311546 7.27780209,2.57420979 7.31829809,2.55022713 C7.35879476,2.52624379 7.40173976,2.50803579 7.44713309,2.49560313 C7.49252643,2.48316979 7.53875576,2.47695313 7.58582109,2.47695313 L10.4322511,2.47695313 Z M12.9740234,5.32578125 L11.4235117,5.32495313 L11.3991211,5.32695313 L5.02402344,5.32578125 L5.02402344,14.4757813 L12.9740234,14.4757813 L12.9740234,5.32578125 Z M7.79990234,7.27773438 C7.83437434,7.27773438 7.86851501,7.28109704 7.90232434,7.28782238 C7.93613434,7.29454771 7.96896334,7.30450604 8.00081134,7.31769738 C8.03265934,7.33088938 8.06291434,7.34706104 8.09157634,7.36621238 C8.12023901,7.38536438 8.14675801,7.40712804 8.17113334,7.43150338 C8.19550868,7.45587871 8.21727201,7.48239771 8.23642334,7.51106038 C8.25557534,7.53972238 8.27174734,7.56997738 8.28493934,7.60182538 C8.29813068,7.63367338 8.30808901,7.66650238 8.31481434,7.70031238 C8.32153968,7.73412171 8.32490234,7.76826238 8.32490234,7.80273438 L8.32490234,11.7027344 C8.32490234,11.7372077 8.32153968,11.7713477 8.31481434,11.8051544 C8.30808901,11.8389677 8.29813068,11.8717977 8.28493934,11.9036444 C8.27174734,11.935491 8.25557534,11.9657444 8.23642334,11.9944044 C8.21727201,12.023071 8.19550868,12.049591 8.17113334,12.0739644 C8.14675801,12.0983377 8.12023901,12.120101 8.09157634,12.1392544 C8.06291434,12.1584077 8.03265934,12.174581 8.00081134,12.1877744 C7.96896334,12.200961 7.93613434,12.2109177 7.90232434,12.2176444 C7.86851501,12.224371 7.83437434,12.2277344 7.79990234,12.2277344 C7.76543034,12.2277344 7.73128954,12.224371 7.69747994,12.2176444 C7.66367032,12.2109177 7.63084152,12.200961 7.59899354,12.1877744 C7.56714561,12.174581 7.53689054,12.1584077 7.50822834,12.1392544 C7.47956568,12.120101 7.45304668,12.0983377 7.42867134,12.0739644 C7.40429601,12.049591 7.38253268,12.023071 7.36338134,11.9944044 C7.34422934,11.9657444 7.32805734,11.935491 7.31486534,11.9036444 C7.30167401,11.8717977 7.29171568,11.8389677 7.28499034,11.8051544 C7.27826501,11.7713477 7.27490234,11.7372077 7.27490234,11.7027344 L7.27490234,7.80273438 C7.27490234,7.76826238 7.27826501,7.73412171 7.28499034,7.70031238 C7.29171568,7.66650238 7.30167401,7.63367338 7.31486534,7.60182538 C7.32805734,7.56997738 7.34422934,7.53972238 7.36338134,7.51106038 C7.38253268,7.48239771 7.40429601,7.45587871 7.42867134,7.43150338 C7.45304668,7.40712804 7.47956568,7.38536438 7.50822834,7.36621238 C7.53689054,7.34706104 7.56714561,7.33088938 7.59899354,7.31769738 C7.63084152,7.30450604 7.66367032,7.29454771 7.69747994,7.28782238 C7.73128954,7.28109704 7.76543034,7.27773438 7.79990234,7.27773438 Z M10.1993164,7.27773438 C10.2337884,7.27773438 10.2679291,7.28109704 10.3017384,7.28782238 C10.3355484,7.29454771 10.3683774,7.30450604 10.4002254,7.31769738 C10.4320734,7.33088938 10.4623284,7.34706104 10.4909904,7.36621238 C10.5196531,7.38536438 10.5461721,7.40712804 10.5705474,7.43150338 C10.5949227,7.45587871 10.6166861,7.48239771 10.6358374,7.51106038 C10.6549894,7.53972238 10.6711614,7.56997738 10.6843534,7.60182538 C10.6975447,7.63367338 10.7075031,7.66650238 10.7142284,7.70031238 C10.7209537,7.73412171 10.7243164,7.76826238 10.7243164,7.80273438 L10.7243164,11.7027344 C10.7243164,11.7372077 10.7209537,11.7713477 10.7142284,11.8051544 C10.7075031,11.8389677 10.6975447,11.8717977 10.6843534,11.9036444 C10.6711614,11.935491 10.6549894,11.9657444 10.6358374,11.9944044 C10.6166861,12.023071 10.5949227,12.049591 10.5705474,12.0739644 C10.5461721,12.0983377 10.5196531,12.120101 10.4909904,12.1392544 C10.4623284,12.1584077 10.4320734,12.174581 10.4002254,12.1877744 C10.3683774,12.200961 10.3355484,12.2109177 10.3017384,12.2176444 C10.2679291,12.224371 10.2337884,12.2277344 10.1993164,12.2277344 C10.1648444,12.2277344 10.1307036,12.224371 10.096894,12.2176444 C10.0630844,12.2109177 10.0302556,12.200961 9.99840761,12.1877744 C9.96655967,12.174581 9.93630461,12.1584077 9.90764241,12.1392544 C9.87897974,12.120101 9.85246074,12.0983377 9.82808541,12.0739644 C9.80371007,12.049591 9.78194674,12.023071 9.76279541,11.9944044 C9.74364341,11.9657444 9.72747141,11.935491 9.71427941,11.9036444 C9.70108807,11.8717977 9.69112974,11.8389677 9.68440441,11.8051544 C9.67767907,11.7713477 9.67431641,11.7372077 9.67431641,11.7027344 L9.67431641,7.80273438 C9.67431641,7.76826238 9.67767907,7.73412171 9.68440441,7.70031238 C9.69112974,7.66650238 9.70108807,7.63367338 9.71427941,7.60182538 C9.72747141,7.56997738 9.74364341,7.53972238 9.76279541,7.51106038 C9.78194674,7.48239771 9.80371007,7.45587871 9.82808541,7.43150338 C9.85246074,7.40712804 9.87897974,7.38536438 9.90764241,7.36621238 C9.93630461,7.34706104 9.96655967,7.33088938 9.99840761,7.31769738 C10.0302556,7.30450604 10.0630844,7.29454771 10.096894,7.28782238 C10.1307036,7.28109704 10.1648444,7.27773438 10.1993164,7.27773438 Z M10.1183111,3.52695313 L7.89674109,3.52695313 L7.48651172,4.27495313 L10.5195117,4.27495313 L10.1183111,3.52695313 Z" id="形状" ></path>
    </g>
</svg>
