<svg xmlns="http://www.w3.org/2000/svg" xmlns:xlink="http://www.w3.org/1999/xlink" version="1.1" width="16.001495361328125" height="16" viewBox="0 0 16.001495361328125 16"><g><path d="M0,8.00075Q0,4.69201,2.346,2.346Q4.69201,0,8.00075,0Q11.3096,0,13.6555,2.34522Q16.0015,4.69063,16.0015,7.99925Q16.0015,11.308,13.6555,13.654Q11.3095,16,8.00075,16Q4.22205,16,1.81902,13.078Q1.39889,12.5663,1.91077,12.146Q2.42226,11.7261,2.84254,12.2379Q4.84598,14.6771,8.00075,14.6771Q10.7618,14.6771,12.7194,12.7194Q14.6771,10.7618,14.6771,8.00075Q14.6771,5.23974,12.7194,3.28206Q10.7618,1.3244,8.00075,1.3244Q5.46141,1.3244,3.56265,3.01757Q2.08607,4.33429,1.57976,6.14694L1.99481,5.73189Q2.22906,5.49764,2.46331,5.49764Q2.69756,5.49764,2.93181,5.73189Q3.12588,5.92597,3.12588,6.20039Q3.12588,6.47481,2.93181,6.66889L1.1307,8.47Q0.815687,8.7801,0.409446,8.61368Q0,8.44105,0,8.00075ZM5.60027,7.80359Q4.93732,7.80359,4.93732,7.14065Q4.93732,6.4777,5.60027,6.4777L6.56256,6.4777L5.15506,4.75005Q4.947,4.49665,4.96906,4.26518Q4.99138,4.03099,5.24927,3.81925Q5.76003,3.39989,6.18104,3.91267L7.95378,6.09026L9.68282,3.9577Q9.85404,3.74422,10.1287,3.71578Q10.4016,3.68754,10.6143,3.85989Q10.8278,4.03114,10.8562,4.30585Q10.8845,4.57872,10.7121,4.79136L9.34588,6.4747L10.3113,6.4747Q10.5857,6.4747,10.78,6.66896Q10.9743,6.86323,10.9743,7.13765Q10.9743,7.8006,10.3113,7.8006L8.61874,7.8006L8.61874,8.2878L10.4027,8.2878Q11.0657,8.2878,11.0657,8.95075Q11.0657,9.6137,10.4027,9.6137L8.61874,9.6137L8.61874,11.6719Q8.61874,11.9463,8.42448,12.1406Q8.23022,12.3348,7.9558,12.3348Q7.29285,12.3348,7.29285,11.6719L7.29285,9.61669L5.69017,9.61669Q5.02723,9.61669,5.02723,8.95374Q5.02723,8.2908,5.69017,8.2908L7.29285,8.2908L7.29285,7.80359L5.60027,7.80359Z" fill-rule="evenodd" fill-opacity="1"/></g></svg>