<svg xmlns="http://www.w3.org/2000/svg" xmlns:xlink="http://www.w3.org/1999/xlink" fill="var(--el-color-primary)" version="1.1" width="24" height="24" viewBox="0 0 24 24"><g><g><path d="M14.68948125,13.753438828125Q14.66568125,13.745878828125,14.64198125,13.738708828125Q14.84688125,11.501318828125001,15.44008125,10.038698828125Q16.11798125,8.371288828125,15.48948125,6.617868828125Q14.65858125,4.300048649311,12.00078125,4.300048828125Q9.34532125,4.300048410892,8.49480125,6.612648828125Q7.84634125,8.375838828125,8.524471250000001,10.041148828125Q9.14909125,11.579788828125,9.35878125,13.738958828125Q9.335631249999999,13.745958828125,9.31249125,13.753318828125L5.80610125,14.866648828125Q4.30078125,15.341248828125,4.3007813096046,17.029148828125003L4.3007813096046,18.967348828124997C4.3007813096046,19.353948828125,4.61418225,19.667348828125,5.00078125,19.667348828125L19.00078125,19.667348828125C19.18648125,19.667348828125,19.36448125,19.593648828124998,19.49578125,19.462348828125002C19.62698125,19.331048828125,19.70078125,19.153048828125,19.70078125,18.967348828124997L19.70078125,17.029148828125003Q19.70078125,15.341248828125,18.19688125,14.867048828125L14.68948125,13.753438828125ZM14.14277125,9.512508828125Q13.47379125,11.161948828125,13.24879125,13.600708828125L10.75190125,13.600708828125Q10.52195125,11.239598828125,9.82109125,9.513158828125Q9.347491250000001,8.350108828125,9.80876125,7.095888828125Q10.322111249999999,5.700048828125,12.00078125,5.700048828125Q13.67323125,5.700048828125,14.17159125,7.090288828125Q14.61948125,8.339858828125,14.14277125,9.512508828125ZM18.30078125,17.029148828125003Q18.30078125,16.367748828125002,17.77318125,16.201448828125002L14.26498125,15.087548828125Q13.99210125,15.000748828125,13.70878125,15.000748828125L10.29278125,15.000748828125Q10.009461250000001,15.000748828125,9.73617125,15.087648828125L6.22702125,16.201848828125Q5.70078125,16.367748828125002,5.70078125,17.029148828125003L5.70078125,18.267348828125L18.30078125,18.267348828125L18.30078125,17.029148828125003Z" fill-rule="evenodd" fill="var(--el-color-primary)" fill-opacity="1" style="mix-blend-mode:passthrough"/></g></g></svg>