<svg xmlns="http://www.w3.org/2000/svg" xmlns:xlink="http://www.w3.org/1999/xlink" fill="var(--el-color-primary)" version="1.1" width="40" height="40" viewBox="0 0 40 40"><defs><clipPath id="master_svg0_37_85334"><rect x="0" y="0" width="40" height="40" rx="0"/></clipPath><linearGradient x1="0.5" y1="0" x2="0.5" y2="1" id="master_svg1_sa7_31586"><stop offset="0%" stop-color="var(--el-color-primary)" stop-opacity="1"/><stop offset="100%" stop-color="var(--el-color-primary)" stop-opacity="1"/></linearGradient></defs><g clip-path="url(#master_svg0_37_85334)"><g><path d="M34.93080625,14.950899743652343C34.86280625,15.244899743652343,34.70090625,15.670799743652344,34.474906250000004,16.186699743652344L34.480906250000004,16.186699743652344L34.45490625,16.236699743652345Q33.123206249999996,19.230099743652342,29.64580625,25.101099743652345L29.62980625,25.065099743652343L28.61200625,26.922699743652345L33.51110625,26.922699743652345L24.15080625,39.996299743652344L26.27440625,31.103899743652345L22.42110625,31.103899743652345L23.76090625,25.224999743652344C22.67510625,25.502999743652342,21.39530625,25.876899743652345,19.88160625,26.390799743652344Q17.83000625,27.654599743652344,13.96871625,23.963299743652342Q11.36519625,21.551699743652343,12.87491625,20.953799743652343C13.51879625,20.699899743652345,15.99030625,20.373899743652345,17.94000625,20.097999743652345Q20.56950625,19.721999743652344,22.18720625,19.526099743652345Q14.07668625,19.656099743652344,12.15304625,19.334099743652345C10.22940625,19.016199743652344,7.7838562499999995,15.640799743652344,7.26794625,12.679399743652343Q6.46209625,11.049699743652344,8.99562625,11.819499743652344Q11.52716625,12.593399743652343,22.01320625,14.820999743652344Q8.371746250000001,10.427799743652344,7.465916249999999,9.357959743652344C6.56007625,8.288159743652344,4.79440625,3.509049743652344,5.02436355,0.5735897436523437Q5.12434525,-0.15827525634765624,5.83821325,0.03768864365234375Q15.91830625,4.876789743652344,22.81110625,7.526299743652344C29.70980625,10.173799743652344,35.706706249999996,11.521599743652343,34.93080625,14.950899743652343Z" fill="url(#master_svg1_sa7_31586)" fill-opacity="1"/></g></g></svg>