<svg xmlns="http://www.w3.org/2000/svg" xmlns:xlink="http://www.w3.org/1999/xlink" version="1.1" width="24" height="24" viewBox="0 0 24 24"><defs><clipPath id="master_svg0_3_015447"><rect x="2.399999976158142" y="2.399999976158142" width="19.200000047683716" height="19.200000047683716" rx="0"/></clipPath></defs><g clip-path="url(#master_svg0_3_015447)"><path d="M2.89999998,6.9000001L2.89999998,17.1Q2.89999968,18.756854,4.07157272,19.928427Q5.2431452,21.1,6.9000001,21.1L17.1,21.1Q18.756854,21.1,19.928427,19.928427Q21.1,18.756854,21.1,17.1L21.1,6.9000001Q21.1,5.2431453,19.928427,4.07157278Q18.756854,2.89999998,17.1,2.89999998L6.9000001,2.89999962Q5.2431458,2.8999998,4.0715729,4.07157278Q2.89999998,5.2431458,2.89999998,6.9000001ZM4.920101,19.079898Q4.09999985,18.259796,4.09999961,17.1L4.1000000199999995,6.9000001Q4.1000000199999995,5.7402017,4.920101,4.9201008999999996Q5.740202200000001,4.09999973,6.9000001,4.09999961L17.1,4.1000000199999995Q18.259796,4.1000000199999995,19.079898,4.920101Q19.9,5.7402027,19.9,6.9000001L19.9,17.1Q19.9,18.259796,19.079898,19.079898Q18.259796,19.9,17.1,19.9L6.9000001,19.9Q5.7402027,19.9,4.920101,19.079898Z" fill-rule="evenodd"  fill-opacity="1"/><ellipse cx="8.849609375" cy="8.8515625" rx="1.949999988079071" ry="1.949999988079071" fill-opacity="0" stroke-opacity="1" stroke="#718096" fill="none" stroke-width="1.2000000476837158" stroke-linecap="ROUND" stroke-linejoin="round"/><path d="M20.144711,16.947192700000002Q20.400001,17.2335472,20.400001,17.4120193Q20.4,17.4711142,20.41153,17.5290732Q20.423057999999997,17.5870323,20.445671,17.6416287Q20.468286,17.6962252,20.501117999999998,17.7453604Q20.533949,17.7944961,20.575736,17.836282699999998Q20.617521,17.8780689,20.666656,17.9109001Q20.715792,17.9437313,20.770389,17.9663458Q20.824986000000003,17.9889603,20.882946,18.0004897Q20.940905,18.0120187,21.000000999999997,18.0120187Q21.059095,18.0120187,21.117054,18.0004892Q21.175013,17.9889603,21.229609,17.9663458Q21.284204000000003,17.9437313,21.33334,17.9109001Q21.382476,17.8780689,21.424263,17.836282699999998Q21.466048999999998,17.7944961,21.49888,17.7453609Q21.531712,17.6962252,21.554327,17.6416287Q21.576940999999998,17.5870323,21.58847,17.5290728Q21.599999,17.4711142,21.6,17.4120193Q21.6,16.7763019,21.040433,16.148643Q21.027086,16.133672699999998,21.019303999999998,16.1249347L17.492205,12.18169081Q16.7912416,11.39783734,15.7502174,11.40000486Q14.7096581,11.40217161,14.011950500000001,12.18829879L14.0113802,12.1889416L14.0113301,12.18899803L6.55108047,20.6019154Q6.47189659,20.6912098,6.43291217,20.8040104Q6.39392769,20.916811,6.40107769,21.0359449Q6.4082276799999995,21.155077,6.46042377,21.262406300000002Q6.51261982,21.3697348,6.6019155099999995,21.4489193Q6.69121119,21.5281029,6.80401206,21.5670881Q6.916812919,21.606072400000002,7.035946023,21.5989227Q7.15507902,21.5917721,7.26240733,21.5395756Q7.36973566,21.48738,7.44891953,21.3980846L14.9091196,12.98522341L14.9091697,12.98516697Q15.2499142,12.6010493,15.7527151,12.60000229Q16.2555151,12.59895539,16.5977945,12.98171049L20.123196999999998,16.9230533Q20.129199,16.9297924,20.144711,16.947192700000002Z" fill-rule="evenodd"  fill-opacity="1"/></g></svg>
