<svg xmlns="http://www.w3.org/2000/svg" xmlns:xlink="http://www.w3.org/1999/xlink" version="1.1" width="14" height="14" viewBox="0 0 14 14"><defs><clipPath id="master_svg0_33_12013"><rect x="-0.6000000238418579" y="-0.6000000238418579" width="15.200000047683716" height="15.200000047683716" rx="0"/></clipPath></defs><g clip-path="url(#master_svg0_33_12013)"><path d="M1.39999998,3.9999998000000003L1.39999998,9.999998999999999Q1.4000000400000001,10.8651781,1.44198167,11.1772461Q1.52393824,11.7864656,1.86873554,12.131264Q2.21353355,12.476062,2.82275409,12.558019Q3.1348225000000003,12.6,3.9999998000000003,12.6Q4.8651769,12.6,5.1772451,12.558019Q5.7864666,12.476062,6.1312637,12.131264Q6.4760613,11.7864656,6.5580182,11.1772451Q6.5999994,10.86518,6.5999994,9.999998999999999L6.5999994,3.9999998000000003Q6.5999994,3.1348195,6.5580182,2.82275426Q6.4760613,2.21353343,6.1312633,1.86873566Q5.7864656,1.52393824,5.1772451,1.44198161Q4.8651772,1.39999998,3.9999998000000003,1.4000000400000001Q3.1348218,1.4000000400000001,2.82275403,1.44198161Q2.21353316,1.52393839,1.86873575,1.86873575Q1.5239383,2.21353331,1.44198161,2.82275414Q1.39999998,3.1348225000000003,1.39999998,3.9999998000000003ZM2.71726388,11.2827358Q2.60000008,11.165472,2.60000008,9.999998999999999L2.60000002,3.9999998000000003Q2.60000002,2.83452773,2.71726412,2.7172637Q2.83452779,2.60000008,3.9999992,2.60000008Q5.1654713,2.60000002,5.2827356000000005,2.71726424Q5.3999994000000004,2.83452803,5.3999994000000004,3.9999998000000003L5.3999994000000004,9.999998999999999Q5.3999994000000004,11.1654711,5.282735300000001,11.2827358Q5.1654716,11.3999996,3.9999998000000003,11.3999996Q2.83452749,11.3999996,2.71726388,11.2827358Z" style="mix-blend-mode:passthrough"/><path d="M7.3999999800000005,3.9999998000000003L7.3999999800000005,9.999999500000001Q7.3999999800000005,10.8651772,7.44198167,11.1772461Q7.52393827,11.7864656,7.8687363,12.131264Q8.21353436,12.476062,8.8227545,12.558019Q9.1348228,12.6,10,12.6Q10.8651772,12.6,11.1772456,12.558019Q11.7864661,12.476062,12.1312642,12.131264Q12.476062299999999,11.7864656,12.5580187,11.1772461Q12.5999999,10.865181,12.5999999,9.999999500000001L12.5999999,3.9999998000000003Q12.5999999,3.1348194,12.5580187,2.8227542Q12.4760618,2.21353343,12.1312637,1.8687356099999999Q11.7864661,1.52393827,11.1772456,1.44198161Q10.8651774,1.39999998,10,1.39999992Q9.1348228,1.39999992,8.82275403,1.44198167Q8.21353379,1.52393836,7.86873627,1.86873576Q7.52393848,2.21353322,7.44198167,2.8227542Q7.3999999800000005,3.1348225999999997,7.3999999800000005,3.9999998000000003ZM8.71726465,11.2827358Q8.60000002,11.1654711,8.60000002,9.999998999999999L8.60000002,3.9999998000000003Q8.60000002,2.83452809,8.71726412,2.71726418Q8.83452845,2.59999996,9.9999988,2.59999996Q11.1654716,2.60000002,11.282736100000001,2.71726424Q11.4000001,2.83452803,11.4000001,3.9999998000000003L11.4000001,9.999999500000001Q11.4000001,11.1654711,11.282735800000001,11.2827358Q11.165472,11.3999996,10,11.3999996Q8.83452833,11.3999996,8.71726465,11.2827358Z" style="mix-blend-mode:passthrough"/></g></svg>
