<svg xmlns="http://www.w3.org/2000/svg" xmlns:xlink="http://www.w3.org/1999/xlink" version="1.1" width="24" height="24" viewBox="0 0 24 24"><defs><clipPath id="master_svg0_19_21281"><rect x="3" y="3" width="18" height="18" rx="0"/></clipPath></defs><g clip-path="url(#master_svg0_19_21281)"><g><path d="M12,21Q12.2209377,21,12.4416094,20.989159Q12.662281,20.978317,12.8821554,20.956663Q13.102028,20.935007,13.320575,20.902588Q13.53912,20.870171,13.755813,20.827066Q13.972505,20.783962,14.186821,20.73028Q14.401138,20.676598,14.612562,20.612463Q14.823986,20.548328,15.032008,20.473896Q15.24003,20.399464,15.44415,20.314915Q15.64827,20.230364,15.847996,20.1359Q16.047721,20.041439,16.242570999999998,19.93729Q16.43742,19.833141,16.626925,19.719555Q16.816429,19.605972,17.000132,19.483225Q17.183833999999997,19.360477,17.361293,19.228865Q17.538752000000002,19.097254,17.709539,18.957092Q17.880326,18.816931,18.04403,18.668558Q18.207732999999998,18.520184999999998,18.36396,18.36396Q18.520184999999998,18.207732999999998,18.668559000000002,18.04403Q18.816931,17.880326,18.957093,17.709539Q19.097254,17.538752000000002,19.228867,17.361293Q19.360477,17.183833999999997,19.483225,17.000132Q19.605972,16.816429,19.719555,16.626925Q19.833141,16.43742,19.93729,16.24257Q20.041439,16.047719999999998,20.1359,15.847995Q20.230364,15.64827,20.314915,15.444149Q20.399464,15.240029,20.473896,15.032007Q20.548328,14.823986,20.612463,14.612562Q20.676598,14.401138,20.730282,14.186821Q20.783964,13.972504,20.827068,13.755812Q20.870171,13.53912,20.902588,13.320574Q20.935007,13.102028,20.956663,12.8821545Q20.978317,12.662281,20.989159,12.4416094Q21,12.2209377,21,12Q21,11.7790623,20.989159,11.5583916Q20.978317,11.337719,20.956663,11.1178455Q20.935007,10.8979716,20.902588,10.6794257Q20.870171,10.4608793,20.827066,10.244186899999999Q20.783962,10.0274944,20.73028,9.8131781Q20.676598,9.5988617,20.612463,9.3874383Q20.548328,9.176013900000001,20.473896,8.967991399999999Q20.399464,8.7599688,20.314915,8.5558491Q20.230364,8.3517294,20.1359,8.1520038Q20.041439,7.9522791,19.93729,7.7574296Q19.833141,7.5625796,19.719555,7.373075Q19.605972,7.1835704,19.483225,6.999867399999999Q19.360477,6.8161645,19.228865,6.638706Q19.097254,6.4612472,18.957092,6.290460100000001Q18.816931,6.1196733000000005,18.668558,5.9559693Q18.520184999999998,5.7922654,18.36396,5.6360388Q18.207732999999998,5.4798124,18.04403,5.3314397Q17.880326,5.183067299999999,17.709539,5.042906Q17.538752000000002,4.9027445,17.361293,4.7711321Q17.183833999999997,4.6395197,17.000132,4.5167732Q16.816429,4.3940269999999995,16.626925,4.2804424Q16.43742,4.1668576999999996,16.24257,4.0627085Q16.047719999999998,3.95855922,15.847995,3.86409616Q15.64827,3.76963323,15.444149,3.6850841Q15.240029,3.60053492,15.032007,3.52610332Q14.823986,3.45167172,14.612562,3.38753694Q14.401138,3.32340217,14.186821,3.26971871Q13.972504,3.21603525,13.755812,3.17293245Q13.53912,3.12982966,13.320574,3.097411394Q13.102028,3.064993128,12.8821545,3.043337457Q12.662281,3.021681786,12.4416094,3.010840893Q12.2209377,3,12,3Q11.7790623,3,11.5583916,3.010840893Q11.337719,3.021681786,11.1178455,3.043337457Q10.8979716,3.064993128,10.6794257,3.097411394Q10.4608793,3.12982966,10.244186899999999,3.17293245Q10.0274944,3.21603525,9.8131781,3.26971871Q9.5988617,3.32340217,9.3874383,3.38753694Q9.176013900000001,3.45167172,8.967991399999999,3.52610338Q8.7599688,3.60053492,8.5558491,3.6850841Q8.3517294,3.76963323,8.1520038,3.86409622Q7.9522791,3.95855927,7.7574296,4.0627086Q7.5625796,4.1668578,7.373075,4.2804424999999995Q7.1835704,4.3940269999999995,6.999867399999999,4.5167733000000005Q6.8161645,4.6395197,6.638706,4.771132Q6.4612472,4.9027444,6.290460100000001,5.0429058Q6.1196733000000005,5.183067100000001,5.9559693,5.3314397Q5.7922654,5.4798124,5.6360388,5.6360388Q5.4798124,5.7922654,5.3314397,5.9559693Q5.183067299999999,6.1196733000000005,5.042906,6.290460100000001Q4.9027445,6.4612472,4.7711321,6.6387057Q4.6395197,6.8161645,4.5167732,6.999867399999999Q4.3940269999999995,7.1835699,4.2804424,7.3730745Q4.1668576999999996,7.5625792,4.0627085,7.7574291Q3.95855922,7.9522781,3.86409616,8.1520033Q3.76963323,8.351728399999999,3.6850841,8.555848600000001Q3.60053492,8.7599683,3.52610332,8.9679909Q3.45167172,9.176013900000001,3.38753694,9.3874383Q3.32340217,9.5988617,3.26971871,9.8131781Q3.21603525,10.0274944,3.17293245,10.244186899999999Q3.12982966,10.4608793,3.097411394,10.6794257Q3.064993128,10.8979721,3.043337457,11.1178465Q3.021681786,11.3377199,3.010840893,11.5583916Q3,11.7790623,3,12Q3,12.2209377,3.010840893,12.4416094Q3.021681786,12.662281,3.043337457,12.8821554Q3.064993128,13.102028,3.097411394,13.320575Q3.12982966,13.53912,3.17293245,13.755813Q3.21603525,13.972505,3.26971871,14.186821Q3.32340217,14.401138,3.38753694,14.612562Q3.45167172,14.823986,3.52610338,15.032008Q3.60053492,15.24003,3.6850841,15.44415Q3.76963323,15.64827,3.86409622,15.847996Q3.95855927,16.047721,4.0627086,16.242570999999998Q4.1668578,16.43742,4.2804424999999995,16.626925Q4.3940269999999995,16.816429,4.5167733000000005,17.000132Q4.6395197,17.183833999999997,4.771132,17.361293Q4.9027444,17.538752000000002,5.0429058,17.709539Q5.183067100000001,17.880326,5.3314397,18.04403Q5.4798124,18.207732999999998,5.6360388,18.36396Q5.7922654,18.520184999999998,5.9559693,18.668559000000002Q6.1196733000000005,18.816931,6.290460100000001,18.957093Q6.4612472,19.097254,6.6387057,19.228867Q6.8161645,19.360477,6.999867399999999,19.483225Q7.1835699,19.605972,7.3730745,19.719555Q7.5625792,19.833141,7.7574291,19.93729Q7.9522781,20.041439,8.1520033,20.1359Q8.351728399999999,20.230364,8.555848600000001,20.314915Q8.7599683,20.399464,8.9679909,20.473896Q9.176013900000001,20.548328,9.3874383,20.612463Q9.5988617,20.676598,9.8131781,20.730282Q10.0274944,20.783964,10.244186899999999,20.827068Q10.4608793,20.870171,10.6794257,20.902588Q10.8979721,20.935007,11.1178465,20.956663Q11.3377199,20.978317,11.5583916,20.989159Q11.7790623,21,12,21ZM12.0001116,19.457254C16.118578,19.457254,19.457254,16.118578,19.457254,12.0001116C19.457254,7.8816452,16.118578,4.5429688,12.0001116,4.5429688C7.8816452,4.5429688,4.5429688,7.8816452,4.5429688,12.0001116C4.5429688,16.118578,7.8816452,19.457254,12.0001116,19.457254Z" fill-rule="evenodd"/></g><g><path d="M11.999721025,20.485183559921264C9.676178225,20.485183559921264,8.142578125,16.650670559921267,8.142578125,11.999469559921264C8.142578125,7.348269959921264,9.676178225,3.5137555599212646,11.999721025,3.5137555599212646C14.323264125,3.5137555599212646,15.856864025,7.348269959921264,15.856864025,11.999469559921264C15.856864025,16.650670559921267,14.323264125,20.485183559921264,11.999721025,20.485183559921264ZM12.000809225,18.942438559921264C13.085951825,18.942438559921264,14.315094925,15.869066559921265,14.315094925,11.999582059921265C14.315094925,8.130095759921264,13.085951825,5.056724359921264,12.000809225,5.056724359921264C10.915666325,5.056724359921264,9.686523425,8.130095759921264,9.686523425,11.999582059921265C9.686523425,15.869066559921265,10.915666325,18.942438559921264,12.000809225,18.942438559921264Z"/></g><g><path d="M5.4199218375000004,7.33517765C5.5620072375,7.4636356500000005,5.7099354375,7.58547905,5.8632362375,7.7003204499999995C7.4575219375,8.894491949999999,9.8674650375,9.59186335,12.4615221375,9.59186335C14.6647214375,9.59186335,16.7403794375,9.089920750000001,18.2996944375,8.19712065C18.6819984375,7.98157235,19.0429374375,7.7301547500000005,19.3776364375,7.44626355L18.375808437499998,6.272663392C18.1320374375,6.48146343,17.8502084375,6.67792055,17.5334074375,6.85894912C16.2188934375,7.61083485,14.4065504375,8.05003475,12.4615221375,8.05003475C10.1832366375,8.05003475,8.0962648375,7.44523485,6.7889504375000005,6.46603483C6.6696362375,6.37654911,6.5575218374999995,6.28397768,6.4546647375,6.19140625L5.4199218375000004,7.33517765ZM3.5146484375,12.76941965L3.5146484375,11.22656245L20.4860764375,11.22656245L20.4860764375,12.76941965L3.5146484375,12.76941965ZM6.4546647375,17.822332250000002L5.4199218375000004,16.67856025C5.5620043374999995,16.550099250000002,5.7099328375,16.42825625,5.8632362375,16.31341725C7.4575219375,15.11924645,9.8674650375,14.42187505,12.4615221375,14.42187505C14.6647214375,14.42187505,16.7403794375,14.92381765,18.2996944375,15.81661795C18.6816364375,16.03274155,19.0425224375,16.28412225,19.3776364375,16.56747525L18.375808437499998,17.74107525C18.1320374375,17.532275249999998,17.8502084375,17.335818250000003,17.5334074375,17.15478925C16.2188934375,16.40290325,14.4065504375,15.96370315,12.4615221375,15.96370315C10.1832366375,15.96370315,8.0962648375,16.56850325,6.7889504375000005,17.547703249999998C6.6696362375,17.63718925,6.5575218374999995,17.72873225,6.4546647375,17.822332250000002Z"/></g></g></svg>
