<?xml version="1.0" standalone="no"?><!DOCTYPE svg PUBLIC "-//W3C//DTD SVG 1.1//EN" "http://www.w3.org/Graphics/SVG/1.1/DTD/svg11.dtd"><svg t="1756191968034" class="icon" viewBox="0 0 1024 1024" version="1.1" xmlns="http://www.w3.org/2000/svg" p-id="62709" xmlns:xlink="http://www.w3.org/1999/xlink" width="200" height="200"><path d="M224 208a36 36 0 1 0 0 72h460a36 36 0 1 0 0-72zM224 418a36 36 0 1 0 0 72h360a36 36 0 1 0 0-72zM224 628a36 36 0 1 0 0 72h220a36 36 0 1 0 0-72z" p-id="62710"></path><path d="M613.96 553.356a67.668 67.668 0 0 0-86.72 78.82l49.792 229.032a67.668 67.668 0 0 0 111.624 35.692l173.444-157.64a67.668 67.668 0 0 0-24.896-114.516z" p-id="62711"></path><path d="M763.58 762.992a40.6 40.6 0 0 0-28.28 69.712l135.32 135.32a40.6 40.6 0 1 0 57.4-57.408l-135.32-135.32a40.6 40.6 0 0 0-29.12-12.304z" p-id="62712"></path><path d="M181.876 30.804c-68.356 0-121.548 59.764-121.548 129.44v712.192c0 69.676 53.192 129.44 121.548 129.44h406.4a33.2 33.2 0 1 0 0-66.392h-406.4c-29.536 0-55.16-26.08-55.16-63.048V160.244c0-36.964 25.624-63.048 55.16-63.048h653.772c29.536 0 55.16 26.08 55.16 63.048v461.968a33.2 33.2 0 1 0 66.388 0V160.24c0-69.676-53.196-129.44-121.548-129.44z" p-id="62713"></path></svg>